<svg xmlns="http://www.w3.org/2000/svg" xmlns:xlink="http://www.w3.org/1999/xlink" width="323.482" height="244.441" viewBox="0 0 323.482 244.441">
  <defs>
    <linearGradient id="linear-gradient" x1="0.5" y1="1" x2="0.5" gradientUnits="objectBoundingBox">
      <stop offset="0" stop-color="gray" stop-opacity="0.251"/>
      <stop offset="0.54" stop-color="gray" stop-opacity="0.122"/>
      <stop offset="1" stop-color="gray" stop-opacity="0.102"/>
    </linearGradient>
    <linearGradient id="linear-gradient-2" x1="0.5" x2="0.5" y2="0" xlink:href="#linear-gradient"/>
    <linearGradient id="linear-gradient-3" x1="0.5" x2="0.5" y2="0" xlink:href="#linear-gradient"/>
    <linearGradient id="linear-gradient-4" x1="1.096" x2="1.096" y2="0" xlink:href="#linear-gradient"/>
    <linearGradient id="linear-gradient-5" x1="0.5" x2="0.5" y2="0" xlink:href="#linear-gradient"/>
  </defs>
  <g id="Gruppe_26" data-name="Gruppe 26" transform="translate(0.013 -0.004)">
    <path id="Pfad_314" data-name="Pfad 314" d="M43.44,426.65c5.118,19.946,15.954,37.188,33.079,45.544,35.6,17.37,115.851,8.41,175.751-1.871,30.992-5.32,58.214-19.988,78-40.659Z" transform="translate(-39.958 -311.064)" fill="#049ce7" opacity="0.1"/>
    <path id="Pfad_315" data-name="Pfad 315" d="M378.387,41.843H345.521a2.6,2.6,0,1,1,0-5.181h5.687a2.6,2.6,0,1,1,0-5.178H347.15a2.6,2.6,0,1,1,0-5.181H364.3a48.6,48.6,0,0,0-13.381-3.361c-46.775-5.479-63.477-1.857-69.377,1.871a68.839,68.839,0,0,1-24.04,9.608c-28.86,5.428-82.831,11.959-131.751-2.093-24.313-6.98-42.382,4.834-53.215,24.541H384.093a42.874,42.874,0,0,0-3.858-15.658A2.98,2.98,0,0,1,378.387,41.843Z" transform="translate(-60.784 -20.14)" fill="#049ce7" opacity="0.1"/>
    <path id="Pfad_316" data-name="Pfad 316" d="M31.853,280.23a120.539,120.539,0,0,0,1.277,34.8l288.562,9.622a123.159,123.159,0,0,0,20.048-27.864Zm114.122,24.825h-5.687a2.6,2.6,0,1,1,0,5.178H107.437a2.6,2.6,0,1,1,0-5.178h5.687a2.6,2.6,0,1,1,0-5.181H109.06a2.6,2.6,0,1,1,0-5.178h32.866a2.6,2.6,0,1,1,0,5.178h4.049a2.6,2.6,0,1,1,0,5.181Z" transform="translate(-31.16 -206.276)" fill="#049ce7" opacity="0.1"/>
    <path id="Pfad_317" data-name="Pfad 317" d="M356.368,149.94,41.329,156.926a105.813,105.813,0,0,0-7.549,29.661H350.846a113.446,113.446,0,0,0,4.578-18.905A81.894,81.894,0,0,0,356.368,149.94ZM97.746,172.832H92.059a2.6,2.6,0,1,1,0,5.181H59.2a2.6,2.6,0,1,1,0-5.181h5.687a2.6,2.6,0,1,1,0-5.178H60.82a2.6,2.6,0,1,1,0-5.181H93.686a2.6,2.6,0,1,1,0,5.181h4.06a2.6,2.6,0,1,1,0,5.178Z" transform="translate(-33.044 -113.031)" fill="#049ce7" opacity="0.1"/>
    <ellipse id="Ellipse_100" data-name="Ellipse 100" cx="21.39" cy="4.802" rx="21.39" ry="4.802" transform="translate(167.493 208.432)" fill="#049ce7" opacity="0.1"/>
    <ellipse id="Ellipse_101" data-name="Ellipse 101" cx="38.589" cy="3.167" rx="38.589" ry="3.167" transform="translate(199.998 225.318)" fill="#049ce7" opacity="0.1"/>
    <ellipse id="Ellipse_102" data-name="Ellipse 102" cx="38.589" cy="4.802" rx="38.589" ry="4.802" transform="translate(45.057 218.881)" fill="#049ce7" opacity="0.1"/>
    <ellipse id="Ellipse_103" data-name="Ellipse 103" cx="29.036" cy="4.802" rx="29.036" ry="4.802" transform="translate(113.447 194.841)" fill="#049ce7" opacity="0.1"/>
    <ellipse id="Ellipse_104" data-name="Ellipse 104" cx="23.244" cy="4.802" rx="23.244" ry="4.802" transform="translate(127.346 234.841)" fill="#049ce7" opacity="0.1"/>
    <path id="Pfad_318" data-name="Pfad 318" d="M467.586,190.823c-.614-4.134-4.37-13.782-4.37-13.782h0q-.1-.426-.222-.853c-2.664-9.155-6.352-9.952-6.352-9.952l-13.21-2.843a1.024,1.024,0,0,1,.284.264,1.831,1.831,0,0,0-.208.031,5.175,5.175,0,0,1-1.157-2.5c-.026-.136-.048-.284-.065-.424a9.292,9.292,0,0,0-.756-13.969c-.139-.108-.284-.213-.424-.313a2.106,2.106,0,0,0,.176-2.5,8.731,8.731,0,0,0-5.63-4.2,9.544,9.544,0,0,0-5.465-.117,19.738,19.738,0,0,0-2.86,1.328c-1.754.876-3.7,1.57-5.007,3.011a1.469,1.469,0,0,0-.5,1.208,3.259,3.259,0,0,0,.5.879,2.652,2.652,0,0,1,.026,2.2,21.328,21.328,0,0,0-.816,2.115,2.211,2.211,0,0,0,.441,2.124,9.365,9.365,0,0,0,.825.569,4.322,4.322,0,0,1,.788.884q.785,1.052,1.564,2.113a21.755,21.755,0,0,1,1.959,2.977,14.509,14.509,0,0,0,1.211,2.275,3.371,3.371,0,0,0,.52.546l-.154-.06a2.368,2.368,0,0,0,1.737.708h.08a.478.478,0,0,0,.318-.131v.284c.031,1.015.026,2.1-.045,3.111l-.122-.063a1.066,1.066,0,0,0-1.137.119L417.35,175.62s-2.644,3.617-2.275,9.861l-2.133,9.363s-2.664,7.944-.614,13.617,3.239,8.917,3.239,8.917.819,6.446,2.05,6.972,1.763.81,1.763.81l.245,1.541h0s.082.151.227.4c.9,1.558,4.214,7.057,6.142,6.469a24.649,24.649,0,0,1,.313,4.518l1.908,12.809s1.331,3.483,1.248,5.308,1.552,4.427,1.552,4.427a8.458,8.458,0,0,0-.819,5.957c.779,3.412,1.763,19.13,1.763,19.13l1.422,3.81-.04,4.467a4.265,4.265,0,0,1-.881,1.99c-.921,1-.853,2.158-3.074,3.526s-3.628,1.885-3.628,3.7a4.754,4.754,0,0,1-.068.754c-.2,1.331-.6,2.053,3.48,2.44a10.765,10.765,0,0,0,8-2.673s.705-1.279,4.026-1.8c0,0,1.137-.06,1.2-1.063.023-.347.017-1.009,0-1.74a10.707,10.707,0,0,0-.364-3.094,6.743,6.743,0,0,1-.742-2h.924s.853-6.446,0-10.62a17.228,17.228,0,0,1-.082-7.134l-.165-11.024a3.149,3.149,0,0,1-.245-3.366c.893-2.15,0-12.766,0-12.766s.33-3.81,1.271-4.7.045-5.581,0-5.826l1.678,5.627s.736,11.186,2.3,13.21l.449,5.067s3.2,4.663,2.582,7.174.657,11.592.657,11.592v9.283s-1.436,3.728.569,5.067l.853-.034c-.284.264-.5.663-.836,1.007a7.684,7.684,0,0,0-.725,3.193c-.1,1.095-.137,2.036-.137,2.036a3.352,3.352,0,0,0,2.46,1.459c1.606.094,6.9,4.12,6.9,4.12a62.624,62.624,0,0,0,6.582-.284l.08-.02a1.777,1.777,0,0,0,1.021-.833,2.132,2.132,0,0,0,.245-1.533,3.827,3.827,0,0,0-2.206-2.42c-3.494-1.842-4.015-3.568-4.015-3.568l-2.295-3.443h.327a14.729,14.729,0,0,1,2.295-7.742l-.162-18.035s1.024-6.2-.736-9.568c0,0-.145-3.565,1.032-4.66s-1.567-12.158-1.567-12.158-.569-5.94-1.237-11.359h0c2.767,2.624,5.635-6.824,6.119-8.5h.071l-.031-.122c.02-.08.031-.119.031-.119h0s-.614-2.184-.165-1.74,1.558-1.217,1.558-1.217-.165-9.039,1.763-13.594S467.586,190.823,467.586,190.823Zm-8.246,5.752.014-.026c.284,5.519-.054,17.3-.054,17.3s-.381,1.51-.788,3.287l-.284-11.188h0l-.284-10.54Zm-35.288-3.8s1.393,17.427,0,19.94a13.168,13.168,0,0,0-1,3.443c-.461-1.208-1.436-4.046-1.086-5.55.452-1.945-.9-7.054-.9-7.174a12.122,12.122,0,0,1,.853-4.925c.975-2.081.336-2.983.336-2.983S423.068,192.111,424.052,192.77Z" transform="translate(-303.405 -105.427)" fill="url(#linear-gradient)"/>
    <path id="Pfad_319" data-name="Pfad 319" d="M448.914,443.561c-1.214,5.337-6.042-2.732-7.142-4.669-.142-.253-.222-.4-.222-.4l.523-2.454,2.767-1.137a7.724,7.724,0,0,1,1.24.807A7.474,7.474,0,0,1,448.914,443.561Z" transform="translate(-324.873 -316.968)" fill="#d38884"/>
    <path id="Pfad_320" data-name="Pfad 320" d="M579.153,431.208a.373.373,0,0,1-.031.119.605.605,0,0,1-.037.128c-.475,1.666-3.29,11.046-6.008,8.442-2.974-2.843-1.53-9.417-1.53-9.417h.02l6.255-.64,1.24,1.274h0Z" transform="translate(-417.657 -313.347)" fill="#d38884"/>
    <path id="Pfad_321" data-name="Pfad 321" d="M490.143,479.187,490.3,497.1a14.692,14.692,0,0,0-2.252,7.677l-8.086.318c-1.973-1.328-.569-5.027-.569-5.027v-9.224s-1.248-9.01-.645-11.507-2.533-7.108-2.533-7.108l-.444-5.03c-1.53-2.01-2.255-13.113-2.255-13.113l-1.641-5.607c.045.242.9,4.922,0,5.783s-1.248,4.666-1.248,4.666.884,10.543,0,12.673a3.137,3.137,0,0,0,.239,3.341l.162,10.944a17.114,17.114,0,0,0,.08,7.08c.844,4.143,0,10.543,0,10.543h-8.675l.04-4.467-1.4-3.782s-.967-15.61-1.732-18.99a8.484,8.484,0,0,1,.8-5.914s-1.606-2.573-1.527-4.384-1.24-5.266-1.24-5.266L455.5,447.993a24.7,24.7,0,0,0-.927-7.242c-1.086-3.622-2.7-8.371-2.7-8.371l1.817.162,9.167.816s22.289-1.5,23.287-.253a4.181,4.181,0,0,1,.421,1.3c1,4.5,2.323,18.578,2.323,18.578s2.7,10.984,1.538,12.07-1.015,4.623-1.015,4.623C491.152,473.017,490.143,479.187,490.143,479.187Z" transform="translate(-332.265 -315.165)" fill="#444053"/>
    <path id="Pfad_322" data-name="Pfad 322" d="M478.645,684.982c-.062,1-1.174,1.058-1.174,1.058-3.258.512-3.952,1.78-3.952,1.78a10.465,10.465,0,0,1-7.845,2.656c-4.009-.387-3.62-1.1-3.412-2.422a5.011,5.011,0,0,0,.065-.745c0-1.811,1.388-2.326,3.56-3.7s2.113-2.505,3.017-3.5a5.546,5.546,0,0,0,1-2.926c1.024-1.783,3.62.284,3.62.284.122.631,3.981.543,3.981.543a8.5,8.5,0,0,0,.776,2.172,10.674,10.674,0,0,1,.355,3.071C478.662,683.981,478.668,684.638,478.645,684.982Z" transform="translate(-339.611 -489.846)" fill="#b07473"/>
    <path id="Pfad_323" data-name="Pfad 323" d="M478.645,702.1c-.062,1-1.174,1.058-1.174,1.058-3.258.512-3.952,1.78-3.952,1.78a10.466,10.466,0,0,1-7.845,2.656c-4.009-.387-3.62-1.1-3.412-2.422,1.791.444,5.215,1.063,7.214-.023,2.778-1.507,4.771-2.559,4.771-2.559l4.39-2.209C478.662,701.1,478.668,701.756,478.645,702.1Z" transform="translate(-339.611 -506.964)" opacity="0.1"/>
    <path id="Pfad_324" data-name="Pfad 324" d="M564.49,693.251a1.734,1.734,0,0,1-1,.827l-.077.02a60.322,60.322,0,0,1-6.46.284s-5.189-4.012-6.759-4.1a3.3,3.3,0,0,1-2.414-1.45s.031-.933.131-2.019a7.708,7.708,0,0,1,.714-3.17c.694-.725.853-1.706,2.414-1.086,0,0,2.229-3.93,4.856-.893l2.718,4.123s.512,1.706,3.955,3.557a3.815,3.815,0,0,1,2.164,2.4A2.118,2.118,0,0,1,564.49,693.251Z" transform="translate(-400.898 -492.743)" fill="#b07473"/>
    <path id="Pfad_325" data-name="Pfad 325" d="M564.49,709.11c-.307.259-.645.537-1,.827l-.077.02a60.3,60.3,0,0,1-6.46.284s-5.189-4.012-6.759-4.1a3.3,3.3,0,0,1-2.414-1.45s.031-.933.131-2.019c1.6.478,4.018,1.322,4.666,2.232a19.775,19.775,0,0,0,4.018,3.318s5.635-.543,8.138-.617A2.118,2.118,0,0,1,564.49,709.11Z" transform="translate(-400.898 -508.603)" opacity="0.1"/>
    <path id="Pfad_326" data-name="Pfad 326" d="M491.592,207.777l-7.421,7.845s-8.993-.662-7.424-3.318c.8-1.353.924-4.185.853-6.648-.065-2.374-.31-4.4-.31-4.4s12.613-6.278,11.658-.424a9.634,9.634,0,0,0-.034,3.341A4.379,4.379,0,0,0,491.592,207.777Z" transform="translate(-349.93 -147.669)" fill="#d38884"/>
    <path id="Pfad_327" data-name="Pfad 327" d="M490.766,200.836a9.636,9.636,0,0,0-.034,3.341,9.258,9.258,0,0,1-6.6,2.755c-1.706,0-3.551-1.4-4.93-2.212-.065-2.377-.08-3.46-.08-3.46S491.733,194.982,490.766,200.836Z" transform="translate(-351.76 -147.669)" opacity="0.1"/>
    <path id="Pfad_328" data-name="Pfad 328" d="M482.628,170.783a9.295,9.295,0,1,1-3.5-7.262A9.295,9.295,0,0,1,482.628,170.783Z" transform="translate(-340.966 -121.298)" fill="#d38884"/>
    <path id="Pfad_329" data-name="Pfad 329" d="M490.114,434.8c-2.314,5.508-17.2,5.621-17.2,5.621v-6.005l-.9-.06c.39,1.72-.546,5.914-.546,5.914-11.766,1.66-14.635-5.044-14.635-5.044l.409-2.294,9.167.816s22.289-1.5,23.287-.253a4.184,4.184,0,0,1,.421,1.305Z" transform="translate(-335.808 -315.558)" opacity="0.1"/>
    <path id="Pfad_330" data-name="Pfad 330" d="M472.912,292.732v-6.005l-.9-.057c.39,1.706-.546,5.914-.546,5.914-8.854,1.248-12.67-2.238-14.015-4.04a5.506,5.506,0,0,1-.62-1l3.594-20.216.853-29.752,1.288-5.22.3-2.5v-.028h.031l.916.392,5.479,2.368,6.224-4.7.091-.065.31-.236.515.412,1.279,1.026,4.1,26.5s7.108,20.4,8.439,28.635c.054.33.1.637.131.924C491.26,292.592,472.912,292.732,472.912,292.732Z" transform="translate(-335.808 -168.596)" fill="#049ce7"/>
    <circle id="Ellipse_105" data-name="Ellipse 105" cx="0.529" cy="0.529" r="0.529" transform="translate(133.618 64.043)" fill="#67647e"/>
    <circle id="Ellipse_106" data-name="Ellipse 106" cx="0.529" cy="0.529" r="0.529" transform="translate(133.862 68.871)" fill="#67647e"/>
    <circle id="Ellipse_107" data-name="Ellipse 107" cx="0.529" cy="0.529" r="0.529" transform="translate(134.391 76.687)" fill="#67647e"/>
    <circle id="Ellipse_108" data-name="Ellipse 108" cx="0.529" cy="0.529" r="0.529" transform="translate(135.264 85.106)" fill="#67647e"/>
    <circle id="Ellipse_109" data-name="Ellipse 109" cx="0.529" cy="0.529" r="0.529" transform="translate(135.793 93.01)" fill="#67647e"/>
    <circle id="Ellipse_110" data-name="Ellipse 110" cx="0.529" cy="0.529" r="0.529" transform="translate(136.322 101.429)" fill="#67647e"/>
    <circle id="Ellipse_111" data-name="Ellipse 111" cx="0.529" cy="0.529" r="0.529" transform="translate(136.112 109.758)" fill="#67647e"/>
    <path id="Pfad_331" data-name="Pfad 331" d="M463.209,275.7s-.591,7.742-1.678,9.994-1.57,8.57-1.57,8.57l-2.522-.284a5.506,5.506,0,0,1-.62-1l3.594-20.216.853-29.752,1.291-5.223.3-2.5.034-.014a1.018,1.018,0,0,1,.9.014l.119.063q-.054.154-.1.316a48.329,48.329,0,0,0-1.351,8.755s1.422,10.381,1.57,15.209S463.209,275.7,463.209,275.7Z" transform="translate(-335.801 -174.025)" opacity="0.1"/>
    <path id="Pfad_332" data-name="Pfad 332" d="M446.079,435.716a1.457,1.457,0,0,1-.1.188c-.978,1.652-3.457,2.7-4.211,2.988-.142-.253-.222-.4-.222-.4l.523-2.454,2.767-1.137A7.725,7.725,0,0,1,446.079,435.716Z" transform="translate(-324.873 -316.968)" opacity="0.1"/>
    <path id="Pfad_333" data-name="Pfad 333" d="M419.438,298.81l-2.295,1.368-2.09,9.295s-2.616,7.885-.606,13.517,3.179,8.857,3.179,8.857.8,6.4,2.013,6.921,1.729.8,1.729.8l.242,1.53s3.276-1.112,4.433-3.071-.853-6.824-.853-6.824-1.729-4.146-1.285-6.076-.887-7-.887-7.108a12.048,12.048,0,0,1,.853-4.89c.972-2.073.324-2.957.324-2.957l-.606-5.914Z" transform="translate(-304.933 -219.573)" fill="#67647e"/>
    <path id="Pfad_334" data-name="Pfad 334" d="M536.959,286.6s-6.076,2.292-8.007.284-1.732-11.427-1.732-11.427-1.848-17.381-3.017-20.236-.569-23.457-.569-23.457a12.486,12.486,0,0,0-1.47-3.361.745.745,0,0,0-.145-.117l.236.051.825.176,1.279,1.026,4.1,26.5s7.108,20.4,8.439,28.635Z" transform="translate(-382.462 -169.104)" opacity="0.1"/>
    <path id="Pfad_335" data-name="Pfad 335" d="M580.021,431.435h-.068c-.765.1-7.515.916-7.543-.489a4.1,4.1,0,0,1,.026-.486l6.255-.64,1.24,1.274h0c.023.082.04.154.057.21Z" transform="translate(-418.525 -313.332)" opacity="0.1"/>
    <path id="Pfad_336" data-name="Pfad 336" d="M573.543,266.07l4.436,2.314s3.7,9.571,4.288,13.673c0,0,2.738,10.992.853,15.513s-1.729,13.494-1.729,13.494-1.086,1.649-1.53,1.208.162,1.729.162,1.729-7.583,1.007-7.614-.483,1.74-8.61,1.74-8.61.483-16.938-.2-19.593S573.543,266.07,573.543,266.07Z" transform="translate(-418.524 -196.142)" fill="#67647e"/>
    <path id="Pfad_337" data-name="Pfad 337" d="M520.736,329.52s-2.5,6.113-3.3,6.517.162,2.01.162,2.01S522.143,331.692,520.736,329.52Z" transform="translate(-378.952 -241.551)" opacity="0.1"/>
    <path id="Pfad_338" data-name="Pfad 338" d="M514.808,254.092c.028-.117-2.977,2.949-3.782,3.412S513.964,257.475,514.808,254.092Z" transform="translate(-374.514 -187.567)" opacity="0.1"/>
    <path id="Pfad_339" data-name="Pfad 339" d="M485.022,327.82s-4.586,2.966-3.981,4.14S485.022,327.82,485.022,327.82Z" transform="translate(-353.096 -240.334)" opacity="0.1"/>
    <path id="Pfad_340" data-name="Pfad 340" d="M524.47,480.07a24.551,24.551,0,0,0,9.977,3.128Z" transform="translate(-384.216 -349.295)" opacity="0.1"/>
    <path id="Pfad_341" data-name="Pfad 341" d="M491.5,501.3s3.62,4.549,5.271,4.666S491.5,501.3,491.5,501.3Z" transform="translate(-360.62 -364.488)" opacity="0.1"/>
    <path id="Pfad_342" data-name="Pfad 342" d="M498.338,564c-.162.08-2.053,4.1-3.981,4.225S498.338,564,498.338,564Z" transform="translate(-362.388 -409.361)" opacity="0.1"/>
    <path id="Pfad_343" data-name="Pfad 343" d="M568.33,594.7s3.588-.8,4.387,1.768C572.717,596.46,572.476,595.656,568.33,594.7Z" transform="translate(-415.605 -431.247)" opacity="0.1"/>
    <path id="Pfad_344" data-name="Pfad 344" d="M559.84,645.97s4.347-.887,5.271.321S559.84,645.97,559.84,645.97Z" transform="translate(-409.529 -467.799)" opacity="0.1"/>
    <path id="Pfad_345" data-name="Pfad 345" d="M505.844,654c0,.04-4.424.887-4.265,1.45s4.72.483,4.882-.4a.853.853,0,0,0-.617-1.046Z" transform="translate(-367.831 -473.771)" opacity="0.1"/>
    <path id="Pfad_346" data-name="Pfad 346" d="M554.75,666.776s7.27-.887,6.824.643S554.75,666.776,554.75,666.776Z" transform="translate(-405.886 -482.731)" opacity="0.1"/>
    <path id="Pfad_347" data-name="Pfad 347" d="M420.89,352.44c.04.119,4.788.765,5.431,2.295,0,0-4.666-2.175-5.4-2.175" transform="translate(-310.087 -257.954)" opacity="0.1"/>
    <path id="Pfad_348" data-name="Pfad 348" d="M435.126,396.16s-3.944,1.248-3.662,3.128S431.063,398.418,435.126,396.16Z" transform="translate(-317.644 -289.243)" opacity="0.1"/>
    <path id="Pfad_349" data-name="Pfad 349" d="M437.92,425.678s1.436-1.97,2.8-1.609S437.92,425.678,437.92,425.678Z" transform="translate(-322.275 -309.185)" opacity="0.1"/>
    <path id="Pfad_350" data-name="Pfad 350" d="M479.165,163.517a2.238,2.238,0,0,1-.461.344c-1.137.662-1.45,1.683-1.99,2.86a6.083,6.083,0,0,1-2.073,2.829c-1.311.79-3.037.5-4.4,1.189a3.412,3.412,0,0,0-1.82,3.364,9.7,9.7,0,0,0,.387,1.541,10.987,10.987,0,0,1,.415,3.347.565.565,0,0,1,0,.1,9.292,9.292,0,1,1,9.952-15.573Z" transform="translate(-341.001 -121.294)" opacity="0.1"/>
    <path id="Pfad_351" data-name="Pfad 351" d="M467.243,147.147a8.576,8.576,0,0,0-5.525-4.165,9.278,9.278,0,0,0-5.365-.114,19.682,19.682,0,0,0-2.806,1.316c-1.723.87-3.617,1.558-4.913,2.988a1.5,1.5,0,0,0-.492,1.2,3.351,3.351,0,0,0,.486.87,2.64,2.64,0,0,1,.026,2.187,20.055,20.055,0,0,0-.8,2.1,2.211,2.211,0,0,0,.432,2.107,7.874,7.874,0,0,0,.813.569,4.279,4.279,0,0,1,.771.876l1.535,2.1a21.279,21.279,0,0,1,1.922,2.954,14.081,14.081,0,0,0,1.189,2.255,2.573,2.573,0,0,0,2.155,1.152.418.418,0,0,0,.341-.162.449.449,0,0,0,.043-.213,10.912,10.912,0,0,0-.407-3.335,9.623,9.623,0,0,1-.387-1.541,3.426,3.426,0,0,1,1.82-3.364c1.365-.688,3.091-.4,4.4-1.186a6.043,6.043,0,0,0,2.073-2.843c.549-1.177.853-2.2,1.99-2.86A2,2,0,0,0,467.243,147.147Z" transform="translate(-329.321 -107.722)" fill="#585268"/>
    <path id="Pfad_352" data-name="Pfad 352" d="M501.63,693.06s1.422,1.811,1.052,2.843S501.63,693.06,501.63,693.06Z" transform="translate(-367.87 -501.725)" opacity="0.1"/>
    <path id="Pfad_353" data-name="Pfad 353" d="M569.28,702.75s.316-2.428,1.581-2.451a4.233,4.233,0,0,1,2.294.242c.967.372,1.874.95,1.584,1.035s-1.663-1.388-3.074-.634A10.155,10.155,0,0,0,569.28,702.75Z" transform="translate(-416.285 -506.883)" opacity="0.1"/>
    <path id="Pfad_354" data-name="Pfad 354" d="M477.378,241.3l3.981-2.789s-5.823-3.44-6.517-2.957-1.171,4.834-1.171,4.834Z" transform="translate(-347.86 -174.268)" opacity="0.1"/>
    <path id="Pfad_355" data-name="Pfad 355" d="M477.318,240.533l3.981-2.843s-5.823-3.44-6.517-2.957-1.171,5.072-1.171,5.072Z" transform="translate(-347.817 -173.681)" fill="#e1e7ef"/>
    <path id="Pfad_356" data-name="Pfad 356" d="M477.318,240.533l3.981-2.843s-5.823-3.44-6.517-2.957-1.171,5.072-1.171,5.072Z" transform="translate(-347.817 -173.681)" fill="#049ce7"/>
    <path id="Pfad_357" data-name="Pfad 357" d="M441.167,234.5l-.119-.06a1.032,1.032,0,0,0-1.117.117l-11.942,9.687s-2.6,3.591-2.235,9.787L432.8,264s.8-3.378,1.769-2.735c0,0,1.368,17.3,0,19.8s-1.97,11.828-1.97,11.828l4.626.523s.483-6.318,1.569-8.57,1.678-9.994,1.678-9.994.978-11.248.816-16.076-1.569-15.209-1.569-15.209S440.109,237.482,441.167,234.5Z" transform="translate(-313.543 -173.422)" fill="#67647e"/>
    <path id="Pfad_358" data-name="Pfad 358" d="M509.4,234.38l-4.962-1.837s6.318-6.921,7.108-3.082Z" transform="translate(-369.881 -169.112)" opacity="0.1"/>
    <path id="Pfad_359" data-name="Pfad 359" d="M509.4,233.53l-4.962-1.837s6.318-6.921,7.108-3.082Z" transform="translate(-369.881 -168.504)" fill="#e1e7ef"/>
    <path id="Pfad_360" data-name="Pfad 360" d="M509.4,233.53l-4.962-1.837s6.318-6.921,7.108-3.082Z" transform="translate(-369.881 -168.504)" fill="#049ce7"/>
    <path id="Pfad_361" data-name="Pfad 361" d="M521.32,228.111a.284.284,0,0,1,.2.045Z" transform="translate(-381.961 -168.973)" opacity="0.1"/>
    <path id="Pfad_362" data-name="Pfad 362" d="M523,226.417l13.165,2.843s3.622.8,6.238,9.9-3.583,20.233-3.583,20.233l-1.368-1.163.685,26.554s-6.076,2.292-8.007.284-1.729-11.436-1.729-11.436-1.851-17.378-3.02-20.236-.569-23.454-.569-23.454S523.739,226.258,523,226.417Z" transform="translate(-383.164 -167.76)" fill="#67647e"/>
    <path id="Pfad_363" data-name="Pfad 363" d="M564.926,285.64a75.337,75.337,0,0,0,.4,14.322,78.054,78.054,0,0,0,2.275,11.023l-1.194-24.5S565.489,285.117,564.926,285.64Z" transform="translate(-413.045 -210.062)" opacity="0.1"/>
    <path id="Pfad_364" data-name="Pfad 364" d="M559.7,261.6c.321.2,1.732,3.54,1.086,4.908S559.7,261.6,559.7,261.6Z" transform="translate(-409.429 -192.943)" opacity="0.1"/>
    <path id="Pfad_365" data-name="Pfad 365" d="M485.076,151.161a7.268,7.268,0,0,0-2.895-3.031,6.884,6.884,0,0,1,2.169,2.559,2.022,2.022,0,0,1-.705,2.9c-1.106.623-1.45,1.683-1.99,2.86a6.182,6.182,0,0,1-2.076,2.843c-1.308.79-3.034.5-4.4,1.186a3.435,3.435,0,0,0-1.82,3.366,9.672,9.672,0,0,0,.39,1.538,11,11,0,0,1,.415,3.347.449.449,0,0,1-.045.213.407.407,0,0,1-.338.162,1.959,1.959,0,0,1-.992-.185,2.309,2.309,0,0,0,1.706.668.335.335,0,0,0,.381-.375,10.909,10.909,0,0,0-.412-3.347,9.343,9.343,0,0,1-.39-1.541,3.426,3.426,0,0,1,1.82-3.364c1.365-.688,3.091-.4,4.4-1.186a6.043,6.043,0,0,0,2.073-2.843c.549-1.177.853-2.2,1.99-2.86A2.024,2.024,0,0,0,485.076,151.161Z" transform="translate(-347.23 -111.736)" opacity="0.1"/>
    <path id="Pfad_366" data-name="Pfad 366" d="M661.365,203.32c-3.918-.077-7.376-2.843-9.335-6.224a6.256,6.256,0,0,1-.944-2.664,3.078,3.078,0,0,1,.108-.637,6.608,6.608,0,0,0,.284-.975,1.7,1.7,0,0,0,0-.4V192.4a2.352,2.352,0,0,0-.853-1.914c-.523-.492-1.18-.853-1.726-1.342-1.683-1.479-2.2-3.85-2.226-6.107v-.119c.02-.967.1-1.936.088-2.9a12.216,12.216,0,0,0-.071-1.643,5.431,5.431,0,0,0-1.757-3.634c-2.8-2.275-7.518.094-10.421-2.056-.705-.526-1.277-1.3-2.132-1.507a3.593,3.593,0,0,0-1.948.264c-2.138.705-4.524,1.632-5.36,3.7-.478,1.186-.344,2.539-.782,3.739a18.679,18.679,0,0,1-1.223,2.258,3.534,3.534,0,0,0-.455,1.885,2.127,2.127,0,0,0,.139,1,2.56,2.56,0,0,0,.7,1,3.314,3.314,0,0,1-.415.665c-.546.668-1.385,1.137-1.953,1.8a4.259,4.259,0,0,0-.495,4.31c.518,1.433,1.453,2.738,2.1,4.134a2.219,2.219,0,0,1,.213,1.885,5.4,5.4,0,0,1-.944,1.1,3.45,3.45,0,0,0-.853,1.905c-6.4,1.461-6.406,6.605-6.406,6.605h0l-3.457,8.695s-.554,1.464-1.206,3.4l-4.092-.734,2.843,4.76a15.029,15.029,0,0,0-.793,4.64s-1.271,5.971.989,7.014l4.987,2.243a2.954,2.954,0,0,0,.691.31l.2.091a.535.535,0,0,0,.466,0h.068a.671.671,0,0,0,.284-.043.569.569,0,0,0,.25-.27.085.085,0,0,1,0-.028l1.493-.432,1.265,1.5c.569.4,1.137.748,1.675,1.061L618.4,259.08s-.316,25.874-1.271,31.771a16.512,16.512,0,0,0-.222,4.686l-.037.063c.236,1.663.853,1.99.853,1.99v-.023a.183.183,0,0,0,.037.023,16.748,16.748,0,0,1,1.024-2.2v.426c-.02,2.2-.088,5.269-.316,7.268-.387,3.412.989,14.657.989,14.657l.475,10.236a9.463,9.463,0,0,1-1.166,4.987c-1.137,2.044-2.59,4.922-2.7,6.2a1.281,1.281,0,0,0,0,.208h0l-2.44,2.934s-.953,1.473,1.2,2.067a11.522,11.522,0,0,0,4.757-.378,3.179,3.179,0,0,0,2.465-3.094,10.947,10.947,0,0,1,2.013-3.864l.4,2.357,2.684.665.344-6.46a2.843,2.843,0,0,0,.185-1.137h0c.529-4.595-1.245-4.182-1.245-4.182a.247.247,0,0,1,.085.159l-.085-.156h0c-1.089-2.15-.569-5.687-.569-5.687s1.422-10.236,1.908-12.94c.35-1.911.2-8.166.088-11.658a4.161,4.161,0,0,0-.014-.424c4.163-.054,9.264-.193,12.843-.54v.421l-.66,24.182a13.273,13.273,0,0,1-.927,4.5.245.245,0,0,1-.031.082,19.617,19.617,0,0,0-1.311,6.338l-.307,7.677v.213h0c-.535.2-1.379.8-1.4,2.522-.037,2.525,4.413,1.683,4.413,1.683,4.447,0,4.484-4.629,4.484-4.629s.139-4.245.353-7.086-.671-2.215-.671-2.215l-.068,8.081v-7.02l.068-1.026v-.028h0v-.219l.56-8.334s4.1-13.887,4.731-16.551c.452-1.894.264-7.6.117-10.751a2.512,2.512,0,0,0-.023-.418c1.271-.114,2.394-.125,2.843-.125h.208s-.21-22.3-.742-30.708-1.376-16.1-3.494-18.41c-1.279-1.4-3.062-5.718-4.265-8.917a44.608,44.608,0,0,0,7.839,2.559c6.707,1.4,5.789-4.419,5.789-4.419l-.68-11.012h.046a56.157,56.157,0,0,0-.739-8.61,25.332,25.332,0,0,0-1.729-6.255c.728-.284,1.447-.589,2.152-.9,1.823-.8,3.875-1.945,4.137-3.91H661.3a2.542,2.542,0,0,0,.068-.432Zm-41.578,15.923h0c.014,1.137-.028,3.111-.1,5.291l-2.13-2.843,2.135-3.463ZM648.322,225.017Zm.887,4.3-3.549-1.137a15.922,15.922,0,0,1,2.192-2.713l.307-.284-.111.023.171-.156.1-.023-.162.156.193-.04a6.053,6.053,0,0,0,1.208,2.431c1.274,1.39-.35,1.743-.35,1.743Z" transform="translate(-442.521 -128.188)" fill="url(#linear-gradient-2)"/>
    <path id="Pfad_367" data-name="Pfad 367" d="M642.04,715.66l-.415,7.87-2.647-.662-.557-3.273Z" transform="translate(-456.906 -512.173)" fill="#a27772"/>
    <path id="Pfad_368" data-name="Pfad 368" d="M642.04,715.66l-.415,7.87-2.647-.662-.557-3.273Z" transform="translate(-456.906 -512.173)" opacity="0.1"/>
    <path id="Pfad_369" data-name="Pfad 369" d="M716.48,640.763l4.037.836,2.994-2.644V631.5l.068-1.018v-.031h0v-.216l.557-8.283s4.04-13.787,4.669-16.434c.444-1.877.259-7.54.111-10.671-.06-1.282-.111-2.141-.111-2.141l-8.914-2.158L719.7,597.4l-.651,24.009a13.306,13.306,0,0,1-.913,4.467l-.031.082a19.538,19.538,0,0,0-1.294,6.289l-.3,7.634v.21Z" transform="translate(-521.631 -428.362)" fill="#cc818c"/>
    <path id="Pfad_370" data-name="Pfad 370" d="M741.45,730.136v.21h0v-.216Z" transform="translate(-539.502 -528.255)" opacity="0.1"/>
    <path id="Pfad_371" data-name="Pfad 371" d="M716.48,761l4.037.836,2.994-2.644v-.634a.853.853,0,0,1-.429.682l-.043.026a8.047,8.047,0,0,1-4.532.9l-1.575-.134a1.474,1.474,0,0,0-.418.1v.21Z" transform="translate(-521.631 -548.601)" opacity="0.1"/>
    <path id="Pfad_372" data-name="Pfad 372" d="M719.618,739.526l.043-.023a.853.853,0,0,0,.435-.739l.065-8.021s.87-.623.66,2.2-.347,7.034-.347,7.034-.034,4.595-4.421,4.595c0,0-4.387.836-4.353-1.672s1.811-2.61,1.811-2.61l1.575.136A8.027,8.027,0,0,0,719.618,739.526Z" transform="translate(-518.21 -528.652)" fill="#b07473"/>
    <path id="Pfad_373" data-name="Pfad 373" d="M642.52,645.67c.1,1.811,5.431.765,5.431.765l3.585-6.96s2.994-2.3,1.5-4.319a3.21,3.21,0,0,1-.219-.344l-.014-.017h0c-.031-.051-.06-.105-.088-.162h0c-1.075-2.133-.546-5.63-.546-5.63s1.39-10.168,1.879-12.849c.344-1.894.2-8.106.088-11.581-.045-1.444-.088-2.414-.088-2.414L645.2,599.79v2.639c-.02,2.181-.088,5.232-.313,7.216-.381,3.375.975,14.552.975,14.552l.469,10.171a9.42,9.42,0,0,1-1.137,4.95c-1.109,2.03-2.559,4.891-2.659,6.156A1.242,1.242,0,0,0,642.52,645.67Z" transform="translate(-468.7 -434.975)" fill="#cc818c"/>
    <path id="Pfad_374" data-name="Pfad 374" d="M642.514,733.819c.1,1.811,5.431.765,5.431.765l3.585-6.96s2.994-2.3,1.5-4.319a3.21,3.21,0,0,1-.219-.344,17.288,17.288,0,0,1-1.206,3.7s-2.96,5.923-3.9,7.279-5.03-.253-5.183-.31A1.247,1.247,0,0,0,642.514,733.819Z" transform="translate(-468.694 -523.123)" opacity="0.1"/>
    <path id="Pfad_375" data-name="Pfad 375" d="M646.054,722.276s1.751-.406,1.228,4.154h0a2.937,2.937,0,0,1-1.385,2.607,9.957,9.957,0,0,0-4.165,5.778h0a3.15,3.15,0,0,1-2.431,3.071,11.4,11.4,0,0,1-4.692.375c-2.124-.591-1.183-2.053-1.183-2.053l2.437-2.892s4.248,1.672,5.186.313,3.9-7.276,3.9-7.276S646.575,722.66,646.054,722.276Z" transform="translate(-462.044 -522.628)" fill="#b07473"/>
    <path id="Pfad_376" data-name="Pfad 376" d="M728.008,593.52l-.188,6.852c2.374-.23,4.074-.552,4.365-1,.628-.972,2.909-1.382,4.848-1.55-.06-1.282-.111-2.141-.111-2.141Z" transform="translate(-529.747 -430.487)" opacity="0.1"/>
    <path id="Pfad_377" data-name="Pfad 377" d="M651.94,605.359a3.253,3.253,0,0,1,.975-1.177c.938-.52.836,3.344.836,3.344s3.128.028,7.122-.023c-.045-1.444-.088-2.417-.088-2.417l-8.846-2.366S651.957,603.818,651.94,605.359Z" transform="translate(-475.442 -437.071)" opacity="0.1"/>
    <path id="Pfad_378" data-name="Pfad 378" d="M646.07,452.727s1.046-2.843,1.99-3.349.836,3.341.836,3.341,22.98.21,24.128-1.567,7.833-1.672,7.833-1.672-.208-22.144-.731-30.5S678.771,403,676.681,400.7c-1.351-1.487-3.273-6.3-4.461-9.505-.645-1.751-1.075-3.028-1.075-3.028l-21.933,1.251-.179,1.777L646.7,414.491s-.313,25.7-1.254,31.544S646.07,452.727,646.07,452.727Z" transform="translate(-470.582 -283.525)" fill="#444053"/>
    <g id="Gruppe_18" data-name="Gruppe 18" transform="translate(174.593 104.645)" opacity="0.1">
      <path id="Pfad_379" data-name="Pfad 379" d="M683.908,451.152c1.137-1.774,7.833-1.672,7.833-1.672s-.208-22.144-.731-30.5S689.654,403,687.564,400.7c-1.356-1.493-3.273-6.3-4.461-9.505-.543-1.473-.933-2.607-1.041-2.931l1.706-.1s.429,1.277,1.078,3.028c1.188,3.207,3.108,8.018,4.458,9.505,2.09,2.3,2.926,9.923,3.446,18.28s.734,30.5.734,30.5-6.685-.1-7.836,1.672c-.981,1.516-17.89,1.587-22.8,1.572C669.148,452.71,683.021,452.523,683.908,451.152Z" transform="translate(-657.843 -388.17)"/>
      <path id="Pfad_380" data-name="Pfad 380" d="M646.34,603.317c.424-.236.634.418.739,1.211a16.4,16.4,0,0,0-.987,2.138s-.606-.327-.853-1.99A3.872,3.872,0,0,1,646.34,603.317Z" transform="translate(-645.24 -542.109)"/>
    </g>
    <path id="Pfad_381" data-name="Pfad 381" d="M661.22,191.832c-1.518,2.07.017,5.013-1.612,7.026-.537.665-1.365,1.137-1.925,1.791a4.255,4.255,0,0,0-.489,4.279c.509,1.422,1.422,2.718,2.07,4.106a2.2,2.2,0,0,1,.21,1.871,5.3,5.3,0,0,1-.933,1.089,3.927,3.927,0,0,0-.512,4.168,13.487,13.487,0,0,0,2.7,3.725,1.842,1.842,0,0,0,2.676.611,10.52,10.52,0,0,0,4.788-13.73c-.881-2.113-2.351-4.137-2.366-6.369,0-1.771.91-3.463,1.072-5.226.2-2.144-1.072-5.547-3.659-6.483C663.41,190.066,661.991,190.768,661.22,191.832Z" transform="translate(-478.953 -140.763)" fill="#585268"/>
    <path id="Pfad_382" data-name="Pfad 382" d="M661.22,191.832c-1.518,2.07.017,5.013-1.612,7.026-.537.665-1.365,1.137-1.925,1.791a4.255,4.255,0,0,0-.489,4.279c.509,1.422,1.422,2.718,2.07,4.106a2.2,2.2,0,0,1,.21,1.871,5.3,5.3,0,0,1-.933,1.089,3.927,3.927,0,0,0-.512,4.168,13.487,13.487,0,0,0,2.7,3.725,1.842,1.842,0,0,0,2.676.611,10.52,10.52,0,0,0,4.788-13.73c-.881-2.113-2.351-4.137-2.366-6.369,0-1.771.91-3.463,1.072-5.226.2-2.144-1.072-5.547-3.659-6.483C663.41,190.066,661.991,190.768,661.22,191.832Z" transform="translate(-478.953 -140.763)" opacity="0.1"/>
    <path id="Pfad_383" data-name="Pfad 383" d="M689.512,464.55a20.193,20.193,0,0,0-8.561,2.946,58.65,58.65,0,0,1-8.1,4.2" transform="translate(-490.407 -338.188)" opacity="0.1"/>
    <path id="Pfad_384" data-name="Pfad 384" d="M688.9,489.74a12.53,12.53,0,0,0-7.89,3.838c-.739.782-1.376,1.658-2.147,2.408a9.536,9.536,0,0,1-4.231,2.4" transform="translate(-491.681 -356.215)" opacity="0.1"/>
    <path id="Pfad_385" data-name="Pfad 385" d="M683.695,508.91a13.8,13.8,0,0,0-6.346,3.827c-.466.5-.89,1.041-1.356,1.544-2.516,2.7-6.07,4.134-9.5,5.49" transform="translate(-485.855 -369.935)" opacity="0.1"/>
    <path id="Pfad_386" data-name="Pfad 386" d="M695.724,242.69a62.4,62.4,0,0,0,.625,7.256,9.5,9.5,0,0,0,1.254,3.921c1.672,1.99-8.146,4.649-8.146,4.649l-5.8-4.492s4.595-4.231,2.454-8.357S695.724,242.69,695.724,242.69Z" transform="translate(-498.143 -179.304)" fill="#cc818c"/>
    <path id="Pfad_387" data-name="Pfad 387" d="M658.79,391.2h23.187c-.645-1.751-1.075-3.028-1.075-3.028l-21.933,1.251Z" transform="translate(-480.344 -283.525)" opacity="0.1"/>
    <path id="Pfad_388" data-name="Pfad 388" d="M642.147,307.813h24.791a8.6,8.6,0,0,1,.992-6.574,14.528,14.528,0,0,1,2.6-3.366l.171-.156,8.655-1.916.466-.1s.071-15.738-5.5-17.9a32.582,32.582,0,0,1-8.914-5.081l-7.657,2.366L652.1,272.24c-1.811,1.948-6.616,1.183-6.616,1.183-7.867.9-7.867,6.824-7.867,6.824s4.595,10.722,4.945,10.722S642.147,307.813,642.147,307.813Z" transform="translate(-465.194 -200.557)" fill="#049ce7"/>
    <path id="Pfad_389" data-name="Pfad 389" d="M666.586,354.409s-5.055-1.12-6.776-3.079" transform="translate(-481.074 -257.16)" opacity="0.1"/>
    <path id="Pfad_390" data-name="Pfad 390" d="M758.533,341.51l-5.863,4.805a9.99,9.99,0,0,0,.193,1.137l.171-.156,8.655-1.916Z" transform="translate(-547.531 -250.132)" opacity="0.1"/>
    <path id="Pfad_391" data-name="Pfad 391" d="M717.46,374.294s1.282.722,3.247,1.672h3.369a8.6,8.6,0,0,1,.992-6.574l-5.94-1.922C721.151,369.349,717.46,374.294,717.46,374.294Z" transform="translate(-522.333 -268.71)" opacity="0.1"/>
    <path id="Pfad_392" data-name="Pfad 392" d="M623.565,293.76l-3.48,1.879-3.412,8.635s-3.551,9.468-3.2,11.976c0,0-1.251,5.92.975,6.963l5.8,2.627a.54.54,0,0,0,.7-.745c-.827-1.567-1.737-4.018-.284-5.365l-1.672-3.48,6.042-9.889,2.019-3.412Z" transform="translate(-447.658 -215.958)" fill="#049ce7"/>
    <path id="Pfad_393" data-name="Pfad 393" d="M676.976,349.172c.3,1.228,1.319,3.128,4.689,3.836l3.7,3.028,3.932,1.783,1.6.725.68-4.91-1.544-.853-1.8-.984s-4.06-7.356-10.489-4.265A1.422,1.422,0,0,0,676.976,349.172Z" transform="translate(-493.327 -253.898)" opacity="0.1"/>
    <path id="Pfad_394" data-name="Pfad 394" d="M677.731,347.744c.3,1.231,1.316,3.128,4.686,3.836l3.7,3.028,3.935,1.783,1.6.725.68-4.91-1.544-.853L689,350.376s-4.063-7.356-10.492-4.251A1.422,1.422,0,0,0,677.731,347.744Z" transform="translate(-493.871 -252.888)" fill="#cc818c"/>
    <circle id="Ellipse_112" data-name="Ellipse 112" cx="8.982" cy="8.982" r="8.982" transform="translate(182.122 51.791)" opacity="0.1"/>
    <circle id="Ellipse_113" data-name="Ellipse 113" cx="8.982" cy="8.982" r="8.982" transform="translate(182.122 51.583)" fill="#cc818c"/>
    <path id="Pfad_395" data-name="Pfad 395" d="M716.081,277.543l-2.7-5.249s3.952-1.6,4.239-3.449,3.787,2.169,3.031,3.5A49.707,49.707,0,0,1,716.081,277.543Z" transform="translate(-519.413 -197.785)" opacity="0.1"/>
    <path id="Pfad_396" data-name="Pfad 396" d="M716.081,276.073l-2.7-5.249s3.952-1.6,4.239-3.449,3.787,2.172,3.031,3.5A50.013,50.013,0,0,1,716.081,276.073Z" transform="translate(-519.413 -196.733)" fill="#049ce7"/>
    <path id="Pfad_397" data-name="Pfad 397" d="M618.021,341.951l14.925,20.065s-5.5,2.994-13.079-2.366l-3.273-3.9L607.25,340Z" transform="translate(-443.459 -249.051)" fill="#f6f8fb"/>
    <path id="Pfad_398" data-name="Pfad 398" d="M633.92,372.219l1.359-.037s8.3-8.058,10.341-3.981-5.172,7.887-5.172,7.887l-2.192,1.183-2.858.853-1.828-2.454Z" transform="translate(-462.295 -268.409)" fill="#cc818c"/>
    <path id="Pfad_399" data-name="Pfad 399" d="M631.192,387.432a2.028,2.028,0,0,1,.034,1.4.568.568,0,0,1-.247.27.634.634,0,0,1-.284.04,2.858,2.858,0,0,1-1.874-.927,8.556,8.556,0,0,1-1.214-1.757,3.241,3.241,0,0,1-.623-2.093,3.052,3.052,0,0,1,1.544-1.8c1.376-.91,1.422.151,1.723,1.322S630.877,386.249,631.192,387.432Z" transform="translate(-457.563 -279.27)" opacity="0.1"/>
    <path id="Pfad_400" data-name="Pfad 400" d="M630.46,387.432a2.045,2.045,0,0,1,.034,1.4.568.568,0,0,1-.247.27.639.639,0,0,1-.284.04,2.843,2.843,0,0,1-1.874-.927,8.46,8.46,0,0,1-1.217-1.757,3.222,3.222,0,0,1-.62-2.093,3.047,3.047,0,0,1,1.541-1.8c1.379-.91,1.422.151,1.726,1.322S630.141,386.249,630.46,387.432Z" transform="translate(-457.038 -279.27)" fill="#049ce7"/>
    <path id="Pfad_401" data-name="Pfad 401" d="M623.85,314.984l.694-1.174-.606,2.181Z" transform="translate(-446.479 -224.581)" opacity="0.1"/>
    <path id="Pfad_402" data-name="Pfad 402" d="M721.19,371.468l1.6.725.68-4.91-1.544-.853C722.993,367.653,722.06,369.913,721.19,371.468Z" transform="translate(-525.002 -267.966)" opacity="0.1"/>
    <path id="Pfad_403" data-name="Pfad 403" d="M725.254,361.345s-5.169.316-7.364-1.095" transform="translate(-522.64 -263.543)" opacity="0.1"/>
    <g id="Gruppe_19" data-name="Gruppe 19" transform="translate(179.964 72.092)" opacity="0.1">
      <path id="Pfad_404" data-name="Pfad 404" d="M735.733,303.911a14.549,14.549,0,0,1,2.6-3.369,6.929,6.929,0,0,1,.765-.415l8.058-1.655.466-.1s.071-15.738-5.5-17.9a33.469,33.469,0,0,1-8.689-4.893l.611-.188a32.5,32.5,0,0,0,8.914,5.081c5.573,2.158,5.5,17.9,5.5,17.9h-.836l-8.246,1.578s-.355.344-.464.444a15.981,15.981,0,0,0-2.636,3.486,8.741,8.741,0,0,0-.691,6.608h-.853A8.691,8.691,0,0,1,735.733,303.911Z" transform="translate(-713.726 -274.904)"/>
      <path id="Pfad_405" data-name="Pfad 405" d="M664.13,277.864c.134-.02.262-.04.4-.054a14.418,14.418,0,0,0,1.706.139,15.511,15.511,0,0,1-2.107-.085Z" transform="translate(-664.13 -276.636)"/>
      <path id="Pfad_406" data-name="Pfad 406" d="M692.861,276.532l-5.1-2.582a2.691,2.691,0,0,0,.284-.27l5.323,2.693Z" transform="translate(-681.041 -273.68)"/>
    </g>
    <path id="Pfad_407" data-name="Pfad 407" d="M734.058,340l3.412,4.18.7,11.35s.9,5.778-5.709,4.384-14.268-5.7-14.268-5.7,3.7-4.945,1.672-6.824l9.471,3.065s1.6-.35.347-1.74a7.834,7.834,0,0,1-1.476-3.9Z" transform="translate(-522.855 -249.051)" fill="#049ce7"/>
    <path id="Pfad_408" data-name="Pfad 408" d="M779.42,382.17l1.879,2.158a2.71,2.71,0,0,1-1.879-2.158Z" transform="translate(-566.676 -279.231)" opacity="0.1"/>
    <path id="Pfad_409" data-name="Pfad 409" d="M736.99,360.8l2.926,3.759-1.461.35Z" transform="translate(-527.45 -258.21)" opacity="0.1"/>
    <path id="Pfad_410" data-name="Pfad 410" d="M665.208,187.432a3,3,0,0,1,.313-2.448,19.348,19.348,0,0,0,1.208-2.243c.429-1.189.3-2.533.768-3.7.827-2.061,3.179-2.983,5.286-3.7a3.554,3.554,0,0,1,1.922-.262c.853.2,1.407.975,2.1,1.5,2.86,2.132,7.512-.216,10.279,2.042a5.38,5.38,0,0,1,1.732,3.605,31.821,31.821,0,0,1-.017,4.1c-.045,2.394.4,5.013,2.2,6.6.54.478,1.177.836,1.706,1.331a2.329,2.329,0,0,1,.853,1.9,6.593,6.593,0,0,1-.284.967,4.949,4.949,0,0,0,.825,3.7c1.933,3.347,5.343,6.1,9.207,6.181-.259,1.951-2.275,3.082-4.08,3.881-2.275,1.021-4.7,2.022-7.2,1.894s-5.118-1.732-5.556-4.2c-.151-.853-.131-1.879-.853-2.323-.443-.27-1.018-.2-1.5-.4a2.634,2.634,0,0,1-1.26-1.774,15.967,15.967,0,0,1-.742-4.549c-.031-1.831.21-3.83-.827-5.337-.961-1.4-2.667-2.1-3.776-3.386-1.024-1.188-2.135-2.622-3.813-2.843C671.378,187.637,666.578,190.79,665.208,187.432Z" transform="translate(-484.832 -130.989)" opacity="0.1"/>
    <path id="Pfad_411" data-name="Pfad 411" d="M665.208,185.962a3,3,0,0,1,.313-2.448,19.35,19.35,0,0,0,1.208-2.243c.429-1.189.3-2.533.768-3.7.827-2.064,3.179-2.985,5.286-3.7a3.554,3.554,0,0,1,1.922-.262c.853.2,1.407.975,2.1,1.5,2.86,2.132,7.512-.216,10.279,2.041a5.381,5.381,0,0,1,1.732,3.608,31.774,31.774,0,0,1-.017,4.1c-.045,2.394.4,5.013,2.2,6.6.54.478,1.177.836,1.706,1.331a2.329,2.329,0,0,1,.853,1.9,6.594,6.594,0,0,1-.284.967,4.949,4.949,0,0,0,.825,3.7c1.939,3.335,5.334,6.1,9.2,6.179-.259,1.95-2.275,3.082-4.08,3.884-2.275,1.018-4.7,2.019-7.2,1.891s-5.118-1.732-5.556-4.2c-.151-.853-.131-1.879-.853-2.323-.443-.27-1.018-.2-1.5-.4a2.635,2.635,0,0,1-1.26-1.774,15.95,15.95,0,0,1-.742-4.549c-.031-1.831.21-3.83-.827-5.337-.961-1.4-2.667-2.1-3.776-3.386-1.024-1.189-2.135-2.622-3.813-2.843C671.378,186.167,666.578,189.326,665.208,185.962Z" transform="translate(-484.832 -129.937)" fill="#585268"/>
    <path id="Pfad_412" data-name="Pfad 412" d="M683.54,277.547l5.149-4.18s-3.526-1.911-3.946-3.54-3.241.773-2.954,2.235S683.54,277.547,683.54,277.547Z" transform="translate(-496.789 -198.441)" opacity="0.1"/>
    <path id="Pfad_413" data-name="Pfad 413" d="M684.293,275.345l5.149-4.177s-3.526-1.911-3.929-3.54-3.241.773-2.954,2.235S684.293,275.345,684.293,275.345Z" transform="translate(-497.34 -196.866)" fill="#049ce7"/>
    <circle id="Ellipse_114" data-name="Ellipse 114" cx="0.409" cy="0.409" r="0.409" transform="translate(191.894 77.389)" opacity="0.1"/>
    <circle id="Ellipse_115" data-name="Ellipse 115" cx="0.409" cy="0.409" r="0.409" transform="translate(191.894 79.664)" opacity="0.1"/>
    <circle id="Ellipse_116" data-name="Ellipse 116" cx="0.409" cy="0.409" r="0.409" transform="translate(191.894 81.936)" opacity="0.1"/>
    <g id="Gruppe_20" data-name="Gruppe 20" transform="translate(180.293 46.721)" opacity="0.1">
      <path id="Pfad_414" data-name="Pfad 414" d="M671.545,187.947c.407-1.117.318-2.371.7-3.5a3.821,3.821,0,0,0-.435.8c-.472,1.174-.338,2.519-.771,3.7l-.028.068A6.5,6.5,0,0,0,671.545,187.947Z" transform="translate(-669.383 -184.45)"/>
      <path id="Pfad_415" data-name="Pfad 415" d="M699.934,231.845c-2.275,1.018-4.7,2.019-7.2,1.891s-5.118-1.732-5.556-4.2c-.151-.853-.131-1.882-.853-2.326-.444-.27-1.018-.2-1.5-.4a2.635,2.635,0,0,1-1.26-1.774,15.95,15.95,0,0,1-.742-4.549c-.031-1.828.213-3.827-.825-5.337-.964-1.4-2.67-2.1-3.779-3.386-1.024-1.186-2.135-2.622-3.813-2.843-2.3-.313-7.108,2.843-8.467-.517a2.644,2.644,0,0,1,.088-1.942c-.1.168-.2.336-.284.506a3.012,3.012,0,0,0-.31,2.451c1.368,3.355,6.167.2,8.467.517,1.678.227,2.789,1.663,3.813,2.843,1.109,1.285,2.815,1.99,3.776,3.389,1.041,1.507.8,3.506.827,5.334a15.952,15.952,0,0,0,.742,4.549,2.641,2.641,0,0,0,1.26,1.774c.478.2,1.052.136,1.5.4.734.444.714,1.481.853,2.326.444,2.465,3.054,4.069,5.556,4.2s4.913-.87,7.2-1.891c1.649-.734,3.486-1.749,3.981-3.412A8.613,8.613,0,0,1,699.934,231.845Z" transform="translate(-665.288 -200.202)"/>
    </g>
    <path id="Pfad_416" data-name="Pfad 416" d="M826.707,271.78a66.893,66.893,0,0,0-8.305-4.316l-.125-.088a5.008,5.008,0,0,1-1.516-1.916,4,4,0,0,1,0-.412.167.167,0,0,0,0,.04c.094-1.834,1.4-3.5,2.636-4.959l3.165-3.722a3.67,3.67,0,0,0,.816-1.291,2.978,2.978,0,0,0,.085-.793V254c-.017-.924-.043-1.851-.077-2.775-.028-.807-.236-1.825-1.044-1.99-.421-.085-.978.065-1.2-.284a.691.691,0,0,1-.054-.481.167.167,0,0,0,0,.04v-.045a10.708,10.708,0,0,0,.3-1.9,2.593,2.593,0,0,0-.131-.964c-.466-1.339-2.078-1.891-3.5-2.144s-3.022-.469-3.915-1.584a11.607,11.607,0,0,0-.779-1.072,3.072,3.072,0,0,0-1.456-.719,8.245,8.245,0,0,0-5.3.461,4.755,4.755,0,0,1-2.135.677c-.756-.045-1.456-.591-2.229-.722a3.181,3.181,0,0,0-3.065,1.794,4.385,4.385,0,0,0-.569,2.115v.125h0a3.094,3.094,0,0,0,.813,2.161c.54.569,1.342.944,1.567,1.68.091.3.068.623.151.927a.838.838,0,0,0,.034.111l-.04.054a9.383,9.383,0,0,0-1.99,5.783,9.6,9.6,0,0,0,6.744,9.1v.284a4.091,4.091,0,0,1-1.308,3.185l-8.527,3.406s-5.141-.611-6.995,6.9a12.809,12.809,0,0,0-.318,3.81,11.045,11.045,0,0,1-1.422,5.707c-2.107,4.128-1.626,13.605,2.684,14.544,4.069.887,5.661.517,5.829.475v.165c-.068,1.78-.714,17.117-3.059,18.971-.648.515-.529.853,0,1.095,0,0,0,.1-.014.284-.071,1.137-.432,5.4-1.99,7.825-1.823,2.815-1.632,19.05-1.632,19.05l-1.242,9.571s.765,5.911,0,6.943c-.685.918-1.6,22.786-1.786,27.529h-.08a2.309,2.309,0,0,0-1.843,1.137,32.12,32.12,0,0,1-4.532,4.657c-.765,1.086-3.594,2.127-5.09,2.616a3.158,3.158,0,0,0-.569.25,3.033,3.033,0,0,0-1.285,1.353,1.453,1.453,0,0,0-.136,1.137c.381.935,8.334,1.6,10.347.654,1.581-.736,7.848-1.706,10.449-2.087a2.144,2.144,0,0,0,1.86-1.86,1.225,1.225,0,0,0-.239-.93h0a8.242,8.242,0,0,1-.853-3.412,2.305,2.305,0,0,0,.586-.347,24.978,24.978,0,0,1,1.422-10.04c1.916-5.067,2.491-14.45,2.013-20.549,0,0,5.843-25.146,10.443-27.492h0c.071.091,2.3,2.954,2.587,11.822a35.824,35.824,0,0,0,3.543,14.919s-1.439,15.294,0,21.018l-1.879,9.027c-.139-.117-.227-.208-.227-.208s.057.25.134.651l-.04.193.083.017a17.772,17.772,0,0,1,.4,4.265c-.074.657-.259,1.558-.384,2.442-.2,1.39-.253,2.738.478,3.034,1.2.483,8.246,1.137,9.44-.409a2.215,2.215,0,0,0,.347-2.317,2.345,2.345,0,0,0-.347-.591s-1.871-3.057-1.342-5.212a1.587,1.587,0,0,0-.225-1.237,63.579,63.579,0,0,1,1.612-10.111c1.2-4.515,3.728-14.416,1.868-20.924h0q-.105-.384-.239-.751a28.1,28.1,0,0,1-1.055-10.978,22.375,22.375,0,0,1,0-9.571c1.151-5.254,1.956-10.415,1.956-10.415a65.847,65.847,0,0,0,.08-11.2,2.8,2.8,0,0,0-.037-.284l.3-.068s-1.629-7.225-2.2-11.823c-.136-1.086-.313-2.459-.506-3.927a10.023,10.023,0,0,0,1.561-.39c5.172-1.783,6.8-17.913,6.8-17.913V283.12S832.743,275.252,826.707,271.78ZM788.163,396.386c-.159-.08-.253-.134-.253-.134h0Z" transform="translate(-561.518 -177.368)" fill="url(#linear-gradient-3)"/>
    <path id="Pfad_417" data-name="Pfad 417" d="M858.715,564.293c2.243,6.451-.375,16.923-1.592,21.609a65.325,65.325,0,0,0-1.589,10.287A21.663,21.663,0,0,1,847.3,596l1.965-9.63c-1.4-5.7,0-20.947,0-20.947a36.338,36.338,0,0,1-3.46-14.868c-.284-8.834-2.454-11.692-2.522-11.78h0c-4.487,2.337-10.19,27.4-10.19,27.4.466,6.076-.1,15.428-1.965,20.472a25.3,25.3,0,0,0-1.4,10,3.042,3.042,0,0,1-2.559.489,17.465,17.465,0,0,1-5.871-2.732s1.026-27.3,1.777-28.331,0-6.921,0-6.921l1.214-9.536s-.188-16.178,1.589-18.982c1.535-2.422,1.888-6.682,1.956-7.8v-.284l2.707-3.241s26.181-1.965,28.149,0a5.611,5.611,0,0,1,.955,2.957,67,67,0,0,1-.08,11.16s-.785,5.144-1.908,10.378a22.781,22.781,0,0,0,0,9.539A28.557,28.557,0,0,0,858.715,564.293Z" transform="translate(-596.648 -376.754)" fill="#65617d"/>
    <path id="Pfad_418" data-name="Pfad 418" d="M922.282,794.806c-1.169,1.544-8.041.89-9.212.409-.714-.284-.66-1.641-.466-3.025.122-.879.3-1.777.375-2.431a22.383,22.383,0,0,0-.569-5.1s1.541,1.638,1.914,0a1.783,1.783,0,0,1,1.336-1.268,3.491,3.491,0,0,1,2.428.151c1.214.529,3.238,1.652,2.877,3.17-.515,2.147,1.308,5.195,1.308,5.195a2.368,2.368,0,0,1,.341.586A2.243,2.243,0,0,1,922.282,794.806Z" transform="translate(-661.852 -566.267)" fill="#a27772"/>
    <path id="Pfad_419" data-name="Pfad 419" d="M922.453,817.326c-1.169,1.544-8.041.89-9.212.409-.714-.284-.66-1.641-.466-3.025a7.932,7.932,0,0,0,4.086.441,11.53,11.53,0,0,1,1.47-.046,34.183,34.183,0,0,0,4.464-.091A2.244,2.244,0,0,1,922.453,817.326Z" transform="translate(-662.023 -588.786)" opacity="0.1"/>
    <path id="Pfad_420" data-name="Pfad 420" d="M847.866,612.784c.466,6.076-.1,15.428-1.965,20.472a25.306,25.306,0,0,0-1.4,10,3.041,3.041,0,0,1-2.559.489c.569-3.944,2.968-20.935,4.507-34.361A56.227,56.227,0,0,1,856.4,583.58l1.635,1.8C853.569,587.723,847.866,612.784,847.866,612.784Z" transform="translate(-611.419 -423.374)" opacity="0.1"/>
    <path id="Pfad_421" data-name="Pfad 421" d="M889.295,312.41l-1.137,5.61-5.593,9.4-6.9-2.946s-9.383-9.818-3.483-11.22a5.221,5.221,0,0,0,1.956-.87A4.045,4.045,0,0,0,875.67,309a10.372,10.372,0,0,0-.95-4.02l12.061-3.787a19.364,19.364,0,0,0-.853,4.885c-.094,3.287,1.137,4.9,2.13,5.687A3.622,3.622,0,0,0,889.295,312.41Z" transform="translate(-631.672 -221.276)" fill="#fbbebe"/>
    <path id="Pfad_422" data-name="Pfad 422" d="M898.05,301.19a19.363,19.363,0,0,0-.853,4.885,9.167,9.167,0,0,1-.7.748A9.542,9.542,0,0,1,886.958,309a10.372,10.372,0,0,0-.958-4.02Z" transform="translate(-642.951 -221.276)" opacity="0.1"/>
    <path id="Pfad_423" data-name="Pfad 423" d="M885.229,271.756A9.494,9.494,0,1,1,882.447,265,9.539,9.539,0,0,1,885.229,271.756Z" transform="translate(-628.745 -193.386)" fill="#fbbebe"/>
    <path id="Pfad_424" data-name="Pfad 424" d="M889.295,339l-1.137,5.61-5.593,9.4-6.9-2.946s-9.383-9.818-3.483-11.22a5.221,5.221,0,0,0,1.956-.87c-1.063,2.923,3.327,9,3.327,9,.512.753,1.683.284,1.683.284,2.829-.429,8.035-8.564,8.885-9.917A3.622,3.622,0,0,0,889.295,339Z" transform="translate(-631.672 -247.863)" opacity="0.1"/>
    <path id="Pfad_425" data-name="Pfad 425" d="M876.152,522.26c-1.661.378-10.847,2.411-14.33,1.9-3.833-.569-11.285-.933-11.285-.933s-4.745.256-6.207-.412v-.284l2.707-3.241s26.181-1.965,28.149,0A5.586,5.586,0,0,1,876.152,522.26Z" transform="translate(-613.13 -376.74)" opacity="0.1"/>
    <path id="Pfad_426" data-name="Pfad 426" d="M842.553,348.477s-4.933-6.824-3.074-9.5l-8.334,3.412s-5.016-.608-6.824,6.878a13.021,13.021,0,0,0-.31,3.8,11.239,11.239,0,0,1-1.373,5.687c-2.056,4.114-1.589,13.56,2.619,14.5s5.7.466,5.7.466-.569,17.111-2.991,19.076,6.2,1.5,6.2,1.5,7.452.375,11.288.935,14.586-1.965,14.586-1.965-1.589-7.2-2.152-11.78-1.874-14.339-1.874-14.339l9.536-12.92s1.683-7.808-4.208-11.268a66.579,66.579,0,0,0-8.106-4.308s-5.92,9.639-9,10.105C844.237,348.755,843.065,349.227,842.553,348.477Z" transform="translate(-596.758 -248.085)" fill="#049ce7"/>
    <path id="Pfad_427" data-name="Pfad 427" d="M853.179,382.74a14.058,14.058,0,0,0,.469,4.3c.56,1.214,2.619,7.961,2.619,7.961H851.59s2.525-2.713,2.34-4.023S853.179,382.74,853.179,382.74Z" transform="translate(-618.325 -279.639)" opacity="0.1"/>
    <path id="Pfad_428" data-name="Pfad 428" d="M868.352,431.645s-10.327-2.525-11.288-4.674-3.614-6.963-3.614-6.963l1.089-1.467,5.021,3.941s5.971,4.768,8.792,5.237S868.352,431.645,868.352,431.645Z" transform="translate(-619.656 -305.26)" fill="#fbbebe"/>
    <path id="Pfad_429" data-name="Pfad 429" d="M868.352,431.645s-10.327-2.525-11.288-4.674-3.614-6.963-3.614-6.963l1.089-1.467,5.021,3.941s5.971,4.768,8.792,5.237S868.352,431.645,868.352,431.645Z" transform="translate(-619.656 -305.26)" opacity="0.05"/>
    <path id="Pfad_430" data-name="Pfad 430" d="M890.3,421.723v5.6h-.9a26.183,26.183,0,0,0-12.72,3.3l-1.684.933-.452.253-2.9-6.54,2.713-2.431h.139a16.218,16.218,0,0,0,4.748-.105c1.154-.392,2.587-1.635,5.988-.768,1.675.429,3.108,2.306,4.731,1.72Z" transform="translate(-632.682 -307.493)" fill="#fbbebe"/>
    <path id="Pfad_431" data-name="Pfad 431" d="M917.751,370l1.868,2.1v5.1s-1.589,16.082-6.636,17.859-14.063-1.029-14.063-1.029-2.329-6.17-1.24-6.54,9.625-2.627,9.625-2.627-.12-9.434,1.749-12.24c0,0-1.214-8.789,2.994-8.976S917.751,370,917.751,370Z" transform="translate(-651.103 -265.974)" opacity="0.1"/>
    <path id="Pfad_432" data-name="Pfad 432" d="M918.755,370l1.871,2.1v5.1s-1.589,16.082-6.639,17.859-14.063-1.029-14.063-1.029-2.329-6.17-1.237-6.54,9.625-2.627,9.625-2.627-.122-9.434,1.749-12.24c0,0-1.217-8.789,2.991-8.976S918.755,370,918.755,370Z" transform="translate(-651.823 -265.974)" fill="#049ce7"/>
    <path id="Pfad_433" data-name="Pfad 433" d="M887.522,275.719a3.759,3.759,0,0,0-.213-1.823,1.388,1.388,0,0,0-1.484-.853c-.8.188-1.137,1.228-1.928,1.479a1.541,1.541,0,0,1-1.706-.876,4.362,4.362,0,0,1-.324-2.036v-2.343a3.877,3.877,0,0,0-.552-2.437,4.3,4.3,0,0,0-3.207-1.16,2.721,2.721,0,0,0-1.831.736,2.357,2.357,0,0,1-1.925.685,1.658,1.658,0,0,1-1.342-1.16V265.9a9.536,9.536,0,1,1,14.177,12.658,25.748,25.748,0,0,0,.336-2.843Z" transform="translate(-633.655 -193.3)" opacity="0.1"/>
    <path id="Pfad_434" data-name="Pfad 434" d="M868.129,252.253a1.672,1.672,0,0,1-1.345-1.163c-.077-.3-.057-.623-.145-.921-.219-.736-1-1.117-1.53-1.678a3.758,3.758,0,0,1-.239-4.3,3.107,3.107,0,0,1,2.991-1.786c.756.131,1.422.668,2.178.719a4.394,4.394,0,0,0,2.084-.674,7.853,7.853,0,0,1,5.181-.461,2.986,2.986,0,0,1,1.422.719,12.451,12.451,0,0,1,.759,1.066c.87,1.109,2.431,1.328,3.822,1.578s2.963.8,3.412,2.138a5.587,5.587,0,0,1-.165,2.769.837.837,0,0,0,.037.569c.219.358.762.208,1.172.284.788.168.989,1.183,1.021,1.99q.048,1.382.074,2.767a3.523,3.523,0,0,1-.082,1.024,3.615,3.615,0,0,1-.793,1.288l-3.088,3.711c-1.37,1.643-2.823,3.56-2.559,5.687a1.324,1.324,0,0,1-1.632-.95,4.248,4.248,0,0,1,.1-2.107,25.829,25.829,0,0,0,.495-3.654,3.747,3.747,0,0,0-.213-1.82,1.387,1.387,0,0,0-1.484-.853c-.8.188-1.137,1.228-1.928,1.479a1.541,1.541,0,0,1-1.706-.876,4.349,4.349,0,0,1-.324-2.033v-2.346a3.878,3.878,0,0,0-.552-2.437,4.3,4.3,0,0,0-3.207-1.16,2.721,2.721,0,0,0-1.828.736A2.361,2.361,0,0,1,868.129,252.253Z" transform="translate(-627.432 -178.736)" fill="#7c5c5c"/>
    <path id="Pfad_435" data-name="Pfad 435" d="M885.3,381.92l2.929,12.03S890.537,393.936,885.3,381.92Z" transform="translate(-642.451 -279.052)" opacity="0.1"/>
    <path id="Pfad_436" data-name="Pfad 436" d="M913.736,374.85s-3.833,6.278-2.337,12.772l.714.051S910.838,384.668,913.736,374.85Z" transform="translate(-660.88 -273.992)" opacity="0.1"/>
    <path id="Pfad_437" data-name="Pfad 437" d="M929,498.979s4.708-1.558,5.05,2.056C934.061,501.035,933.174,498.558,929,498.979Z" transform="translate(-673.725 -362.588)" opacity="0.1"/>
    <path id="Pfad_438" data-name="Pfad 438" d="M860.929,426.81s-.935,6.54.748,9.164a20.508,20.508,0,0,1-8.229,1.123l-.569-10.287Z" transform="translate(-619.249 -311.178)" opacity="0.1"/>
    <path id="Pfad_439" data-name="Pfad 439" d="M875,434.508l-.452.253-2.9-6.54,2.713-2.431h.139C874.459,426.114,873.7,431.735,875,434.508Z" transform="translate(-632.682 -310.448)" opacity="0.1"/>
    <path id="Pfad_440" data-name="Pfad 440" d="M854.123,425.83s-.935,6.54.748,9.161a20.449,20.449,0,0,1-8.229,1.123L843.37,425.83Z" transform="translate(-612.443 -310.477)" fill="#049ce7"/>
    <path id="Pfad_441" data-name="Pfad 441" d="M796.941,790.224a2.118,2.118,0,0,1-1.817,1.854c-2.539.378-8.655,1.345-10.2,2.081-1.965.935-9.724.284-10.1-.654a1.484,1.484,0,0,1,.134-1.137,3,3,0,0,1,1.254-1.348,3.332,3.332,0,0,1,.569-.25c1.461-.486,4.222-1.521,4.967-2.607a31.691,31.691,0,0,0,4.424-4.637,2.246,2.246,0,0,1,1.8-1.12c.819-.037,1.732.375,2.107,2.169,0,0,4.484,2.559,5.687.316,0,0,.188,3.446.933,4.39h0A1.251,1.251,0,0,1,796.941,790.224Z" transform="translate(-563.346 -565.664)" fill="#a27772"/>
    <path id="Pfad_442" data-name="Pfad 442" d="M796.941,807.534a2.118,2.118,0,0,1-1.817,1.854c-2.539.378-8.655,1.345-10.2,2.081-1.965.935-9.724.284-10.1-.654a1.484,1.484,0,0,1,.134-1.137,3,3,0,0,1,1.254-1.348c1.265.853,4.074,1.66,10.253.7,5.894-.921,8.814-1.823,10.236-2.437h0a1.251,1.251,0,0,1,.239.944Z" transform="translate(-563.346 -582.975)" opacity="0.1"/>
    <g id="Gruppe_21" data-name="Gruppe 21" transform="translate(236.874 67.435)" opacity="0.1">
      <path id="Pfad_443" data-name="Pfad 443" d="M942.414,266.689v-.046a8.367,8.367,0,0,0,.284-2.124,14,14,0,0,1-.284,1.706A1.035,1.035,0,0,0,942.414,266.689Z" transform="translate(-920.181 -262.467)"/>
      <path id="Pfad_444" data-name="Pfad 444" d="M881.062,270.274a2.7,2.7,0,0,1,.23,1.069,3.224,3.224,0,0,0-.23-1.49,1.382,1.382,0,0,0-1.481-.853c-.8.188-1.137,1.228-1.931,1.479a1.544,1.544,0,0,1-1.706-.876,4.325,4.325,0,0,1-.324-2.036v-2.343a3.877,3.877,0,0,0-.552-2.437,4.309,4.309,0,0,0-3.207-1.163,2.724,2.724,0,0,0-1.831.739,2.362,2.362,0,0,1-1.928.685,1.666,1.666,0,0,1-1.342-1.16c-.077-.3-.057-.626-.145-.924-.219-.734-1-1.117-1.53-1.675a3.062,3.062,0,0,1-.788-1.99,3.187,3.187,0,0,0,.788,2.4c.526.569,1.311.941,1.53,1.675.088.284.068.623.145.924a1.666,1.666,0,0,0,1.342,1.16,2.363,2.363,0,0,0,1.928-.685,2.724,2.724,0,0,1,1.831-.739,4.3,4.3,0,0,1,3.207,1.163,3.9,3.9,0,0,1,.552,2.437v2.343a4.3,4.3,0,0,0,.324,2.033,1.548,1.548,0,0,0,1.706.879c.785-.25,1.137-1.291,1.931-1.479A1.436,1.436,0,0,1,881.062,270.274Z" transform="translate(-864.285 -257.3)"/>
      <path id="Pfad_445" data-name="Pfad 445" d="M934.086,292.356a3.593,3.593,0,0,1-.8,1.285l-3.088,3.71c-1.3,1.561-2.673,3.369-2.559,5.363.094-1.828,1.368-3.492,2.559-4.942l3.088-3.711a3.592,3.592,0,0,0,.8-1.285,3.55,3.55,0,0,0,.083-1.026A2.7,2.7,0,0,1,934.086,292.356Z" transform="translate(-909.624 -281.955)"/>
      <path id="Pfad_446" data-name="Pfad 446" d="M921.742,326.85a2.182,2.182,0,0,1-.094-.5,2.521,2.521,0,0,0,.094.921,1.319,1.319,0,0,0,1.632.947,3.962,3.962,0,0,1-.034-.409A1.321,1.321,0,0,1,921.742,326.85Z" transform="translate(-905.332 -306.717)"/>
    </g>
    <path id="Pfad_447" data-name="Pfad 447" d="M812.69,789.36s.978,1.706,4.521.2" transform="translate(-590.486 -570.644)" opacity="0.1"/>
    <path id="Pfad_448" data-name="Pfad 448" d="M918,790.82s3.054,3.6,6.9,1.18" transform="translate(-665.853 -571.689)" opacity="0.1"/>
    <path id="Pfad_449" data-name="Pfad 449" d="M943.649,641.23s-2.158,1.348-2.226,2.118,1.115-.569,1.115-.569Z" transform="translate(-682.614 -464.632)" opacity="0.1"/>
    <path id="Pfad_450" data-name="Pfad 450" d="M942.508,677.59a4.512,4.512,0,0,1-2.658,1.038c-1.615.071-1.479,2.175-.424,1.544A26.463,26.463,0,0,0,942.508,677.59Z" transform="translate(-680.62 -490.654)" opacity="0.1"/>
    <path id="Pfad_451" data-name="Pfad 451" d="M948.977,682.34s-1.035,5.087-1.877,4.106" transform="translate(-686.679 -494.053)" opacity="0.1"/>
    <path id="Pfad_452" data-name="Pfad 452" d="M242.64,396.663s6.5,1.783,9.625-.589,4.484-1.609,4.484-1.609,7.458-.412,8.072-2.175-2.86-8.166-2.86-8.166c-.247-.569-.608-1.291-.771-1.291l.034-2.7h0l1.08-11.3c2.494-6.395.045-14.657.045-14.657l-.446-2.05a5.186,5.186,0,0,1,.424-3.412l4.529-9.1a13.617,13.617,0,0,1,.853-1.746c.284-.52.662-1.163,1.137-1.933.139-.222.284-.452.444-.694.549-.853,1.214-1.82,2.019-2.934a24.01,24.01,0,0,0,3.605-8.814l.242.8h.054l.065.014h.108l.117.02h.043l1.393,17.731c.085,6.915,2.624,10.742,2.624,10.742l-.35,15.266c.478,3.676-.569,8.578-1.049,10.534l-1.1,2.477a2.977,2.977,0,0,0-1.618,2.252c-.216,1.828-2.141,5.769-2.141,5.769-.745.944-2.363,3.494-2.363,3.494s-.762,2.462-.29,3.384,4.419.827,4.419.827c4.507,1,7.961-1.422,7.742-3.088s.7-2.09.7-2.09c1.791-.569,1.618-1.783,1.618-1.783a11.157,11.157,0,0,0-1.356-7.262l-.284.657a10,10,0,0,1,.54-3.875l-.165.114-.051.031H283.8c.284-2.494,2.9-7.108,2.9-7.108,4.811-8.439,3.062-19.875,3.062-19.875l-.745-3.565-.043-1.345a44.887,44.887,0,0,1,.725-9.582c.259-1.4.526-3.088.731-4.95a43.752,43.752,0,0,1,2.468-9.716l.191-.034h.023c.262-.045.526-.091.793-.142h.051s.154-.83.284-2.243c.077-.9.139-2.044.139-3.358a37.778,37.778,0,0,0-1.794-11.689l.145-.208s.344-.466.972-1.274h0c1.154-1.467,2.951-3.7,5.166-6.21a10.645,10.645,0,0,0,2.8-9.1s-2.872-10.523-4.151-16.841a19.152,19.152,0,0,0-3.15-7.492,14.912,14.912,0,0,0,.4-3.037,11.094,11.094,0,0,0-.822-5.5,4.727,4.727,0,0,0-4.5-2.784,1.723,1.723,0,0,1-.808,0,1.228,1.228,0,0,1-.532-.463,6.979,6.979,0,0,1-.825-5.371c.341-1.831,1.041-3.583,1.353-5.419a6.71,6.71,0,0,0-1-5.331c-1.373-1.706-3.767-2.187-5.553-3.469-1.254-.9-2.2-2.2-3.517-2.994s-2.559-.495-3.995-.193c-2.414.509-4.709.742-6.992,1.78a18.62,18.62,0,0,0-6.093,4.433,5.783,5.783,0,0,0-1.359,2.144c-.569,1.879.543,3.881.31,5.826a11.527,11.527,0,0,1-1.624,3.81,4.936,4.936,0,0,0-.631,3.981c.8,2.013,3.392,2.44,5.28,3.511a1.612,1.612,0,0,1,.626.543c.466.813-.486,1.658-1.086,2.38a3.586,3.586,0,0,0-.711,1.444,5.152,5.152,0,0,0-3.091,3.73c-.64,2.863.344,6.477,1.211,8.865-.947,5.32.284,7.418,1.191,8.223a4.564,4.564,0,0,1,1.581,3.111v.1c.06.967.162,1.931.3,2.892h0c-.031-.225-.063-.463-.08-.569-.742,1.373-2.155,4.882-2.951,10.785a32.418,32.418,0,0,1-.719,3.756,20.54,20.54,0,0,0-.6,6.716l.142,1.914a.6.6,0,0,1-.387-.128l1,1.828v3.085a11.374,11.374,0,0,1-.756,4.069c-.071.188-.148.375-.23.569a3.309,3.309,0,0,0-.336,1.675c-2.147,3.29-7.068,21.726-7.068,21.726-2.67,6.045.219,9.952.219,9.952s1.4,16.83,1.66,17.7.842,11.129.842,11.129h0v.816a1.916,1.916,0,0,0-.486-.139c-2.34-.131-2.974,3.566-2.974,3.566L245.964,390s-2.187-.37-5.4,2.044S242.64,396.663,242.64,396.663ZM290.45,299.4l-.014-.051-.131.077h0l-.054.031-.026.017h0l-2.206-7.788a12.931,12.931,0,0,1-.162-6.406l1.706-7.472h0v-1.8l5.422,14.45C295.332,292.4,292.111,297.121,290.45,299.4Z" transform="translate(-180.289 -170.252)" fill="url(#linear-gradient-4)"/>
    <path id="Pfad_453" data-name="Pfad 453" d="M383.094,557a44.781,44.781,0,0,0-2.747,10.435c-.2,1.842-.463,3.509-.719,4.89a44.693,44.693,0,0,0-.7,9.46l.043,1.328.711,3.517s1.706,11.3-3.005,19.619c0,0-2.792,4.984-2.877,7.344l-1.891.731-3.821-1.072s1.845-6.616,1.245-11.254l.344-15.07s-2.482-3.77-2.568-10.594l-1.459-18.726Z" transform="translate(-270.553 -404.351)" fill="#fdc2cc"/>
    <path id="Pfad_454" data-name="Pfad 454" d="M303.6,547.62s-.469,7.3-4.08,12.334-4.379,7.216-4.379,7.216l-4.447,8.991a5.149,5.149,0,0,0-.418,3.364l.438,2.024s2.405,8.16-.043,14.475l-1.16,12.2H282.73s-.569-10.136-.816-11-1.632-17.481-1.632-17.481-2.843-3.867-.216-9.835c0,0,5.928-22.334,7.515-21.948S303.6,547.62,303.6,547.62Z" transform="translate(-208.506 -397.638)" fill="#fdc2cc"/>
    <g id="Gruppe_22" data-name="Gruppe 22" transform="translate(80.32 149.982)" opacity="0.1">
      <path id="Pfad_455" data-name="Pfad 455" d="M314.883,581.563l-.435-2.024a5.118,5.118,0,0,1,.415-3.378l4.447-9s.771-2.189,4.379-7.216c3.466-4.834,4.037-11.76,4.077-12.292l.691-.034s-.469,7.3-4.08,12.334S320,567.171,320,567.171l-4.447,8.991a5.149,5.149,0,0,0-.418,3.364l.438,2.024s2.405,8.16-.043,14.475l-1.16,12.2h-.688l1.16-12.2C317.288,589.71,314.883,581.563,314.883,581.563Z" transform="translate(-313.68 -547.62)"/>
    </g>
    <path id="Pfad_456" data-name="Pfad 456" d="M387.872,613.6c.085-2.36,2.877-7.344,2.877-7.344,4.726-8.331,3.005-19.619,3.005-19.619l-.728-3.52-.043-1.328a44.692,44.692,0,0,1,.7-9.46c.253-1.382.515-3.048.717-4.891a44.773,44.773,0,0,1,2.738-10.412l.705-.028a44.779,44.779,0,0,0-2.747,10.435c-.2,1.842-.463,3.509-.719,4.89a44.691,44.691,0,0,0-.7,9.46l.043,1.328.711,3.517s1.706,11.3-3.005,19.619c0,0-2.792,4.984-2.877,7.344l-1.891.731-.4-.111Z" transform="translate(-285.303 -404.351)" opacity="0.1"/>
    <path id="Pfad_457" data-name="Pfad 457" d="M373.295,752.986a3.287,3.287,0,0,0,3.128-.387,10.094,10.094,0,0,0-.256,5.67c.773,3.094-7.216-2.491-7.216-2.491l1.706-3.9A2.675,2.675,0,0,0,373.295,752.986Z" transform="translate(-272.915 -543.821)" fill="#d39999"/>
    <path id="Pfad_458" data-name="Pfad 458" d="M373.9,753.138a3.193,3.193,0,0,0,2.539-.569,10.094,10.094,0,0,0-.256,5.67c.773,3.094-7.216-2.491-7.216-2.491l1.706-3.9a2.438,2.438,0,0,0,1.948,1.1C373.064,753,373.485,753.058,373.9,753.138Z" transform="translate(-272.929 -543.799)" opacity="0.1"/>
    <path id="Pfad_459" data-name="Pfad 459" d="M289.32,432.7h3.338V413.759l-2.5-.449Z" transform="translate(-207.067 -295.79)" fill="#fdc2cc"/>
    <path id="Pfad_460" data-name="Pfad 460" d="M289.32,432.7h3.338V413.759l-2.5-.449Z" transform="translate(-207.067 -295.79)" opacity="0.05"/>
    <path id="Pfad_461" data-name="Pfad 461" d="M356.742,760.055a3.328,3.328,0,0,1,3.048,1.76l1.16.9.569-1.331a11.088,11.088,0,0,1,1.314,7.174s.171,1.2-1.589,1.76c0,0-.9.429-.688,2.061s-3.176,4.038-7.6,3.048c0,0-3.867.088-4.339-.816s.3-3.307.3-3.307,1.589-2.519,2.317-3.449a27.919,27.919,0,0,0,2.107-5.687C353.557,760.379,355.625,759.065,356.742,760.055Z" transform="translate(-258.253 -549.428)" fill="#7e5659"/>
    <path id="Pfad_462" data-name="Pfad 462" d="M298.325,759.415l.034-2.67s-3.841,1.106-6.952-.145c0,0,.262,2.684-.171,3.051s1.439,3.821,1.439,3.821l2.09,2.189,3.594-1.308.975-3.071S298.581,759.415,298.325,759.415Z" transform="translate(-217.252 -547.199)" fill="#d39999"/>
    <path id="Pfad_463" data-name="Pfad 463" d="M298.325,759.415l.034-2.67s-3.841,1.106-6.952-.145c0,0,.262,2.684-.171,3.051s1.439,3.821,1.439,3.821l2.09,2.189,3.594-1.308.975-3.071S298.581,759.415,298.325,759.415Z" transform="translate(-217.252 -547.199)" opacity="0.1"/>
    <path id="Pfad_464" data-name="Pfad 464" d="M255.472,763.091s2.041.236,1.783,2.843.108,0,.108,0a7.477,7.477,0,0,1,2.943,2.1c.773,1.225,2.169-1.095,2.275-1.76s.975-.941.975-.941,3.412,6.326,2.809,8.066-7.927,2.141-7.927,2.141-1.334-.751-4.4,1.589-9.448.569-9.448.569-5.2-2.169-2.039-4.549,5.3-2.019,5.3-2.019l4.7-4.532S253.175,762.961,255.472,763.091Z" transform="translate(-181.723 -551.842)" fill="#7e5659"/>
    <path id="Pfad_465" data-name="Pfad 465" d="M325.436,235.8c1.3.788,2.223,2.067,3.455,2.957,1.751,1.265,4.1,1.737,5.451,3.426a6.694,6.694,0,0,1,.978,5.263c-.307,1.814-1,3.546-1.328,5.354a6.932,6.932,0,0,0,.81,5.3,1.2,1.2,0,0,0,.52.458,1.705,1.705,0,0,0,.793,0,4.643,4.643,0,0,1,4.424,2.749,11.011,11.011,0,0,1,.8,5.434,11.23,11.23,0,0,1-.907,4.427c-1.137,2.32-3.5,3.753-5.837,4.851a45.213,45.213,0,0,1-4.66,1.882,7.014,7.014,0,0,1-3.378.509c-1.942-.336-3.318-2.1-5.161-2.792a10.864,10.864,0,0,0-4.791-.222c-1.37.119-2.937.117-3.881-.884-1.211-1.285-.665-3.358-.045-5.013a3.568,3.568,0,0,1-2.525-5.834c.586-.714,1.521-1.547,1.063-2.351a1.557,1.557,0,0,0-.614-.535c-1.851-1.058-4.4-1.481-5.181-3.466a4.888,4.888,0,0,1,.617-3.935,11.667,11.667,0,0,0,1.6-3.762c.227-1.922-.853-3.9-.3-5.752a5.766,5.766,0,0,1,1.333-2.121,18.3,18.3,0,0,1,5.971-4.376,31.011,31.011,0,0,1,6.864-1.757C322.926,235.315,324.1,235,325.436,235.8Z" transform="translate(-227.306 -174.115)" fill="#865a61"/>
    <path id="Pfad_466" data-name="Pfad 466" d="M315.423,337.751s-5.439-.284-6.469,4.353,2.232,11.279,2.232,11.279Z" transform="translate(-229.834 -247.439)" fill="#fdc2cc"/>
    <path id="Pfad_467" data-name="Pfad 467" d="M315.423,337.751s-5.439-.284-6.469,4.353,2.232,11.279,2.232,11.279Z" transform="translate(-229.834 -247.439)" opacity="0.05"/>
    <path id="Pfad_468" data-name="Pfad 468" d="M320,323.253l2.061,1.632,9.619.429,6.005-4.123,6.107-10.48a7.551,7.551,0,0,1-5.806-5.943,13.011,13.011,0,0,1-.119-4.964s-9.792-5.07-8.59,2.843a10.747,10.747,0,0,1,.091,2.94c-.569,4.635-5.067,3.762-5.067,3.762l-1.726,2.661-1.976,6.54Z" transform="translate(-237.883 -219.14)" fill="#fdc2cc"/>
    <path id="Pfad_469" data-name="Pfad 469" d="M352.4,302.631a10.748,10.748,0,0,1,.091,2.94,8.681,8.681,0,0,0,8.618-.807,13.011,13.011,0,0,1-.119-4.964S351.2,294.73,352.4,302.631Z" transform="translate(-260.999 -219.135)" opacity="0.1"/>
    <circle id="Ellipse_117" data-name="Ellipse 117" cx="8.675" cy="8.675" r="8.675" transform="translate(86.427 69.527)" fill="#fdc2cc"/>
    <path id="Pfad_470" data-name="Pfad 470" d="M321.487,349.248c.21,0,.418.031.626.051,1.137.114,5.888.37,8.6-2.863,3.028-3.617,7.06-8.083,7.225-8.266l4.1,1.24s-3.247-1.154-5.4,4.885a6.255,6.255,0,0,0,2.113,7.2,6.5,6.5,0,0,0,2.684,1.137.014.014,0,0,1,0,.014v2.65h0l-1.678,7.393a12.814,12.814,0,0,0,.159,6.326l2.559,9.045c-.387.267-16.264,11.066-26.869,3.608h0c.04-.324,1.351-10.938.441-16.133a35.884,35.884,0,0,1-.475-4.015v-.1a4.526,4.526,0,0,0-1.555-3.071c-.955-.853-2.249-3.128-.97-9.138a22.08,22.08,0,0,1,1.422-4.33l3.557-8.038h0l3.278.065v.023c-.284.353-4.086,5.1-4.5,8.16C316.4,348,315.9,348.89,321.487,349.248Z" transform="translate(-232.52 -246.79)" fill="#049ce7"/>
    <path id="Pfad_471" data-name="Pfad 471" d="M386.007,346.96s3.207,2.749,4.467,8.991,4.066,16.608,4.066,16.608a10.6,10.6,0,0,1-2.749,8.991c-3.887,4.467-6.471,7.961-6.471,7.961l-2.559,3.77a3.21,3.21,0,0,1-1.842,1.3,6.224,6.224,0,0,1-4.51-.321,2.627,2.627,0,0,1-1.137-3.318l.569-1.316s-5.269,3.321-5.726,1.487,6.127-3.665,6.127-3.665,5.439-.916,6.54-3.492c0,0,5.84-7.5,5.382-10.08l-5.641-15.118s-7.054-.933-4.649-8.857S386.007,346.96,386.007,346.96Z" transform="translate(-273.731 -252.926)" fill="#fdc2cc"/>
    <path id="Pfad_472" data-name="Pfad 472" d="M307.318,497.832s12.886,2.576,15.923,2.232l.327,1.089s4.891,1.095,15.948-.66q1.083-.171,2.249-.384l.259-.045s.151-.819.27-2.215a38.411,38.411,0,0,0-1.874-15.593l-1.86-5.726s-11.493,6.889-19.1,6.255c-.68-.057-1.353-.111-2.033-.134-1.561-.06-3.981,0-5.553-1.26l-3.3.569v9.383a11.242,11.242,0,0,1-.745,4.015c-.071.188-.145.372-.227.569A2.985,2.985,0,0,0,307.318,497.832Z" transform="translate(-228.772 -346.761)" fill="#65617d"/>
    <path id="Pfad_473" data-name="Pfad 473" d="M364.58,551.894v2.92s5.63,1.26,18.456-1.089c0,0,.151-.819.27-2.215C379.371,552.141,368.518,553.66,364.58,551.894Z" transform="translate(-269.788 -400.422)" opacity="0.1"/>
    <path id="Pfad_474" data-name="Pfad 474" d="M307.322,545.252s12.886,2.576,15.923,2.232l.327,1.089v-2.92c-1.467.608-11.942-1.916-15.738-2.863-.071.188-.145.372-.227.569a2.986,2.986,0,0,0-.284,1.894Z" transform="translate(-228.776 -394.181)" opacity="0.1"/>
    <path id="Pfad_475" data-name="Pfad 475" d="M417.31,535.391l.955,5.925q1.083-.171,2.249-.384c-.3-1.732-.95-5.687-.771-6.343l-1.2-1.029Z" transform="translate(-307.525 -387.576)" fill="#65617d"/>
    <path id="Pfad_476" data-name="Pfad 476" d="M417.78,534.941l.955,5.928q1.083-.173,2.249-.384c-.3-1.732-.95-5.687-.771-6.343l-1.2-1.032Z" transform="translate(-307.861 -387.254)" opacity="0.1"/>
    <g id="Gruppe_23" data-name="Gruppe 23" transform="translate(82.546 129.76)" opacity="0.05">
      <path id="Pfad_477" data-name="Pfad 477" d="M328.96,495.013c-.677-.057-1.353-.111-2.033-.134-1.518-.057-3.836,0-5.417-1.163l.552-.1c1.581,1.254,3.981,1.2,5.553,1.26.68.023,1.353.077,2.033.134.222.02.449.031.68.037A12.766,12.766,0,0,1,328.96,495.013Z" transform="translate(-321.51 -488.752)"/>
      <path id="Pfad_478" data-name="Pfad 478" d="M390.79,500.472q1.083-.171,2.249-.381l.262-.048s.151-.819.267-2.215a38.31,38.31,0,0,0-1.874-15.593l-1.751-5.4c.372-.21.569-.333.569-.333l1.859,5.726a38.411,38.411,0,0,1,1.874,15.593c-.119,1.4-.27,2.215-.27,2.215l-.259.048q-1.163.21-2.249.381a70.831,70.831,0,0,1-11.586,1A73.072,73.072,0,0,0,390.79,500.472Z" transform="translate(-363.284 -476.5)"/>
      <path id="Pfad_479" data-name="Pfad 479" d="M360.07,559.3v.031h-.37Q359.91,559.317,360.07,559.3Z" transform="translate(-348.841 -535.757)"/>
    </g>
    <ellipse id="Ellipse_118" data-name="Ellipse 118" cx="0.486" cy="1.001" rx="0.486" ry="1.001" transform="translate(110.9 146.92)" fill="#d39999"/>
    <path id="Pfad_480" data-name="Pfad 480" d="M310.393,442.288c.785-5.829,2.169-9.292,2.9-10.648.028.185.1.785.137.97a28.164,28.164,0,0,1,.063,3.011l-.728,13.182.975,4.123c.916,3.264-2.477.685-2.477.685a2.019,2.019,0,0,1-1.99,1.376l-.176-2.366a20.432,20.432,0,0,1,.591-6.633,31.608,31.608,0,0,0,.705-3.7Z" transform="translate(-230.039 -314.635)" fill="#fdc2cc"/>
    <path id="Pfad_481" data-name="Pfad 481" d="M310.393,442.288c.785-5.829,2.169-9.292,2.9-10.648.028.185.1.785.137.97a28.164,28.164,0,0,1,.063,3.011l-.728,13.182.975,4.123c.916,3.264-2.477.685-2.477.685a2.019,2.019,0,0,1-1.99,1.376l-.176-2.366a20.432,20.432,0,0,1,.591-6.633,31.608,31.608,0,0,0,.705-3.7Z" transform="translate(-230.039 -314.635)" opacity="0.05"/>
    <path id="Pfad_482" data-name="Pfad 482" d="M387.844,479.4c-.617.8-.955,1.257-.955,1.257l-2.559,3.767a3.2,3.2,0,0,1-1.842,1.3,6.209,6.209,0,0,1-4.509-.321,2.622,2.622,0,0,1-1.137-3.315l.569-1.319s-5.269,3.321-5.726,1.49,6.127-3.665,6.127-3.665,5.439-.916,6.54-3.494c0,0,.475-.608,1.137-1.541" transform="translate(-274.854 -344.636)" fill="#fdc2cc"/>
    <path id="Pfad_483" data-name="Pfad 483" d="M394.387,505.818s-6.23-.606-8.2-4.168l-.9,2.943s6.54,4.515,8.032,3.929Z" transform="translate(-284.602 -364.739)" fill="#65617d"/>
    <path id="Pfad_484" data-name="Pfad 484" d="M393.614,505.711s-6.227-.606-8.2-4.171l-.9,2.934s6.54,4.515,8.03,3.929Z" transform="translate(-284.051 -364.66)" opacity="0.1"/>
    <path id="Pfad_485" data-name="Pfad 485" d="M311.01,510.46s-2.181.773-2.61.344l.981,1.805,1.854-1.422Z" transform="translate(-229.581 -371.044)" fill="#65617d"/>
    <path id="Pfad_486" data-name="Pfad 486" d="M311.01,510.46s-2.181.773-2.61.344l.981,1.805,1.854-1.422Z" transform="translate(-229.581 -371.044)" opacity="0.1"/>
    <path id="Pfad_487" data-name="Pfad 487" d="M331.166,523.237V519.47l-.9,3.858Z" transform="translate(-236.373 -371.766)" opacity="0.1"/>
    <path id="Pfad_488" data-name="Pfad 488" d="M346.116,258.525a3.346,3.346,0,0,1-2.337,1.231,18.416,18.416,0,0,1-2.715,0,6.81,6.81,0,0,0-4.1,1.032,10.415,10.415,0,0,0-1.879,1.99c-1.757,2.147-4.2,4.157-6.966,3.932a1.806,1.806,0,0,1-1.294-.546,2.076,2.076,0,0,1-.33-1.177,26.907,26.907,0,0,1,.168-5.306,11.187,11.187,0,0,1,.8-3.165,10.8,10.8,0,0,1,1.928-2.752,11.791,11.791,0,0,1,3.364-2.7,6.033,6.033,0,0,1,4.208-.543c1.658.452,2.949,1.749,4.529,2.417C343.3,253.7,348.1,255.73,346.116,258.525Z" transform="translate(-242.489 -184.903)" opacity="0.1"/>
    <path id="Pfad_489" data-name="Pfad 489" d="M346.116,257.308a3.346,3.346,0,0,1-2.337,1.231,18.42,18.42,0,0,1-2.715,0,6.789,6.789,0,0,0-4.1,1.029,10.417,10.417,0,0,0-1.879,1.99c-1.757,2.147-4.2,4.157-6.966,3.932a1.794,1.794,0,0,1-1.294-.546,2.067,2.067,0,0,1-.33-1.177,26.909,26.909,0,0,1,.168-5.306,11.186,11.186,0,0,1,.8-3.165,10.732,10.732,0,0,1,1.928-2.749,11.751,11.751,0,0,1,3.364-2.7,6.034,6.034,0,0,1,4.208-.543c1.658.452,2.949,1.749,4.529,2.417C343.3,252.486,348.095,254.507,346.116,257.308Z" transform="translate(-242.489 -184.03)" fill="#865a61"/>
    <path id="Pfad_490" data-name="Pfad 490" d="M291.656,473.47l-.023,1.038-.233-.992Z" transform="translate(-208.555 -338.845)" fill="#fdc2cc"/>
    <path id="Pfad_491" data-name="Pfad 491" d="M291.656,473.47l-.023,1.038-.233-.992Z" transform="translate(-208.555 -338.845)" opacity="0.05"/>
    <g id="Gruppe_24" data-name="Gruppe 24" transform="translate(103.494 92.732)" opacity="0.05">
      <path id="Pfad_492" data-name="Pfad 492" d="M396.718,349.972c-2.408,7.924,4.612,8.854,4.612,8.854l5.641,15.118c.458,2.576-5.385,10.08-5.385,10.08a5,5,0,0,1-2.531,2.232,3.964,3.964,0,0,0,1.5-1.649s5.84-7.5,5.382-10.077L400.3,359.409s-7.017-.93-4.612-8.854c.8-2.647,1.99-3.853,3.19-4.285A7.3,7.3,0,0,0,396.718,349.972Z" transform="translate(-395.184 -346.27)"/>
    </g>
    <g id="Gruppe_25" data-name="Gruppe 25" transform="translate(80.007 90.048)" opacity="0.1">
      <path id="Pfad_493" data-name="Pfad 493" d="M401,384.61a5.924,5.924,0,0,0,1.137,1.078,6.463,6.463,0,0,0,2.684,1.137v.3a6.443,6.443,0,0,1-2.434-1.078A5.9,5.9,0,0,1,401,384.61Z" transform="translate(-375.859 -371.025)"/>
      <path id="Pfad_494" data-name="Pfad 494" d="M321.725,418.2v.1a36.724,36.724,0,0,0,.489,4.029c.853,4.9-.264,14.635-.424,15.979-.091-.06-.182-.117-.284-.182.043-.324,1.353-10.938.444-16.13a36.027,36.027,0,0,1-.475-4.015v-.1a4.387,4.387,0,0,0-.765-2.175A4.421,4.421,0,0,1,321.725,418.2Z" transform="translate(-318.398 -393.282)"/>
      <path id="Pfad_495" data-name="Pfad 495" d="M321.139,337.22l-2.781-.054a.014.014,0,0,0-.014,0L314.79,345.2a22.152,22.152,0,0,0-1.422,4.33c-1.035,4.862-.384,7.285.407,8.482-.89-1.049-1.808-3.44-.663-8.814a21.919,21.919,0,0,1,1.407-4.333l3.58-8.035h0l3.278.065v.02C321.353,336.949,321.264,337.057,321.139,337.22Z" transform="translate(-312.577 -336.83)"/>
      <path id="Pfad_496" data-name="Pfad 496" d="M416.39,345.87l.048.014Z" transform="translate(-386.873 -343.3)"/>
      <path id="Pfad_497" data-name="Pfad 497" d="M352.433,342.733l-2.786-.839h-.014c-.165.182-4.194,4.649-7.222,8.266-2.707,3.233-7.452,2.98-8.6,2.866-.208-.023-.418-.04-.626-.054-3.108-.2-4.33-.569-4.74-1.353.583.569,1.865.853,4.481,1.012.21,0,.418.031.626.051,1.137.114,5.889.367,8.6-2.863,3.028-3.62,7.06-8.086,7.225-8.268h0l4.055,1.228A2.533,2.533,0,0,0,352.433,342.733Z" transform="translate(-323.937 -340.208)"/>
    </g>
    <path id="Pfad_498" data-name="Pfad 498" d="M284.983,776.091s-3.924,1.072-4.683-.611" transform="translate(-209.471 -560.71)" opacity="0.1"/>
    <path id="Pfad_499" data-name="Pfad 499" d="M370.281,773.183s-4.549,1.174-5.6-.643" transform="translate(-269.859 -558.606)" opacity="0.1"/>
    <path id="Pfad_500" data-name="Pfad 500" d="M537.693,745.769c.065-.569.159-1.137.262-1.706a11.892,11.892,0,0,0-.569-5.766h0c-.105-.3-.182-.466-.182-.466-1.811-.495-8.951,5.044-11.552,7.131-.9,0-1.879.04-2.948.111-.466.034-.933.045-1.4.037H519.6c-2.414-1.945-9.886-7.794-11.746-7.287,0,0-.077.168-.182.466h0a11.683,11.683,0,0,0-.583,5.766c.1.569.2,1.137.262,1.706a8.163,8.163,0,0,0,2.559,5.263,34.494,34.494,0,0,0,3.1,9.2,6.588,6.588,0,0,0,.4,1.3c-.483,1.865-1.041,4.3-.881,5.118,0,0-2.525-.611-2.781,2.428v.094c-.913.418-2.053,1.376-.771,3.384a1.317,1.317,0,0,0,.66.537c.227.08.449.08.426-.239l1.578,1.777s2.86.33,2.894-1.331l.168.026c.384.057.785.105,1.2.148l.2.657s-2.147-.046-1.561,1.277c0,0,.54.5.725.318,0,0-.284.867.836.867,0,0,1.2.637,1.672.182s1.442-1.137,1.533-1.422c.026-.077.037-.751.043-1.683h.185c2.4.057,4.942-.02,7.256-.145h.188c0,1.009.014,1.754.04,1.834.094.284,1.069.958,1.535,1.422s1.669-.182,1.669-.182c1.115,0,.836-.867.836-.867.188.182.728-.318.728-.318.586-1.322-1.564-1.277-1.564-1.277l.256-.853,1.186-.1.188-.017c-.114,1.806,2.892,1.459,2.892,1.459l1.581-1.777c-.026.318.2.318.424.239a1.305,1.305,0,0,0,.64-.543c1.936-3.028-1.641-3.671-1.641-3.671a1.748,1.748,0,0,0-.338-.054.585.585,0,0,1,.014-.156h0a6.237,6.237,0,0,0,.023-1.2,2.639,2.639,0,0,0-2.13-1.55c-.728-.091-.742-3.435-.668-5.752a6.615,6.615,0,0,0,.114-1.319,6.961,6.961,0,0,0-.284-2.113,27.089,27.089,0,0,0,2.687-5.687A8.273,8.273,0,0,0,537.693,745.769Z" transform="translate(-371.67 -533.738)" fill="url(#linear-gradient-5)"/>
    <path id="Pfad_501" data-name="Pfad 501" d="M543.057,820.642h0c-.114,1.575-.418,4.1-.418,4.1s-1.265.153-3.221.33l-1.328.114c-1.018.083-2.161.162-3.369.23-2.232.122-4.683.2-6.995.142-1.154-.026-2.275-.085-3.312-.188-.464-.046-.913-.1-1.339-.162-2.65-.4-4.549-1.151-4.711-2.479a7.677,7.677,0,0,1-.06-1.706c.247-2.985,2.678-2.383,2.678-2.383-.156-.825.432-3.386.91-5.24.3-1.169.569-2.056.569-2.056l17.094-1.137h.057a.836.836,0,0,1,.836.879c-.1,2.05-.247,6.744.591,6.85a2.577,2.577,0,0,1,2.056,1.521A6.389,6.389,0,0,1,543.057,820.642Z" transform="translate(-379.787 -585.566)" fill="#049ce7"/>
    <path id="Pfad_502" data-name="Pfad 502" d="M521.793,748.153s-6.446,7.759-9.551,5.61c-.074-.051-.145-.1-.213-.156a7.909,7.909,0,0,1-2.781-5.422c-.063-.569-.154-1.117-.253-1.672a11.609,11.609,0,0,1,.569-5.661h0c.1-.284.173-.458.173-.458C511.884,739.8,521.793,748.153,521.793,748.153Z" transform="translate(-373.04 -535.578)" fill="#049ce7"/>
    <path id="Pfad_503" data-name="Pfad 503" d="M518.294,750.1s-2.03,1.422-4.893,3.759a10.337,10.337,0,0,1-1.422.978,7.909,7.909,0,0,1-2.781-5.422c-.063-.569-.154-1.117-.253-1.672a11.609,11.609,0,0,1,.569-5.661h0C513.529,742.359,518.294,750.1,518.294,750.1Z" transform="translate(-373.004 -536.807)" fill="#049ce7"/>
    <path id="Pfad_504" data-name="Pfad 504" d="M518.294,750.1s-2.03,1.422-4.893,3.759a10.337,10.337,0,0,1-1.422.978,7.909,7.909,0,0,1-2.781-5.422c-.063-.569-.154-1.117-.253-1.672a11.609,11.609,0,0,1,.569-5.661h0C513.529,742.359,518.294,750.1,518.294,750.1Z" transform="translate(-373.004 -536.807)" fill="#fff" opacity="0.5"/>
    <path id="Pfad_505" data-name="Pfad 505" d="M521.713,756.819s-1.083.765-2.613,2.007a5.509,5.509,0,0,1-.751.52,4.185,4.185,0,0,1-1.484-2.892c-.031-.3-.08-.6-.134-.9a6.216,6.216,0,0,1,.316-3.02h0C519.171,752.688,521.713,756.819,521.713,756.819Z" transform="translate(-378.632 -544.293)" opacity="0.1"/>
    <path id="Pfad_506" data-name="Pfad 506" d="M569.05,748.153s6.446,7.759,9.551,5.61c.071-.051.145-.1.213-.156a7.909,7.909,0,0,0,2.781-5.422c.063-.569.154-1.117.25-1.672a11.574,11.574,0,0,0-.569-5.661h0c-.1-.284-.176-.458-.176-.458C578.959,739.8,569.05,748.153,569.05,748.153Z" transform="translate(-416.12 -535.578)" fill="#049ce7"/>
    <path id="Pfad_507" data-name="Pfad 507" d="M581.22,750.1s2.033,1.422,4.9,3.759a10.335,10.335,0,0,0,1.407.978,7.909,7.909,0,0,0,2.781-5.422c.063-.569.154-1.117.25-1.672a11.575,11.575,0,0,0-.569-5.661h0C585.991,742.359,581.22,750.1,581.22,750.1Z" transform="translate(-424.83 -536.807)" fill="#049ce7"/>
    <path id="Pfad_508" data-name="Pfad 508" d="M581.22,750.1s2.033,1.422,4.9,3.759a10.335,10.335,0,0,0,1.407.978,7.909,7.909,0,0,0,2.781-5.422c.063-.569.154-1.117.25-1.672a11.575,11.575,0,0,0-.569-5.661h0C585.991,742.359,581.22,750.1,581.22,750.1Z" transform="translate(-424.83 -536.807)" fill="#fff" opacity="0.5"/>
    <path id="Pfad_509" data-name="Pfad 509" d="M589.05,756.849s1.078.762,2.6,1.99a5.2,5.2,0,0,0,.748.517,4.2,4.2,0,0,0,1.476-2.875c.031-.284.08-.594.134-.89a6.227,6.227,0,0,0-.3-3h0C591.578,752.744,589.05,756.849,589.05,756.849Z" transform="translate(-430.434 -544.329)" opacity="0.1"/>
    <path id="Pfad_510" data-name="Pfad 510" d="M548.646,810.23a15.439,15.439,0,0,1-2.468,3.145c-2.559,2.275-13.608,1.37-14.325,1.254-.151-.026-.464-.472-.853-1.2.3-1.169.569-2.056.569-2.056Z" transform="translate(-388.889 -585.58)" opacity="0.1"/>
    <path id="Pfad_511" data-name="Pfad 511" d="M531.005,765.188c-.449.031-.9.043-1.351.034-2.306-.04-10.074.063-10.935,3.2-1.015,3.7,3.523,13.594,4.237,13.713s11.76,1.015,14.327-1.254,5.908-9.383,5.729-10.028C543.013,770.852,546.2,764.136,531.005,765.188Z" transform="translate(-379.995 -553.265)" fill="#049ce7"/>
    <path id="Pfad_512" data-name="Pfad 512" d="M538.653,786.425a8.157,8.157,0,0,0-8.354,4.72,6.824,6.824,0,0,0,.5,6.878c.887,1.248,2.189,2.178,4,1.422C538.83,797.786,538.653,786.425,538.653,786.425Z" transform="translate(-387.887 -568.508)" opacity="0.1"/>
    <path id="Pfad_513" data-name="Pfad 513" d="M538.023,785.165a8.157,8.157,0,0,0-8.354,4.72,6.824,6.824,0,0,0,.5,6.878c.887,1.248,2.189,2.178,4,1.422C538.2,796.527,538.023,785.165,538.023,785.165Z" transform="translate(-387.436 -567.606)" opacity="0.1"/>
    <path id="Pfad_514" data-name="Pfad 514" d="M538.023,785.795a8.157,8.157,0,0,0-8.354,4.72,6.824,6.824,0,0,0,.5,6.878c.887,1.248,2.189,2.178,4,1.422C538.2,797.157,538.023,785.795,538.023,785.795Z" transform="translate(-387.436 -568.057)" fill="#049ce7"/>
    <path id="Pfad_515" data-name="Pfad 515" d="M538.023,785.795a8.157,8.157,0,0,0-8.354,4.72,6.824,6.824,0,0,0,.5,6.878c.887,1.248,2.189,2.178,4,1.422C538.2,797.157,538.023,785.795,538.023,785.795Z" transform="translate(-387.436 -568.057)" fill="#fff" opacity="0.5"/>
    <path id="Pfad_516" data-name="Pfad 516" d="M537.866,803.13s-.776.717-.478.9S537.866,803.13,537.866,803.13Z" transform="translate(-393.412 -580.499)" fill="#3f2b3b"/>
    <path id="Pfad_517" data-name="Pfad 517" d="M541.6,806.35s-.424.935-.122,1.038.481-.671.481-.671Z" transform="translate(-396.31 -582.803)" fill="#3f2b3b"/>
    <path id="Pfad_518" data-name="Pfad 518" d="M535.126,811.32s-.415,1.1,0,1.1S535.126,811.32,535.126,811.32Z" transform="translate(-391.71 -586.36)" fill="#3f2b3b"/>
    <path id="Pfad_519" data-name="Pfad 519" d="M533.78,821.71a3.144,3.144,0,0,0,2.991,1.97" transform="translate(-390.879 -593.796)" fill="none" stroke="#3f2b3b" stroke-miterlimit="10" stroke-width="1"/>
    <path id="Pfad_520" data-name="Pfad 520" d="M540.61,823.91a1.5,1.5,0,0,0,1.788.239" transform="translate(-395.767 -595.37)" fill="none" stroke="#3f2b3b" stroke-miterlimit="10" stroke-width="1"/>
    <path id="Pfad_521" data-name="Pfad 521" d="M564,786.425a8.157,8.157,0,0,1,8.354,4.72,6.824,6.824,0,0,1-.5,6.878c-.884,1.248-2.189,2.178-4,1.422C563.809,797.786,564,786.425,564,786.425Z" transform="translate(-412.503 -568.508)" opacity="0.1"/>
    <path id="Pfad_522" data-name="Pfad 522" d="M564.588,785.165a8.157,8.157,0,0,1,8.354,4.72,6.824,6.824,0,0,1-.5,6.878c-.884,1.248-2.189,2.178-4,1.422C564.42,796.527,564.588,785.165,564.588,785.165Z" transform="translate(-412.926 -567.606)" opacity="0.1"/>
    <path id="Pfad_523" data-name="Pfad 523" d="M564.588,785.795a8.157,8.157,0,0,1,8.354,4.72,6.824,6.824,0,0,1-.5,6.878c-.884,1.248-2.189,2.178-4,1.422C564.42,797.157,564.588,785.795,564.588,785.795Z" transform="translate(-412.926 -568.057)" fill="#049ce7"/>
    <path id="Pfad_524" data-name="Pfad 524" d="M564.588,785.795a8.157,8.157,0,0,1,8.354,4.72,6.824,6.824,0,0,1-.5,6.878c-.884,1.248-2.189,2.178-4,1.422C564.42,797.157,564.588,785.795,564.588,785.795Z" transform="translate(-412.926 -568.057)" fill="#fff" opacity="0.5"/>
    <path id="Pfad_525" data-name="Pfad 525" d="M586.16,803.13s.776.717.478.9S586.16,803.13,586.16,803.13Z" transform="translate(-428.365 -580.499)" fill="#3f2b3b"/>
    <path id="Pfad_526" data-name="Pfad 526" d="M582.318,806.35s.424.935.122,1.038-.481-.671-.481-.671Z" transform="translate(-425.36 -582.803)" fill="#3f2b3b"/>
    <path id="Pfad_527" data-name="Pfad 527" d="M589.359,811.32s.412,1.1,0,1.1S589.359,811.32,589.359,811.32Z" transform="translate(-430.524 -586.36)" fill="#3f2b3b"/>
    <path id="Pfad_528" data-name="Pfad 528" d="M584.091,821.71a3.144,3.144,0,0,1-2.991,1.97" transform="translate(-424.744 -593.796)" fill="none" stroke="#3f2b3b" stroke-miterlimit="10" stroke-width="1"/>
    <path id="Pfad_529" data-name="Pfad 529" d="M580.291,823.91a1.5,1.5,0,0,1-1.791.239" transform="translate(-422.883 -595.37)" fill="none" stroke="#3f2b3b" stroke-miterlimit="10" stroke-width="1"/>
    <path id="Pfad_530" data-name="Pfad 530" d="M553.2,841.491a8.257,8.257,0,0,1,5.908,0Z" transform="translate(-404.777 -607.549)" fill="#3f2b3b"/>
    <path id="Pfad_531" data-name="Pfad 531" d="M523.075,851.388c-2.65-.4-4.549-1.152-4.711-2.479a7.677,7.677,0,0,1-.06-1.706,3.826,3.826,0,0,1,1.012-.37,4.544,4.544,0,0,1,2.329.316c1.254.358,1.163,1.834,1.422,3.759a1.589,1.589,0,0,1,.009.48Z" transform="translate(-379.787 -611.733)" opacity="0.1"/>
    <path id="Pfad_532" data-name="Pfad 532" d="M515.917,847.488s-3.446.631-1.581,3.605a1.271,1.271,0,0,0,.637.526c.219.077.429.077.407-.236l1.524,1.746s3.042.358,2.775-1.567-.179-3.412-1.422-3.759A4.7,4.7,0,0,0,515.917,847.488Z" transform="translate(-376.567 -612.204)" fill="#049ce7"/>
    <path id="Pfad_533" data-name="Pfad 533" d="M524.18,854.67s.731,1.669,1.746.267" transform="translate(-384.008 -617.384)" fill="none" stroke="#3f2b3b" stroke-miterlimit="10" stroke-width="1"/>
    <path id="Pfad_534" data-name="Pfad 534" d="M518.28,857s.378,1.581,1.811.4" transform="translate(-379.786 -619.052)" fill="none" stroke="#3f2b3b" stroke-miterlimit="10" stroke-width="1"/>
    <path id="Pfad_535" data-name="Pfad 535" d="M596.239,846.828h0c-.114,1.575-.418,4.1-.418,4.1s-1.265.154-3.221.33a1.649,1.649,0,0,1,0-.33c.267-1.925.179-3.412,1.422-3.759A5.468,5.468,0,0,1,596.239,846.828Z" transform="translate(-432.968 -611.752)" opacity="0.1"/>
    <path id="Pfad_536" data-name="Pfad 536" d="M597.016,847.488s3.449.631,1.584,3.605a1.283,1.283,0,0,1-.637.526c-.219.077-.432.077-.409-.236l-1.521,1.746s-3.045.358-2.775-1.567.179-3.412,1.422-3.759A4.7,4.7,0,0,1,597.016,847.488Z" transform="translate(-433.433 -612.204)" fill="#049ce7"/>
    <path id="Pfad_537" data-name="Pfad 537" d="M599.246,854.67s-.734,1.669-1.746.267" transform="translate(-436.481 -617.384)" fill="none" stroke="#3f2b3b" stroke-miterlimit="10" stroke-width="1"/>
    <path id="Pfad_538" data-name="Pfad 538" d="M604.974,857s-.381,1.581-1.814.4" transform="translate(-440.532 -619.052)" fill="none" stroke="#3f2b3b" stroke-miterlimit="10" stroke-width="1"/>
    <path id="Pfad_539" data-name="Pfad 539" d="M540.328,848c-1.154-.026-2.275-.085-3.312-.188l-1.032-3.474a2.254,2.254,0,0,1-.094-.634,2.212,2.212,0,0,1,4.421-.014C540.323,845.042,540.334,846.756,540.328,848Z" transform="translate(-392.389 -608.004)" opacity="0.1"/>
    <path id="Pfad_540" data-name="Pfad 540" d="M534.621,844.149l1.217,4.1s-2.07-.046-1.5,1.254c0,0,.52.492.7.313,0,0-.27.853.8.853,0,0,1.16.628,1.609.179s1.39-1.12,1.481-1.388c.057-.176.04-3.605.02-5.971a2.206,2.206,0,0,0-2.209-2.189h0a2.209,2.209,0,0,0-2.118,2.849Z" transform="translate(-391.205 -607.816)" fill="#049ce7"/>
    <path id="Pfad_541" data-name="Pfad 541" d="M539.946,869.47s-.9.853-.427,1.356" transform="translate(-394.887 -627.976)" fill="none" stroke="#3f2b3b" stroke-miterlimit="10" stroke-width="1"/>
    <path id="Pfad_542" data-name="Pfad 542" d="M537.9,867.56a1.228,1.228,0,0,0-.836,1.049" transform="translate(-393.226 -626.609)" fill="none" stroke="#3f2b3b" stroke-miterlimit="10" stroke-width="1"/>
    <path id="Pfad_543" data-name="Pfad 543" d="M580.574,843.511a2.251,2.251,0,0,1-.091.634l-.964,3.29c-1.018.082-2.161.162-3.369.23,0-1.228,0-2.863.02-4.168a2.209,2.209,0,0,1,4.419.014Z" transform="translate(-421.202 -607.812)" opacity="0.1"/>
    <path id="Pfad_544" data-name="Pfad 544" d="M581.067,844.149l-1.217,4.1s2.073-.046,1.507,1.254c0,0-.52.492-.7.313,0,0,.267.853-.807.853,0,0-1.16.628-1.609.179s-1.388-1.12-1.479-1.388c-.057-.176-.04-3.605-.02-5.971a2.206,2.206,0,0,1,2.209-2.189h0a2.209,2.209,0,0,1,2.115,2.849Z" transform="translate(-421.612 -607.816)" fill="#049ce7"/>
    <path id="Pfad_545" data-name="Pfad 545" d="M586.23,869.47s.9.853.426,1.356" transform="translate(-428.415 -627.976)" fill="none" stroke="#3f2b3b" stroke-miterlimit="10" stroke-width="1"/>
    <path id="Pfad_546" data-name="Pfad 546" d="M587.63,867.56a1.228,1.228,0,0,1,.836,1.049" transform="translate(-429.417 -626.609)" fill="none" stroke="#3f2b3b" stroke-miterlimit="10" stroke-width="1"/>
    <path id="Pfad_547" data-name="Pfad 547" d="M549.88,782.768s-4.211-.134-4.345,3.128,6.579,1.88,6.579,1.88,2.821-.378,2.329-2.36S552.925,782.947,549.88,782.768Z" transform="translate(-399.29 -565.926)" opacity="0.1"/>
    <path id="Pfad_548" data-name="Pfad 548" d="M549.88,781.508s-4.211-.134-4.345,3.128,6.579,1.879,6.579,1.879,2.821-.378,2.329-2.36S552.925,781.687,549.88,781.508Z" transform="translate(-399.29 -565.024)" opacity="0.1"/>
    <path id="Pfad_549" data-name="Pfad 549" d="M549.88,782.138s-4.211-.134-4.345,3.128,6.579,1.879,6.579,1.879,2.821-.378,2.329-2.36S552.925,782.317,549.88,782.138Z" transform="translate(-399.29 -565.475)" fill="#3f2b3b"/>
    <path id="Pfad_550" data-name="Pfad 550" d="M527.78,839.92s1.422.506,1.706,1.476" transform="translate(-386.585 -606.828)" opacity="0.1"/>
    <path id="Pfad_551" data-name="Pfad 551" d="M595.909,837.4s-1.009.424-.938,2.192" transform="translate(-434.669 -605.025)" opacity="0.1"/>
    <ellipse id="Ellipse_119" data-name="Ellipse 119" cx="0.659" cy="1.093" rx="0.659" ry="1.093" transform="translate(140.678 239.864) rotate(-29.887)" fill="#049ce7"/>
    <ellipse id="Ellipse_120" data-name="Ellipse 120" cx="1.089" cy="0.657" rx="1.089" ry="0.657" transform="translate(160.69 240.121) rotate(-60)" fill="#049ce7"/>
    <ellipse id="Ellipse_121" data-name="Ellipse 121" cx="0.659" cy="1.093" rx="0.659" ry="1.093" transform="translate(140.678 239.864) rotate(-29.887)" fill="#fff" opacity="0.5"/>
    <ellipse id="Ellipse_122" data-name="Ellipse 122" cx="1.089" cy="0.657" rx="1.089" ry="0.657" transform="translate(160.69 240.121) rotate(-60)" fill="#fff" opacity="0.5"/>
    <ellipse id="Ellipse_123" data-name="Ellipse 123" cx="7.657" cy="1.294" rx="7.657" ry="1.294" transform="translate(47.096 202.307)" fill="#049ce7" opacity="0.1"/>
    <ellipse id="Ellipse_124" data-name="Ellipse 124" cx="7.657" cy="1.294" rx="7.657" ry="1.294" transform="translate(16.931 220.655)" fill="#049ce7" opacity="0.1"/>
    <ellipse id="Ellipse_125" data-name="Ellipse 125" cx="11.433" cy="1.933" rx="11.433" ry="1.933" transform="translate(5.183 203.601)" fill="#049ce7"/>
    <path id="Pfad_552" data-name="Pfad 552" d="M70.163,718.619a3.307,3.307,0,0,1-1.092-1.643,1.465,1.465,0,0,1,.762-1.675,2.14,2.14,0,0,1,2.013.705,2.7,2.7,0,0,0,1.959.947,2.983,2.983,0,0,1-.921-2.792,1.137,1.137,0,0,1,.256-.569c.387-.415,1.092-.236,1.558.091,1.476,1.041,1.891,3.048,1.9,4.856a8.956,8.956,0,0,0,.028-1.99,2.047,2.047,0,0,1,.751-1.768,2.275,2.275,0,0,1,1.137-.284,2.378,2.378,0,0,1,1.86.529A1.829,1.829,0,0,1,80.3,717.3a7.433,7.433,0,0,1-1.922,1.541A4.242,4.242,0,0,0,77,720.151a1.343,1.343,0,0,0-.1.233H72.742a11.5,11.5,0,0,1-2.579-1.766Z" transform="translate(-58.276 -516.246)" fill="#049ce7"/>
    <ellipse id="Ellipse_126" data-name="Ellipse 126" cx="7.657" cy="1.294" rx="7.657" ry="1.294" transform="translate(285.147 213.129)" fill="#049ce7" opacity="0.1"/>
    <path id="Pfad_553" data-name="Pfad 553" d="M1042.91,747.171s4.367-.134,5.687-1.072,6.716-2.056,7.043-.552,6.565,7.475,1.632,7.515-11.456-.768-12.769-1.57S1042.91,747.171,1042.91,747.171Z" transform="translate(-755.247 -538.762)" fill="#a8a8a8"/>
    <path id="Pfad_554" data-name="Pfad 554" d="M1057.357,758.474c-4.93.04-11.456-.768-12.769-1.57-1-.608-1.4-2.795-1.533-3.8h-.145s.284,3.523,1.589,4.322,7.839,1.609,12.769,1.569c1.422,0,1.917-.517,1.888-1.268C1058.96,758.19,1058.417,758.474,1057.357,758.474Z" transform="translate(-755.247 -544.694)" opacity="0.2"/>
  </g>
</svg>
