<svg id="Gruppe_48" data-name="Gruppe 48" xmlns="http://www.w3.org/2000/svg" width="114.339" height="105.209" viewBox="0 0 114.339 105.209">
  <path id="Pfad_815" data-name="Pfad 815" d="M907.635,648.969,903,634.981s5.1,5.1,5.1,9.281l-.915-9.674a14.763,14.763,0,0,1,2.353,8.889C909.275,648.838,907.635,648.969,907.635,648.969Z" transform="translate(-795.215 -544.071)" fill="#e6e6e6"/>
  <path id="Pfad_816" data-name="Pfad 816" d="M423.524,588.306,419,574.655s4.976,4.976,4.976,9.058l-.893-9.441a14.408,14.408,0,0,1,2.3,8.675C425.124,588.178,423.524,588.306,423.524,588.306Z" transform="translate(-410.639 -496.144)" fill="#e6e6e6"/>
  <path id="Pfad_817" data-name="Pfad 817" d="M479.3,631.1c.008,8.98-17.8,6.218-39.607,6.236s-39.346,2.812-39.353-6.168,17.8-10.948,39.6-10.967S479.3,622.117,479.3,631.1Z" transform="translate(-395.815 -532.636)" fill="#e6e6e6"/>
  <path id="Pfad_818" data-name="Pfad 818" d="M489.062,377.792h-2.851l-1.357-11h4.207Z" transform="translate(-420.855 -291.459)" fill="#a0616a"/>
  <path id="Pfad_819" data-name="Pfad 819" d="M467.842,416.357h5.814v3.462H464.7V419.5a3.145,3.145,0,0,1,3.145-3.145Z" transform="translate(-404.838 -330.838)" fill="#2f2e41"/>
  <path id="Pfad_820" data-name="Pfad 820" d="M591.062,456.792h-2.851l-1.357-11h4.207Z" transform="translate(-501.902 -354.23)" fill="#a0616a"/>
  <path id="Pfad_821" data-name="Pfad 821" d="M569.842,495.357h5.814v3.462H566.7V498.5a3.145,3.145,0,0,1,3.145-3.145Z" transform="translate(-485.884 -393.61)" fill="#2f2e41"/>
  <path id="Pfad_822" data-name="Pfad 822" d="M832.06,417.526a2.119,2.119,0,0,0-.595-3.195l-6.621-26.97-4.233,1.821,7.875,26.078a2.131,2.131,0,0,0,3.574,2.265Z" transform="translate(-729.751 -347.629)" fill="#a0616a"/>
  <path id="Pfad_823" data-name="Pfad 823" d="M797.733,266.068a2.338,2.338,0,0,0-3.577.237l-10.247,1.176,1.559,3.953,9.32-1.744a2.351,2.351,0,0,0,2.946-3.622Z" transform="translate(-700.587 -250.678)" fill="#a0616a"/>
  <path id="Pfad_824" data-name="Pfad 824" d="M769,508.67l4.472,33.561,5.566-1.146S778.219,516.644,781,513.7s-3.579-8.108-3.579-8.108Z" transform="translate(-688.741 -441.57)" fill="#2f2e41"/>
  <path id="Pfad_825" data-name="Pfad 825" d="M704.033,462.407l-2.054,3.081s-15.817-6.573-15.817,3.9-.905,17.586-1.233,18.077,3.788,1.765,5.752,1.438c0,0,2.423-16.89,2.26-17.872,0,0,15.516,7.607,18.463,6.953s3.643-2.973,4.134-4.282S715.331,462,715.331,462l-9.821-3Z" transform="translate(-621.925 -404.55)" fill="#2f2e41"/>
  <path id="Pfad_826" data-name="Pfad 826" d="M759.364,293.406l-.585-.7s-6.558-14.755-3.982-18.737,13.818-4.567,14.17-4.333-.839,3.275-.019,4.68c0,0-8.708,1.888-9.294,2.122s4.512,8.889,4.512,8.889l-.585,5.27Z" transform="translate(-676.979 -254.05)" fill="#ccc"/>
  <path id="Pfad_827" data-name="Pfad 827" d="M780.555,347.014s-6.089.7-6.324.7-.351-1.522-.351-1.522l-5.387,7.378s-2.654,21.4-1.951,21.052,13.662,1.666,13.779.729-.117-5.621.234-5.855,6.09-14.755,6.09-14.755-.586-3.045-2.576-4.1A11.121,11.121,0,0,1,780.555,347.014Z" transform="translate(-686.695 -314.919)" fill="#ccc"/>
  <path id="Pfad_828" data-name="Pfad 828" d="M838.978,378.118l1.874,1.991s2.784,22.876,1.262,23.578a13.262,13.262,0,0,1-4.519.616l-2.949-10.845Z" transform="translate(-740.902 -340.285)" fill="#ccc"/>
  <circle id="Ellipse_167" data-name="Ellipse 167" cx="5.39" cy="5.39" r="5.39" transform="translate(82.619 19.867)" fill="#a0616a"/>
  <path id="Pfad_829" data-name="Pfad 829" d="M777.428,282.566c-.073-1.118-1.484-1.157-2.6-1.167s-2.461.029-3.095-.895a2.089,2.089,0,0,1,.007-2.113,6,6,0,0,1,1.476-1.643,20.454,20.454,0,0,1,4.674-3.292,7.5,7.5,0,0,1,5.573-.481c2.212.789,5.2,4.853,5.461,7.188a8.468,8.468,0,0,1-2.248,6.46c-1.573,1.745-5.173,1.041-7.438,1.661,1.377-1.949.469-5.491-1.737-6.4Z" transform="translate(-690.684 -256.468)" fill="#2f2e41"/>
  <circle id="Ellipse_168" data-name="Ellipse 168" cx="12.939" cy="12.939" r="12.939" transform="translate(25.767 69.94)" fill="#049ce7"/>
  <path id="Pfad_830" data-name="Pfad 830" d="M408.364,262.963a9.277,9.277,0,0,1-8.475-5.5l-20.532-46.238a12.29,12.29,0,1,1,22.981-8.6l14.868,48.359a9.26,9.26,0,0,1-8.841,11.982Z" transform="translate(-378.299 -193.943)" fill="#049ce7"/>
</svg>
