<svg xmlns="http://www.w3.org/2000/svg" width="176.5" height="146.66" viewBox="0 0 176.5 146.66">
  <g id="Gruppe_55" data-name="Gruppe 55" transform="translate(0 0)">
    <path id="Pfad_1023" data-name="Pfad 1023" d="M766.359,520.638h-.434V473.145a1.3,1.3,0,0,0-.48-1.01l.274-.337a1.73,1.73,0,0,1,.64,1.346Z" transform="translate(-636.734 -393.718)" fill="#3f3d56"/>
    <path id="Pfad_1024" data-name="Pfad 1024" d="M565.922,135.23a3.8,3.8,0,0,1,.25.8C566.05,135.61,565.955,135.325,565.922,135.23Z" transform="translate(-480.51 -130.189)" fill="#3f3d56"/>
    <path id="Pfad_1025" data-name="Pfad 1025" d="M582.5,196.37a6.352,6.352,0,0,1-.323,1.38Z" transform="translate(-493.234 -178.06)" fill="#3f3d56"/>
    <path id="Pfad_1026" data-name="Pfad 1026" d="M301.228,175.515a177.306,177.306,0,0,1-23.045,9.4c2.55-.664,9.972-1.558,21.471,5.616,14.449,9.013,29.9,3,29.9,3s-3.433,6.582-10.729,7.01-26.321-11.586-32.758-8.153-9.442-.859-12.018,7.726-7.294,32.042-1.858,45.2l5.434,13.16h-30.9s11.159-29.755,5.006-48.064c-3.444-10.254-8.279-17.68-10.082-21.454-.9-1.89-1.048-2.862.124-2.815a11.346,11.346,0,0,1,3.379,1.094s-7.439-7.3-9.87-7.3-13.878-1.144-17.6-5.007c0,0-5.293-3.72-14.735,5.436s-7.153,9.156-15.592,8.44a37.182,37.182,0,0,1-15.017-4.861c.241.1,9.944,3.976,15.874,2,6.009-2,11.159-9.585,16.452-12.159s8.44-6.009,15.592-2.289L215.547,160.4l-1.291-3.045,0,0s-1.576-20.885-4.579-22.315-1.144-5.15-6.723-5.866c0,0,6.866-.859,8.153,3.863s10.158,30.184,10.158,30.184,5.434,10.87,11.443,8.3-2.289-17.023-2.289-17.023l-10.3-4.722s7.726-.286,12.446,4.149,5.006,18.739,5.006,18.739,11.873,1.717,14.735,8.155c0,0,1.86-5.723-1.717-9.156a16.524,16.524,0,0,1-2.739-4.108,36.288,36.288,0,0,1-3.546-21.858c.532-3.659.859-7.237.276-8.082-1.287-1.86-6.723-13.3-7.153-16.309s.43-9.3.43-9.3.143,7.723,1.86,10.156S246.3,136.6,246.3,136.6s0,15.163,4.006,22.6,11.73,15.736,11.3,21.172v3.147s8.583-8.153,8.01-10.872-1.287-9.156-6.723-13.016-9.013-10.015-5.15-18.884a87.641,87.641,0,0,0,3.539-9.06l-2.253,9.633s-1.43,9.87,2.576,13.3l.03.026a105.937,105.937,0,0,1,9.266,9.7l-.015-.276-1.128-20.323.247.543,1.784,3.911,1.688,3.7s8.01-10.3,17.452-13.733,15.306-15.449,15.306-15.449l8.012-6.3-6.582,7.869s-2,9.3-13.3,15.879-18.6,16.306-19.026,22.315-.859,11.3-.859,11.3,21.172-.716,25.892-10.015,8.585-9.727,8.585-9.727l-2.719,8.01-3,6.866s12.3.286,18.739,7.582,22.459,9.442,22.459,9.442l-9.01,2.431a82.868,82.868,0,0,1-16.738-8.153C310.527,174.943,311.384,170.222,301.228,175.515Z" transform="translate(-172.342 -112)" fill="#3f3d56"/>
    <path id="Pfad_1027" data-name="Pfad 1027" d="M681.342,314.74a48.6,48.6,0,0,1-3.468,10.825c-4.72,9.3-25.892,10.015-25.892,10.015s.1-1.228.252-3.166c5.375-.443,20.069-2.333,23.9-9.887.352-.69.677-1.432.985-2.214Z" transform="translate(-547.894 -270.743)" opacity="0.1"/>
    <path id="Pfad_1028" data-name="Pfad 1028" d="M594.661,283.935a105.689,105.689,0,0,0-9.3-9.729,6.967,6.967,0,0,1-1.923-3.012c-.035-.1-.067-.193-.1-.291.093.091.187.18.286.265a102.2,102.2,0,0,1,9.065,9.453l.232.276-1.113-20.056,1.784,3.911Z" transform="translate(-494.15 -228.54)" opacity="0.1"/>
    <path id="Pfad_1029" data-name="Pfad 1029" d="M647.859,165.33a30.313,30.313,0,0,1-.488,5.617s8.008-10.3,17.446-13.731c.558-.353,1.124-.7,1.7-1.038,11.3-6.58,13.3-15.879,13.3-15.879l6.58-7.868-8.011,6.294s-5.865,12.016-15.307,15.45C656.651,156.516,650.881,162.045,647.859,165.33Z" transform="translate(-544.283 -127.997)" opacity="0.1"/>
    <path id="Pfad_1030" data-name="Pfad 1030" d="M592.381,377.333v3.147s8.583-8.154,8.011-10.872c-.438-2.079-.962-6.332-3.614-9.946a31.824,31.824,0,0,1,1.878,6.908c.41,1.949-3.887,6.693-6.351,9.222A6.522,6.522,0,0,1,592.381,377.333Z" transform="translate(-501.167 -305.916)" opacity="0.1"/>
    <path id="Pfad_1031" data-name="Pfad 1031" d="M539.6,341.567c.068.145.138.288.212.426,2.194,4.074,5.5,8.4,7.975,12.382C545.792,350.436,542.311,345.931,539.6,341.567Z" transform="translate(-459.903 -291.748)" opacity="0.1"/>
    <path id="Pfad_1032" data-name="Pfad 1032" d="M688.834,454.689a41.489,41.489,0,0,0-12.014-5.322c-3.447,1.3-6.283,2.265-7.711,2.74,2.56-.663,9.976-1.543,21.461,5.621,9.01,5.62,18.41,5.4,24.209,4.436a14.99,14.99,0,0,0,3.953-4.47S703.283,463.7,688.834,454.689Z" transform="translate(-561.305 -376.154)" opacity="0.1"/>
    <path id="Pfad_1033" data-name="Pfad 1033" d="M562.077,226.768a14.169,14.169,0,0,1-.018-10.131,30.911,30.911,0,0,1,.247-4.273l2.253-9.636a87.267,87.267,0,0,1-3.54,9.063C558.266,218.114,559.293,223.053,562.077,226.768Z" transform="translate(-475.403 -183.039)" opacity="0.1"/>
    <path id="Pfad_1034" data-name="Pfad 1034" d="M801.484,382.926c-4.464-5.06-11.748-6.747-15.795-7.307l-1.209,2.764s12.3.286,18.74,7.582c3.57,4.046,10.086,6.507,15.184,7.9l5.539-1.495S807.922,390.221,801.484,382.926Z" transform="translate(-651.639 -318.41)" opacity="0.1"/>
    <path id="Pfad_1035" data-name="Pfad 1035" d="M417.795,338.423c6.008-2.575-2.289-17.023-2.289-17.023l-.227-.1c2.069,4.364,5.068,12.251.78,14.089-4.013,1.72-7.77-2.559-9.823-5.591l.115.332S411.787,341,417.795,338.423Z" transform="translate(-355.477 -275.876)" opacity="0.1"/>
    <path id="Pfad_1036" data-name="Pfad 1036" d="M496.1,403.764s1.81-5.58-1.591-9.026a11.626,11.626,0,0,1-.145,5.988c-2.213-4.98-9.818-7.134-13.149-7.855.129,1.658.151,2.739.151,2.739S493.243,397.326,496.1,403.764Z" transform="translate(-414.189 -331.918)" opacity="0.1"/>
    <path id="Pfad_1037" data-name="Pfad 1037" d="M583.172,197.752a6.345,6.345,0,0,0,.322-1.379Z" transform="translate(-494.017 -178.063)" opacity="0.1"/>
    <path id="Pfad_1038" data-name="Pfad 1038" d="M190.854,384.072l.087-.027c6.008-2,11.158-9.584,16.451-12.159s8.44-6.008,15.593-2.289a28.865,28.865,0,0,0-3.676-8.487,33.372,33.372,0,0,1,1.94,5.449c-7.153-3.719-10.3-.286-15.593,2.289S195.213,379,189.205,381.007s-15.879-2-15.879-2a37.126,37.126,0,0,0,15.02,4.864C189.312,383.95,190.136,384.022,190.854,384.072Z" transform="translate(-173.113 -307.049)" opacity="0.1"/>
    <path id="Pfad_1039" data-name="Pfad 1039" d="M357.716,254.32l-.66.011-1.291-3.045.215,0s-.994-13.173-2.908-19.312c.024.011.043.024.065.035C356.141,233.435,357.716,254.32,357.716,254.32Z" transform="translate(-313.851 -205.935)" opacity="0.1"/>
    <path id="Pfad_1040" data-name="Pfad 1040" d="M518.883,577.482c2.621-8.035,8.925-30.254,3.962-45.027a58.893,58.893,0,0,0-5.809-13.044,73.757,73.757,0,0,1,4.073,10.005c6.151,18.31-5.007,48.065-5.007,48.065Z" transform="translate(-441.502 -430.998)" opacity="0.1"/>
    <path id="Pfad_1041" data-name="Pfad 1041" d="M494.581,457.816a15.908,15.908,0,0,0-5.456-1.317c-.9-1.89-1.048-2.862.124-2.815.326.059.653.128.979.208C492.528,455.8,494.581,457.816,494.581,457.816Z" transform="translate(-419.818 -379.533)" opacity="0.1"/>
    <path id="Pfad_1042" data-name="Pfad 1042" d="M338.4,211.727a3.742,3.742,0,0,0,.588.752A4.221,4.221,0,0,0,338.4,211.727Z" transform="translate(-302.361 -190.085)" opacity="0.1"/>
    <path id="Pfad_1043" data-name="Pfad 1043" d="M407.676,293.2a6.962,6.962,0,0,1,.62.669,10.721,10.721,0,0,0-2.356-3.707c-4.721-4.435-12.445-4.148-12.445-4.148l9.688,4.44A13.835,13.835,0,0,1,407.676,293.2Z" transform="translate(-345.501 -248.244)" opacity="0.1"/>
    <path id="Pfad_1044" data-name="Pfad 1044" d="M479.975,137.6c.584.843.256,4.422-.277,8.082a36.285,36.285,0,0,0,3.547,21.856,25.453,25.453,0,0,0,1.524,2.617,36.32,36.32,0,0,1-3.335-21.435c.533-3.66.861-7.239.277-8.082-1.287-1.86-6.723-13.3-7.153-16.308a20.815,20.815,0,0,1-.09-3.51c-1.111-3.153-1.217-8.826-1.217-8.826s-.858,6.294-.429,9.3S478.687,135.743,479.975,137.6Z" transform="translate(-407.52 -111.997)" opacity="0.1"/>
    <path id="Pfad_1045" data-name="Pfad 1045" d="M567.119,135.891a4.091,4.091,0,0,0-.26-.823S566.969,135.377,567.119,135.891Z" transform="translate(-481.244 -130.062)" opacity="0.1"/>
    <path id="Pfad_1046" data-name="Pfad 1046" d="M318.914,193.95a7.537,7.537,0,0,1,3.817,1.438c-.072-.244-.135-.463-.185-.647-1.287-4.721-8.154-3.862-8.154-3.862C317.495,191.277,318.3,192.6,318.914,193.95Z" transform="translate(-283.565 -173.713)" opacity="0.1"/>
    <path id="Pfad_1047" data-name="Pfad 1047" d="M951,737.205a12.119,12.119,0,0,0-1.549,7.433,10.434,10.434,0,0,0,7.726-11.848A12.119,12.119,0,0,0,951,737.205Z" transform="translate(-780.754 -598.071)" fill="#3f3d56"/>
    <path id="Pfad_1048" data-name="Pfad 1048" d="M944.3,729.877a12.118,12.118,0,0,1-3.065,6.946,10.434,10.434,0,0,1,.611-14.131A12.119,12.119,0,0,1,944.3,729.877Z" transform="translate(-772.444 -590.164)" fill="#049ce7"/>
    <path id="Pfad_1049" data-name="Pfad 1049" d="M791.088,634.336s2.455-2.575,3.46-2.057-2.889,2.821-2.889,2.821Z" transform="translate(-656.812 -519.317)" fill="#ffb9b9"/>
    <path id="Pfad_1050" data-name="Pfad 1050" d="M791.088,634.336s2.455-2.575,3.46-2.057-2.889,2.821-2.889,2.821Z" transform="translate(-656.812 -519.317)" opacity="0.1"/>
    <path id="Pfad_1051" data-name="Pfad 1051" d="M754.028,615.72a6.087,6.087,0,0,0-.666,3.361c.236,1.744,2.4,7.339,3.13,7.239s6.173-4.107,6.173-4.107l-1.037-1.448-3.973,2.407S757.049,614.563,754.028,615.72Z" transform="translate(-627.242 -506.322)" fill="#d0cde1"/>
    <path id="Pfad_1052" data-name="Pfad 1052" d="M795,623.188l-6.193,3.4a.3.3,0,0,1-.434-.128l-1.517-3.171a.4.4,0,0,1,.2-.475l5.142-2.65a.3.3,0,0,1,.393.075l2.568,2.42a.381.381,0,0,1-.163.528Z" transform="translate(-653.487 -509.852)" fill="#2f2e41"/>
    <path id="Pfad_1053" data-name="Pfad 1053" d="M623.685,512.248l-5.806,3.319-1.545-2.785,4.981-2.709Z" transform="translate(-482.582 -399.381)" fill="#049ce7"/>
    <ellipse id="Ellipse_193" data-name="Ellipse 193" cx="0.085" cy="0.073" rx="0.085" ry="0.073" transform="translate(136.066 111.88) rotate(-50.158)" fill="#f2f2f2"/>
    <ellipse id="Ellipse_194" data-name="Ellipse 194" cx="0.057" cy="0.049" rx="0.057" ry="0.049" transform="translate(138.259 114.723) rotate(-50.158)" fill="#f2f2f2"/>
    <path id="Pfad_1054" data-name="Pfad 1054" d="M754.028,615.72a6.087,6.087,0,0,0-.666,3.361c.236,1.744,2.4,7.339,3.13,7.239s6.173-4.107,6.173-4.107l-1.037-1.448-3.973,2.407S757.049,614.563,754.028,615.72Z" transform="translate(-627.242 -506.322)" opacity="0.1"/>
    <path id="Pfad_1055" data-name="Pfad 1055" d="M783.44,638.167s2.778-2.223,3.7-1.574S783.9,639,783.9,639Z" transform="translate(-650.824 -522.656)" fill="#ffb9b9"/>
    <circle id="Ellipse_195" data-name="Ellipse 195" cx="2.686" cy="2.686" r="2.686" transform="translate(126.226 101.249)" fill="#ffb9b9"/>
    <path id="Pfad_1056" data-name="Pfad 1056" d="M798.64,677.134s2.871.37,2.778,2.13-2.223,9.076-2.223,9.076l-.185,2.871s.185,4.816-.37,4.723-1.852-3.427-1.852-3.427-1.574-1.019-.833-1.945,1.3-.833,1.111-1.852-.093-5.279.463-6.575.879-2.012.879-2.012L796.6,680Z" transform="translate(-660.467 -554.492)" fill="#ffb9b9"/>
    <path id="Pfad_1057" data-name="Pfad 1057" d="M798.64,677.134s2.871.37,2.778,2.13-2.223,9.076-2.223,9.076l-.185,2.871s.185,4.816-.37,4.723-1.852-3.427-1.852-3.427-1.574-1.019-.833-1.945,1.3-.833,1.111-1.852-.093-5.279.463-6.575.879-2.012.879-2.012L796.6,680Z" transform="translate(-660.467 -554.492)" opacity="0.1"/>
    <path id="Pfad_1058" data-name="Pfad 1058" d="M802.881,679.268s2.778.648,3.056,2.5,1.667,7.316,1.667,7.316l1.482,3.427s2.315,4.167,1.3,4.075-2.408-2.13-2.871-2.13-1.852-.556-1.76-.926a10.742,10.742,0,0,1,.741-1.482l-2.241-3.9a9.481,9.481,0,0,1-.972-2.405,16.859,16.859,0,0,1-.492-2.4c0-.648-1.852-.926-1.852-.926Z" transform="translate(-664.523 -556.163)" fill="#ffb9b9"/>
    <path id="Pfad_1059" data-name="Pfad 1059" d="M735.216,651.956l1.3,3.7s2.037.556,3.519,1.019,4.26-.185,4.538.926a3.985,3.985,0,0,1-1.389,3.519c-.833.463-1.3.926-3.982.185s-9.076-.926-9.076-.926a4.642,4.642,0,0,1-2.037.648c-1.2.093-1.482.185-1.852-.093s.185-.278.37-1.019.278-.463,1.111-1.3,1.482-3.334,1.945-4.167a10.2,10.2,0,0,0,.741-2.5Z" transform="translate(-605.934 -534.778)" fill="#2f2e41"/>
    <path id="Pfad_1060" data-name="Pfad 1060" d="M753.19,594.515a2.712,2.712,0,0,0-1.111,2.13c0,1.389-2.778-1.482-2.778-1.482s1.482-1.852,1.482-2.408S753.19,594.515,753.19,594.515Z" transform="translate(-624.093 -488.357)" fill="#ffb9b9"/>
    <path id="Pfad_1061" data-name="Pfad 1061" d="M742.747,598.613s1.667.648,2.037,1.574a21.436,21.436,0,0,0,1.76,2.871s1.945,2.037,1.3,4.26-1.2,2.778-1.2,3.149-.926,1.019-1.667.926-3.519-.463-3.7-.833-1.3-5.649-.556-7.594a44.924,44.924,0,0,1,2.037-4.353Z" transform="translate(-617.169 -493.011)" fill="#d0cde1"/>
    <path id="Pfad_1062" data-name="Pfad 1062" d="M744.668,573.965a2.13,2.13,0,0,0,1.683-.62c.28-.216.587-.523.5-.87-.076-.308-.439-.482-.491-.8-.037-.217.09-.429.1-.649a.917.917,0,0,0-.539-.786c-.293-.158-.625-.223-.926-.365a8.111,8.111,0,0,0-1.332-.728c-.67-.17-1.353.192-2.042.239-.417.028-.839-.06-1.252.009a1.787,1.787,0,0,0-1.432,1.687,1.44,1.44,0,0,1-.122.857,1.3,1.3,0,0,1-.236.213,2.851,2.851,0,0,0-.923,2.121c-.016.393.067.859.415,1.026a1.539,1.539,0,0,0,.581.081.606.606,0,0,1,.513.245c.159.28-.079.693.128.937a.47.47,0,0,0,.642-.034c.182-.156.3-.381.468-.548a2.118,2.118,0,0,1,1.294-.433.656.656,0,0,0,.38-.124.587.587,0,0,0,.156-.319,1.977,1.977,0,0,0,0-.838.466.466,0,0,1-.011-.265.377.377,0,0,1,.136-.152,1.867,1.867,0,0,1,1.155-.467C743.93,573.451,744.253,573.867,744.668,573.965Z" transform="translate(-614.977 -469.908)" fill="#2f2e41"/>
    <path id="Pfad_1063" data-name="Pfad 1063" d="M748.7,613.813a6.087,6.087,0,0,0-1.111,3.241c0,1.76,1.389,7.594,2.13,7.594s6.668-3.241,6.668-3.241l-.833-1.574-4.26,1.852S751.853,613.072,748.7,613.813Z" transform="translate(-622.756 -504.877)" fill="#d0cde1"/>
    <rect id="Rechteck_190" data-name="Rechteck 190" width="21.267" height="4.123" transform="translate(117.256 125.651)" fill="#049ce7"/>
    <path id="Pfad_1064" data-name="Pfad 1064" d="M755.394,522.3a1.738,1.738,0,0,1-1.736-1.736V471.739a1.736,1.736,0,0,1,2.832-1.346l-.274.337a1.3,1.3,0,0,0-2.124,1.01v48.828a1.3,1.3,0,0,0,1.3,1.3Z" transform="translate(-627.505 -392.311)" fill="#3f3d56"/>
    <ellipse id="Ellipse_196" data-name="Ellipse 196" cx="0.217" cy="0.651" rx="0.217" ry="0.651" transform="translate(123.624 101.843) rotate(-38.768)" fill="#049ce7"/>
    <path id="Pfad_1065" data-name="Pfad 1065" d="M655,737.205a12.119,12.119,0,0,0-1.549,7.433,10.434,10.434,0,0,0,7.726-11.848A12.119,12.119,0,0,0,655,737.205Z" transform="translate(-548.989 -598.071)" fill="#3f3d56"/>
    <path id="Pfad_1066" data-name="Pfad 1066" d="M648.3,729.877a12.118,12.118,0,0,1-3.065,6.946,10.434,10.434,0,0,1,.611-14.131A12.119,12.119,0,0,1,648.3,729.877Z" transform="translate(-540.68 -590.164)" fill="#049ce7"/>
    <path id="Pfad_1067" data-name="Pfad 1067" d="M497.956,731.6a12.119,12.119,0,0,0,4.514,6.105,10.434,10.434,0,0,0-3.694-13.654A12.118,12.118,0,0,0,497.956,731.6Z" transform="translate(-427.052 -591.231)" fill="#3f3d56"/>
    <path id="Pfad_1068" data-name="Pfad 1068" d="M480.737,744.447a12.119,12.119,0,0,1,3.141,6.913,10.434,10.434,0,0,1-10.135-9.866A12.119,12.119,0,0,1,480.737,744.447Z" transform="translate(-408.335 -604.885)" fill="#049ce7"/>
    <path id="Pfad_1069" data-name="Pfad 1069" d="M443.273,257.956a12.118,12.118,0,0,1-3.2,6.886,10.434,10.434,0,0,1,.881-14.117A12.118,12.118,0,0,1,443.273,257.956Z" transform="translate(-380.147 -220.62)" fill="#049ce7"/>
    <path id="Pfad_1070" data-name="Pfad 1070" d="M294.411,164.961a12.119,12.119,0,0,1,4.509,6.109,10.434,10.434,0,0,1-11.965-7.543A12.118,12.118,0,0,1,294.411,164.961Z" transform="translate(-262.083 -152.269)" fill="#049ce7"/>
    <path id="Pfad_1071" data-name="Pfad 1071" d="M260.411,383.961a12.119,12.119,0,0,1,4.509,6.109,10.434,10.434,0,0,1-11.965-7.543A12.118,12.118,0,0,1,260.411,383.961Z" transform="translate(-235.461 -323.743)" fill="#049ce7"/>
    <path id="Pfad_1072" data-name="Pfad 1072" d="M576.5,175.283a12.119,12.119,0,0,1-4.475,6.133,10.434,10.434,0,0,1,3.608-13.676A12.119,12.119,0,0,1,576.5,175.283Z" transform="translate(-484.379 -155.643)" fill="#049ce7"/>
    <path id="Pfad_1073" data-name="Pfad 1073" d="M721.156,188.737a12.119,12.119,0,0,1-4.756,5.919,10.434,10.434,0,0,1,4.241-13.494A12.118,12.118,0,0,1,721.156,188.737Z" transform="translate(-597.605 -166.152)" fill="#049ce7"/>
    <path id="Pfad_1074" data-name="Pfad 1074" d="M875.7,380.327a12.118,12.118,0,0,1-6.161,4.438,10.434,10.434,0,0,1,7.682-11.876A12.119,12.119,0,0,1,875.7,380.327Z" transform="translate(-718.178 -316.272)" fill="#049ce7"/>
    <path id="Pfad_1075" data-name="Pfad 1075" d="M866,206" transform="translate(-715.467 -185.601)" fill="#3f3d56"/>
  </g>
</svg>
