<svg xmlns="http://www.w3.org/2000/svg" width="1244.639" height="966.112" viewBox="0 0 1244.639 966.112">
  <g id="Gruppe_56" data-name="Gruppe 56" transform="translate(-171.705 0.001)">
    <path id="Pfad_1076" data-name="Pfad 1076" d="M839.838,436.643s-63.853-12.932-55.77,14.549,61.428,9.7,61.428,9.7Z" transform="translate(266.498 26.541)" fill="#ffb8b8"/>
    <path id="Pfad_1077" data-name="Pfad 1077" d="M963.32,332.338a5.99,5.99,0,0,1,9.936,3.423l2.183,12.676s9.866,50.7,1.418,82.909-14.443,74.631-37.272,79.15c-19.535,3.867-93.811-2.257-114.839-4.1a5.985,5.985,0,0,1-5.459-6.1l.393-18.5a5.994,5.994,0,0,1,5.357-5.833l85.041-9.07a5.982,5.982,0,0,0,5.3-5.12c2.023-14.468,8.564-59.323,15.061-82.905C935.689,359.81,952.933,341.817,963.32,332.338Z" transform="translate(280.771 -14.308)" fill="#575a89"/>
    <path id="Pfad_1078" data-name="Pfad 1078" d="M850.822,614.608v38.8l21.823,4.849,14.55-7.274-1.617-30.714Z" transform="translate(338.012 244.17)" fill="#ffb8b8"/>
    <path id="Pfad_1079" data-name="Pfad 1079" d="M943.086,614.608v38.8l21.824,4.849,14.548-7.274-1.617-30.714Z" transform="translate(374.666 244.17)" fill="#ffb8b8"/>
    <path id="Pfad_1080" data-name="Pfad 1080" d="M927.388,493.3s-29.1,59-28.289,105.075a631.932,631.932,0,0,1-4.041,83.251L880.508,819.837l46.88,2.425,21.823-148.72,42.03-114.774,16.165,136.6,4.041,137.405h40.413s18.59-130.131,8.083-159.228c0,0,24.248-163.27,4.85-171.352S927.388,493.3,927.388,493.3Z" transform="translate(305.093 50.256)" fill="#2f2e41"/>
    <path id="Pfad_1081" data-name="Pfad 1081" d="M917.642,744.525s-8.083-29.906-19.4-14.549S854.6,771.2,854.6,771.2s-48.5,25.865-4.041,32.331,49.3-8.083,49.3-8.083,7.274-4.041,13.741-1.617,34.755,1.617,36.372-8.083S941.082,722.7,937.849,732.4,917.642,744.525,917.642,744.525Z" transform="translate(285.74 142.541)" fill="#2f2e41"/>
    <path id="Pfad_1082" data-name="Pfad 1082" d="M1010.665,741.334s0-8.891-15.357-9.7-17.782,9.7-17.782,9.7-4.041,4.041-4.85,16.165,0,43.646,0,43.646-7.274,24.248,25.865,19.4,21.015-29.906,21.015-29.906Z" transform="translate(341.44 144.925)" fill="#2f2e41"/>
    <path id="Pfad_1083" data-name="Pfad 1083" d="M960.66,277.532l-4.041,45.263-7.274,16.974,19.4,27.481,47.688-44.455s-8.891-24.248-3.233-37.989Z" transform="translate(332.44 -35.462)" fill="#ffb8b8"/>
    <path id="Pfad_1084" data-name="Pfad 1084" d="M1084.372,344.784l-.372,3.985-14.188,151.2s-.558,7.032-1.592,16.408c-1.746,15.858-4.85,38.417-8.915,45.02-6.466,10.508-1.616,19.4-1.616,19.4-37.18,21.823-147.1-9.7-147.1-9.7L935.64,470.874s-22.627-104.267-20.2-113.965,53.346-44.455,53.346-44.455l1.5,4.041c21.7,29.1,43.76,4.041,50.226-1.617l12.932-11.316Z" transform="translate(317.041 -25.121)" fill="#575a89"/>
    <path id="Pfad_1085" data-name="Pfad 1085" d="M1169.463,588.915c-77.059,10.454-150.573,14.281-218.6,7.844a527.392,527.392,0,0,1-71.7-12.313c-43.253-10.238-96.346-10.238-154.677-4.787a443.963,443.963,0,0,0-104.117,22.082c-45.2,15.648-94.726,14.293-147.228,1.194a268.524,268.524,0,0,1-61.818-24.614C372.937,557.694,327.51,565.162,278,588.916V404.475c46.223-20.13,91.252-23.38,134.851-6.41a284.876,284.876,0,0,0,49.1,14.648,387.033,387.033,0,0,0,182.417-8.237c80.16-27.161,164.011-18.718,248.926,0,94.605,19.982,186.812,21.16,276.166,0Z" transform="translate(65.73 8.075)" fill="#3f3d56"/>
    <rect id="Rechteck_193" data-name="Rechteck 193" width="50.957" height="50.957" transform="translate(770.447 44.129) rotate(150)" fill="#0075ab"/>
    <rect id="Rechteck_194" data-name="Rechteck 194" width="50.957" height="50.957" transform="translate(606.966 266.295) rotate(150)" fill="#3f3d56"/>
    <rect id="Rechteck_195" data-name="Rechteck 195" width="50.957" height="50.957" transform="translate(1055.49 207.61) rotate(150)" fill="#d0cde1"/>
    <path id="Pfad_1086" data-name="Pfad 1086" d="M194.3,442.23l26.684,123.535L139.949,747.606l47.438,20.755,90.921-208.527L220.185,376.7l-34.59,8.9Z" transform="translate(55.599 149.655)" fill="#2f2e41"/>
    <path id="Pfad_1087" data-name="Pfad 1087" d="M193.875,516.223s9.883,17.789,31.625,32.613S292.7,661.5,292.7,661.5L243.29,859.155l68.191,18.777,37.554-232.246L271.949,471.75Z" transform="translate(32.309 41.696)" fill="#2f2e41"/>
    <path id="Pfad_1088" data-name="Pfad 1088" d="M178.144,741.488s-9.883,10.871-5.93,18.777,5.93,28.66,5.93,28.66h8.895V765.207L215.7,791.89s66.215,5.93,65.226,0-39.531-19.766-39.531-19.766l-18.777-28.66Z" transform="translate(23.333 148.857)" fill="#2f2e41"/>
    <path id="Pfad_1089" data-name="Pfad 1089" d="M240.385,743.349s-9.883,10.871-5.93,18.777,5.93,28.66,5.93,28.66h8.894V767.068l28.66,26.684s66.215,5.93,65.226,0-39.531-19.766-39.531-19.766l-18.777-28.66Z" transform="translate(48.06 149.596)" fill="#2f2e41"/>
    <circle id="Ellipse_197" data-name="Ellipse 197" cx="37.554" cy="37.554" r="37.554" transform="translate(227.172 212.022)" fill="#a0616a"/>
    <path id="Pfad_1090" data-name="Pfad 1090" d="M211.054,284.319s-2.965,37.554-21.742,51.39-18.777,25.7-18.777,25.7l76.1,34.59L228.844,358.44s-4.941-1.977,2.965-11.859,14.824-33.6,14.824-33.6Z" transform="translate(23.036 -32.766)" fill="#a0616a"/>
    <path id="Pfad_1091" data-name="Pfad 1091" d="M294.851,534.057h0a212.856,212.856,0,0,1-70.169,40.732l-17.937,6.227s-37.929-46.031-18.776-82.3a56.821,56.821,0,0,1,16.455-19.509l-.4-1.729-9.616-41.952-.86-3.755-28.66-6.918s-.089.03-.257.069c-2.144.563-16.682,3.232-5.673-30.706,7.324-22.582,12.634-44.083,15.625-57.226a13.948,13.948,0,0,1,17.25-10.395c9.177,2.516,20.578,7.3,27.41,16.23,12.848,16.8,15.443-.743,15.443-.743s35.948,40.274,33.971,58.063a70.7,70.7,0,0,0,.435,14.31v.02c.237,2.115.524,4.319.85,6.572,2.451,16.643,7.195,35.983,8.934,42.783.128.484.237.909.326,1.265.208.82.326,1.265.326,1.265Z" transform="translate(16.82 -16.163)" fill="#575a89"/>
    <path id="Pfad_1092" data-name="Pfad 1092" d="M241.671,459.727l-7.906,26.684s-30.32-7.728-48.08-12.116a56.82,56.82,0,0,1,16.455-19.509l-.4-1.729L192.129,411.1l-.86-3.755-28.66-6.918s-.089.03-.257.069l-1.72-12.917s49.414,2.965,52.379,14.824-2.965,23.719-5.93,25.7,0,0,5.93,2.965-1.977,0-5.93,5.93.988.988,1.977,3.953,0-.988-.988,3.953,3.953.988,4.941.988S241.671,459.727,241.671,459.727Z" transform="translate(19.103 8.258)" opacity="0.2"/>
    <path id="Pfad_1093" data-name="Pfad 1093" d="M213.108,438.514l64.238,16.8s34.59-35.578,53.367-24.707-33.6,35.578-33.6,35.578l-18.777,3.953-68.191-7.906Z" transform="translate(38.772 24.531)" fill="#a0616a"/>
    <path id="Pfad_1094" data-name="Pfad 1094" d="M160.633,384.754l3.953,29.648s-2.965,0,0,6.918,0,20.754,0,20.754-5.93.988-.988,3.953,9.883,10.871,7.906,13.836-5.93,6.918,2.965,8.894,59.3,14.824,59.3,14.824l7.906-26.684S214,443.062,213.012,443.062s-5.93,3.953-4.941-.988,1.977-.988.988-3.953-5.93,1.977-1.977-3.953,11.859-2.965,5.93-5.93-8.895-.988-5.93-2.965,8.895-13.836,5.93-25.7S160.633,384.754,160.633,384.754Z" transform="translate(19.103 7.135)" fill="#575a89"/>
    <path id="Pfad_1095" data-name="Pfad 1095" d="M231.375,340.113l2.978-4.735a9.885,9.885,0,0,0-3.105-13.631l-22.69-14.271a9.885,9.885,0,0,0-13.631,3.105l-2.978,4.735a9.869,9.869,0,0,0-8.4,4.613l-7.328,11.651a9.885,9.885,0,0,0,3.105,13.631l30.576,19.23a9.886,9.886,0,0,0,13.631-3.105l7.328-11.651a9.869,9.869,0,0,0,.518-9.572Z" transform="translate(24.691 -24.169)" fill="#575a89"/>
    <path id="Pfad_1096" data-name="Pfad 1096" d="M242.105,298.134c2.1-3.068,1.18-7.332,2.684-10.733,2.361-5.341,9.324-6.437,15.153-6.788a44.667,44.667,0,0,1,11.605.312,11.143,11.143,0,0,1,7.908,6.031c.819,1.747.733-3.666.349-10.622A33.567,33.567,0,0,0,254.8,245.69l-.243-.063c-7.043-1.805-14.316-3.185-21.556-2.511s-14.51,3.615-19.153,9.21c-2.122,2.557-3.653,5.6-6.009,7.939-4.141,4.116-10.165,5.5-15.711,7.327A46.855,46.855,0,0,0,174.863,277a25.4,25.4,0,0,0-8.651,17.248c-.3,7.7,4.4,15.76,12.257,17.469a8.864,8.864,0,0,1,3.745,1.725c7.394,6.025-1.35,11.933-1.45,18.512-.083,5.49,5.94,9.215,11.417,9.6a22.1,22.1,0,0,0,22.425-16.946c.936-4.484.409-9.126-.018-13.686-.489-5.221,11.018-17.207,3.4-8.4a12.889,12.889,0,0,0-2.976,5.893c-1.406,7.148,5.067,9.72,9.089,13.8a17.072,17.072,0,0,1,3.706,17.668,19.682,19.682,0,0,0,4.178-24.761c-1.277-2.067-2.944-3.879-4.152-5.987-1.885-3.29-2.255-10.356,3.235-10.029C234.982,299.339,238.978,302.7,242.105,298.134Z" transform="translate(21.314 -49.204)" fill="#2f2e41"/>
    <circle id="Ellipse_198" data-name="Ellipse 198" cx="41.222" cy="41.222" r="41.222" transform="translate(1279.36 181.45)" fill="#ffb8b8"/>
    <path id="Pfad_1097" data-name="Pfad 1097" d="M1071.343,337.175l-14.177,151.2s-.558,7.032-1.592,16.408c-30.092,7.193-113.182,12.69-113.182,12.69l-4.041-29.1,92.142-25.056s-11.316-63.045,1.616-88.909a199.953,199.953,0,0,0,8.486-19.338,28.056,28.056,0,0,1,30.748-17.9Z" transform="translate(328.072 -11.91)" opacity="0.2"/>
    <path id="Pfad_1098" data-name="Pfad 1098" d="M960.775,443.257S896.922,430.325,905,457.806s61.428,9.7,61.428,9.7Z" transform="translate(314.544 29.169)" fill="#ffb8b8"/>
    <path id="Pfad_1099" data-name="Pfad 1099" d="M1047.814,330.172l25.056,4.041s17.782,48.5,14.549,81.635-2.425,75.977-24.248,84.06-119.623,14.549-119.623,14.549l-4.041-29.1,92.143-25.056s-11.316-63.045,1.616-88.909S1047.814,330.172,1047.814,330.172Z" transform="translate(328.532 -14.55)" fill="#575a89"/>
    <path id="Pfad_1100" data-name="Pfad 1100" d="M955.147,241.689l-7.923-3.172s16.566-18.238,39.615-16.652l-6.483-7.137s15.846-6.344,30.251,10.309c7.573,8.754,16.334,19.043,21.8,30.634h8.485l-3.541,7.8,12.395,7.8-12.722-1.4a43.574,43.574,0,0,1,.345,12.934,16.734,16.734,0,0,1-6.128,10.947h0s-9.826-20.339-9.826-23.511v7.93s-7.923-7.137-7.923-11.895l-4.322,5.551H980.356l4.322-7.137-16.566,2.379,6.483-8.723L948.945,294.36S934.26,253.583,955.147,241.689Z" transform="translate(330.289 -60.884)" fill="#2f2e41"/>
    <circle id="Ellipse_199" data-name="Ellipse 199" cx="150.906" cy="150.906" r="150.906" transform="translate(638.556 356.66)" fill="#049ce7"/>
    <path id="Pfad_1101" data-name="Pfad 1101" d="M690.522,489.983c0,9.26-34,32.487-73.357,32.487S548,499.244,548,489.983s29.809,3.144,69.165,3.144S690.522,480.722,690.522,489.983Z" transform="translate(172.995 47.576)" fill="#d0cde1"/>
    <circle id="Ellipse_200" data-name="Ellipse 200" cx="16.767" cy="16.767" r="16.767" transform="translate(827.188 447.483)" fill="#3f3d56"/>
    <circle id="Ellipse_201" data-name="Ellipse 201" cx="16.767" cy="16.767" r="16.767" transform="translate(718.2 447.483)" fill="#3f3d56"/>
    <circle id="Ellipse_202" data-name="Ellipse 202" cx="8.384" cy="8.384" r="8.384" transform="translate(736.365 447.483)" fill="#d0cde1"/>
    <circle id="Ellipse_203" data-name="Ellipse 203" cx="8.384" cy="8.384" r="8.384" transform="translate(821.599 447.483)" fill="#d0cde1"/>
    <circle id="Ellipse_204" data-name="Ellipse 204" cx="60.083" cy="60.083" r="60.083" transform="translate(732.173 246.275)" fill="#049ce7"/>
    <path id="Pfad_1102" data-name="Pfad 1102" d="M600.789,329.3c21.219,12.632,21.98,50.487,21.98,50.487s-33.641,17.374-54.859,4.742-21.981-50.486-21.981-50.486S579.57,316.669,600.789,329.3Z" transform="translate(172.172 -16.724)" fill="#3f3d56"/>
    <path id="Pfad_1103" data-name="Pfad 1103" d="M654.69,379.042c-19.177,15.559-54.97,3.215-54.97,3.215s-4.7-37.569,14.474-53.128,54.97-3.215,54.97-3.215S673.868,363.483,654.69,379.042Z" transform="translate(193.34 -18.086)" fill="#3f3d56"/>
  </g>
</svg>
