<svg xmlns="http://www.w3.org/2000/svg" width="414" height="251.98" viewBox="0 0 414 251.98">
  <g id="Gruppe_56" data-name="Gruppe 56" transform="translate(0 0.001)">
    <path id="Pfad_1076" data-name="Pfad 1076" d="M798.091,434.4s-16.654-3.373-14.546,3.795,16.022,2.53,16.022,2.53Z" transform="translate(-509.537 -313.589)" fill="#ffb8b8"/>
    <path id="Pfad_1077" data-name="Pfad 1077" d="M856.852,331.186a1.562,1.562,0,0,1,2.591.893l.569,3.306s2.573,13.224.37,21.624-3.767,19.465-9.721,20.644c-5.1,1.009-24.468-.589-29.952-1.071a1.561,1.561,0,0,1-1.424-1.59l.1-4.825a1.564,1.564,0,0,1,1.4-1.521l22.18-2.365a1.56,1.56,0,0,0,1.382-1.335c.528-3.774,2.234-15.472,3.928-21.623C849.646,338.351,854.143,333.658,856.852,331.186Z" transform="translate(-532.37 -248.238)" fill="#575a89"/>
    <rect id="Rechteck_191" data-name="Rechteck 191" width="153.063" height="0.729" transform="translate(260.937 243.535)" fill="#3f3d56"/>
    <path id="Pfad_1078" data-name="Pfad 1078" d="M850.822,614.608v10.119l5.692,1.265,3.795-1.9-.422-8.011Z" transform="translate(-540.751 -390.623)" fill="#ffb8b8"/>
    <path id="Pfad_1079" data-name="Pfad 1079" d="M943.086,614.608v10.119l5.692,1.265,3.794-1.9-.422-8.011Z" transform="translate(-599.391 -390.623)" fill="#ffb8b8"/>
    <path id="Pfad_1080" data-name="Pfad 1080" d="M892.735,493.3s-7.589,15.389-7.378,27.406a164.831,164.831,0,0,1-1.054,21.714l-3.795,36.049,12.227.632,5.692-38.789,10.962-29.935L913.606,546l1.054,35.838H925.2s4.849-33.941,2.108-41.53c0,0,6.324-42.584,1.265-44.692S892.735,493.3,892.735,493.3Z" transform="translate(-571.281 -351.529)" fill="#2f2e41"/>
    <path id="Pfad_1081" data-name="Pfad 1081" d="M854.185,730.529s-2.108-7.8-5.059-3.795-11.384,10.751-11.384,10.751-12.649,6.746-1.054,8.432,12.859-2.108,12.859-2.108a4.87,4.87,0,0,1,3.584-.422c1.686.632,9.065.422,9.486-2.108s-2.319-16.443-3.162-13.914S854.185,730.529,854.185,730.529Z" transform="translate(-540.32 -499.166)" fill="#2f2e41"/>
    <path id="Pfad_1082" data-name="Pfad 1082" d="M982.084,734.132s0-2.319-4.005-2.53-4.638,2.53-4.638,2.53-1.054,1.054-1.265,4.216,0,11.384,0,11.384-1.9,6.324,6.746,5.06,5.481-7.8,5.481-7.8Z" transform="translate(-629.429 -502.979)" fill="#2f2e41"/>
    <path id="Pfad_1083" data-name="Pfad 1083" d="M952.3,277.532l-1.054,11.805-1.9,4.427,5.059,7.168,12.438-11.595s-2.319-6.324-.843-9.908Z" transform="translate(-615.031 -214.396)" fill="#ffb8b8"/>
    <path id="Pfad_1084" data-name="Pfad 1084" d="M955.911,314.314l-.1,1.039-3.7,39.436s-.146,1.834-.415,4.28c-.455,4.136-1.265,10.02-2.325,11.742a5.234,5.234,0,0,0-.422,5.059c-9.7,5.692-38.367-2.53-38.367-2.53l6.535-26.141s-5.9-27.195-5.269-29.724,13.914-11.595,13.914-11.595l.392,1.054c5.66,7.589,11.413,1.054,13.1-.422l3.373-2.951Z" transform="translate(-590.396 -230.94)" fill="#575a89"/>
    <path id="Pfad_1085" data-name="Pfad 1085" d="M510.511,439.754c-20.1,2.727-39.272,3.725-57.014,2.046a137.552,137.552,0,0,1-18.7-3.211c-11.281-2.67-25.129-2.67-40.343-1.249A115.792,115.792,0,0,0,367.3,443.1c-11.79,4.081-24.706,3.728-38.4.311a70.037,70.037,0,0,1-16.123-6.42c-10.011-5.38-21.86-3.432-34.773,2.763V391.648c12.056-5.25,23.8-6.1,35.172-1.672a74.3,74.3,0,0,0,12.807,3.82,100.946,100.946,0,0,0,47.578-2.148c20.907-7.084,42.777-4.882,64.925,0,24.675,5.212,48.724,5.519,72.029,0Z" transform="translate(-188.349 -284.048)" fill="#3f3d56"/>
    <rect id="Rechteck_192" data-name="Rechteck 192" width="153.063" height="0.729" transform="translate(0 243.535)" fill="#3f3d56"/>
    <rect id="Rechteck_193" data-name="Rechteck 193" width="13.291" height="13.291" transform="translate(200.947 11.509) rotate(150)" fill="#0075ab"/>
    <rect id="Rechteck_194" data-name="Rechteck 194" width="13.291" height="13.291" transform="translate(158.308 69.454) rotate(150)" fill="#3f3d56"/>
    <rect id="Rechteck_195" data-name="Rechteck 195" width="13.291" height="13.291" transform="translate(275.292 54.148) rotate(150)" fill="#d0cde1"/>
    <path id="Pfad_1086" data-name="Pfad 1086" d="M154.126,393.793l6.96,32.22-21.137,47.428,12.373,5.413,23.714-54.388L160.876,376.7l-9.022,2.32Z" transform="translate(-88.946 -239.419)" fill="#2f2e41"/>
    <path id="Pfad_1087" data-name="Pfad 1087" d="M193.875,483.349a28.152,28.152,0,0,0,8.248,8.506c5.671,3.866,17.528,29.385,17.528,29.385l-12.888,51.552,17.786,4.9,9.795-60.574L214.238,471.75Z" transform="translate(-134.882 -337.834)" fill="#2f2e41"/>
    <path id="Pfad_1088" data-name="Pfad 1088" d="M173.071,741.488s-2.578,2.835-1.547,4.9,1.547,7.475,1.547,7.475h2.32v-6.186l7.475,6.96s17.27,1.547,17.012,0-10.31-5.155-10.31-5.155l-4.9-7.475Z" transform="translate(-120.522 -509.27)" fill="#2f2e41"/>
    <path id="Pfad_1089" data-name="Pfad 1089" d="M235.312,743.349s-2.578,2.835-1.547,4.9,1.547,7.475,1.547,7.475h2.32v-6.186l7.475,6.96s17.27,1.547,17.012,0-10.31-5.155-10.31-5.155l-4.9-7.475Z" transform="translate(-160.08 -510.452)" fill="#2f2e41"/>
    <circle id="Ellipse_197" data-name="Ellipse 197" cx="9.795" cy="9.795" r="9.795" transform="translate(59.251 55.299)" fill="#a0616a"/>
    <path id="Pfad_1090" data-name="Pfad 1090" d="M181.1,284.319s-.773,9.795-5.671,13.4-4.9,6.7-4.9,6.7l19.848,9.022-4.639-9.795s-1.289-.516.773-3.093,3.866-8.764,3.866-8.764Z" transform="translate(-120.047 -218.71)" fill="#a0616a"/>
    <path id="Pfad_1091" data-name="Pfad 1091" d="M191.391,380.347h0a55.517,55.517,0,0,1-18.3,10.624l-4.678,1.624s-9.893-12.006-4.9-21.466a14.82,14.82,0,0,1,4.292-5.088l-.1-.451-2.508-10.942-.224-.979-7.475-1.8s-.023.008-.067.018c-.559.147-4.351.843-1.48-8.009,1.91-5.89,3.3-11.5,4.075-14.926a3.638,3.638,0,0,1,4.5-2.711c2.394.656,5.367,1.9,7.149,4.233,3.351,4.382,4.028-.194,4.028-.194s9.376,10.5,8.86,15.144a18.441,18.441,0,0,0,.113,3.732v.005c.062.552.137,1.126.222,1.714.639,4.341,1.877,9.385,2.33,11.159.033.126.062.237.085.33.054.214.085.33.085.33Z" transform="translate(-110.102 -245.271)" fill="#575a89"/>
    <path id="Pfad_1092" data-name="Pfad 1092" d="M181.769,406.4l-2.062,6.96s-7.908-2.016-12.54-3.16a14.819,14.819,0,0,1,4.292-5.088l-.1-.451-2.508-10.942-.224-.979-7.475-1.8s-.023.008-.067.018l-.449-3.369s12.888.773,13.661,3.866-.773,6.186-1.547,6.7,0,0,1.547.773-.516,0-1.547,1.547.258.258.516,1.031,0-.258-.258,1.031,1.031.258,1.289.258S181.769,406.4,181.769,406.4Z" transform="translate(-113.754 -284.341)" opacity="0.2"/>
    <path id="Pfad_1093" data-name="Pfad 1093" d="M210.916,431.143l16.755,4.382s9.022-9.279,13.919-6.444-8.764,9.279-8.764,9.279l-4.9,1.031-17.786-2.062Z" transform="translate(-145.221 -310.373)" fill="#a0616a"/>
    <path id="Pfad_1094" data-name="Pfad 1094" d="M160.633,384.754l1.031,7.733s-.773,0,0,1.8,0,5.413,0,5.413-1.547.258-.258,1.031,2.578,2.835,2.062,3.609-1.547,1.8.773,2.32,15.466,3.866,15.466,3.866l2.062-6.96s-7.217-3.609-7.475-3.609-1.547,1.031-1.289-.258.516-.258.258-1.031-1.547.516-.516-1.031,3.093-.773,1.547-1.547-2.32-.258-1.547-.773,2.32-3.609,1.547-6.7S160.633,384.754,160.633,384.754Z" transform="translate(-113.754 -282.543)" fill="#575a89"/>
    <path id="Pfad_1095" data-name="Pfad 1095" d="M189.481,314.866l.777-1.235a2.578,2.578,0,0,0-.81-3.555l-5.918-3.722a2.578,2.578,0,0,0-3.555.81L179.2,308.4a2.574,2.574,0,0,0-2.192,1.2l-1.911,3.039a2.578,2.578,0,0,0,.81,3.555l7.975,5.016a2.578,2.578,0,0,0,3.555-.81l1.911-3.039a2.574,2.574,0,0,0,.135-2.5Z" transform="translate(-122.694 -232.463)" fill="#575a89"/>
    <path id="Pfad_1096" data-name="Pfad 1096" d="M186,257.337c.548-.8.308-1.912.7-2.8.616-1.393,2.432-1.679,3.952-1.771a11.65,11.65,0,0,1,3.027.081,2.906,2.906,0,0,1,2.063,1.573c.214.456.191-.956.091-2.77a8.755,8.755,0,0,0-6.523-7.993l-.063-.016a16.6,16.6,0,0,0-5.622-.655,7.334,7.334,0,0,0-5,2.4c-.553.667-.953,1.46-1.567,2.071-1.08,1.074-2.651,1.436-4.1,1.911a12.221,12.221,0,0,0-4.5,2.454,6.624,6.624,0,0,0-2.256,4.5,4.408,4.408,0,0,0,3.2,4.556,2.312,2.312,0,0,1,.977.45c1.928,1.571-.352,3.112-.378,4.828-.022,1.432,1.549,2.4,2.978,2.5a5.763,5.763,0,0,0,5.849-4.42,12.014,12.014,0,0,0,0-3.57c-.128-1.362,2.874-4.488.885-2.191a3.362,3.362,0,0,0-.776,1.537c-.367,1.864,1.322,2.535,2.371,3.6a4.453,4.453,0,0,1,.967,4.608,5.133,5.133,0,0,0,1.09-6.458c-.333-.539-.768-1.012-1.083-1.562-.492-.858-.588-2.7.844-2.616C184.138,257.652,185.18,258.529,186,257.337Z" transform="translate(-117.291 -192.412)" fill="#2f2e41"/>
    <circle id="Ellipse_198" data-name="Ellipse 198" cx="10.751" cy="10.751" r="10.751" transform="translate(333.682 47.325)" fill="#ffb8b8"/>
    <path id="Pfad_1097" data-name="Pfad 1097" d="M973.037,336.91l-3.7,39.436s-.145,1.834-.415,4.279c-7.848,1.876-29.52,3.31-29.52,3.31l-1.054-7.589,24.033-6.535s-2.951-16.443.422-23.189a52.159,52.159,0,0,0,2.213-5.044,7.317,7.317,0,0,1,8.02-4.668Z" transform="translate(-608.043 -252.075)" opacity="0.2"/>
    <path id="Pfad_1098" data-name="Pfad 1098" d="M919.028,441.01s-16.654-3.373-14.546,3.795,16.022,2.53,16.022,2.53Z" transform="translate(-586.4 -317.793)" fill="#ffb8b8"/>
    <path id="Pfad_1099" data-name="Pfad 1099" d="M967.755,330.172l6.535,1.054s4.638,12.649,3.795,21.292-.632,19.816-6.324,21.924-31.2,3.795-31.2,3.795l-1.054-7.589,24.033-6.535s-2.951-16.443.422-23.189S967.755,330.172,967.755,330.172Z" transform="translate(-608.778 -247.852)" fill="#575a89"/>
    <path id="Pfad_1100" data-name="Pfad 1100" d="M946.855,220.883l-2.066-.827s4.321-4.757,10.332-4.343l-1.691-1.861s4.133-1.655,7.89,2.689a36.67,36.67,0,0,1,5.685,7.99h2.213l-.924,2.034,3.233,2.034-3.318-.365a11.366,11.366,0,0,1,.09,3.373,4.365,4.365,0,0,1-1.6,2.855h0s-2.563-5.3-2.563-6.132V230.4s-2.067-1.861-2.067-3.1l-1.127,1.448H953.43l1.127-1.861-4.321.62,1.691-2.275-6.69,9.394S941.407,223.985,946.855,220.883Z" transform="translate(-611.589 -173.726)" fill="#2f2e41"/>
    <circle id="Ellipse_199" data-name="Ellipse 199" cx="39.359" cy="39.359" r="39.359" transform="translate(166.548 93.023)" fill="#049ce7"/>
    <path id="Pfad_1101" data-name="Pfad 1101" d="M585.172,487.445c0,2.415-8.868,8.473-19.133,8.473S548,489.86,548,487.445s7.775.82,18.04.82S585.172,485.03,585.172,487.445Z" transform="translate(-359.951 -347.24)" fill="#d0cde1"/>
    <circle id="Ellipse_200" data-name="Ellipse 200" cx="4.373" cy="4.373" r="4.373" transform="translate(215.746 116.711)" fill="#3f3d56"/>
    <circle id="Ellipse_201" data-name="Ellipse 201" cx="4.373" cy="4.373" r="4.373" transform="translate(187.32 116.711)" fill="#3f3d56"/>
    <circle id="Ellipse_202" data-name="Ellipse 202" cx="2.187" cy="2.187" r="2.187" transform="translate(192.058 116.711)" fill="#d0cde1"/>
    <circle id="Ellipse_203" data-name="Ellipse 203" cx="2.187" cy="2.187" r="2.187" transform="translate(214.289 116.711)" fill="#d0cde1"/>
    <circle id="Ellipse_204" data-name="Ellipse 204" cx="15.671" cy="15.671" r="15.671" transform="translate(190.965 64.232)" fill="#049ce7"/>
    <path id="Pfad_1102" data-name="Pfad 1102" d="M560.238,325.9c5.534,3.295,5.733,13.168,5.733,13.168S557.2,343.6,551.662,340.3s-5.733-13.168-5.733-13.168S554.7,322.6,560.238,325.9Z" transform="translate(-358.634 -244.373)" fill="#3f3d56"/>
    <path id="Pfad_1103" data-name="Pfad 1103" d="M613.681,336.338c-5,4.058-14.337.839-14.337.839s-1.227-9.8,3.775-13.857,14.337-.839,14.337-.839S618.683,332.28,613.681,336.338Z" transform="translate(-392.498 -242.194)" fill="#3f3d56"/>
  </g>
</svg>
