<svg id="Gruppe_49" data-name="Gruppe 49" xmlns="http://www.w3.org/2000/svg" width="170.256" height="145.761" viewBox="0 0 170.256 145.761">
  <ellipse id="Ellipse_169" data-name="Ellipse 169" cx="17.871" cy="36.463" rx="17.871" ry="36.463" transform="translate(5.284 25.474)" fill="#049ce7"/>
  <path id="Pfad_831" data-name="Pfad 831" d="M264.532,277.538c.891-15.872,2.688-26.593,2.706-26.7l-.39-.066c-.018.107-1.817,10.845-2.71,26.738-.824,14.668-1.023,36.854,2.71,59.251l.39-.065C263.511,314.338,263.71,292.185,264.532,277.538Z" transform="translate(-241.542 -215.223)" fill="#3f3d56"/>
  <rect id="Rechteck_174" data-name="Rechteck 174" width="18.327" height="0.395" transform="translate(22.969 63.191) rotate(-28.157)" fill="#3f3d56"/>
  <rect id="Rechteck_175" data-name="Rechteck 175" width="0.395" height="18.327" transform="translate(5.911 59.226) rotate(-61.858)" fill="#3f3d56"/>
  <ellipse id="Ellipse_170" data-name="Ellipse 170" cx="23.184" cy="47.305" rx="23.184" ry="47.305" transform="translate(123.887)" fill="#049ce7"/>
  <path id="Pfad_832" data-name="Pfad 832" d="M924.68,165.579c1.157-20.595,3.487-34.506,3.511-34.644l-.369-.063c-.023.138-2.357,14.066-3.515,34.68-1.069,19.026-1.327,47.8,3.515,76.853l.37-.061C923.355,213.329,923.612,184.584,924.68,165.579Z" transform="translate(-777.89 -117.789)" fill="#3f3d56"/>
  <rect id="Rechteck_176" data-name="Rechteck 176" width="23.776" height="0.375" transform="translate(146.863 48.992) rotate(-28.157)" fill="#3f3d56"/>
  <rect id="Rechteck_177" data-name="Rechteck 177" width="0.375" height="23.776" transform="translate(124.733 43.727) rotate(-61.858)" fill="#3f3d56"/>
  <ellipse id="Ellipse_171" data-name="Ellipse 171" cx="8.662" cy="17.674" rx="8.662" ry="17.674" transform="translate(110.476 72.073)" fill="#e6e6e6"/>
  <path id="Pfad_833" data-name="Pfad 833" d="M745.069,485.243l.051.1,7.832-4.192-.177-.33-7.69,4.116a131.869,131.869,0,0,1,1.313-13.194l-.369-.063a136.884,136.884,0,0,0-1.42,15.392l-7.756-4.151-.177.331,7.832,4.192.094-.175a130.643,130.643,0,0,0,1.428,26.122l.37-.062A132.542,132.542,0,0,1,745.069,485.243Z" transform="translate(-625.939 -394.734)" fill="#3f3d56"/>
  <path id="Pfad_834" data-name="Pfad 834" d="M308.718,690.7a275.781,275.781,0,0,0-114.948-10.6c-29.222,3.494-47.764,10.529-47.948,10.6l-.134-.35c.184-.071,18.77-7.122,48.037-10.621a278.609,278.609,0,0,1,51.883-1.327,270.631,270.631,0,0,1,63.222,11.945Z" transform="translate(-145.688 -562.2)" fill="#3f3d56"/>
  <path id="Pfad_835" data-name="Pfad 835" d="M462.2,714.285a2.437,2.437,0,0,1,2.782-2.4" transform="translate(-402.893 -589.915)" fill="#3f3d56"/>
  <circle id="Ellipse_172" data-name="Ellipse 172" cx="1.328" cy="1.328" r="1.328" transform="translate(57.23 119.134)" fill="#049ce7"/>
  <rect id="Rechteck_178" data-name="Rechteck 178" width="0.375" height="2.623" transform="translate(58.342 122.697)" fill="#3f3d56"/>
  <path id="Pfad_836" data-name="Pfad 836" d="M720.2,717.285a2.437,2.437,0,0,1,2.782-2.4" transform="translate(-612.55 -592.353)" fill="#3f3d56"/>
  <circle id="Ellipse_173" data-name="Ellipse 173" cx="1.328" cy="1.328" r="1.328" transform="translate(105.573 119.696)" fill="#049ce7"/>
  <rect id="Rechteck_179" data-name="Rechteck 179" width="0.375" height="2.623" transform="translate(106.685 123.259)" fill="#3f3d56"/>
  <path id="Pfad_837" data-name="Pfad 837" d="M295.2,692.285a2.437,2.437,0,0,1,2.782-2.4" transform="translate(-267.185 -572.038)" fill="#3f3d56"/>
  <circle id="Ellipse_174" data-name="Ellipse 174" cx="1.328" cy="1.328" r="1.328" transform="translate(25.938 115.011)" fill="#049ce7"/>
  <rect id="Rechteck_180" data-name="Rechteck 180" width="0.375" height="2.623" transform="translate(27.05 118.575)" fill="#3f3d56"/>
  <path id="Pfad_838" data-name="Pfad 838" d="M404.2,673.285a2.437,2.437,0,0,1,2.782-2.4" transform="translate(-355.761 -556.598)" fill="#3f3d56"/>
  <circle id="Ellipse_175" data-name="Ellipse 175" cx="1.328" cy="1.328" r="1.328" transform="translate(46.362 111.451)" fill="#049ce7"/>
  <rect id="Rechteck_181" data-name="Rechteck 181" width="0.375" height="2.623" transform="translate(47.474 115.015)" fill="#3f3d56"/>
  <path id="Pfad_839" data-name="Pfad 839" d="M677.2,700.285a2.437,2.437,0,0,1,2.782-2.4" transform="translate(-577.607 -578.539)" fill="#3f3d56"/>
  <circle id="Ellipse_176" data-name="Ellipse 176" cx="1.328" cy="1.328" r="1.328" transform="translate(97.516 116.51)" fill="#049ce7"/>
  <rect id="Rechteck_182" data-name="Rechteck 182" width="0.375" height="2.623" transform="translate(98.628 120.074)" fill="#3f3d56"/>
  <path id="Pfad_840" data-name="Pfad 840" d="M962.789,681.78l7.712,11.435-7.18,7.18-.931-1.862,1.6-3.723s-.266-3.457-1.2-4.388-5.053-6.515-5.053-6.515Z" transform="translate(-805.577 -565.469)" fill="#ffb8b8"/>
  <path id="Pfad_841" data-name="Pfad 841" d="M876.831,484.5s1.462,2.315-1.6,12.287c0,0,14.265,24.076,12,25.671s-8.377,5.127-9.973,4.063-13.2-37.1-13.2-37.1Z" transform="translate(-729.458 -405.158)" fill="#2f2e41"/>
  <path id="Pfad_842" data-name="Pfad 842" d="M968.982,731.808l2.327,2.327c1.2,1.2,1.995,2.925-.266,4.388s-10.106,6.914-12.765,5.186,3.191-3.324,3.191-3.324.967-3.587,1.481-2.791a5.589,5.589,0,0,1,.514,2.392Z" transform="translate(-805.454 -606.123)" fill="#2f2e41"/>
  <path id="Pfad_843" data-name="Pfad 843" d="M803.737,709.942s-4.255,7.845-4.255,8.776.266,3.59.266,3.59l-8.111,1.995-2.792-1.33.931-2.393s5.053-1.729,6.117-5.053,2.26-6.781,2.26-6.781Z" transform="translate(-668.332 -587.382)" fill="#ffb8b8"/>
  <circle id="Ellipse_177" data-name="Ellipse 177" cx="5.585" cy="5.585" r="5.585" transform="translate(134.741 33.339)" fill="#ffb8b8"/>
  <path id="Pfad_844" data-name="Pfad 844" d="M886.774,286.251l2.666,7.661,5.844-2.608s-3.989-6.117-3.989-6.914Z" transform="translate(-747.911 -242.54)" fill="#ffb8b8"/>
  <path id="Pfad_845" data-name="Pfad 845" d="M840.672,439.8h7.047s5.053,7.712,2.128,15.823a42.04,42.04,0,0,0-1.337,5.039c-1.021,4.731-2.037,11.139-3.078,17.027-1.463,8.271-2.976,15.517-4.62,15.649-3.324.266-9.788.222-9.788-1.108s4.33-39.8,4.33-39.8l.931-1.6.176-6.95A4.192,4.192,0,0,1,840.672,439.8Z" transform="translate(-702.607 -368.828)" fill="#2f2e41"/>
  <path id="Pfad_846" data-name="Pfad 846" d="M776.927,761.613s1.529,2.593,1.13,4.454-1.064,1.6-3.989,1.862-12.9.266-12.9-1.6,7.779-4.279,7.812-3.536.3,2.206-.5,2.472-.066.066-.066.066Z" transform="translate(-645.843 -630.343)" fill="#2f2e41"/>
  <path id="Pfad_847" data-name="Pfad 847" d="M861.486,522.915s-.578,9.445-4.436,6.634,1.5-7.891,1.5-7.891Z" transform="translate(-722.622 -435.35)" fill="#fff"/>
  <path id="Pfad_848" data-name="Pfad 848" d="M868.242,331.728a1.12,1.12,0,0,0,1.147-.136,1.175,1.175,0,0,0,.435-.741c.558-3.215,1.237-12.13,1.628-16.637a19,19,0,0,0-1.981-10.064l-1.445-1.987a1.134,1.134,0,0,0-1.358-.381s-4.51,4.68-4.527,4.86c-.071.776-.608,2.5-3.406,5.293-3.061,3.062-3.078,5.734-3.011,6.48q.007.074.007.147a3.279,3.279,0,0,0,.135.989c1.282,4.043.278,8.883-1.335,13.935a1.139,1.139,0,0,0,.459,1.236c.471.32-.094-.155.074.051,1.111,1.362,2.711-.536,4.54-2.607.637-.721,1.36-1.539,2.211-2.391,1.17-1.171,3.407,1.5,4.447,1.5a4.828,4.828,0,0,1,1.979.451Z" transform="translate(-721.678 -256.603)" fill="#575a89"/>
  <path id="Pfad_849" data-name="Pfad 849" d="M877.307,325.658s2.921,2.463,1.261,5.658a10.981,10.981,0,0,0-1.439,5.551s-.442,21.947-5.627,20.88l-2.359,6.512-4.26-1.537,2.463-5.744s-1.973-.123-1.4-1.467c.4-.944,2.586-11.19,3.849-17.205.535-2.549.905-4.339.905-4.339S872.383,324.994,877.307,325.658Z" transform="translate(-730.123 -276.048)" fill="#575a89"/>
  <path id="Pfad_850" data-name="Pfad 850" d="M781.64,321.044,780,331.819l.886-11.522Z" transform="translate(-633.844 -260.281)" opacity="0.2"/>
  <path id="Pfad_851" data-name="Pfad 851" d="M861.9,232.182s-.939-7.307,6.722-4.911c0,0,5.471-1,7.266,5.84l1.817,7.174-.885-.482-.413.9-1.435.363-.614-1.219-.3,1.48L862.313,242.5s5.263-3.113,5.347-8.691l-1,1.059Z" transform="translate(-727.672 -195.733)" fill="#2f2e41"/>
  <path id="Pfad_852" data-name="Pfad 852" d="M763.014,507.474l2.62-17.461-2.131,18.85Z" transform="translate(-620.042 -398.196)" opacity="0.2"/>
  <circle id="Ellipse_178" data-name="Ellipse 178" cx="2.955" cy="2.955" r="2.955" transform="translate(144.299 28.655)" fill="#2f2e41"/>
  <path id="Pfad_853" data-name="Pfad 853" d="M913.682,213.789a2.953,2.953,0,0,1,2.954-2.762c-.061-.008-.122-.017-.184-.021a2.955,2.955,0,1,0-.379,5.9c.062,0,.123,0,.185,0A2.953,2.953,0,0,1,913.682,213.789Z" transform="translate(-769.473 -182.902)" fill="#2f2e41"/>
  <path id="Pfad_854" data-name="Pfad 854" d="M729.59,335.886l-2.6,13.934,3.37-15.391Z" transform="translate(-590.769 -271.765)" opacity="0.2"/>
  <path id="Pfad_855" data-name="Pfad 855" d="M867.159,272.79l-1.515,1.142a6.772,6.772,0,0,1-3.156-4.337l1.651-.833C864.268,270.532,865.523,271.708,867.159,272.79Z" transform="translate(-728.175 -229.842)" fill="#fff"/>
  <path id="Pfad_856" data-name="Pfad 856" d="M873.857,269.014h-3.776a.126.126,0,0,1,0-.252h3.776a.126.126,0,0,1,0,.252Z" transform="translate(-734.244 -229.842)" fill="#fff"/>
  <path id="Pfad_857" data-name="Pfad 857" d="M886.2,278.249a.126.126,0,0,1-.117-.173l1.007-2.517a.126.126,0,0,1,.234.093l-1.007,2.517a.126.126,0,0,1-.117.079Z" transform="translate(-747.344 -235.301)" fill="#fff"/>
  <ellipse id="Ellipse_179" data-name="Ellipse 179" cx="0.923" cy="1.293" rx="0.923" ry="1.293" transform="translate(138.943 38.074)" fill="#ffb8b8"/>
  <path id="Pfad_858" data-name="Pfad 858" d="M399.191,192.41l9.835,2.251,4.155-7.837-8.409-3.283Z" transform="translate(-324.392 -149.149)" fill="#2f2e41"/>
  <path id="Pfad_859" data-name="Pfad 859" d="M540.775,507.937s-3.161,7.245-3.161,9.352c0,0,1.251,5.73.856,7.311l-1.383,2.964-2.9-1.185-.79-7.9.132-12.645Z" transform="translate(-460.75 -422.488)" fill="#ffb9b9"/>
  <path id="Pfad_860" data-name="Pfad 860" d="M580.8,280.655s.263,4.347-.263,5.664,1.976,3.82,1.976,3.82L586.461,285s-2.635-2.634-1.976-5.532Z" transform="translate(-498.994 -238.543)" fill="#ffb9b9"/>
  <path id="Pfad_861" data-name="Pfad 861" d="M530.784,445.57s-3.82,7.113-.132,6.586,2.437-6.784,2.437-6.784" transform="translate(-457.214 -373.36)" fill="#e6e6e6"/>
  <path id="Pfad_862" data-name="Pfad 862" d="M394.936,297.492l1.251-12.448-.066-7.574-2.9.527v6.981l-.593,12.711" transform="translate(-319.061 -225.478)" fill="#ffb9b9"/>
  <path id="Pfad_863" data-name="Pfad 863" d="M520.021,600.862l5.664-2.239.659,11.2s1.185,3.425.79,4.742c0,0,.263,2.239-.4,2.371a10.91,10.91,0,0,1-2.634.263c-.132-.132-.132-.527-.132-.527a3.673,3.673,0,0,0-1.449,1.976s-5.532,1.712-5.664.132,2.766-2.9,2.766-2.9l2.239-3.425Z" transform="translate(-447.307 -497.894)" fill="#2f2e41"/>
  <path id="Pfad_864" data-name="Pfad 864" d="M603.692,507.937s-3.161,7.245-3.161,9.352c0,0,1.251,5.73.856,7.311L600,527.564l-2.9-1.185-.79-7.9.132-12.645Z" transform="translate(-511.878 -422.488)" fill="#ffb9b9"/>
  <path id="Pfad_865" data-name="Pfad 865" d="M583.992,600.862l5.664-2.239.659,11.2s1.186,3.425.79,4.742c0,0,.263,2.239-.4,2.371a10.913,10.913,0,0,1-2.634.263c-.132-.132-.132-.527-.132-.527a3.672,3.672,0,0,0-1.449,1.976s-5.532,1.712-5.664.132,2.766-2.9,2.766-2.9l2.239-3.425Z" transform="translate(-499.292 -497.894)" fill="#2f2e41"/>
  <path id="Pfad_866" data-name="Pfad 866" d="M575.22,251.348a4.215,4.215,0,0,1-8.328.922,4.088,4.088,0,0,1-.1-.922,4.216,4.216,0,1,1,8.431,0Z" transform="translate(-487.884 -212.265)" fill="#ffb9b9"/>
  <path id="Pfad_867" data-name="Pfad 867" d="M548.681,307.251l3.271-1.7,1.471,1.172s3.557-.132,4.874,1.449,2.042,5.6,2.042,5.6-4.347-.922-3.82,2.766l-.79-2.108L555,316.209l-8.825,3.03-3.952-6.718s-2.634-.79-3.557,1.054c0,0,.2-6.652,2.766-6.85,1.727-.133,3.03-.132,3.03-.132l1.449-.263.928-.329Z" transform="translate(-465.035 -259.738)" fill="#575a89"/>
  <path id="Pfad_868" data-name="Pfad 868" d="M547.425,385.857s6.915,20.746,4.94,23.644c0,0-7.376,3.688-22.129-1.317l5.993-23.249A20.373,20.373,0,0,1,547.425,385.857Z" transform="translate(-458.18 -323.921)" fill="#2f2e41"/>
  <path id="Pfad_869" data-name="Pfad 869" d="M569.7,323.9l1.946-6.688c-2.335-2.539-.32-8.169-.32-8.169l-2.817-.6s-2.827,7.624-5.725,6.7-1.317-6.85-1.317-6.85l-2.635.263-1.185,4.61.856,9.813A36.814,36.814,0,0,1,569.7,323.9Z" transform="translate(-480.459 -261.964)" fill="#575a89"/>
  <path id="Pfad_870" data-name="Pfad 870" d="M484.566,297.492l.922-12.514.263-7.508-2.9.527v6.981l-.593,12.711" transform="translate(-391.896 -225.478)" fill="#ffb9b9"/>
  <path id="Pfad_871" data-name="Pfad 871" d="M620.415,445.57s-3.82,7.113-.132,6.586,2.437-6.784,2.437-6.784" transform="translate(-530.05 -373.36)" fill="#fff"/>
  <path id="Pfad_872" data-name="Pfad 872" d="M635.3,320.18s-.468-6.765-4.383-6.741v7.823S633.852,319.521,635.3,320.18Z" transform="translate(-539.997 -266.147)" fill="#575a89"/>
  <path id="Pfad_873" data-name="Pfad 873" d="M596.015,267.045a.107.107,0,0,1-.067-.191l2.15-1.72a.108.108,0,1,1,.134.168l-2.15,1.72A.108.108,0,0,1,596.015,267.045Z" transform="translate(-511.546 -226.874)" fill="#fff"/>
  <path id="Pfad_874" data-name="Pfad 874" d="M571.337,275.673c-.047.058-.095.116-.144.17a4.216,4.216,0,0,1-5.854-2.915l2.037-.375,3.961.375C570.43,274.033,570.54,274.415,571.337,275.673Z" transform="translate(-486.706 -232.922)" fill="#fff"/>
  <path id="Pfad_875" data-name="Pfad 875" d="M550.775,235.588a3.678,3.678,0,0,0-2.682,3.127,4.988,4.988,0,0,0-.043,1.387,3.916,3.916,0,0,1-1.158,2.928,28.474,28.474,0,0,0-2.068,2.656h0l2.276.606,1.017-3.772a19.294,19.294,0,0,1,2.255-5.182l.021-.034a3.763,3.763,0,0,0,2.783,2.3l-.625-.823a25.789,25.789,0,0,0,3.711,1.788.882.882,0,0,1,.285,1.533l-.029.022c-.987.75-3,2.539-2.206,4.27s-.132,2.046-.132,2.046l1.711-.651.783-.335-.079.579,3.823.08s1.033-.006-.8-2.764a2.6,2.6,0,0,1-.079-1.824,4.2,4.2,0,0,0,.424-1.923C559.844,238.822,558.673,233.166,550.775,235.588Z" transform="translate(-470.035 -202.405)" fill="#2f2e41"/>
  <path id="Pfad_876" data-name="Pfad 876" d="M226.8,532.32s0,17.887-4.105,22.579c0,0-.88,2.346-1.173,3.226a12.327,12.327,0,0,1-.586,1.466v1.173s-7.917-.88-8.8-2.932l1.466-1.759s.293-.293,0-1.173a.6.6,0,0,1,.586-.88l2.053-4.692-.293-19.354,1.466-26.685,12.609-.586Z" transform="translate(-199.686 -419.947)" fill="#2f2e41"/>
  <path id="Pfad_877" data-name="Pfad 877" d="M170.734,798.087s2.053,6.158,0,6.451-19.94.586-19.647-1.759,6.158-2.053,6.158-2.053l6.158-3.812Z" transform="translate(-150.073 -659.03)" fill="#2f2e41"/>
  <path id="Pfad_878" data-name="Pfad 878" d="M261.419,505.833a13.306,13.306,0,0,1-1.759,7.917c-2.346,4.105-.88,17.887-.88,17.887l20.82,18.181s-4.105,7.038-5.571,6.744S249.4,537.5,249.4,537.5l-9.09-30.5Z" transform="translate(-222.577 -422.491)" fill="#2f2e41"/>
  <path id="Pfad_879" data-name="Pfad 879" d="M417.714,736.429s6.3,1.563,5.449,3.454-10.18,17.156-12,15.652,1.563-6.3,1.563-6.3l.077-7.242Z" transform="translate(-360.977 -609.878)" fill="#2f2e41"/>
  <path id="Pfad_880" data-name="Pfad 880" d="M269.443,185.5a6.747,6.747,0,0,1-8.049,6.616,6.545,6.545,0,0,1-1.733-.6,6.74,6.74,0,0,1-3.511-4.407,6.643,6.643,0,0,1-.2-1.613,6.745,6.745,0,0,1,13.489,0Z" transform="translate(-235.292 -156.704)" fill="#a0616a"/>
  <path id="Pfad_881" data-name="Pfad 881" d="M288.312,227.453l-.3,8.679-5.675,2.242s-.557-8.887-1.342-9.379S288.312,227.453,288.312,227.453Z" transform="translate(-255.599 -196.273)" fill="#a0616a"/>
  <path id="Pfad_882" data-name="Pfad 882" d="M238.526,258.336s7.917-7.917,9.97-7.624,2.053,1.173,2.053,1.759-.586.88,0,1.173,1.173,0,1.173.88S257,264.2,255.24,273.878s-3.812,14.369-2.932,19.647.293,6.451.293,6.451-21.993,1.759-22.286-.293.88-.88-.586-2.346-.88-1.466-.88-2.346S235.3,258.336,238.526,258.336Z" transform="translate(-213.172 -215.167)" fill="#575a89"/>
  <path id="Pfad_883" data-name="Pfad 883" d="M272.162,492.823s-3.519,8.5-6.158,6.451,1.173-9.09,1.173-9.09Z" transform="translate(-242.703 -409.774)" fill="#fff"/>
  <path id="Pfad_884" data-name="Pfad 884" d="M283.43,294.333s6.89.789,4.325,13.443-12.535,27.316-12.535,27.316l-6.744-3.226,8.8-17.3-2.053-10.85S274.047,293.453,283.43,294.333Z" transform="translate(-245.468 -250.578)" fill="#575a89"/>
  <path id="Pfad_885" data-name="Pfad 885" d="M128.551,342.279l-9.677,16.128.88.88Z" transform="translate(-96.6 -278.144)" opacity="0.2"/>
  <path id="Pfad_886" data-name="Pfad 886" d="M164.194,382.389l-7.761,12.717h2.639Z" transform="translate(-127.121 -310.738)" opacity="0.2"/>
  <rect id="Rechteck_183" data-name="Rechteck 183" width="0.417" height="21.654" transform="translate(19.152 94.911) rotate(-20.877)" opacity="0.2"/>
  <circle id="Ellipse_180" data-name="Ellipse 180" cx="0.417" cy="0.417" r="0.417" transform="translate(24.978 43.945)" fill="#d0cde1"/>
  <line id="Linie_291" data-name="Linie 291" x1="3.546" y2="11.472" transform="translate(21.849 44.362)" fill="none"/>
  <path id="Pfad_887" data-name="Pfad 887" d="M261.389,308.577a.208.208,0,0,0,.2-.147l3.546-11.471a.209.209,0,1,0-.4-.123l-3.546,11.472a.209.209,0,0,0,.2.27Z" transform="translate(-239.54 -252.535)" fill="#d0cde1"/>
  <path id="Pfad_888" data-name="Pfad 888" d="M260.57,222.9l-1.685,1.6A8.762,8.762,0,0,1,255,219.343l2.211-.927C257.355,220.384,258.751,221.692,260.57,222.9Z" transform="translate(-234.517 -188.929)" fill="#fff"/>
  <path id="Pfad_889" data-name="Pfad 889" d="M269.367,219.256h-.02l-3.92-.56a.14.14,0,0,1,.039-.277l3.92.56a.14.14,0,0,1-.019.279Z" transform="translate(-242.893 -188.929)" fill="#fff"/>
  <path id="Pfad_890" data-name="Pfad 890" d="M283.377,231.082a.14.14,0,0,1-.122-.209l1.3-2.312a.14.14,0,0,1,.244.137l-1.3,2.312A.14.14,0,0,1,283.377,231.082Z" transform="translate(-257.463 -197.116)" fill="#fff"/>
  <path id="Pfad_891" data-name="Pfad 891" d="M266.132,175.937a9.707,9.707,0,0,0-1.771-.528,4.634,4.634,0,0,1-3.079-5.2,2.65,2.65,0,0,0,.111-.856,1.635,1.635,0,0,0-1.363-1.2,13.419,13.419,0,0,1-1.9-.361,2.875,2.875,0,0,1-1.677-2.305,4.762,4.762,0,0,1,.636-2.87l.227.653a2.423,2.423,0,0,0,.742-1.109,1.528,1.528,0,0,1,1.164.936c.364.215.417-.668.819-.8a.723.723,0,0,1,.5.124,4.052,4.052,0,0,0,2.624-.155,9.877,9.877,0,0,1,4.585-.005,5.488,5.488,0,0,1,2.71,1.394,6.5,6.5,0,0,1,1.268,2.178,12.548,12.548,0,0,1,1.023,6.094,8.626,8.626,0,0,1-2.033,4.57c-.58.669-2.474,3-3.512,2.6C265.905,178.607,267.669,176.75,266.132,175.937Z" transform="translate(-235.674 -143.084)" fill="#2f2e41"/>
</svg>
