<svg xmlns="http://www.w3.org/2000/svg" width="176.5" height="119.347" viewBox="0 0 176.5 119.347">
  <g id="Gruppe_54" data-name="Gruppe 54" transform="translate(0 0)">
    <ellipse id="Ellipse_191" data-name="Ellipse 191" cx="28.142" cy="2.119" rx="28.142" ry="2.119" transform="translate(120.217 115.11)" fill="#e6e6e6"/>
    <path id="Pfad_999" data-name="Pfad 999" d="M247.246,320.329a3.981,3.981,0,0,0-3.984-3.92H223.252a3.991,3.991,0,0,0-3.981,3.857,3.9,3.9,0,0,0,1.511,3.13.871.871,0,0,1,.345.8,3.876,3.876,0,0,0-.035.519v13.84a3.879,3.879,0,0,0,3.879,3.879h16.442a3.879,3.879,0,0,0,3.879-3.879v-13.84a3.9,3.9,0,0,0-.027-.455.842.842,0,0,1,.354-.776A3.9,3.9,0,0,0,247.246,320.329Z" transform="translate(-218.581 -287.459)" fill="#3f3d56"/>
    <path id="Pfad_1000" data-name="Pfad 1000" d="M249.216,322.78a3.1,3.1,0,0,0-3.106-2.695H226.083a3.111,3.111,0,0,0-3.059,2.41,3.063,3.063,0,0,0,1.464,3.3.842.842,0,0,1,.394.954,3,3,0,0,0-.107.8v13.839a3.035,3.035,0,0,0,2.472,2.982,3.07,3.07,0,0,0,.562.052h16.442a3,3,0,0,0,.821-.113,3.034,3.034,0,0,0,2.212-2.92V327.543a3.021,3.021,0,0,0-.094-.747.867.867,0,0,1-.026-.206.844.844,0,0,1,.448-.744h0A3.056,3.056,0,0,0,249.216,322.78Z" transform="translate(-221.418 -290.29)" fill="#049ce7"/>
    <path id="Pfad_1001" data-name="Pfad 1001" d="M253.38,328.869v-1.3h-2.212v-7.482h-1.3v7.482h-6.961v-7.482h-1.3v7.482h-6.961v-7.482h-1.3v7.482H230.87v1.3h2.472v3.9H230.87v1.3h2.472v3.9H230.87v1.3h2.472v5.087a3.076,3.076,0,0,0,.562.052h.739v-5.139H241.6v5.139h1.3v-5.139h6.961v5.139h.48a3,3,0,0,0,.821-.113v-5.026h2.212v-1.3h-2.212v-3.9h2.212v-1.3h-2.212v-3.9Zm-18.736,0H241.6v3.9h-6.961Zm0,9.108v-3.9H241.6v3.9Zm15.223,0h-6.961v-3.9h6.961Zm0-5.2h-6.961v-3.9h6.961Z" transform="translate(-227.512 -290.291)" opacity="0.2"/>
    <path id="Pfad_1002" data-name="Pfad 1002" d="M247.46,190.527a13.9,13.9,0,1,1-27.792,0Z" transform="translate(-218.887 -190.527)" fill="#049ce7"/>
    <path id="Pfad_1003" data-name="Pfad 1003" d="M239.908,199.051c0,.363-.129.658-.288.658s-.288-.295-.288-.658a.392.392,0,1,1,.576,0Z" transform="translate(-234.028 -196.584)" fill="#3f3d56"/>
    <path id="Pfad_1004" data-name="Pfad 1004" d="M303.191,209.062c0,.363-.129.658-.288.658s-.288-.294-.288-.658a.392.392,0,1,1,.576,0Z" transform="translate(-282.758 -204.293)" fill="#3f3d56"/>
    <path id="Pfad_1005" data-name="Pfad 1005" d="M256.712,203.342c0,.363-.129.658-.288.658s-.288-.294-.288-.658a.392.392,0,1,1,.576,0Z" transform="translate(-246.968 -199.888)" fill="#3f3d56"/>
    <path id="Pfad_1006" data-name="Pfad 1006" d="M281.739,225.866c0,.363-.129.658-.288.658s-.288-.294-.288-.658a.392.392,0,1,1,.576,0Z" transform="translate(-266.239 -217.232)" fill="#3f3d56"/>
    <path id="Pfad_1007" data-name="Pfad 1007" d="M254.924,223.006c0,.363-.129.658-.288.658s-.288-.294-.288-.658a.392.392,0,1,1,.576,0Z" transform="translate(-245.591 -215.03)" fill="#3f3d56"/>
    <path id="Pfad_1008" data-name="Pfad 1008" d="M317.492,196.191c0,.363-.129.658-.288.658s-.288-.295-.288-.658a.392.392,0,1,1,.576,0Z" transform="translate(-293.77 -194.382)" fill="#3f3d56"/>
    <path id="Pfad_1009" data-name="Pfad 1009" d="M294.61,231.586c0,.363-.129.658-.288.658s-.288-.295-.288-.658a.392.392,0,1,1,.576,0Z" transform="translate(-276.15 -221.637)" fill="#3f3d56"/>
    <path id="Pfad_1010" data-name="Pfad 1010" d="M230.949,205.2a14.694,14.694,0,0,1-14.677-14.677h1.562a13.115,13.115,0,0,0,26.23,0h1.562A14.694,14.694,0,0,1,230.949,205.2Z" transform="translate(-216.272 -190.527)" fill="#3f3d56"/>
    <rect id="Rechteck_184" data-name="Rechteck 184" width="4.6" height="4.6" transform="translate(43.885 5.039)" fill="#3f3d56"/>
    <rect id="Rechteck_185" data-name="Rechteck 185" width="37.027" height="0.46" transform="translate(56.534 7.108)" fill="#3f3d56"/>
    <rect id="Rechteck_186" data-name="Rechteck 186" width="4.6" height="4.6" transform="translate(43.885 39.662)" fill="#3f3d56"/>
    <rect id="Rechteck_187" data-name="Rechteck 187" width="37.027" height="0.46" transform="translate(56.534 41.732)" fill="#3f3d56"/>
    <rect id="Rechteck_188" data-name="Rechteck 188" width="4.6" height="4.6" transform="translate(43.885 74.044)" fill="#3f3d56"/>
    <rect id="Rechteck_189" data-name="Rechteck 189" width="37.027" height="0.46" transform="translate(56.534 76.114)" fill="#3f3d56"/>
    <path id="Pfad_1011" data-name="Pfad 1011" d="M764.766,320.264l-5.876,4.631-12.45-4.376s-4.233-4.761-6.627-1.215c-.82,1.215,4.55,3.458,5.056,3.667,1.266.521,13.4,7.177,14.587,6.3s7.877-5.29,7.877-5.29Z" transform="translate(-619.344 -288.677)" fill="#a0616a"/>
    <path id="Pfad_1012" data-name="Pfad 1012" d="M885.045,235.015c-5.569-2.081-10.866-3.065-15.161,0v-9.893a7.58,7.58,0,0,1,7.58-7.58h0a7.58,7.58,0,0,1,7.58,7.58Z" transform="translate(-719.565 -211.329)" fill="#2f2e41"/>
    <path id="Pfad_1013" data-name="Pfad 1013" d="M812.119,383.8l-.455,3.185s-1.138,3.413,0,9.783l-18.315,49.94,13.537,3.868,6.712-27.3,9.442-20.818-.91,23.662-4.778,25.255,14.106-.569,4.11-43.3a38.359,38.359,0,0,0-3.437-19.968c-1.14-2.422-2.366-4.33-3.479-4.607C825.315,382.091,812.119,383.8,812.119,383.8Z" transform="translate(-660.632 -338.499)" fill="#2f2e41"/>
    <path id="Pfad_1014" data-name="Pfad 1014" d="M768.749,659.546l-4.664,5.005s-8.987,4.664-2.617,5.233S770,667.85,770,667.85s7.963-.569,7.849-1.706-.683-4.892-.683-4.892Z" transform="translate(-634.326 -551.681)" fill="#2f2e41"/>
    <path id="Pfad_1015" data-name="Pfad 1015" d="M909.732,662.89v3.527a9.542,9.542,0,0,1,0,1.82c-.114.341-1.82,4.55,3.868,3.64s3.413-4.437,3.413-4.437l-1.365-5.119Z" transform="translate(-749.998 -553.818)" fill="#2f2e41"/>
    <circle id="Ellipse_192" data-name="Ellipse 192" cx="5.716" cy="5.716" r="5.716" transform="translate(152.113 9.293)" fill="#a0616a"/>
    <path id="Pfad_1016" data-name="Pfad 1016" d="M892.687,267.287s-.8,7.508,0,8.873-8.077-1.365-8.077-1.365,1.934-5.119,1.251-7.167S892.687,267.287,892.687,267.287Z" transform="translate(-730.905 -249.121)" fill="#a0616a"/>
    <path id="Pfad_1017" data-name="Pfad 1017" d="M851.895,305.926l1.82,5.005-16.95,1.934s-1.82-.341-1.82-1.82-1.934-6.712-1.934-6.712-4.736-3.839-7.012-4.863c-.825-.371.409-.218,1.1-1.792.208-.473.457-.973.729-1.479.222-.415.461-.836.705-1.251.3-.506.6-1,.9-1.479.9-1.434,1.719-2.64,1.982-3.128.8-1.479,8.283-1.611,8.283-1.611,2.141,1.347,8.326,1.611,8.326,1.611a38.162,38.162,0,0,1,6.027,3.128C854.182,293.566,851.895,305.926,851.895,305.926Z" transform="translate(-685.563 -266.146)" fill="#e6e6e6"/>
    <path id="Pfad_1018" data-name="Pfad 1018" d="M884.8,220.337V220.2l-.161.009a7.586,7.586,0,0,0-6.52-1.3,7.554,7.554,0,0,1,2.91,1.5l-5.479.3-2.313,5.139H874.8l1.261-2.313v2.313h5.293l.36-1.8,1,1.8h1.04c.006.128.016.256.016.385l-1.028,9.893,4.882-2.056V226.24A7.565,7.565,0,0,0,884.8,220.337Z" transform="translate(-722.147 -212.19)" fill="#2f2e41"/>
    <path id="Pfad_1019" data-name="Pfad 1019" d="M940.45,339.758l-.341,8.987-.91,17.405s1.251,7.508-1.934,7.394-.8-8.873-.8-8.873l-.91-13.765.91-9.669Z" transform="translate(-770.136 -305.438)" fill="#a0616a"/>
    <path id="Pfad_1020" data-name="Pfad 1020" d="M931.458,310.751c0,1.024-5.745.739-5.745.739L922.7,295.735a38.159,38.159,0,0,1,6.027,3.128,5.342,5.342,0,0,1,1.009,1.479c.135.365.264.788.386,1.251s.233.959.339,1.479A60.511,60.511,0,0,1,931.458,310.751Z" transform="translate(-760.233 -271.54)" fill="#e6e6e6"/>
    <path id="Pfad_1021" data-name="Pfad 1021" d="M231.848,506.35l-8.708-.9a6.95,6.95,0,1,0-.031,2.766l8.738-.8Z" transform="translate(-217.325 -430.59)" fill="#ccc"/>
    <path id="Pfad_1022" data-name="Pfad 1022" d="M270.514,509.242a5.666,5.666,0,0,0,7.05-5.107q.007-.146.007-.295t-.007-.295a5.666,5.666,0,0,0-7.05-5.107L258.9,501.294a2.546,2.546,0,1,0,0,5.092Z" transform="translate(-247.136 -427.496)" fill="#049ce7"/>
  </g>
</svg>
