<svg xmlns="http://www.w3.org/2000/svg" xmlns:xlink="http://www.w3.org/1999/xlink" width="176.574" height="118.178" viewBox="0 0 176.574 118.178">
  <defs>
    <linearGradient id="linear-gradient" x1="0.5" y1="1" x2="0.5" gradientUnits="objectBoundingBox">
      <stop offset="0" stop-color="gray" stop-opacity="0.251"/>
      <stop offset="0.54" stop-color="gray" stop-opacity="0.122"/>
      <stop offset="1" stop-color="gray" stop-opacity="0.102"/>
    </linearGradient>
  </defs>
  <g id="Gruppe_53" data-name="Gruppe 53" transform="translate(-0.001 0)">
    <path id="Pfad_927" data-name="Pfad 927" d="M126.531,83.934c-11.32-.4-22.1-4.046-32.388-8.045S73.65,67.46,62.6,65.342C55.488,63.98,47.36,63.788,41.634,67.6c-5.51,3.666-7.291,10-8.247,15.867-.72,4.418-1.143,9.07.829,13.2,1.37,2.872,3.8,5.286,5.485,8.037,5.858,9.57,1.72,21.372-4.627,30.718-2.976,4.383-6.428,8.566-8.724,13.232S22.993,158.673,25,163.433C27,168.15,31.738,171.7,36.879,174.187c10.44,5.058,22.742,6.512,34.738,7.333,26.555,1.816,53.252,1.03,79.877.242,9.853-.291,19.751-.587,29.443-2.11,5.384-.846,10.941-2.189,14.849-5.432a12.436,12.436,0,0,0,2.866-16.246c-5.576-8.656-21-10.8-24.891-20.1-2.146-5.113.058-10.809,3.176-15.551,6.688-10.173,17.9-19.1,18.489-30.727.4-7.986-4.984-15.983-13.317-19.77-8.736-3.96-20.843-3.462-27.288,3.094C148.187,81.684,136.527,84.282,126.531,83.934Z" transform="translate(-23.94 -64.45)" fill="#049ce7" opacity="0.1"/>
    <g id="Gruppe_51" data-name="Gruppe 51" transform="translate(70.781 61.695)" opacity="0.5">
      <path id="Pfad_928" data-name="Pfad 928" d="M467.8,402.58l-5.128.106-.838,1.151v3.977l1.047.733h4.92l1.047-1.151v-3.769Z" transform="translate(-461.83 -402.575)" fill="#049ce7"/>
      <path id="Pfad_929" data-name="Pfad 929" d="M495.668,467.633s-4.71.733-5.128,0l.106-.523,5.022-.11Z" transform="translate(-489.809 -467)" fill="#fff" opacity="0.2"/>
      <path id="Pfad_930" data-name="Pfad 930" d="M494.466,542.082l.837.838v3.985l-.837.825s-3.035,1.047-5.024.208L488.5,547v-3.985l.838-.943Z" transform="translate(-488.082 -530.565)" fill="#049ce7"/>
      <path id="Pfad_931" data-name="Pfad 931" d="M498.888,543.093s-3.663.837-4.918,0v-.943H499.1Z" transform="translate(-492.713 -530.633)" fill="#fff" opacity="0.2"/>
      <path id="Pfad_932" data-name="Pfad 932" d="M504.628,501.339V507a.849.849,0,0,1-.889.8h0a.849.849,0,0,1-.889-.8v-5.661a.86.86,0,0,1,.993-.8h0A.837.837,0,0,1,504.628,501.339Z" transform="translate(-500.232 -495.395)" fill="#049ce7"/>
      <path id="Pfad_933" data-name="Pfad 933" d="M521.386,403.64l-5.128.1-.838,1.151v3.977l1.047.733h4.92l1.047-1.151v-3.769Z" transform="translate(-507.207 -403.473)" fill="#049ce7"/>
      <path id="Pfad_934" data-name="Pfad 934" d="M549.268,468.717s-4.71.733-5.128,0l.1-.523,5.024-.1Z" transform="translate(-535.194 -467.923)" fill="#fff" opacity="0.2"/>
      <path id="Pfad_935" data-name="Pfad 935" d="M548.036,543.2l.837.838v3.985l-.837.829s-3.036,1.047-5.024.208l-.943-.941v-3.977l.838-.943Z" transform="translate(-533.441 -531.522)" fill="#049ce7"/>
      <path id="Pfad_936" data-name="Pfad 936" d="M552.478,544.143s-3.663.837-4.918,0V543.2h5.125Z" transform="translate(-538.09 -531.522)" fill="#fff" opacity="0.2"/>
      <path id="Pfad_937" data-name="Pfad 937" d="M558.169,502.388v5.661a.851.851,0,0,1-.889.8h0a.851.851,0,0,1-.89-.8v-5.661a.86.86,0,0,1,.995-.8h0A.837.837,0,0,1,558.169,502.388Z" transform="translate(-545.567 -496.284)" fill="#049ce7"/>
      <path id="Pfad_938" data-name="Pfad 938" d="M595.432,423.39l-4.222.087-.69.947V427.7l.861.6h4.051l.861-.949v-3.1Z" transform="translate(-570.797 -420.196)" fill="#049ce7"/>
      <path id="Pfad_939" data-name="Pfad 939" d="M622.621,488.358s-3.876.6-4.221,0l.086-.431,4.138-.087Z" transform="translate(-598.073 -484.646)" fill="#fff" opacity="0.2"/>
      <path id="Pfad_940" data-name="Pfad 940" d="M621.6,549.68l.69.69v3.274l-.69.69s-2.5.861-4.138.172l-.776-.775v-3.274l.69-.775Z" transform="translate(-596.625 -537.008)" fill="#049ce7"/>
      <path id="Pfad_941" data-name="Pfad 941" d="M625.259,550.455s-3.016.69-4.049,0v-.775h4.221Z" transform="translate(-600.452 -537.008)" fill="#fff" opacity="0.2"/>
      <path id="Pfad_942" data-name="Pfad 942" d="M629.984,516.06v4.661a.7.7,0,0,1-.733.661h0a.7.7,0,0,1-.731-.661V516.06a.708.708,0,0,1,.817-.657h0A.69.69,0,0,1,629.984,516.06Z" transform="translate(-606.642 -507.977)" fill="#049ce7"/>
      <path id="Pfad_943" data-name="Pfad 943" d="M639.55,424.26l-4.222.086-.688.947v3.275l.861.6h4.049l.861-.947v-3.1Z" transform="translate(-608.155 -420.933)" fill="#049ce7"/>
      <path id="Pfad_944" data-name="Pfad 944" d="M666.732,489.226s-3.877.6-4.222,0l.086-.431,4.138-.086Z" transform="translate(-635.423 -485.383)" fill="#fff" opacity="0.2"/>
      <path id="Pfad_945" data-name="Pfad 945" d="M665.732,550.55l.688.688v3.274l-.688.69s-2.5.861-4.138.173l-.774-.771v-3.278l.69-.776Z" transform="translate(-633.992 -537.745)" fill="#049ce7"/>
      <path id="Pfad_946" data-name="Pfad 946" d="M669.369,551.326s-3.015.688-4.049,0v-.776h4.222Z" transform="translate(-637.802 -537.745)" fill="#fff" opacity="0.2"/>
      <path id="Pfad_947" data-name="Pfad 947" d="M674.1,516.951v4.659a.7.7,0,0,1-.733.661h0a.7.7,0,0,1-.733-.661v-4.659a.709.709,0,0,1,.818-.656h0A.688.688,0,0,1,674.1,516.951Z" transform="translate(-643.992 -508.736)" fill="#049ce7"/>
    </g>
    <path id="Pfad_948" data-name="Pfad 948" d="M230.538,230.22a2.587,2.587,0,0,0-1.594-1.169,5.823,5.823,0,0,0-2-.126,17.624,17.624,0,0,0-3.208.529,3.343,3.343,0,0,0-1.767.92c-.012.015-.026.034-.04.049-.673.176-1.341.448-1.992.668a18.7,18.7,0,0,1-1.992.541,11.8,11.8,0,0,0,2.466-1.74,6.972,6.972,0,0,0,.92-1.1,3.649,3.649,0,0,0,1.533.1,5.534,5.534,0,0,0,2.656-1.643l2.509-2.308a5.088,5.088,0,0,0,1.073-1.226,4.8,4.8,0,0,0,.4-2.231c.012-1.051,0-2.1-.031-3.153l.794.613a7.03,7.03,0,0,1,.7-3.764,4.2,4.2,0,0,0,.645-1.733,2.624,2.624,0,0,0-1.663-2.146,9.859,9.859,0,0,1-2.5-1.353c-1.033-.973-1.226-2.526-1.736-3.859a15.337,15.337,0,0,0-1.073-2.11l-.993-1.732a24.553,24.553,0,0,0-1.667-2.635,24.168,24.168,0,0,0-3.626-3.6l-6.719-5.789a63.143,63.143,0,0,0-5.041-4.051,62.707,62.707,0,0,0-11.648-5.916,7.376,7.376,0,0,0-3.159-.812,3.612,3.612,0,0,0-2.213.947,13.215,13.215,0,0,1-1.686-.641l-.043-.02c.012-.09.026-.179.035-.27.014-.12.021-.239.031-.36a2.812,2.812,0,0,0,.867-.284,1.041,1.041,0,0,0,.357-.277,1.271,1.271,0,0,0,.182-.679,30.436,30.436,0,0,0,.113-4.812,10.182,10.182,0,0,0-1.379-4.563A2.369,2.369,0,0,0,187,167.483c-.613-.245-1.323-.017-1.977-.127-1.133-.192-1.839-1.3-2.659-2.117a6.45,6.45,0,0,0-8.014-.705,23.427,23.427,0,0,0-2.443,2.259,5.421,5.421,0,0,1-2.851,1.6,1.389,1.389,0,0,0-.578.153,1.19,1.19,0,0,0-.411.664,11.736,11.736,0,0,0-.694,2.665c-.011-.055-.02-.11-.029-.166a5.2,5.2,0,0,0-.026,1.013,2.956,2.956,0,0,0,.365,1.226,1.663,1.663,0,0,0,.838.8,2.284,2.284,0,0,0,.808.13h.121c-.044.118-.087.236-.127.356a9.808,9.808,0,0,0-.513,3.143,9.637,9.637,0,0,0,9.565,9.711,9.533,9.533,0,0,0,1.893-.2c.207.066.414.133.613.205a11.5,11.5,0,0,1,1.2.472c.166.078.835.469,1.644.973h0l-.055.115a6.091,6.091,0,0,0-1.761,5.89c.585,2.279,2.506,4.233,2.313,6.579a4.016,4.016,0,0,0-.041,1,2.433,2.433,0,0,0,.7,1.174c.27.3.55.585.835.867-.023,1.5-.153,2.993-.294,4.486-.012.13-.015.262-.017.4a2.759,2.759,0,0,0,.662,1.758,2.851,2.851,0,0,1,.538,2.075,14.317,14.317,0,0,1-.973,2.958c-1.542,4.419.352,9.4-.714,13.964a19.821,19.821,0,0,0-.766,3.372,6.332,6.332,0,0,1-.2,2.146,4.025,4.025,0,0,1-1.215,1.4q-1,.86-1.956,1.778a27.072,27.072,0,0,0-2.964-1.395,5.334,5.334,0,0,0-.506-.175,21.848,21.848,0,0,0-4.129-2.664c-1.177-.682-2.3-1.448-3.427-2.215a19.165,19.165,0,0,1-3.076-2.423c-.46-.478-.869-1.005-1.364-1.442a11.6,11.6,0,0,0-1.379-.987,55.422,55.422,0,0,1-6.2-4.667c-1.491-1.293-2.711-2.959-4.305-4.12a4.939,4.939,0,0,0-3.307-1.226,3.155,3.155,0,0,0-1.09.336,2.849,2.849,0,0,0-1-.224,5.1,5.1,0,0,0-2.7,1q-7.356,4.471-14.943,8.543c-1.021.549-2.048,1.093-3.022,1.721a20.525,20.525,0,0,0-4.987,4.547c-.257.326-.582.7-.992.648a.886.886,0,0,1-.317-.113,3.989,3.989,0,0,1-1.379-1.629,5.182,5.182,0,0,0-.935-1.289h0a2.721,2.721,0,0,0-.328-.613c.544-1.343,1.013-2.717,1.448-4.1.227-.726.446-1.458.736-2.162.714-1.744,1.853-3.324,2.256-5.169.1-.446.153-.9.228-1.355a9.6,9.6,0,1,0-6.937-1.32v.054a6.781,6.781,0,0,1-.09.92,11.64,11.64,0,0,1-1.053,2.929c-.291.627-.582,1.257-.884,1.882a1.745,1.745,0,0,1-.418-.141,1.267,1.267,0,0,1-.471-.739,26.434,26.434,0,0,0-1.589-3.718,6.437,6.437,0,0,0-.92-1.412,7.751,7.751,0,0,0-2.389-1.553c-.153-.074-.3-.153-.443-.224a3.784,3.784,0,0,0-.4-.259,10.072,10.072,0,0,1-2.1-1.257c-.446-.423-.753-.973-1.169-1.422a7.464,7.464,0,0,0-2.582-1.579,3.426,3.426,0,0,0-1.522-.4,1.823,1.823,0,0,0-.222.025,3.526,3.526,0,0,0-.377.086,2.052,2.052,0,0,1-.34-.227,3.361,3.361,0,0,1-.975-1.891,8.84,8.84,0,0,1-.44-3.582,5.428,5.428,0,0,1,.135-.613c.048-.078.093-.153.135-.238a8,8,0,0,0,4.186-12.331c-.078-.107-.153-.212-.241-.316l.092-.051a2.19,2.19,0,0,0,.648-2.679,4.833,4.833,0,0,0-2.071-2.086c-.123-.075-.247-.146-.372-.216l-.107-.058-.284-.153-.112-.057c-.112-.057-.224-.11-.336-.162l-.051-.025c-.139-.063-.279-.124-.42-.182h0c-.136-.057-.273-.109-.411-.153l-.057-.021c-.13-.048-.262-.092-.394-.135l-.029-.009a10.3,10.3,0,0,0-2.982-.5,17.244,17.244,0,0,0-5.709,1.119,9.836,9.836,0,0,0-3.781,2.835,3.646,3.646,0,0,0-.631.1,6.346,6.346,0,0,0-2.258,1.2,7.2,7.2,0,0,0-1.5,1.49,6.428,6.428,0,0,0-1.013,2.417c-.581,2.717.133,5.517.659,8.248s.829,5.707-.46,8.158c-.486.92-1.175,1.718-1.686,2.621a3.978,3.978,0,0,0-.57,2.993c.357,1.215,1.533,1.98,2.146,3.084a3.779,3.779,0,0,1-.418,4.138c-.041.049-.083.1-.127.153a1.534,1.534,0,0,1-.166.166,3.47,3.47,0,0,0,2.912-.572,5.17,5.17,0,0,0,1.718-1.654c1.1-1.8.6-4.126.99-6.205.507-2.723,2.555-5.153,2.273-7.91-.19-1.85-1.4-3.4-2.346-4.987a19.727,19.727,0,0,1-1.579-3.359l-.052-.153h0a4.936,4.936,0,0,1-.348-2.452,3.43,3.43,0,0,1,.239-.777c0,.029,0,.06,0,.089a6.015,6.015,0,0,0,.523,2.316c.958,1.992,3.263,2.912,4.727,4.527.061.067.12.136.178.207.017.018.032.038.048.058l.124.153.052.072c.038.054.077.107.112.162l.048.069c.049.078.1.153.144.238a3.649,3.649,0,0,0,.907-1.379c.014-.046.023-.093.032-.141.012.012.023.026.035.04.029.164.052.328.074.493h0a3.331,3.331,0,0,0,.075.7,30.949,30.949,0,0,1-.075,4.458c-.052.789.153,1.962-.349,2.55l-.015.017a.809.809,0,0,1-.1.1h0c-.086.089-.173.176-.254.268a10.669,10.669,0,0,0-2.412,7.182,24.717,24.717,0,0,0,2.044,8.526,23.94,23.94,0,0,0,1.312,2.912,5.086,5.086,0,0,0,1.013,1.363,6.105,6.105,0,0,0,1.471.878c.129.061.259.121.388.184l.33.153,2.509,1.192c.46.676.9,1.37,1.353,2.066.064.1.127.2.193.3.49.766.984,1.533,1.487,2.277l4.228,6.262a5.277,5.277,0,0,0,1.057,1.26,2.16,2.16,0,0,0,.4.247,2.065,2.065,0,0,0,.219.09.7.7,0,0,0-.112.474.8.8,0,0,0,.307.4,5.913,5.913,0,0,1,2.319,2.84c.213.866,0,1.793.192,2.664.351,1.569,1.9,2.521,3.372,3.125a18.889,18.889,0,0,0,10.442,1.243,15.254,15.254,0,0,0,9.081-5.211c.7-.855,1.289-1.789,1.949-2.671a22.363,22.363,0,0,1,1.488-1.787,12.279,12.279,0,0,0,1.626-.9,31.391,31.391,0,0,0,3.065-2.55c.753-.656,1.54-1.275,2.231-1.992a23.352,23.352,0,0,0,1.736-2.146q1.839-2.437,3.8-4.777a7.57,7.57,0,0,1,2.415-2.146l.044-.018a5.529,5.529,0,0,0,1.042,1.862c1.579,2.452,3.231,4.976,5.671,6.54a18.124,18.124,0,0,0,4.356,1.858c3.831,1.211,7.724,2.161,11.62,3.113.129-.245.254-.472.4-.693a2.1,2.1,0,0,1,.169.2c.017.025.031.051.048.075a.555.555,0,0,0-.083.023,1.09,1.09,0,0,0-.55.579,6.433,6.433,0,0,0-.48,2.759c-.014.92,0,1.839,0,2.759a2.38,2.38,0,0,0,.153,1.008,2.086,2.086,0,0,0,1.729.92,14.449,14.449,0,0,0,3.525-.138,2.716,2.716,0,0,0,.326.78,5.569,5.569,0,0,0,2.967,2.2,26.348,26.348,0,0,0,3.652.825c2.175.432,4.4,1.123,6.563.636.863-.195,1.686-.572,2.549-.737,1.976-.374,4.023.383,6.012.08a9.449,9.449,0,0,0,2.74-.976,3.758,3.758,0,0,0,1.172-.809,1.469,1.469,0,0,0,.379-1.332,5.379,5.379,0,0,0-.362-.745,3.96,3.96,0,0,1-.259-1.257,34.506,34.506,0,0,0-.825-4.831c-.011-.044-.023-.09-.035-.136a20.892,20.892,0,0,0,4.181-2.464l2.861-2a17,17,0,0,1,2.9-1.753,12.534,12.534,0,0,1,5.067-.894c.707,0,1.415.035,2.118.1a.92.92,0,0,0-.2.34,1.262,1.262,0,0,0,.415,1.24,5.464,5.464,0,0,0,1.157.723,7,7,0,0,1,2.605,2.561,2.8,2.8,0,0,1,.429,2.23c-.307.929-1.4,1.569-1.336,2.547a1.568,1.568,0,0,0,1.03,1.266,4.16,4.16,0,0,0,1.686.193,6.407,6.407,0,0,0,2.73-.526,7.069,7.069,0,0,0,1.507-1.146,4.375,4.375,0,0,0,1.1-1.324,4.033,4.033,0,0,0,.273-1.6c.046-2.569-.4-5.173.113-7.689.153-.766.4-1.516.529-2.288a16.119,16.119,0,0,0,.049-3.7A4.04,4.04,0,0,0,230.538,230.22Z" transform="translate(-69.759 -148.284)" fill="url(#linear-gradient)"/>
    <path id="Pfad_949" data-name="Pfad 949" d="M734.522,320.891a2.545,2.545,0,0,0-.889,1.914c-.326,3.076.943,6.121.858,9.212a21.223,21.223,0,0,1-1.888,7.094,42.229,42.229,0,0,0-2.656,12.328c-.311,4.186-.766,8.544-3.013,12.085-.51.8-1.1,1.546-1.6,2.353-.524.843-.939,1.747-1.4,2.624a28.232,28.232,0,0,1-5.211,7,7.192,7.192,0,0,1-2.044,1.522,4.117,4.117,0,0,1-3.2.034,3.056,3.056,0,0,1-1.974-2.546,4.533,4.533,0,0,1,1.174-2.742,45,45,0,0,1,7.05-7.473,4.059,4.059,0,0,0,1.226-1.39,6.215,6.215,0,0,0,.2-2.126,18.686,18.686,0,0,1,.766-3.338c1.073-4.52-.834-9.455.717-13.833a13.939,13.939,0,0,0,.978-2.929,2.784,2.784,0,0,0-.541-2.057,2.7,2.7,0,0,1-.664-1.741,3.308,3.308,0,0,1,.015-.391,42.258,42.258,0,0,0,.271-6.034,14.147,14.147,0,0,0-1.43-5.824,16.548,16.548,0,0,1-1.4-2.8,7.079,7.079,0,0,1,.676-4.9,8.556,8.556,0,0,1,2.334-3.162,6.253,6.253,0,0,1,6.914-.44,10.21,10.21,0,0,1,3.481,4.083A7.16,7.16,0,0,1,734.522,320.891Z" transform="translate(-606.123 -274.479)" opacity="0.06"/>
    <path id="Pfad_950" data-name="Pfad 950" d="M749.714,256.649q-.441,1.191-.878,2.382c-.193.521-.385,1.047-.584,1.568a24.329,24.329,0,0,1-3.557,6.753c.241-.3-2.023-1.793-3.692-2.814-.814-.5-1.488-.887-1.654-.964a12.093,12.093,0,0,0-1.206-.469c-.636-.215-1.28-.4-1.916-.631-1.471-.532-.443-1.33.187-2.189,2.061-2.811,2.452-6.651,4.792-9.234a8.631,8.631,0,0,0,3.874,3.747c.032.017.066.032.1.046,1.39.65,2.926.93,4.363,1.474.078.029.169.07.195.153A.306.306,0,0,1,749.714,256.649Z" transform="translate(-626.424 -222.451)" fill="#a1616a"/>
    <path id="Pfad_951" data-name="Pfad 951" d="M795.4,610.645a6.913,6.913,0,0,0-.713,6.616,2.241,2.241,0,0,0,.516.8,2.419,2.419,0,0,0,.985.46,21.211,21.211,0,0,0,9.41.153,16.566,16.566,0,0,0,3.1-.789,20.7,20.7,0,0,0,4.282-2.474l2.878-1.983a17.449,17.449,0,0,1,2.912-1.738,12.8,12.8,0,0,1,5.1-.884,23.777,23.777,0,0,1,4.445.425c.976.188,2.146.383,2.832-.329a2.682,2.682,0,0,0,.585-1.549,23.089,23.089,0,0,0-.017-6.524.847.847,0,0,0-.188-.5.766.766,0,0,0-.38-.173c-1.356-.307-2.717.329-4.035.766-2.739.91-5.68,1.019-8.466,1.769-2.924.786-5.671,2.274-8.693,2.576-1.441.144-2.887.018-4.331.051-1.339.029-2.589.492-3.9.547C799.193,607.976,796.993,608.417,795.4,610.645Z" transform="translate(-676.115 -519.678)" fill="#a1616a"/>
    <path id="Pfad_952" data-name="Pfad 952" d="M795.4,610.645a6.913,6.913,0,0,0-.713,6.616,2.241,2.241,0,0,0,.516.8,2.419,2.419,0,0,0,.985.46,21.211,21.211,0,0,0,9.41.153,16.566,16.566,0,0,0,3.1-.789,20.7,20.7,0,0,0,4.282-2.474l2.878-1.983a17.449,17.449,0,0,1,2.912-1.738,12.8,12.8,0,0,1,5.1-.884,23.777,23.777,0,0,1,4.445.425c.976.188,2.146.383,2.832-.329a2.682,2.682,0,0,0,.585-1.549,23.089,23.089,0,0,0-.017-6.524.847.847,0,0,0-.188-.5.766.766,0,0,0-.38-.173c-1.356-.307-2.717.329-4.035.766-2.739.91-5.68,1.019-8.466,1.769-2.924.786-5.671,2.274-8.693,2.576-1.441.144-2.887.018-4.331.051-1.339.029-2.589.492-3.9.547C799.193,607.976,796.993,608.417,795.4,610.645Z" transform="translate(-676.115 -519.678)" opacity="0.06"/>
    <path id="Pfad_953" data-name="Pfad 953" d="M817.936,518.991a2.074,2.074,0,0,0-.035,1.028,1.915,1.915,0,0,0,.613.825c2.605,2.333,6.328,2.815,9.809,3.194a7.426,7.426,0,0,0,5.263-.864,23.3,23.3,0,0,0,4.826-2.78c1.418-1.149,2.555-2.621,4.023-3.7,1.669-1.226,3.721-1.928,5.211-3.372a7.005,7.005,0,0,0,2.043-3.871,11.048,11.048,0,0,0,0-3.05,9.071,9.071,0,0,0-.87-3.386,8.185,8.185,0,0,0-2.86-2.84,14.846,14.846,0,0,0-8.123-2.513c-3.985.035-7.663,2.354-10.523,4.958a30.97,30.97,0,0,0-7.2,9.8,29.919,29.919,0,0,0-2.173,6.578Z" transform="translate(-696.174 -431.264)" fill="#464353"/>
    <path id="Pfad_954" data-name="Pfad 954" d="M817.936,518.991a2.074,2.074,0,0,0-.035,1.028,1.915,1.915,0,0,0,.613.825c2.605,2.333,6.328,2.815,9.809,3.194a7.426,7.426,0,0,0,5.263-.864,23.3,23.3,0,0,0,4.826-2.78c1.418-1.149,2.555-2.621,4.023-3.7,1.669-1.226,3.721-1.928,5.211-3.372a7.005,7.005,0,0,0,2.043-3.871,11.048,11.048,0,0,0,0-3.05,9.071,9.071,0,0,0-.87-3.386,8.185,8.185,0,0,0-2.86-2.84,14.846,14.846,0,0,0-8.123-2.513c-3.985.035-7.663,2.354-10.523,4.958a30.97,30.97,0,0,0-7.2,9.8,29.919,29.919,0,0,0-2.173,6.578Z" transform="translate(-696.174 -431.264)" opacity="0.06"/>
    <path id="Pfad_955" data-name="Pfad 955" d="M734.522,320.891a2.545,2.545,0,0,0-.889,1.914c-.326,3.076.943,6.121.858,9.212a21.223,21.223,0,0,1-1.888,7.094,42.229,42.229,0,0,0-2.656,12.328c-.311,4.186-.766,8.544-3.013,12.085-.51.8-1.1,1.546-1.6,2.353-.524.843-.939,1.747-1.4,2.624a28.232,28.232,0,0,1-5.211,7,7.192,7.192,0,0,1-2.044,1.522,4.117,4.117,0,0,1-3.2.034,3.056,3.056,0,0,1-1.974-2.546,4.533,4.533,0,0,1,1.174-2.742,45,45,0,0,1,7.05-7.473,4.059,4.059,0,0,0,1.226-1.39,6.215,6.215,0,0,0,.2-2.126,18.686,18.686,0,0,1,.766-3.338c1.073-4.52-.834-9.455.717-13.833a13.939,13.939,0,0,0,.978-2.929,2.784,2.784,0,0,0-.541-2.057,2.7,2.7,0,0,1-.664-1.741,3.308,3.308,0,0,1,.015-.391,42.258,42.258,0,0,0,.271-6.034,14.147,14.147,0,0,0-1.43-5.824,16.548,16.548,0,0,1-1.4-2.8,7.079,7.079,0,0,1,.676-4.9,8.556,8.556,0,0,1,2.334-3.162,6.253,6.253,0,0,1,6.914-.44,10.21,10.21,0,0,1,3.481,4.083A7.16,7.16,0,0,1,734.522,320.891Z" transform="translate(-606.123 -274.479)" fill="#a1616a"/>
    <ellipse id="Ellipse_186" data-name="Ellipse 186" cx="5.801" cy="9.102" rx="5.801" ry="9.102" transform="translate(114.13 38.504)" fill="#a1616a"/>
    <path id="Pfad_956" data-name="Pfad 956" d="M702.8,656.605a2.023,2.023,0,0,1,.307,1.686,2.947,2.947,0,0,0,1.884.549,5.823,5.823,0,0,0,1.939-.446,6.407,6.407,0,0,0,1.508-.791,6.648,6.648,0,0,0,1.839-2.314c.259-.484.48-1.111.153-1.546a1.484,1.484,0,0,0-.46-.356,27.31,27.31,0,0,0-3.678-1.749,2.7,2.7,0,0,0-1.11-.248,2.378,2.378,0,0,0-1.272.572,6.9,6.9,0,0,0-1.98,2.452c-.144.307-.579,1.034-.363,1.35.1.146.46.2.613.288A1.981,1.981,0,0,1,702.8,656.605Z" transform="translate(-597.66 -561.436)" fill="#fbbebe"/>
    <path id="Pfad_957" data-name="Pfad 957" d="M702.8,656.605a2.023,2.023,0,0,1,.307,1.686,2.947,2.947,0,0,0,1.884.549,5.823,5.823,0,0,0,1.939-.446,6.407,6.407,0,0,0,1.508-.791,6.648,6.648,0,0,0,1.839-2.314c.259-.484.48-1.111.153-1.546a1.484,1.484,0,0,0-.46-.356,27.31,27.31,0,0,0-3.678-1.749,2.7,2.7,0,0,0-1.11-.248,2.378,2.378,0,0,0-1.272.572,6.9,6.9,0,0,0-1.98,2.452c-.144.307-.579,1.034-.363,1.35.1.146.46.2.613.288A1.981,1.981,0,0,1,702.8,656.605Z" transform="translate(-597.66 -561.436)" opacity="0.03"/>
    <path id="Pfad_958" data-name="Pfad 958" d="M706.627,662.235c2.593.481,4.978,1.735,7.527,2.411a25.027,25.027,0,0,1,3.079.861,4.191,4.191,0,0,1,2.339,2.066,5.917,5.917,0,0,1,.354,1.459,2.093,2.093,0,0,1-2.248,2.913c-2.694.32-5.389.642-8.092.869a14.156,14.156,0,0,0-1.632.195c-.444.089-.878.224-1.32.328-.572.133-1.153.218-1.732.307a17.879,17.879,0,0,1-4.469.264,2.083,2.083,0,0,1-1.738-.907,2.316,2.316,0,0,1-.153-1c-.008-.91-.015-1.819,0-2.728a6.189,6.189,0,0,1,.483-2.734,1.087,1.087,0,0,1,.553-.575,1.272,1.272,0,0,1,.475-.043,5.612,5.612,0,0,1,2.334.417c.566.28,1.025.748,1.6,1,1.091.484,2.408.136,3.513.592a4.4,4.4,0,0,0,.008-2.411,18.757,18.757,0,0,1-.541-2.443,1.557,1.557,0,0,0-.1-.533C706.78,662.374,706.808,662.209,706.627,662.235Z" transform="translate(-595.144 -570.616)" fill="#464353"/>
    <path id="Pfad_959" data-name="Pfad 959" d="M706.627,662.235c2.593.481,4.978,1.735,7.527,2.411a25.027,25.027,0,0,1,3.079.861,4.191,4.191,0,0,1,2.339,2.066,5.917,5.917,0,0,1,.354,1.459,2.093,2.093,0,0,1-2.248,2.913c-2.694.32-5.389.642-8.092.869a14.156,14.156,0,0,0-1.632.195c-.444.089-.878.224-1.32.328-.572.133-1.153.218-1.732.307a17.879,17.879,0,0,1-4.469.264,2.083,2.083,0,0,1-1.738-.907,2.316,2.316,0,0,1-.153-1c-.008-.91-.015-1.819,0-2.728a6.189,6.189,0,0,1,.483-2.734,1.087,1.087,0,0,1,.553-.575,1.272,1.272,0,0,1,.475-.043,5.612,5.612,0,0,1,2.334.417c.566.28,1.025.748,1.6,1,1.091.484,2.408.136,3.513.592a4.4,4.4,0,0,0,.008-2.411,18.757,18.757,0,0,1-.541-2.443,1.557,1.557,0,0,0-.1-.533C706.78,662.374,706.808,662.209,706.627,662.235Z" transform="translate(-595.144 -570.616)" opacity="0.06"/>
    <path id="Pfad_960" data-name="Pfad 960" d="M173.914,439.365c-.523-.165-1.027.3-1.32.766a6.864,6.864,0,0,0-.144,6.513,4.944,4.944,0,0,0,.944,1.405,9.089,9.089,0,0,0,1.839,1.226,13.838,13.838,0,0,1,4.408,4.138c.749,1.105,1.339,2.32,2.19,3.349,2.094,2.532,5.534,3.678,7.565,6.253a7.966,7.966,0,0,0,1.545,1.77,2.627,2.627,0,0,0,4.112-2.035,29.526,29.526,0,0,0,2.049-3.7,44.085,44.085,0,0,0,2.3-5.957c.228-.72.449-1.445.74-2.146.719-1.729,1.864-3.294,2.268-5.12a22.089,22.089,0,0,1,.438-2.205,4.2,4.2,0,0,1,1.054-1.686c1.594-1.549,2.452-3.807,3.72-5.631a12.156,12.156,0,0,0,1.39-2.307,3.649,3.649,0,0,0,.153-2.631,2.194,2.194,0,0,0-2.044-1.476,3.105,3.105,0,0,0-1.148.352,12.789,12.789,0,0,0-3.363,2.317,16.274,16.274,0,0,0-1.226,1.318,13.534,13.534,0,0,0-3.467,7.868,4.732,4.732,0,0,1-.6,2.881c-1.75,2.138-2.313,5.078-3.805,7.4a6.394,6.394,0,0,1-2.665,2.673,1.137,1.137,0,0,1-.561.11c-.472-.054-.743-.55-.943-.982a38.02,38.02,0,0,0-2.7-4.866,4.634,4.634,0,0,0-1.487-1.6c-.438-.244-.947-.353-1.359-.638a4.026,4.026,0,0,1-1.174-1.706,26.5,26.5,0,0,0-3.649-5.689,3.215,3.215,0,0,0-2.569-1.493C175.434,437.951,174.836,438.98,173.914,439.365Z" transform="translate(-149.054 -373.878)" fill="#fbbebe"/>
    <path id="Pfad_961" data-name="Pfad 961" d="M173.914,439.365c-.523-.165-1.027.3-1.32.766a6.864,6.864,0,0,0-.144,6.513,4.944,4.944,0,0,0,.944,1.405,9.089,9.089,0,0,0,1.839,1.226,13.838,13.838,0,0,1,4.408,4.138c.749,1.105,1.339,2.32,2.19,3.349,2.094,2.532,5.534,3.678,7.565,6.253a7.966,7.966,0,0,0,1.545,1.77,2.627,2.627,0,0,0,4.112-2.035,29.526,29.526,0,0,0,2.049-3.7,44.085,44.085,0,0,0,2.3-5.957c.228-.72.449-1.445.74-2.146.719-1.729,1.864-3.294,2.268-5.12a22.089,22.089,0,0,1,.438-2.205,4.2,4.2,0,0,1,1.054-1.686c1.594-1.549,2.452-3.807,3.72-5.631a12.156,12.156,0,0,0,1.39-2.307,3.649,3.649,0,0,0,.153-2.631,2.194,2.194,0,0,0-2.044-1.476,3.105,3.105,0,0,0-1.148.352,12.789,12.789,0,0,0-3.363,2.317,16.274,16.274,0,0,0-1.226,1.318,13.534,13.534,0,0,0-3.467,7.868,4.732,4.732,0,0,1-.6,2.881c-1.75,2.138-2.313,5.078-3.805,7.4a6.394,6.394,0,0,1-2.665,2.673,1.137,1.137,0,0,1-.561.11c-.472-.054-.743-.55-.943-.982a38.02,38.02,0,0,0-2.7-4.866,4.634,4.634,0,0,0-1.487-1.6c-.438-.244-.947-.353-1.359-.638a4.026,4.026,0,0,1-1.174-1.706,26.5,26.5,0,0,0-3.649-5.689,3.215,3.215,0,0,0-2.569-1.493C175.434,437.951,174.836,438.98,173.914,439.365Z" transform="translate(-149.054 -373.878)" opacity="0.03"/>
    <ellipse id="Ellipse_187" data-name="Ellipse 187" cx="4.04" cy="3.646" rx="4.04" ry="3.646" transform="translate(20.712 50.872)" fill="#fbbebe"/>
    <circle id="Ellipse_188" data-name="Ellipse 188" cx="1.454" cy="1.454" r="1.454" transform="translate(27.086 52.314)" fill="#fbbebe"/>
    <ellipse id="Ellipse_189" data-name="Ellipse 189" cx="5.565" cy="1.488" rx="5.565" ry="1.488" transform="translate(19.717 51.541)" fill="#fbbebe"/>
    <path id="Pfad_962" data-name="Pfad 962" d="M145.834,341.687a10.078,10.078,0,0,1,.319,1.31,7.827,7.827,0,0,1-1.2-1.583,1.178,1.178,0,0,1-.213-.337,9,9,0,0,1-.835-3.591,7.871,7.871,0,1,1,9.94,7.594,9.834,9.834,0,0,0,.613-2.337,1.686,1.686,0,0,0-.113-.789,1.8,1.8,0,0,0-.578-.665,4.991,4.991,0,0,0-3.108-.944,8.529,8.529,0,0,0-3.2.766c-.317.136-.7.32-1.073.446A2.792,2.792,0,0,1,145.834,341.687Z" transform="translate(-125.514 -288.974)" fill="#fbbebe"/>
    <path id="Pfad_963" data-name="Pfad 963" d="M176.084,432.853a2.685,2.685,0,0,1-2.529.982,8.631,8.631,0,0,1-4.736-2.207c-1.364-1.134-2.556-2.452-3.951-3.543a14.023,14.023,0,0,0-8.819-2.9c.645-.535.408-1.8.46-2.638a25.785,25.785,0,0,0,0-5.077c-.023-.179-.049-.356-.08-.532.052.055.107.109.164.164a7.881,7.881,0,0,0,7.524,1.919,6.129,6.129,0,0,0-.2.815,8.552,8.552,0,0,0,.443,3.546,3.313,3.313,0,0,0,.981,1.873,4.319,4.319,0,0,0,1.278.541A7.049,7.049,0,0,1,169,427.178a19.272,19.272,0,0,0,1.439,1.289,10.021,10.021,0,0,0,1.556.8,19.461,19.461,0,0,1,3.74,2.267,1.226,1.226,0,0,1,.486.576A.947.947,0,0,1,176.084,432.853Z" transform="translate(-135.802 -362.917)" fill="#fbbebe"/>
    <path id="Pfad_964" data-name="Pfad 964" d="M170.338,488.574c-.106.7-.746,1.244-1.2,1.787-1.229,1.484-2.475,2.972-3.85,4.33a60.254,60.254,0,0,1-4.7,4.038L158.5,500.4a2.636,2.636,0,0,1-.89.536,1.626,1.626,0,0,1-1.146-.136,2.241,2.241,0,0,1-.4-.244A5.376,5.376,0,0,1,155,499.311q-2.124-3.1-4.253-6.2c-.506-.739-1-1.5-1.5-2.256-.066-.1-.129-.2-.195-.3-.451-.69-.9-1.379-1.361-2.046l-2.523-1.182-.331-.153-.391-.182a6.189,6.189,0,0,1-1.479-.869,5.007,5.007,0,0,1-1.019-1.35,23.633,23.633,0,0,1-1.321-2.892,24.127,24.127,0,0,1-2.057-8.446A10.435,10.435,0,0,1,141,466.323a7.633,7.633,0,0,1,.749-.726,1.34,1.34,0,0,1,1.088-.375c.421.06.821.121,1.226.19q1.674.288,3.321.705a6.878,6.878,0,0,0,3.016.34c.161-.032.32-.078.48-.12.13-.034.259-.066.392-.087a1.817,1.817,0,0,1,.224-.025,3.519,3.519,0,0,1,1.533.4,7.615,7.615,0,0,1,2.605,1.563c.42.444.728.99,1.176,1.408a10.157,10.157,0,0,0,2.112,1.246,3.787,3.787,0,0,1,.4.256,4.542,4.542,0,0,1,.766.728h0c.929,1.1,1.48,2.575,2.506,3.664a14.958,14.958,0,0,1,2.124,2.877c.1.173.19.348.282.526q.23.444.428.9c.034.078.067.153.1.234a14.06,14.06,0,0,1,.5,1.405,9.1,9.1,0,0,0,1.352,3.335,16.731,16.731,0,0,0,1.917,1.629,3.392,3.392,0,0,1,.932,1.267A1.812,1.812,0,0,1,170.338,488.574Z" transform="translate(-121.003 -403.789)" fill="#fbbebe"/>
    <path id="Pfad_965" data-name="Pfad 965" d="M179.516,481.3q-.264.333-.541.656c-.031.04-.064.078-.1.116a29.271,29.271,0,0,1-5.5,4.982c-1.26.88-2.589,1.66-3.914,2.438l-2.452,1.436a15.185,15.185,0,0,1-3.2,1.556c-.365.109-.746.2-1.119.3-.066-.1-.129-.2-.195-.3-.451-.69-.9-1.379-1.361-2.046l-2.523-1.182a14.775,14.775,0,0,0,3.657-3.277,39.736,39.736,0,0,0,3.873-6.186,4.651,4.651,0,0,0,.477-1.1,3.794,3.794,0,0,0-.164-1.948,10.268,10.268,0,0,0-4.107-5.537,19.411,19.411,0,0,0-4.509-2.018,7.589,7.589,0,0,0-3.392-.587,7.447,7.447,0,0,1,.749-.725,1.336,1.336,0,0,1,1.088-.377c.421.06.821.121,1.226.192.82.251,1.626.552,2.428.861a11.386,11.386,0,0,1,1.533.694,13.73,13.73,0,0,1,1.412.989,35.267,35.267,0,0,0,4.187,2.745c1.686.93,3.456,1.686,5.225,2.452a1.39,1.39,0,0,0,.605.153.475.475,0,0,0,.46-.359.578.578,0,0,0-.074-.32,3.2,3.2,0,0,0-1.632-1.248,39.522,39.522,0,0,1-7.188-4.9.721.721,0,0,1-.144-.153l.392-.087a58.467,58.467,0,0,0,8.038,4.846q.222.113.446.221c.107.054.213.106.322.153h0a6.86,6.86,0,0,1,2.08,1.379,6.351,6.351,0,0,1,.92,1.4,26.244,26.244,0,0,1,1.6,3.678.829.829,0,0,0,.029.08,1.416,1.416,0,0,0,.282.526.6.6,0,0,0,.161.127C178.883,481.1,179.278,481.082,179.516,481.3Z" transform="translate(-134.447 -405.719)" opacity="0.06"/>
    <path id="Pfad_966" data-name="Pfad 966" d="M164.723,466.25a58.308,58.308,0,0,0,8.038,4.845l.446.222a7.94,7.94,0,0,1,2.4,1.533,6.4,6.4,0,0,1,.92,1.4,25.978,25.978,0,0,1,1.6,3.678,1.244,1.244,0,0,0,.474.733c.261.144.674.133.906.351-.208.261-.42.518-.639.766a29.228,29.228,0,0,1-5.5,4.984c-1.26.88-2.589,1.66-3.914,2.438l-2.452,1.436a15.254,15.254,0,0,1-3.2,1.554c-.428.13-.88.228-1.313.354-.451-.69-.9-1.379-1.361-2.046l-2.854-1.336a14.363,14.363,0,0,0,3.985-3.473,39.652,39.652,0,0,0,3.873-6.184,4.676,4.676,0,0,0,.477-1.1,3.8,3.8,0,0,0-.164-1.949,10.268,10.268,0,0,0-4.1-5.522,19.474,19.474,0,0,0-4.509-2.018,7.587,7.587,0,0,0-3.392-.585,7.635,7.635,0,0,1,.749-.726,1.34,1.34,0,0,1,1.088-.375c.421.06.821.121,1.226.19.82.253,1.626.553,2.428.863a11.187,11.187,0,0,1,1.533.694,13.724,13.724,0,0,1,1.412.989,35.25,35.25,0,0,0,4.193,2.737c1.686.932,3.456,1.693,5.225,2.452a1.387,1.387,0,0,0,.605.153.472.472,0,0,0,.46-.359.575.575,0,0,0-.074-.319,3.187,3.187,0,0,0-1.632-1.248,39.252,39.252,0,0,1-7.188-4.9.678.678,0,0,1-.144-.153Z" transform="translate(-134.447 -403.788)" fill="#049ce7"/>
    <circle id="Ellipse_190" data-name="Ellipse 190" cx="9.62" cy="9.62" r="9.62" transform="translate(42.129 51.541)" fill="#049ce7"/>
    <path id="Pfad_967" data-name="Pfad 967" d="M393.517,553.121a20.648,20.648,0,0,0,5.211-2.176,30.793,30.793,0,0,0,3.077-2.526c.759-.65,1.549-1.263,2.245-1.98a23.39,23.39,0,0,0,1.747-2.118q1.845-2.415,3.812-4.739a7.652,7.652,0,0,1,2.429-2.127c1.746-.82,3.795-.267,5.637.3a52.433,52.433,0,0,1,8.084,3.019c1.468.731,2.89,1.546,4.372,2.247a61.858,61.858,0,0,0,8.452,3.031,1.073,1.073,0,0,0,.674.055.992.992,0,0,0,.4-.334,5.71,5.71,0,0,0,.887-1.533.294.294,0,0,0-.072-.4,20.435,20.435,0,0,0-4.3-2.779c-1.183-.676-2.316-1.435-3.447-2.193a18.858,18.858,0,0,1-3.094-2.4c-.46-.474-.874-1-1.372-1.428a11.493,11.493,0,0,0-1.395-.978,56.044,56.044,0,0,1-6.241-4.624c-1.5-1.281-2.727-2.932-4.328-4.081a5.036,5.036,0,0,0-3.327-1.218c-1.462.153-2.541,1.379-3.56,2.437-3.425,3.557-7.747,6.1-11.57,9.231-3.12,2.55-6.037,5.58-9.838,6.926.17.564.23,1.128.4,1.686a17.611,17.611,0,0,0,.8,2.274,17.889,17.889,0,0,0,1.062,1.9l1.523,2.487a6.289,6.289,0,0,0,1.065,1.421C393.081,552.721,393.517,552.8,393.517,553.121Z" transform="translate(-332.204 -453.672)" fill="#464353"/>
    <path id="Pfad_968" data-name="Pfad 968" d="M393.517,553.121a20.648,20.648,0,0,0,5.211-2.176,30.793,30.793,0,0,0,3.077-2.526c.759-.65,1.549-1.263,2.245-1.98a23.39,23.39,0,0,0,1.747-2.118q1.845-2.415,3.812-4.739a7.652,7.652,0,0,1,2.429-2.127c1.746-.82,3.795-.267,5.637.3a52.433,52.433,0,0,1,8.084,3.019c1.468.731,2.89,1.546,4.372,2.247a61.858,61.858,0,0,0,8.452,3.031,1.073,1.073,0,0,0,.674.055.992.992,0,0,0,.4-.334,5.71,5.71,0,0,0,.887-1.533.294.294,0,0,0-.072-.4,20.435,20.435,0,0,0-4.3-2.779c-1.183-.676-2.316-1.435-3.447-2.193a18.858,18.858,0,0,1-3.094-2.4c-.46-.474-.874-1-1.372-1.428a11.493,11.493,0,0,0-1.395-.978,56.044,56.044,0,0,1-6.241-4.624c-1.5-1.281-2.727-2.932-4.328-4.081a5.036,5.036,0,0,0-3.327-1.218c-1.462.153-2.541,1.379-3.56,2.437-3.425,3.557-7.747,6.1-11.57,9.231-3.12,2.55-6.037,5.58-9.838,6.926.17.564.23,1.128.4,1.686a17.611,17.611,0,0,0,.8,2.274,17.889,17.889,0,0,0,1.062,1.9l1.523,2.487a6.289,6.289,0,0,0,1.065,1.421C393.081,552.721,393.517,552.8,393.517,553.121Z" transform="translate(-332.204 -453.672)" opacity="0.06"/>
    <path id="Pfad_969" data-name="Pfad 969" d="M690.655,665.5a2.027,2.027,0,0,1,.307,1.686,2.942,2.942,0,0,0,1.879.553,5.905,5.905,0,0,0,1.943-.444,6.468,6.468,0,0,0,1.508-.791,6.73,6.73,0,0,0,1.847-2.316c.259-.483.48-1.11.146-1.545a1.443,1.443,0,0,0-.46-.356,27.376,27.376,0,0,0-3.671-1.749,2.735,2.735,0,0,0-1.109-.25,2.381,2.381,0,0,0-1.274.573,6.9,6.9,0,0,0-1.979,2.452c-.144.306-.579,1.036-.365,1.352.1.146.46.2.613.287A1.982,1.982,0,0,1,690.655,665.5Z" transform="translate(-587.385 -568.971)" fill="#fbbebe"/>
    <path id="Pfad_970" data-name="Pfad 970" d="M698.855,670.615c2.593.483,4.978,1.735,7.527,2.411a25.005,25.005,0,0,1,3.079.861,4.191,4.191,0,0,1,2.339,2.066,5.934,5.934,0,0,1,.354,1.459,2.093,2.093,0,0,1-2.248,2.913c-2.694.322-5.389.642-8.092.869a14.493,14.493,0,0,0-1.629.195c-.444.09-.878.224-1.32.328-.57.135-1.153.218-1.732.307a17.875,17.875,0,0,1-4.469.262,2.083,2.083,0,0,1-1.738-.907,2.315,2.315,0,0,1-.153-1c0-.909-.015-1.819,0-2.728a6.188,6.188,0,0,1,.483-2.734,1.092,1.092,0,0,1,.553-.575,1.269,1.269,0,0,1,.475-.043,5.612,5.612,0,0,1,2.334.417c.566.28.973-.558,1.549-.307,1.093.483.353-.981,1.456-.526.257-.794,1.352-.322,1.162-1.136s.492-.46.414-1.3a1.563,1.563,0,0,0-.1-.533C699.009,670.754,699.036,670.589,698.855,670.615Z" transform="translate(-588.568 -577.712)" fill="#464353"/>
    <path id="Pfad_971" data-name="Pfad 971" d="M158.116,332.85a3.811,3.811,0,0,1-2.025.267,12.587,12.587,0,0,0-1.813.094,1.712,1.712,0,0,0-.624.165,1.56,1.56,0,0,0-.579.676,4.791,4.791,0,0,0-.489,1.505,3.453,3.453,0,0,1-.444,1.7c-.5.636-1.283.538-1.992.664a5.364,5.364,0,0,0-1.749.668,4.32,4.32,0,0,0-2.026,2.975c-.02.139-.034.277-.04.417-.015.4.025.8-.028,1.186a2.066,2.066,0,0,1-.058.287.613.613,0,0,1-.026.081c-.023-.179-.049-.356-.08-.532a7.827,7.827,0,0,1-1.2-1.583,1.179,1.179,0,0,1-.213-.337,9,9,0,0,1-.835-3.591,7.87,7.87,0,0,1,14.224-4.644Z" transform="translate(-125.506 -288.982)" opacity="0.06"/>
    <path id="Pfad_972" data-name="Pfad 972" d="M102.871,310.4a4.8,4.8,0,0,0-2.081-2.066A11.331,11.331,0,0,0,95.2,306.67a16.9,16.9,0,0,0-5.724,1.093,9.865,9.865,0,0,0-3.8,2.808,3.826,3.826,0,0,0-.636.1,6.409,6.409,0,0,0-2.27,1.186,7.224,7.224,0,0,0-1.511,1.476,6.341,6.341,0,0,0-1.019,2.4c-.584,2.691.135,5.468.662,8.17s.835,5.654-.46,8.081c-.489.92-1.183,1.7-1.7,2.6a3.858,3.858,0,0,0-.572,2.966c.352,1.208,1.539,1.974,2.158,3.061a3.678,3.678,0,0,1-.716,4.4,3.548,3.548,0,0,0,2.933-.566,5.183,5.183,0,0,0,1.727-1.638c1.1-1.784.613-4.087,1-6.149.51-2.7,2.57-5.1,2.287-7.835-.192-1.839-1.405-3.364-2.36-4.941a19.363,19.363,0,0,1-1.6-3.315,5.005,5.005,0,0,1-.4-2.572,3.462,3.462,0,0,1,.241-.766v.087a5.871,5.871,0,0,0,.524,2.3c1.14,2.33,4.176,3.188,5.462,5.439a3.63,3.63,0,0,0,.92-1.372,6.3,6.3,0,0,0,.086-1.474,4.272,4.272,0,0,1,2.066-3.39,5.307,5.307,0,0,1,1.749-.667c.708-.127,1.49-.031,1.992-.667a3.447,3.447,0,0,0,.446-1.7,4.76,4.76,0,0,1,.489-1.507,1.546,1.546,0,0,1,.579-.674,1.686,1.686,0,0,1,.625-.165,12.553,12.553,0,0,1,1.812-.094,3.761,3.761,0,0,0,2.051-.28A2.164,2.164,0,0,0,102.871,310.4Z" transform="translate(-69.757 -269.547)" fill="#464353"/>
    <path id="Pfad_973" data-name="Pfad 973" d="M745.18,254.818v.063c-.277,2.391-2.576,2.281-3.113,6.048-.211,1.476-2.452,1.749-3.925,2.146-.636-.215-1.28-.4-1.916-.631-1.471-.532-.443-1.33.187-2.189,2.061-2.811,2.452-6.651,4.792-9.234a8.631,8.631,0,0,0,3.874,3.747A.554.554,0,0,0,745.18,254.818Z" transform="translate(-626.424 -222.426)" opacity="0.06"/>
    <path id="Pfad_974" data-name="Pfad 974" d="M692.859,213.7a9.736,9.736,0,0,1-.061,1.085,9.62,9.62,0,1,1,.061-1.085Z" transform="translate(-574.048 -182.684)" fill="#a1616a"/>
    <path id="Pfad_975" data-name="Pfad 975" d="M768.587,273.845a7.49,7.49,0,0,1,3.179.8,63.831,63.831,0,0,1,11.711,5.861,64.506,64.506,0,0,1,5.07,4.014l6.757,5.741a24.457,24.457,0,0,1,3.648,3.563,24.19,24.19,0,0,1,1.675,2.605l1,1.709a15.337,15.337,0,0,1,1.073,2.092c.515,1.32.706,2.858,1.746,3.822a10.132,10.132,0,0,0,2.51,1.34,2.619,2.619,0,0,1,1.672,2.132,4.026,4.026,0,0,1-.65,1.717,6.881,6.881,0,0,0-.7,3.729l-11.05-8.445a3.753,3.753,0,0,0-1.441-.8,3.919,3.919,0,0,0-2.1.351,40.622,40.622,0,0,1-16.661,2.19,17.5,17.5,0,0,1-7.217-1.867,22.383,22.383,0,0,1-3.341-2.452,40.94,40.94,0,0,1-3.831-3.491,2.469,2.469,0,0,1-.7-1.165,3.863,3.863,0,0,1,.041-.993c.193-2.325-1.738-4.261-2.326-6.518a5.977,5.977,0,0,1,1.871-5.927c1.317,1.152,1.269,3.177,1.116,4.92-.207,2.346.449,3.51.242,5.858.834-.031.682.506,1.038-.25a7,7,0,0,0,.492-2.44q.369-4.515.9-9.015c.175-1.5.374-3,.565-4.5a6.2,6.2,0,0,1,.582-2.573A3.946,3.946,0,0,1,768.587,273.845Z" transform="translate(-645.906 -241.749)" fill="#049ce7"/>
    <path id="Pfad_976" data-name="Pfad 976" d="M803.35,291.181a3.744,3.744,0,0,1,2.162.192q1.87.555,3.718,1.172a10.077,10.077,0,0,1,2.88,1.329,15.756,15.756,0,0,1,3.4,4.5,10.768,10.768,0,0,1,.613,3.044,3.993,3.993,0,0,1-.017,1.344,3.264,3.264,0,0,1-.74,1.292,8.839,8.839,0,0,1-1.818,1.629,17.012,17.012,0,0,1-6.109,2.166,40.2,40.2,0,0,1-5.74.886,2.375,2.375,0,0,1-2.086-.595,2.348,2.348,0,0,1-.307-.6,22.859,22.859,0,0,1-1.436-9.384,6.915,6.915,0,0,1,.268-1.72,12.318,12.318,0,0,1,2.783-4.267,5.877,5.877,0,0,1,3.7-.959" transform="translate(-679.228 -256.351)" fill="#a1616a"/>
    <path id="Pfad_977" data-name="Pfad 977" d="M752.692,319.481a2.546,2.546,0,0,0-.889,1.914c-.326,3.076.943,6.121.858,9.212a21.271,21.271,0,0,1-1.888,7.094,42.229,42.229,0,0,0-2.656,12.328c-.311,4.186-.766,8.544-3.013,12.085-.51.8-1.1,1.546-1.6,2.353-.524.843-.939,1.747-1.4,2.624a28.23,28.23,0,0,1-5.211,7,7.191,7.191,0,0,1-2.044,1.522,4.116,4.116,0,0,1-3.2.034,3.055,3.055,0,0,1-1.974-2.546,4.533,4.533,0,0,1,1.174-2.742,45.006,45.006,0,0,1,7.05-7.473,4.057,4.057,0,0,0,1.226-1.39,6.214,6.214,0,0,0,.2-2.126,18.686,18.686,0,0,1,.766-3.338c1.073-4.52-.834-9.455.717-13.833a13.939,13.939,0,0,0,.978-2.929,2.79,2.79,0,0,0-.541-2.057,2.713,2.713,0,0,1-.665-1.741,3.01,3.01,0,0,1,.017-.391,42.266,42.266,0,0,0,.271-6.034,14.146,14.146,0,0,0-1.43-5.824,16.548,16.548,0,0,1-1.4-2.8,7.079,7.079,0,0,1,.676-4.9,8.556,8.556,0,0,1,2.334-3.162,6.253,6.253,0,0,1,6.914-.44A10.21,10.21,0,0,1,751.436,316,7.084,7.084,0,0,1,752.692,319.481Z" transform="translate(-621.508 -273.285)" opacity="0.06"/>
    <path id="Pfad_978" data-name="Pfad 978" d="M754.971,319.481a2.546,2.546,0,0,0-.889,1.914c-.326,3.076.943,6.121.858,9.212a21.274,21.274,0,0,1-1.888,7.094A42.281,42.281,0,0,0,750.4,350.03c-.313,4.186-.766,8.544-3.013,12.085-.51.8-1.1,1.546-1.6,2.353-.523.843-.94,1.747-1.4,2.624a28.264,28.264,0,0,1-5.211,7,7.2,7.2,0,0,1-2.046,1.522,4.117,4.117,0,0,1-3.2.034,3.056,3.056,0,0,1-1.972-2.546,4.514,4.514,0,0,1,1.174-2.742,45,45,0,0,1,7.05-7.473,4.041,4.041,0,0,0,1.226-1.39,6.179,6.179,0,0,0,.2-2.126,18.687,18.687,0,0,1,.766-3.338c1.073-4.52-.834-9.455.717-13.833a13.936,13.936,0,0,0,.979-2.929,2.8,2.8,0,0,0-.541-2.057,2.7,2.7,0,0,1-.684-1.741,3.01,3.01,0,0,1,.017-.391,42.489,42.489,0,0,0,.27-6.034,14.147,14.147,0,0,0-1.43-5.824,16.545,16.545,0,0,1-1.4-2.8,7.078,7.078,0,0,1,.676-4.9,8.572,8.572,0,0,1,2.334-3.162,6.253,6.253,0,0,1,6.914-.44A10.21,10.21,0,0,1,753.7,316,7.021,7.021,0,0,1,754.971,319.481Z" transform="translate(-623.438 -273.285)" fill="#a1616a"/>
    <path id="Pfad_979" data-name="Pfad 979" d="M982.572,627l-.132.04" transform="translate(-835.54 -540.784)" fill="#464353"/>
    <path id="Pfad_980" data-name="Pfad 980" d="M808.15,670.773a1.125,1.125,0,0,1,.028-.153" transform="translate(-687.962 -577.718)" fill="#464353"/>
    <path id="Pfad_981" data-name="Pfad 981" d="M1003.733,594.892a3.392,3.392,0,0,1,1.776-.909,17.838,17.838,0,0,1,3.218-.524,6.017,6.017,0,0,1,2.017.124,2.6,2.6,0,0,1,1.6,1.159,4.027,4.027,0,0,1,.377,1.736,15.877,15.877,0,0,1-.049,3.66c-.13.766-.374,1.508-.532,2.268-.512,2.492-.067,5.071-.113,7.615a3.935,3.935,0,0,1-.274,1.591,4.424,4.424,0,0,1-1.11,1.312,7.036,7.036,0,0,1-1.516,1.136,6.523,6.523,0,0,1-2.746.521,4.206,4.206,0,0,1-1.686-.192,1.57,1.57,0,0,1-1.038-1.254c-.061-.97,1.033-1.6,1.346-2.524a2.74,2.74,0,0,0-.432-2.208,6.99,6.99,0,0,0-2.622-2.536,5.558,5.558,0,0,1-1.163-.717,1.233,1.233,0,0,1-.418-1.226,1.463,1.463,0,0,1,1.326-.818,4.553,4.553,0,0,0,1.617-.256,2.21,2.21,0,0,0,.953-1.073,3.985,3.985,0,0,0,.173-3,3.686,3.686,0,0,0-.57-1.038c-.23-.294-.7-.543-.866-.864C1002.712,596.3,1003.342,595.352,1003.733,594.892Z" transform="translate(-850.686 -512.354)" fill="#049ce7"/>
    <path id="Pfad_982" data-name="Pfad 982" d="M832.29,428.418c-2.532-2.238-6.061-2.846-9.372-3.525q-2.558-.523-5.091-1.165a18.984,18.984,0,0,0-3.372-.661,5.712,5.712,0,0,0-3.317.668,3.405,3.405,0,0,0-1.732,2.791c0,.46.109.91.075,1.366a7.108,7.108,0,0,1-.737,2.064,5.425,5.425,0,0,0-.185,3.4c.49,1.789,1.9,3.364,1.781,5.211a34.912,34.912,0,0,0,.494,9.349,43.81,43.81,0,0,1,1.408,9.165c-.018,3.1-.956,6.354-3.269,8.417a12.633,12.633,0,0,0,5.568,3.042c1.782.446,3.9.4,5.171-.927a1.43,1.43,0,0,0,.477-1.137,2.224,2.224,0,0,0-.33-.743,7.466,7.466,0,0,1-.38-5.231,43.2,43.2,0,0,0,1.214-5.22c.123-1.292-.015-2.605.231-3.881.19-.976.6-1.9.848-2.86.728-2.86-.037-5.862-.8-8.711a9.888,9.888,0,0,0,3.084,3.6c1.888,1.505,4.172,2.834,6.572,2.567a7.83,7.83,0,0,0,5.211-3.467c.011-2.015.71-3.92.585-5.931a15.055,15.055,0,0,0-.472-2.613,12.975,12.975,0,0,0-.92-2.8A10.387,10.387,0,0,0,832.29,428.418Z" transform="translate(-688.149 -368.091)" opacity="0.06"/>
    <path id="Pfad_983" data-name="Pfad 983" d="M835.723,428.418c-2.532-2.238-6.06-2.846-9.372-3.525q-2.558-.523-5.09-1.165a19.013,19.013,0,0,0-3.372-.661,5.71,5.71,0,0,0-3.315.668,3.4,3.4,0,0,0-1.732,2.791c0,.46.107.91.074,1.366a7.292,7.292,0,0,1-.737,2.064,5.425,5.425,0,0,0-.184,3.4c.489,1.789,1.9,3.364,1.781,5.211a34.851,34.851,0,0,0,.492,9.349,43.806,43.806,0,0,1,1.408,9.165c-.018,3.1-.962,6.343-3.277,8.4a12.64,12.64,0,0,0,5.568,3.042c1.782.446,3.9.4,5.171-.927a1.431,1.431,0,0,0,.477-1.137,2.223,2.223,0,0,0-.329-.743,7.466,7.466,0,0,1-.38-5.231,43.513,43.513,0,0,0,1.215-5.22c.121-1.292-.017-2.605.231-3.881.189-.976.6-1.9.846-2.86.728-2.86-.035-5.862-.8-8.711a9.879,9.879,0,0,0,3.085,3.6c1.888,1.505,4.17,2.834,6.57,2.567a7.83,7.83,0,0,0,5.211-3.467c.009-2.015.708-3.92.584-5.931a15.055,15.055,0,0,0-.472-2.613,12.891,12.891,0,0,0-.919-2.8A10.262,10.262,0,0,0,835.723,428.418Z" transform="translate(-691.058 -368.091)" fill="#a1616a"/>
    <path id="Pfad_984" data-name="Pfad 984" d="M745.446,686.534a9.568,9.568,0,0,1-2.852-2.671,7.52,7.52,0,0,0-.858-1.125,1.657,1.657,0,0,0-1.272-.523,2.071,2.071,0,0,0-1.3.877c-.9,1.12-1.487,2.49-2.49,3.525a9.108,9.108,0,0,1-4.389,2.25c-1.614.411-3.28.627-4.861,1.146a2.216,2.216,0,0,0-1.287.832,1.859,1.859,0,0,0,.205,1.888,5.538,5.538,0,0,0,2.984,2.175,26.984,26.984,0,0,0,3.678.817c2.185.428,4.425,1.113,6.6.63.867-.193,1.686-.567,2.563-.729,1.992-.371,4.048.379,6.048.078a9.467,9.467,0,0,0,2.759-.967,3.8,3.8,0,0,0,1.18-.8,1.444,1.444,0,0,0,.382-1.32,5.323,5.323,0,0,0-.363-.739,3.8,3.8,0,0,1-.261-1.245,34.107,34.107,0,0,0-.84-4.794,1.952,1.952,0,0,0-.854-1.4.459.459,0,0,0-.342-.038c-.182.069-.242.29-.3.475a2.924,2.924,0,0,1-5.085,1.008" transform="translate(-618.369 -587.531)" fill="#049ce7"/>
    <path id="Pfad_985" data-name="Pfad 985" d="M695.8,213.713a9.722,9.722,0,0,1-.061,1.085,3.1,3.1,0,0,1-2.667-.887c-.323-.343-.566-.759-.886-1.105a1.352,1.352,0,0,0-2.227-.032,3.261,3.261,0,0,0-.746,1.32,1.8,1.8,0,0,1-.441.975,1.4,1.4,0,0,1-.984.2,2.934,2.934,0,0,1-1.294-.245c-.736-.4-.984-1.306-1.257-2.1-.46-1.329-1.494-3.842-3.1-4.11a3.4,3.4,0,0,0-2.3.714,4.116,4.116,0,0,1-2.745,1.065h0a9.622,9.622,0,0,1,18.724,3.114Z" transform="translate(-576.988 -182.693)" opacity="0.06"/>
    <path id="Pfad_986" data-name="Pfad 986" d="M665.978,181.748a2.312,2.312,0,0,1-.812-.129A2.192,2.192,0,0,1,664,179.674a8.713,8.713,0,0,1,.713-3.549,1.177,1.177,0,0,1,.412-.658,1.432,1.432,0,0,1,.581-.146,5.5,5.5,0,0,0,2.867-1.58,23.443,23.443,0,0,1,2.452-2.238,6.558,6.558,0,0,1,8.058.7c.825.809,1.533,1.907,2.676,2.1a9.641,9.641,0,0,1,1.992.127,2.351,2.351,0,0,1,1.051,1,9.929,9.929,0,0,1,1.39,4.52,29.514,29.514,0,0,1-.113,4.768,1.245,1.245,0,0,1-.176.676,1.03,1.03,0,0,1-.36.276,3.094,3.094,0,0,1-3.569-.6c-.325-.342-.566-.757-.886-1.105a1.353,1.353,0,0,0-2.227-.031,3.262,3.262,0,0,0-.746,1.32,1.778,1.778,0,0,1-.441.973,1.407,1.407,0,0,1-.985.205,2.933,2.933,0,0,1-1.292-.247c-.737-.4-.985-1.3-1.257-2.1-.46-1.329-1.493-3.844-3.1-4.11a3.389,3.389,0,0,0-2.3.714A4.176,4.176,0,0,1,665.978,181.748Z" transform="translate(-565.89 -154.193)" fill="#464353"/>
    <path id="Pfad_987" data-name="Pfad 987" d="M269.159,609.093c-.106.7-.746,1.245-1.2,1.787-1.229,1.484-2.475,2.972-3.85,4.33a60.235,60.235,0,0,1-4.7,4.038l-2.094,1.675a2.636,2.636,0,0,1-.89.536,1.626,1.626,0,0,1-1.146-.136c.031-.061.063-.118.1-.175l2.51-4.207c.494-.825.817-1.576,1.379-2.349a23.413,23.413,0,0,1,2.746-3.306,23.778,23.778,0,0,1,4.581-3.044,1.315,1.315,0,0,1,1.819-.547,2.273,2.273,0,0,1,.633.486A1.812,1.812,0,0,1,269.159,609.093Z" transform="translate(-219.824 -524.308)" opacity="0.06"/>
    <path id="Pfad_988" data-name="Pfad 988" d="M258.607,547.055l-2.51,4.208a.595.595,0,0,0,.143.953,5.871,5.871,0,0,1,2.331,2.812c.216.858,0,1.778.193,2.639.354,1.554,1.916,2.5,3.393,3.1a19.209,19.209,0,0,0,10.5,1.226,15.39,15.39,0,0,0,9.133-5.171c.7-.846,1.3-1.772,1.96-2.645a42.021,42.021,0,0,1,6.489-6.357c2.981-2.526,4.737-6.293,7.356-9.2a3.672,3.672,0,0,1,1.686-1.247c.383-.1.92.046.935.441a4.476,4.476,0,0,0,1.073,2.034c1.588,2.428,3.249,4.93,5.7,6.478a18.142,18.142,0,0,0,4.382,1.839c3.847,1.2,7.769,2.146,11.686,3.084a6.555,6.555,0,0,1,.708-1.117c.406-.5.941-.878,1.349-1.379a7.279,7.279,0,0,0,1.248-3.243c-2.34-1.433-4.742-2.912-7.05-4.4a16.638,16.638,0,0,1-3.272-2.524c-.613-.665-1.128-1.427-1.743-2.1a17.78,17.78,0,0,0-2.026-1.8l-5.517-4.418c-1.585-1.267-3.2-2.605-4.751-3.917a3.872,3.872,0,0,0-5.694-.556q-7.4,4.431-15.019,8.463c-1.028.543-2.061,1.082-3.042,1.706a20.507,20.507,0,0,0-5.015,4.5c-.259.323-.587.691-1,.642a.9.9,0,0,1-.32-.112,3.907,3.907,0,0,1-1.379-1.614,3.738,3.738,0,0,0-1.4-1.6,1.315,1.315,0,0,0-1.819.549,24.95,24.95,0,0,0-4.584,3.062,23.331,23.331,0,0,0-2.746,3.306C259.424,545.481,259.1,546.232,258.607,547.055Z" transform="translate(-220.368 -454.248)" fill="#464353"/>
    <path id="Pfad_989" data-name="Pfad 989" d="M246.61,502.52a30.89,30.89,0,0,1,4.334,2.385" transform="translate(-212.483 -435.381)" opacity="0.06"/>
    <path id="Pfad_990" data-name="Pfad 990" d="M963.536,457.821c.046,1.43.083,2.863.066,4.291a4.677,4.677,0,0,1-.4,2.21,4.809,4.809,0,0,1-1.073,1.214l-2.524,2.288a5.626,5.626,0,0,1-2.671,1.626,7.439,7.439,0,0,1-3.508-.766,11.514,11.514,0,0,0-3.586-.6,13.244,13.244,0,0,1-2.094-.055,8.579,8.579,0,0,1-1.462-.415L944,466.82c.064-.575.613-.941,1.073-1.3,1.632-1.324,2.348-3.453,2.863-5.49a32.727,32.727,0,0,0,.892-4.845,7.957,7.957,0,0,0-.057-2.428,9.66,9.66,0,0,0-.674-1.861l-.8-1.807a5.238,5.238,0,0,0-2.316-2.077c1.413.536,3.136.746,4.21,1.81a2.788,2.788,0,0,0,.726.589,3.44,3.44,0,0,0,.946.205,10.48,10.48,0,0,1,4.27,2.169q2.42,1.7,4.975,3.2a11.7,11.7,0,0,1,2.2,1.508,3.552,3.552,0,0,1,1.192,2.323" transform="translate(-802.991 -388.379)" fill="#464353"/>
    <path id="Pfad_991" data-name="Pfad 991" d="M158.437,442.832c-2.009.4-3.054,2.759-2.936,4.8a7.816,7.816,0,0,0,2.118,4.881c.838.881,1.884,1.562,2.641,2.513,1.119,1.4,1.508,3.26,2.509,4.751a12.943,12.943,0,0,0,2.759,2.745q3.5,2.8,7.235,5.292a6.042,6.042,0,0,0,3.335,1.333,4.158,4.158,0,0,0,2.95-1.568,12.584,12.584,0,0,0,1.712-2.97,55,55,0,0,0,4.35-11.787,15.246,15.246,0,0,1,1.024-3.805,18.477,18.477,0,0,1,1.747-2.538,17.507,17.507,0,0,0,2.955-6.6,8.516,8.516,0,0,0-.1-4.705,4.279,4.279,0,0,0-3.467-2.892,4.213,4.213,0,0,0-3.33,1.488,8.238,8.238,0,0,0-1.678,3.346,16.026,16.026,0,0,0-.552,5.364,18.336,18.336,0,0,1,.144,4.369,11.7,11.7,0,0,1-1.059,2.9,30.944,30.944,0,0,1-4,6.9,2.532,2.532,0,0,1-2.179,1.182c-1.18-.215-1.493-1.709-2.075-2.759-.714-1.287-2.069-2.061-3.131-3.084a23.7,23.7,0,0,1-3.491-5.211c-1.074-1.8-2.464-3.582-4.445-4.273s-4.619.2-5.128,2.231" transform="translate(-135.329 -375.9)" opacity="0.06"/>
    <path id="Pfad_992" data-name="Pfad 992" d="M160.02,440.37c-2.011.4-4.57.656-4.445,2.7a7.8,7.8,0,0,0,2.118,4.881c.838.883,1.884,1.563,2.641,2.515,1.119,1.4,1.508,3.258,2.509,4.751a12.873,12.873,0,0,0,2.759,2.745q3.5,2.8,7.235,5.292a6.032,6.032,0,0,0,3.335,1.335,4.164,4.164,0,0,0,2.95-1.568,12.532,12.532,0,0,0,1.712-2.972,55,55,0,0,0,4.35-11.787,15.236,15.236,0,0,1,1.024-3.8,18.583,18.583,0,0,1,1.747-2.54,17.49,17.49,0,0,0,2.955-6.6,8.522,8.522,0,0,0-.1-4.707,4.279,4.279,0,0,0-3.467-2.892,4.218,4.218,0,0,0-3.33,1.488,8.225,8.225,0,0,0-1.678,3.347,16.022,16.022,0,0,0-.552,5.364,18.343,18.343,0,0,1,.144,4.369,11.693,11.693,0,0,1-1.059,2.9,30.978,30.978,0,0,1-4,6.9,2.536,2.536,0,0,1-2.179,1.182c-1.18-.216-1.493-1.71-2.075-2.759-.714-1.287-2.069-2.061-3.131-3.084a23.669,23.669,0,0,1-3.491-5.211c-1.074-1.8-2.464-3.58-4.445-4.273s.5,3.744-.011,5.779" transform="translate(-135.397 -372.039)" opacity="0.06"/>
    <path id="Pfad_993" data-name="Pfad 993" d="M158.437,440.558c-2.009.4-3.054,2.759-2.936,4.8a7.816,7.816,0,0,0,2.118,4.883c.838.881,1.884,1.562,2.641,2.513,1.119,1.4,1.508,3.26,2.509,4.751a12.915,12.915,0,0,0,2.759,2.746q3.5,2.8,7.235,5.291a6.033,6.033,0,0,0,3.335,1.335,4.158,4.158,0,0,0,2.95-1.568,12.584,12.584,0,0,0,1.712-2.97,54.981,54.981,0,0,0,4.35-11.789,15.235,15.235,0,0,1,1.024-3.8,18.581,18.581,0,0,1,1.747-2.54,17.49,17.49,0,0,0,2.955-6.6,8.522,8.522,0,0,0-.1-4.707,4.275,4.275,0,0,0-3.467-2.89,4.209,4.209,0,0,0-3.33,1.488,8.238,8.238,0,0,0-1.678,3.346,16.026,16.026,0,0,0-.552,5.364,18.326,18.326,0,0,1,.144,4.368,11.692,11.692,0,0,1-1.059,2.9,30.944,30.944,0,0,1-4,6.9,2.535,2.535,0,0,1-2.179,1.182c-1.18-.216-1.493-1.709-2.075-2.759-.714-1.289-2.069-2.063-3.131-3.084a23.7,23.7,0,0,1-3.491-5.211c-1.074-1.8-2.464-3.58-4.445-4.271s-4.619.2-5.128,2.231" transform="translate(-135.329 -373.977)" fill="#fbbebe"/>
    <g id="Gruppe_52" data-name="Gruppe 52" transform="translate(9.843 37.376)" opacity="0.06">
      <path id="Pfad_994" data-name="Pfad 994" d="M93.745,380.228a19.362,19.362,0,0,1-1.6-3.315l-.052-.153a4.966,4.966,0,0,1-.808-1.163,5.864,5.864,0,0,1-.524-2.3q0-.044,0-.087a3.462,3.462,0,0,0-.241.766,5.024,5.024,0,0,0,.4,2.572,19.416,19.416,0,0,0,1.6,3.315c.952,1.591,2.167,3.123,2.356,4.949.284,2.731-1.776,5.136-2.285,7.835-.389,2.061.1,4.365-1,6.149a5.164,5.164,0,0,1-1.727,1.637,4.887,4.887,0,0,1-1.415.613,3.282,3.282,0,0,1-.294.307,3.548,3.548,0,0,0,2.933-.566,5.184,5.184,0,0,0,1.727-1.638c1.1-1.784.613-4.087,1-6.149.51-2.7,2.57-5.1,2.287-7.835C95.913,383.328,94.7,381.8,93.745,380.228Z" transform="translate(-88.16 -363.265)"/>
      <path id="Pfad_995" data-name="Pfad 995" d="M161.719,311.8a4.8,4.8,0,0,0-2.081-2.066,12.048,12.048,0,0,0-3.5-1.41,12.5,12.5,0,0,1,2.271,1.059,4.82,4.82,0,0,1,2.083,2.067,2.147,2.147,0,0,1-.653,2.654,3.775,3.775,0,0,1-2.051.28,12.337,12.337,0,0,0-1.812.092,1.743,1.743,0,0,0-.625.165,1.556,1.556,0,0,0-.579.682,4.763,4.763,0,0,0-.49,1.507,3.453,3.453,0,0,1-.446,1.7c-.5.636-1.281.539-1.992.665a5.364,5.364,0,0,0-1.749.668,4.263,4.263,0,0,0-2.066,3.39,6.285,6.285,0,0,1-.084,1.473,2.431,2.431,0,0,1-.4.766,5.226,5.226,0,0,1,.708.955,3.63,3.63,0,0,0,.92-1.372,6.3,6.3,0,0,0,.086-1.474,4.272,4.272,0,0,1,2.066-3.39,5.307,5.307,0,0,1,1.749-.667c.708-.127,1.49-.031,1.992-.667a3.447,3.447,0,0,0,.446-1.7,4.761,4.761,0,0,1,.489-1.507,1.546,1.546,0,0,1,.579-.674,1.686,1.686,0,0,1,.625-.165,12.553,12.553,0,0,1,1.812-.093,3.761,3.761,0,0,0,2.051-.28A2.162,2.162,0,0,0,161.719,311.8Z" transform="translate(-138.448 -308.32)"/>
    </g>
    <path id="Pfad_996" data-name="Pfad 996" d="M174.52,426.55s1.81,1.557,5.248.613A7.112,7.112,0,0,1,174.52,426.55Z" transform="translate(-151.442 -371.054)" opacity="0.06"/>
    <path id="Pfad_997" data-name="Pfad 997" d="M685.9,228.571a1.249,1.249,0,0,1-.184.671,1.025,1.025,0,0,1-.36.274,3.091,3.091,0,0,1-3.568-.6c-.325-.343-.566-.766-.886-1.1a1.63,1.63,0,0,0-1.226-.6,1.609,1.609,0,0,0-1,.566,3.319,3.319,0,0,0-.746,1.32,1.781,1.781,0,0,1-.44.975,1.4,1.4,0,0,1-.985.2,2.9,2.9,0,0,1-1.292-.245c-.737-.4-.985-1.306-1.258-2.1-.46-1.33-1.493-3.844-3.1-4.112a3.4,3.4,0,0,0-2.3.714,4.163,4.163,0,0,1-2.746,1.073,2.343,2.343,0,0,1-.812-.129,2.1,2.1,0,0,1-1.143-1.724,5.105,5.105,0,0,0-.026,1A2.2,2.2,0,0,0,665,226.709a2.344,2.344,0,0,0,.812.129,4.12,4.12,0,0,0,2.746-1.065,3.4,3.4,0,0,1,2.3-.714c1.6.261,2.644,2.774,3.094,4.1.273.791.521,1.7,1.258,2.1a2.924,2.924,0,0,0,1.292.245,1.445,1.445,0,0,0,.985-.2,1.9,1.9,0,0,0,.44-.975,3.308,3.308,0,0,1,.746-1.32,1.617,1.617,0,0,1,1-.566,1.561,1.561,0,0,1,1.226.6c.307.348.561.766.886,1.1a3.091,3.091,0,0,0,3.568.6,1.044,1.044,0,0,0,.36-.274,1.251,1.251,0,0,0,.184-.673,36.533,36.533,0,0,0,.153-3.884C686.035,226.8,685.969,227.685,685.9,228.571Z" transform="translate(-565.745 -199.344)" opacity="0.06"/>
    <path id="Pfad_998" data-name="Pfad 998" d="M84.424,657.618s.244-.271-.215-.379v-.446h.276a2.353,2.353,0,0,0-1.865-2.3v-.541h.072v-.7H80.919v.7h.051v.547a2.354,2.354,0,0,0-1.839,2.3h.244v.428s-.581.274,0,.766.49.848.49.848-.244.92-.733,1.039v8.526a1.894,1.894,0,0,0,1.894,1.9h1.5a1.9,1.9,0,0,0,1.9-1.9V659.88s-.857-.642-.7-1.039A9.586,9.586,0,0,1,84.424,657.618Z" transform="translate(-70.659 -563.01)" fill="#464353"/>
  </g>
</svg>
