<svg xmlns="http://www.w3.org/2000/svg" width="320.814" height="213.462" viewBox="0 0 320.814 213.462">
  <g id="Gruppe_47" data-name="Gruppe 47" transform="translate(-0.013 0.004)">
    <path id="Pfad_780" data-name="Pfad 780" d="M275.706,151.085c-18.874-.671-36.849-6.763-54-13.415s-34.166-14.053-52.588-17.585c-11.849-2.272-25.4-2.593-34.945,3.759-9.189,6.124-12.158,16.666-13.753,26.459-1.2,7.366-1.907,15.118,1.382,22.014,2.286,4.788,6.34,8.813,9.145,13.4,9.761,15.958,2.861,35.636-7.713,51.217-4.958,7.311-10.717,14.289-14.546,22.064s-5.6,16.7-2.248,24.633c3.319,7.874,11.23,13.776,19.8,17.932,17.407,8.44,37.911,10.857,57.919,12.225,44.277,3.03,88.787,1.718,133.18.405,16.43-.487,32.93-.98,49.091-3.52,8.976-1.411,18.241-3.651,24.759-9.055,8.27-6.862,10.32-18.483,4.777-27.086-9.3-14.432-34.995-18.016-41.5-33.507-3.575-8.524.1-18.022,5.3-25.928,11.152-16.961,29.842-31.842,30.824-51.232.677-13.315-8.308-26.651-22.2-32.953-14.561-6.605-34.755-5.774-45.493,5.159C311.814,147.317,292.372,151.648,275.706,151.085Z" transform="translate(-88.698 -108.514)" fill="#049ce7" opacity="0.1"/>
    <ellipse id="Ellipse_158" data-name="Ellipse 158" cx="21.35" cy="4.106" rx="21.35" ry="4.106" transform="translate(28.603 205.246)" fill="#049ce7"/>
    <ellipse id="Ellipse_159" data-name="Ellipse 159" cx="2.485" cy="3.254" rx="2.485" ry="3.254" transform="translate(47.109 204.354)" fill="#3f3d56"/>
    <ellipse id="Ellipse_160" data-name="Ellipse 160" cx="2.485" cy="3.254" rx="2.485" ry="3.254" transform="translate(47.109 200.376)" fill="#3f3d56"/>
    <ellipse id="Ellipse_161" data-name="Ellipse 161" cx="2.485" cy="3.254" rx="2.485" ry="3.254" transform="translate(47.109 196.398)" fill="#3f3d56"/>
    <ellipse id="Ellipse_162" data-name="Ellipse 162" cx="2.485" cy="3.254" rx="2.485" ry="3.254" transform="translate(47.109 192.423)" fill="#3f3d56"/>
    <ellipse id="Ellipse_163" data-name="Ellipse 163" cx="2.485" cy="3.254" rx="2.485" ry="3.254" transform="translate(47.109 188.446)" fill="#3f3d56"/>
    <ellipse id="Ellipse_164" data-name="Ellipse 164" cx="2.485" cy="3.254" rx="2.485" ry="3.254" transform="translate(47.109 184.468)" fill="#3f3d56"/>
    <ellipse id="Ellipse_165" data-name="Ellipse 165" cx="2.485" cy="3.254" rx="2.485" ry="3.254" transform="translate(47.109 180.49)" fill="#3f3d56"/>
    <path id="Pfad_781" data-name="Pfad 781" d="M200.246,574.01a11.79,11.79,0,0,0,.927-1.362l-6.532-1.073,7.063.052a11.918,11.918,0,0,0,.227-9.434l-9.475,4.917,8.749-6.416a11.907,11.907,0,1,0-19.667,13.324,12.012,12.012,0,0,0-1.359,2.173l8.48,4.4-9.04-3.033a11.9,11.9,0,0,0,1.919,11.181,11.907,11.907,0,1,0,18.716,0,11.907,11.907,0,0,0,0-14.724Z" transform="translate(-141.347 -417.482)" fill="#049ce7"/>
    <path id="Pfad_782" data-name="Pfad 782" d="M179,645.576a11.857,11.857,0,0,0,2.549,7.36,11.907,11.907,0,1,0,18.716,0C201.851,650.916,179,644.243,179,645.576Z" transform="translate(-141.354 -481.691)" opacity="0.1"/>
    <path id="Pfad_783" data-name="Pfad 783" d="M575.806,609.906a8.263,8.263,0,0,0,2.969,6.124c1.89,1.376,4.9,1.35,6.34-.5a7.093,7.093,0,0,0,1.053-2.289c1.216-3.844,2.079-8.049.747-11.854-3.007-.2-6.492-1.61-8.749.875A10.364,10.364,0,0,0,575.806,609.906Z" transform="translate(-422.419 -450.103)" fill="#3f3d56"/>
    <path id="Pfad_784" data-name="Pfad 784" d="M586.251,524.975a74.438,74.438,0,0,0-1.009,10.183c.026,1.318.166,2.625.169,3.949a19.462,19.462,0,0,1-2.625,9.79,3.283,3.283,0,0,1-.717.927,2.3,2.3,0,0,1-2.508.085,4.934,4.934,0,0,1-1.782-1.933c-2.173-3.721-2.234-8.244-3.094-12.464-.659-3.228-1.814-6.357-2.231-9.623-.271-2.1-.23-4.246-.662-6.322-.131-.627-.5-1.569-.741-2.493a3.749,3.749,0,0,1-.117-2.193c.464-1.14,1.983-.7,2.972-.627a68.405,68.405,0,0,0,10.458-.026.9.9,0,0,1,1.21.627,14.152,14.152,0,0,1,.633,2.333A25.919,25.919,0,0,1,586.251,524.975Z" transform="translate(-418.907 -388.686)" fill="#fabdbd"/>
    <g id="Gruppe_42" data-name="Gruppe 42" transform="translate(151.913 125.424)" opacity="0.1">
      <path id="Pfad_785" data-name="Pfad 785" d="M605.677,514.476a2.563,2.563,0,0,0-.54,0q-2.5.2-5.007.21Q602.9,514.691,605.677,514.476Z" transform="translate(-591.587 -514.359)"/>
      <path id="Pfad_786" data-name="Pfad 786" d="M580.164,549.91a4.935,4.935,0,0,1-1.782-1.933c-2.173-3.721-2.234-8.244-3.094-12.464-.659-3.228-1.814-6.357-2.231-9.623-.271-2.1-.23-4.246-.662-6.322-.131-.627-.5-1.569-.741-2.493a3.749,3.749,0,0,1-.117-2.193,1.242,1.242,0,0,1,1.166-.758c-.738-.05-1.458.038-1.75.758a3.748,3.748,0,0,0,.117,2.193c.242.924.609,1.866.741,2.493.432,2.076.391,4.22.662,6.322.417,3.269,1.572,6.4,2.231,9.623.86,4.22.922,8.749,3.094,12.464a4.933,4.933,0,0,0,1.782,1.933,2.59,2.59,0,0,0,1.528.309A2.69,2.69,0,0,1,580.164,549.91Z" transform="translate(-570.833 -514.111)"/>
    </g>
    <path id="Pfad_787" data-name="Pfad 787" d="M634.3,528.912c-1.75,3.5-1.458,8.457-1.458,8.457.292,11.665-4.374,36.161-4.374,36.161h-4.083s-.583-27.121,0-29.454-.292-10.5-1.167-21.872a58.381,58.381,0,0,1,2.07-19.483c.327-1.166.554-1.805.554-1.805s6.707-9.915,10.5-5.249c.875,1.085,1.339,3.275,1.5,6.039C638.36,510.829,635.643,526.226,634.3,528.912Z" transform="translate(-455.931 -374.738)" fill="#fabdbd"/>
    <path id="Pfad_788" data-name="Pfad 788" d="M648.808,501.712c-.16-2.765-.618-4.958-1.5-6.039a3,3,0,0,0-2.864-1.216,3.109,3.109,0,0,1,1.989,1.216c.875,1.085,1.339,3.275,1.5,6.039.519,9.122-2.2,24.52-3.54,27.205-1.75,3.5-1.458,8.457-1.458,8.457.292,11.665-4.374,36.161-4.374,36.161h.875s4.666-24.5,4.374-36.161c0,0-.292-4.958,1.458-8.457C646.609,526.231,649.327,510.834,648.808,501.712Z" transform="translate(-466.897 -374.743)" opacity="0.1"/>
    <path id="Pfad_789" data-name="Pfad 789" d="M617.83,754.2a3.791,3.791,0,0,0-.834.91c-.522.986.219,2.164,1.012,2.948s1.75,1.624,1.75,2.741a2.733,2.733,0,0,1-1.441,2.146c-.408.257-.922.583-.837,1.067a1,1,0,0,0,.155.341,4.514,4.514,0,0,0,2.983,1.808,13.461,13.461,0,0,0,3.575.029.719.719,0,0,0,.49-.169.664.664,0,0,0,.131-.4,5.238,5.238,0,0,1,.292-1.828c.379-.761,1.251-1.149,1.75-1.831a4.071,4.071,0,0,0,.338-3.365,13.883,13.883,0,0,0-3.829-7C621.108,749.629,619.338,752.779,617.83,754.2Z" transform="translate(-451.498 -556.471)" fill="#3f3d56"/>
    <path id="Pfad_790" data-name="Pfad 790" d="M433.218,222.781c1.627-2.432,1.2-5.832-.458-8.253a14.1,14.1,0,0,0-7.089-4.925,19.955,19.955,0,0,0-11.63-.782c-3.039.79-5.768,2.444-8.632,3.721a37.121,37.121,0,0,1-16.121,3.208c-6.156-.172-12.9-1.75-18.066,1.616-9.454,6.15-5.249,22.889-14.193,29.745-2.412,1.849-5.447,2.657-8.13,4.083s-5.226,3.908-5.162,6.946a8.082,8.082,0,0,0,1.458,4.083,18.893,18.893,0,0,0,15.9,8.544,20.249,20.249,0,0,0,16.025-8.539,12.519,12.519,0,0,1,3.021-3.575c2.625-1.721,6.083-.516,9.215-.26a14.942,14.942,0,0,0,15.336-11.534c.583-2.931.481-6.433,2.84-8.273,1.9-1.484,4.584-1.166,7-1.42,4.415-.458,7.9-3.208,10.3-6.8,1.1-1.648,1.228-3.616,2.727-4.914C429.173,224.026,431.673,225.079,433.218,222.781Z" transform="translate(-258.05 -172.044)" fill="#3f3d56"/>
    <g id="Gruppe_43" data-name="Gruppe 43" transform="translate(101.724 36.229)" opacity="0.1">
      <path id="Pfad_791" data-name="Pfad 791" d="M458.094,233.151a36.969,36.969,0,0,0,7.632-.583c-.694.02-1.394.02-2.091,0-4.832-.134-10.026-1.131-14.534.07C452.075,232.666,455.151,233.069,458.094,233.151Z" transform="translate(-434.411 -225.111)"/>
      <path id="Pfad_792" data-name="Pfad 792" d="M413.262,380.789a12.519,12.519,0,0,0-3.021,3.575,20.486,20.486,0,0,1-11.51,7.935c.341.015.682.023,1.027.02a20.241,20.241,0,0,0,16.025-8.539,12.518,12.518,0,0,1,3.021-3.575l.227-.14C416.971,379.783,414.95,379.684,413.262,380.789Z" transform="translate(-398.73 -329.829)"/>
      <path id="Pfad_793" data-name="Pfad 793" d="M594.574,214.5a14.161,14.161,0,0,0-7.089-4.925,19.956,19.956,0,0,0-11.63-.782c-.087.02-.172.047-.257.07a22.324,22.324,0,0,1,6.346,1.295,14.161,14.161,0,0,1,7.089,4.925c1.659,2.409,2.085,5.832.458,8.253-1.546,2.307-4.045,1.254-5.681,2.674-1.5,1.3-1.627,3.266-2.727,4.914a15,15,0,0,1-8.5,6.474c1.228-.146,2.523-.128,3.747-.257,4.415-.458,7.9-3.208,10.3-6.8,1.1-1.648,1.228-3.616,2.727-4.914,1.636-1.42,4.135-.367,5.681-2.674C596.662,220.319,596.239,216.907,594.574,214.5Z" transform="translate(-521.882 -208.252)"/>
      <path id="Pfad_794" data-name="Pfad 794" d="M517.959,309.225c-2.4.251-5.08-.064-7,1.42-2.359,1.84-2.245,5.342-2.84,8.273A14.973,14.973,0,0,1,498,329.84l.347.032a14.942,14.942,0,0,0,15.336-11.534c.583-2.931.481-6.433,2.84-8.273a5.267,5.267,0,0,1,1.811-.875C518.2,309.193,518.084,309.213,517.959,309.225Z" transform="translate(-469.051 -279.754)"/>
    </g>
    <path id="Pfad_795" data-name="Pfad 795" d="M548.755,169.733s-7,14-9.332,19.247S515.8,202.1,512.885,202.395a3.756,3.756,0,0,0-2.082,1,11.469,11.469,0,0,0-2.584,3.954s1.166,7.874-.292,21c-.029.254-.055.507-.079.752-1.271,12.487,1.391,15.433,1.391,15.433s-28.287,10.79-27.412-3.208a63.441,63.441,0,0,0-.038-10.318,43.326,43.326,0,0,0-1.674-8.125c-.691-2.418-1.516-5.068-2.371-8.679a38.069,38.069,0,0,0-1.621-5.293c-.02-.052-.041-.1-.058-.155-1.458-3.619-2.916-4.788-3.75-5.168a12.609,12.609,0,0,1-2.24-1.26,117.8,117.8,0,0,1-13.627-11.455c-7-7-14-23.621-14-23.621s-2.041-9.624,2.625-17.5,2.625,15.456,2.625,15.456,8.457,11.373,10.5,16.622a8.771,8.771,0,0,0,4.083,4.8,48.409,48.409,0,0,1,6.456,4.036,37.7,37.7,0,0,0,4.342,2.835c3.26,1.75,7.165,3.724,10.42,4.243a9.823,9.823,0,0,0,1.537.131,1.592,1.592,0,0,0,1.283-.583c.875-1.029.854-3.246.653-5.068a25.75,25.75,0,0,0-.478-2.808s9.478-5.978,9.186,1.312a8.149,8.149,0,0,0,.222,2.4,4.156,4.156,0,0,0,2.826,3.091,7,7,0,0,0,3.5.114,3.42,3.42,0,0,0,1.032-.353,70.578,70.578,0,0,1,12.248-3.5c2.625-.292,15.748-6.707,15.748-6.707l14.289-19.83s-.292-11.665,5.541-16.331S548.755,169.733,548.755,169.733Z" transform="translate(-327.662 -129.437)" fill="#fabdbd"/>
    <g id="Gruppe_44" data-name="Gruppe 44" transform="translate(114.339 20.842)" opacity="0.1">
      <path id="Pfad_796" data-name="Pfad 796" d="M666.963,389.341a58.153,58.153,0,0,0-.335,7.057c.029-1.54.131-3.3.335-5.307.023-.245.05-.5.079-.752a114.378,114.378,0,0,0,.729-13.528,117.15,117.15,0,0,1-.729,11.779C667.024,388.842,666.986,389.1,666.963,389.341Z" transform="translate(-601.115 -312.268)"/>
      <path id="Pfad_797" data-name="Pfad 797" d="M594.892,289.07c-.2.114-.292.184-.292.184a24.98,24.98,0,0,1,.56,3.791,17.89,17.89,0,0,0-.268-3.975Z" transform="translate(-550.096 -250.115)"/>
      <path id="Pfad_798" data-name="Pfad 798" d="M461.7,179.516c.143-2.041.356-5.7.315-8.956-.05,4.351-.437,8.789-.437,8.789Z" transform="translate(-455.867 -166.165)"/>
      <path id="Pfad_799" data-name="Pfad 799" d="M578.532,466.53a1.918,1.918,0,0,1-.02.341c-.875,14,27.412,3.208,27.412,3.208a4.748,4.748,0,0,1-.738-1.481C600.926,470.114,579.515,477.165,578.532,466.53Z" transform="translate(-538.685 -375.824)"/>
      <path id="Pfad_800" data-name="Pfad 800" d="M709.6,173.194s-7,14-9.332,19.247-23.621,13.123-26.538,13.415a3.756,3.756,0,0,0-2.082,1,11.47,11.47,0,0,0-2.584,3.954s.07.475.155,1.379a10.841,10.841,0,0,1,2.429-3.584,3.756,3.756,0,0,1,2.082-1c2.916-.292,24.2-8.165,26.537-13.415s9.332-19.247,9.332-19.247,4.931-14.975,4.389-19.454C713.535,161.229,709.6,173.194,709.6,173.194Z" transform="translate(-602.841 -155.49)"/>
      <path id="Pfad_801" data-name="Pfad 801" d="M481.778,261.126A43.325,43.325,0,0,0,480.1,253c-.691-2.418-1.516-5.068-2.371-8.679a38.069,38.069,0,0,0-1.621-5.293c-.02-.052-.041-.1-.058-.155-1.458-3.619-2.916-4.788-3.75-5.168a12.61,12.61,0,0,1-2.24-1.26,117.8,117.8,0,0,1-13.627-11.455c-7-7-14-23.621-14-23.621a26.367,26.367,0,0,1-.432-4.252,28.114,28.114,0,0,0,.432,6s7,16.622,14,23.621A117.8,117.8,0,0,0,470.064,234.2a12.6,12.6,0,0,0,2.257,1.26c.831.379,2.286,1.549,3.75,5.168.018.05.038.1.058.155a38.066,38.066,0,0,1,1.613,5.293c.854,3.61,1.68,6.261,2.371,8.679a43.325,43.325,0,0,1,1.674,8.125c.122,1.219.2,2.546.216,4.039A50.8,50.8,0,0,0,481.778,261.126Z" transform="translate(-441.99 -182.146)"/>
    </g>
    <path id="Pfad_802" data-name="Pfad 802" d="M593.265,333.456a17.37,17.37,0,0,0-1.167,2.3,13.885,13.885,0,0,0-.525,3.855,30.959,30.959,0,0,1-.828,5.4,5.973,5.973,0,0,1-.292.956,2.528,2.528,0,0,1-.341.583,2.486,2.486,0,0,1-.542.493,6.367,6.367,0,0,1-.989.539c-4.059,1.9-8.486,3.569-12.916,2.916a18.8,18.8,0,0,1-5.375-1.808c-1.6-.779-3.418-1.7-5.08-1.056h0a2.557,2.557,0,0,1-.814.254.771.771,0,0,1-.163-.015c-.548-.1-.548-1.954-.674-2.5-.478-2.094-.551-3.791-.837-5.611a18.405,18.405,0,0,0-.7-2.966A35.022,35.022,0,0,1,560.5,325.81c0-.184-1.312,0-1.75-.017-.111,0-.172-.018-.146-.055a.584.584,0,0,1,.087-.1,1.333,1.333,0,0,1,.522-.26l.344-.1c1.8-.51,3.791-.723,5.138-1.992,1.4-1.309,1.75-3.4,1.688-5.313a31.645,31.645,0,0,1-.268-3.348,9.83,9.83,0,0,0,1.537.131,1.592,1.592,0,0,0,1.283-.583,23.024,23.024,0,0,1,1.26,2.916,20.155,20.155,0,0,0,1.6,3.6,6.1,6.1,0,0,0,5.459,2.8,5.07,5.07,0,0,0,4.514-3.937c.335-1.852-.443-4.517-.426-6.442a7,7,0,0,0,3.5.114,3.176,3.176,0,0,1,.125.365c.656,2.251,1.531,4.835,3.733,5.634,1.423.513,3.106.128,4.421.875a2.84,2.84,0,0,1,.292.192,3.227,3.227,0,0,1,.773.819,6.588,6.588,0,0,1,.936,2.94A16.308,16.308,0,0,1,593.265,333.456Z" transform="translate(-410.255 -246.302)" fill="#049ce7"/>
    <path id="Pfad_803" data-name="Pfad 803" d="M603.968,287.805a9.939,9.939,0,0,1-8.929-.9,25.753,25.753,0,0,0-.478-2.808s9.478-5.978,9.186,1.312A8.149,8.149,0,0,0,603.968,287.805Z" transform="translate(-435.728 -224.115)" opacity="0.1"/>
    <circle id="Ellipse_166" data-name="Ellipse 166" cx="9.915" cy="9.915" r="9.915" transform="translate(154.746 43.942)" fill="#fabdbd"/>
    <path id="Pfad_804" data-name="Pfad 804" d="M555.06,340.585s19.247-12.248,79.029.875,94.485,2.625,94.485,2.625V357.79s-67.073,7.291-92.735,0-62.194-11.5-74.987-.207Z" transform="translate(-407.747 -262.086)" fill="#f86d70"/>
    <path id="Pfad_805" data-name="Pfad 805" d="M555.06,340.585s19.247-12.248,79.029.875,94.485,2.625,94.485,2.625V357.79s-67.073,7.291-92.735,0-62.194-11.5-74.987-.207Z" transform="translate(-407.747 -262.086)" opacity="0.1"/>
    <path id="Pfad_806" data-name="Pfad 806" d="M557.06,342.585s18.664-12.248,78.446.875,93.9,2.625,93.9,2.625l.292,12.54s-66.49,7.291-92.152,0-61.9-12.371-74.7-1.082Z" transform="translate(-409.164 -263.503)" fill="#f86d70"/>
    <path id="Pfad_807" data-name="Pfad 807" d="M202.839,370.135s-19.247,12.248-79.029-.875-56.866-2.625-56.866-2.625V352.929s29.454-7.291,55.116,0,62.194,11.5,74.987.207Z" transform="translate(-61.96 -272.214)" fill="#f86d70"/>
    <path id="Pfad_808" data-name="Pfad 808" d="M202.839,370.135s-19.247,12.248-79.029-.875-56.866-2.625-56.866-2.625V352.929s29.454-7.291,55.116,0,62.194,11.5,74.987.207Z" transform="translate(-61.96 -272.214)" opacity="0.1"/>
    <path id="Pfad_809" data-name="Pfad 809" d="M203.02,370.968s-18.664,12.248-78.446-.875-56.283-2.625-56.283-2.625L68,354.929s28.87-7.29,54.533,0,61.9,12.371,74.7,1.082Z" transform="translate(-62.724 -273.631)" fill="#f86d70"/>
    <path id="Pfad_810" data-name="Pfad 810" d="M562.7,235.479c-.292-1.82-.741-4.112.782-5.153a3.237,3.237,0,0,1,1.805-.467c3.152-.032,6.165,2.164,9.256,1.522a5.217,5.217,0,0,0,2.041-9.294,10.481,10.481,0,0,0-4.24-1.537c-3.911-.8-7.993-1.607-11.854-.583s-7.39,4.485-7.081,8.457a11.946,11.946,0,0,0,2.126,5.249c.77,1.231,3.768,7,5.223,7.086C562.806,240.88,562.9,236.669,562.7,235.479Z" transform="translate(-406.561 -179.98)" fill="#3f3d56"/>
    <path id="Pfad_811" data-name="Pfad 811" d="M599.033,461.7s-20.122,4.958-26.829,0c0,0-2.916,11.373-2.041,17.206,0,0,14.289.875,15.747,1.75,0,0,.292-2.333,1.75-1.166,0,0,4.958-5.832,14-.583C601.657,478.906,603.407,465.2,599.033,461.7Z" transform="translate(-418.33 -351.56)" fill="#049ce7"/>
    <path id="Pfad_812" data-name="Pfad 812" d="M590.869,227.418a5.785,5.785,0,0,0-.65-.408,5.205,5.205,0,0,1-2.855,8.536c-3.091.642-6.1-1.554-9.256-1.522a3.237,3.237,0,0,0-1.805.467c-1.522,1.041-1.076,3.333-.784,5.153.192,1.19.114,5.4-1.933,5.287h-.035c.563.685,1.088,1.149,1.493,1.167,2.041.114,2.126-4.083,1.933-5.287-.292-1.82-.738-4.112.784-5.153a3.237,3.237,0,0,1,1.805-.467c3.152-.032,6.165,2.164,9.256,1.522a5.217,5.217,0,0,0,2.041-9.294Z" transform="translate(-420.845 -185.311)" opacity="0.1"/>
    <g id="Gruppe_45" data-name="Gruppe 45" transform="translate(0.013 25.72)" opacity="0.1">
      <path id="Pfad_813" data-name="Pfad 813" d="M75.133,174.752s-21.8-9.169-24.662,7.366a4.021,4.021,0,0,0,.583,4.7s.446-1.14,2.555.041a10.965,10.965,0,0,0,2.38.965,5.354,5.354,0,0,0,3.389-.181h0s7.171-.388,13.2-9.769c0,0,2.584-1.6,2.715-2.2l-4.322.292s.33,3.164-1.458,5.063c0,0,1.589-4.908.825-5.048-.155-.029-2.283.254-2.283.254s.551,5.5-2.333,8.346c0,0,2.677-5.6,1.511-8.247l-3.187.615s.875,5.786-2.28,9.154c0,0,2.593-5.949,1.592-8.973L60.3,178.164s.738,5.663-1.9,8.457c0,0,2.3-7.177,1.219-8.165a15.971,15.971,0,0,0-3.336,1.75s.437,4.083-1.242,5.541c0,0,1.032-4.958.522-5.162,0,0-3.193,2.4-4.164,4.476A12.106,12.106,0,0,1,55.16,180.1a6.714,6.714,0,0,0-3.791.534s1.105-2.1,4.564-1.105c0,0,2.563-1.773,3.077-1.75a14.748,14.748,0,0,0-5.637-1.28s2.534-1.458,6.439.98l3.045-1.1s-4.226-2.167-6.346-2.158c0,0,2.817-1.088,7.139,1.945l3.117-.639a24.812,24.812,0,0,0-5.859-2.642s2.832-.446,6.76,2.5L69.8,175.2s-2.584-1.519-3.365-1.89-.747-.612-.747-.612a10.177,10.177,0,0,1,5.007,2.409S75.113,175.023,75.133,174.752Z" transform="translate(-49.953 -172.217)" fill="#049ce7"/>
    </g>
    <g id="Gruppe_46" data-name="Gruppe 46" transform="translate(3.208 -0.004)" opacity="0.1">
      <path id="Pfad_814" data-name="Pfad 814" d="M82.09,95.83s-7.74-17.868-18.847-9.673a3.307,3.307,0,0,0-2.333,3.12s.916-.423,1.493,1.479a9.154,9.154,0,0,0,.875,1.931,4.374,4.374,0,0,0,2.1,1.817h0s4.479,3.855,13.415,1.718c0,0,2.447.525,2.867.242L78.923,94.17a5.881,5.881,0,0,1-3.756,2.17s3.742-2.012,3.365-2.531c-.076-.1-1.5-1.149-1.5-1.149s-2.808,3.581-6.124,3.637c0,0,4.78-1.8,5.6-4.039L74.263,90.8s-2.782,3.934-6.57,4.138c0,0,4.928-2.041,6.057-4.421l-2.4-1.131s-2.788,3.791-5.94,3.934c0,0,5.456-2.951,5.372-4.156a12.672,12.672,0,0,0-2.983-.852S65.736,90.98,63.9,90.9c0,0,3.438-2.359,3.249-2.77,0,0-3.266-.391-5.025.292a9.952,9.952,0,0,1,5.06-.8,5.466,5.466,0,0,0-2.549-1.837s1.855-.621,3.342,1.942a12.646,12.646,0,0,1,2.826.709,11.927,11.927,0,0,0-2.625-3.972s2.333.583,3.266,4.249L73.875,89.8S72.6,86.1,71.321,84.906c0,0,2.3.957,3.135,5.22l2.213,1.4a20.33,20.33,0,0,0-1.974-4.893s1.936,1.344,2.6,5.331l1.371,1.108s-.671-2.374-.924-3.039-.093-.787-.093-.787a8.4,8.4,0,0,1,1.6,4.284S81.933,95.981,82.09,95.83Z" transform="translate(-60.91 -84.006)" fill="#049ce7"/>
    </g>
  </g>
</svg>
