<svg xmlns="http://www.w3.org/2000/svg" width="154.048" height="92.991" viewBox="0 0 154.048 92.991">
  <g id="Gruppe_1" data-name="Gruppe 1" transform="translate(0 -0.017)">
    <path id="Pfad_1" data-name="Pfad 1" d="M678.6,197.831l1.321-.228c.127-.022.253-.049.379-.072a10.843,10.843,0,0,1,6.924-19.989l-1.731,4.12,4.1-3.582.028.009a10.844,10.844,0,0,1,6.626,13.831c-.069.2-.15.382-.229.571a12.964,12.964,0,0,0,3.175-2.126c1.834-1.757,2.839-4.183,3.962-7.171,2.225-5.921,4.367-11.928,6.423-17.947a10.839,10.839,0,0,1-5.068-13.126c.11-.313.238-.614.373-.911.034-.074.068-.148.1-.221.137-.284.283-.562.442-.829.026-.044.055-.085.082-.128q.208-.338.439-.655c.057-.079.114-.159.174-.236.174-.228.355-.45.545-.661.064-.071.131-.137.2-.206q.219-.231.451-.449c.081-.076.162-.153.245-.227.021-.019.041-.039.063-.058l0,0a10.836,10.836,0,0,1,13.865-.311l-2.253,5.361,4.055-3.539a10.784,10.784,0,0,1,.4,12.771l.011,0c-.044.065-.095.125-.14.189q-.128.18-.263.353c-.115.148-.235.292-.357.433-.092.107-.183.214-.279.317-.14.15-.288.292-.436.434-.086.082-.169.169-.258.249q-.35.312-.724.593c-.087.065-.18.123-.269.186-.175.123-.351.244-.532.357-.113.07-.228.133-.344.2-.167.095-.334.187-.506.273-.121.061-.244.119-.367.175-.176.08-.354.154-.534.225-.121.047-.241.1-.363.139-.2.071-.407.133-.613.192-.1.03-.206.064-.311.091-.309.079-.622.146-.938.2-.059.01-.12.013-.18.022-.262.038-.526.069-.792.088-.114.008-.229.009-.344.014-.215.008-.43.013-.646.008-.126,0-.252-.009-.378-.016q-.316-.018-.632-.055c-.125-.014-.249-.029-.374-.048-.226-.034-.452-.079-.677-.128l-.044-.008q-1.3,3.809-2.652,7.6a10.837,10.837,0,0,1,15.713,1.3l-3.749,4.146,5.076-2.026a10.807,10.807,0,0,1,.434,8.255,10.642,10.642,0,0,1-1.377,2.665,10.84,10.84,0,0,1-19.586-4.756c-.1.255-.187.513-.283.767-.991,2.636-2.224,5.916-4.7,8.288a19.016,19.016,0,0,1-5.724,3.49q-1.935.842-3.922,1.557a10.867,10.867,0,0,1-4.853,1.547c-2.09.581-4.206,1.065-6.341,1.439l-1.332.23c-1.2.205-2.424.416-3.642.659.175.052.351.1.525.163a10.848,10.848,0,0,1,7.241,10.553l-8.349,2.563,7.555,1.2a10.849,10.849,0,0,1-18.077,3.208q.115.385.231.77c.153.509.305,1.015.452,1.516,1.988,6.831,1.132,12.2-2.409,15.129l-1.922-2.326c3.447-2.848,2.378-8.715,1.434-11.96-.143-.492-.293-.989-.444-1.489-1.295-4.3-2.763-9.177-.862-13.657C663.713,200.381,671.97,198.967,678.6,197.831Z" transform="translate(-573.802 -144.859)" fill="#f2f2f2"/>
    <path id="Pfad_2" data-name="Pfad 2" d="M399.959,378.261h-58.5a7.233,7.233,0,0,1-7.233-7.233v-26.8a2.865,2.865,0,0,1,.894-2.08l31-29.383a6.671,6.671,0,0,1,9.179,0l29.554,28.015a7.49,7.49,0,0,1,2.337,5.436v24.812A7.233,7.233,0,0,1,399.959,378.261Z" transform="translate(-297.603 -285.677)" fill="#3f3d56"/>
    <path id="Pfad_3" data-name="Pfad 3" d="M240.954,387.992h72.354v29.226a4.367,4.367,0,0,1-4.367,4.367H245.322a4.367,4.367,0,0,1-4.367-4.367Z" transform="translate(-204.328 -329.001)" opacity="0.1"/>
    <path id="Pfad_4" data-name="Pfad 4" d="M333.73,521.351" transform="translate(-297.179 -464.108)" fill="none" stroke="#3f3d56" stroke-miterlimit="10" stroke-width="1"/>
    <rect id="Rechteck_1" data-name="Rechteck 1" width="53.81" height="53.81" rx="26.181" transform="translate(46.126 35.962)" fill="#0075ab"/>
    <path id="Pfad_5" data-name="Pfad 5" d="M357.264,395.942v29.572h-53.81V395.942l26.9,13Z" transform="translate(-257.328 -335.743)" opacity="0.1"/>
    <path id="Pfad_6" data-name="Pfad 6" d="M370.211,543.619l-34.474-16.662a1.4,1.4,0,0,0-2.007,1.259v28.668a4.367,4.367,0,0,0,4.367,4.367h64.227a4.367,4.367,0,0,0,4.367-4.367V528.707a1.707,1.707,0,0,0-2.45-1.537Z" transform="translate(-297.179 -468.744)" fill="#3f3d56"/>
    <rect id="Rechteck_2" data-name="Rechteck 2" width="15.048" height="2.128" transform="translate(50.762 40.902)" fill="#f2f2f2"/>
    <rect id="Rechteck_3" data-name="Rechteck 3" width="44.689" height="1.216" transform="translate(49.546 48.654)" fill="#f2f2f2"/>
    <rect id="Rechteck_4" data-name="Rechteck 4" width="44.689" height="1.216" transform="translate(49.546 52.758)" fill="#f2f2f2"/>
    <rect id="Rechteck_5" data-name="Rechteck 5" width="44.689" height="1.216" transform="translate(49.546 56.862)" fill="#f2f2f2"/>
    <line id="Linie_1" data-name="Linie 1" x2="125.252" transform="translate(9.265 92.507)" fill="none" stroke="#3f3d56" stroke-miterlimit="10" stroke-width="1"/>
    <path id="Pfad_7" data-name="Pfad 7" d="M93.275,630.212c0,8.962,5.622,16.214,12.571,16.214" transform="translate(-93.275 -556.422)" fill="#46455b"/>
    <path id="Pfad_8" data-name="Pfad 8" d="M175.975,645.41c0-9.063,6.274-16.4,14.028-16.4" transform="translate(-163.404 -555.406)" fill="#6c63ff"/>
    <path id="Pfad_9" data-name="Pfad 9" d="M123.239,635.557c0,8.513,3.585,15.4,8.016,15.4" transform="translate(-118.684 -560.955)" fill="#0075ab"/>
    <path id="Pfad_10" data-name="Pfad 10" d="M175.975,620c0-11.58,7.252-20.951,16.214-20.951" transform="translate(-163.404 -529.997)" fill="#46455b"/>
    <path id="Pfad_11" data-name="Pfad 11" d="M158.577,732.261a6.533,6.533,0,0,0,2.32-.437c.537-.383,2.742-.839,2.876-.226s2.679,3.052.666,3.068a17.048,17.048,0,0,1-5.213-.64C158.69,733.7,158.577,732.261,158.577,732.261Z" transform="translate(-148.651 -642.142)" fill="#a8a8a8"/>
    <path id="Pfad_12" data-name="Pfad 12" d="M164.475,739.813a17.043,17.043,0,0,1-5.213-.64c-.408-.249-.571-1.141-.626-1.553l-.06,0s.113,1.438.649,1.765a17.05,17.05,0,0,0,5.213.64c.581,0,.782-.211.771-.517C165.129,739.694,164.907,739.809,164.475,739.813Z" transform="translate(-148.651 -647.503)" opacity="0.2"/>
    <path id="Pfad_13" data-name="Pfad 13" d="M807.174,293.424c-.091.814-.712,1.47-.942,2.256a3.733,3.733,0,0,0,1.071,3.374,7.472,7.472,0,0,0,5.2,2.471,2.22,2.22,0,0,0,.86-.094,1.842,1.842,0,0,0,.655-.447,4.184,4.184,0,0,0,1.08-2.341,12.461,12.461,0,0,0,.029-2.617,1.477,1.477,0,0,0-.1-.528,1.352,1.352,0,0,0-.34-.418,7.917,7.917,0,0,0-1.458-1.059,1.673,1.673,0,0,1-.611-.467,1.51,1.51,0,0,1-.189-.56l-.161-.821a1.613,1.613,0,0,0-.237-.665,1.637,1.637,0,0,0-1.306-.455l-1.749-.069a8.429,8.429,0,0,0-1.792-.07c-.5.1-.331.557-.241.973A7.033,7.033,0,0,1,807.174,293.424Z" transform="translate(-697.774 -268.668)" fill="#a0616a"/>
    <path id="Pfad_14" data-name="Pfad 14" d="M807.174,293.424c-.091.814-.712,1.47-.942,2.256a3.733,3.733,0,0,0,1.071,3.374,7.472,7.472,0,0,0,5.2,2.471,2.22,2.22,0,0,0,.86-.094,1.842,1.842,0,0,0,.655-.447,4.184,4.184,0,0,0,1.08-2.341,12.461,12.461,0,0,0,.029-2.617,1.477,1.477,0,0,0-.1-.528,1.352,1.352,0,0,0-.34-.418,7.917,7.917,0,0,0-1.458-1.059,1.673,1.673,0,0,1-.611-.467,1.51,1.51,0,0,1-.189-.56l-.161-.821a1.613,1.613,0,0,0-.237-.665,1.637,1.637,0,0,0-1.306-.455l-1.749-.069a8.429,8.429,0,0,0-1.792-.07c-.5.1-.331.557-.241.973A7.033,7.033,0,0,1,807.174,293.424Z" transform="translate(-697.774 -268.668)" opacity="0.1"/>
    <path id="Pfad_15" data-name="Pfad 15" d="M835.42,526.162l-.743,8.149c-.194,2.137-.392,4.283-.772,6.393-.131.727-.285,1.45-.468,2.167a46.114,46.114,0,0,0-1.483,5.978c-.008.059-.014.119-.02.179a5.2,5.2,0,0,1-.254,1.326c-.119.312-.3.6-.43.9a5.766,5.766,0,0,0-.322,1.963,8.464,8.464,0,0,0-2.914-1,2.229,2.229,0,0,1-1.381-.5,1.975,1.975,0,0,1-.269-1.58q.295-2.553.588-5.1a13.3,13.3,0,0,1,.372-2.167c.068-.236.149-.469.232-.7.114-.32.229-.641.315-.97a11.676,11.676,0,0,0,.26-1.615c.2-1.712.444-3.42.657-5.13l.011-.09a52.466,52.466,0,0,0,.492-7.81c-.01-.387-.026-.773-.051-1.161-.035-.562-.086-.86.379-1.211a8.751,8.751,0,0,1,1.779-.913c.317-.138,3.8-1.375,3.884-1.1a6.79,6.79,0,0,1,.255,1.779A19.808,19.808,0,0,1,835.42,526.162Z" transform="translate(-714.895 -464.771)" fill="#605d82"/>
    <path id="Pfad_16" data-name="Pfad 16" d="M840.779,608.977c-.131.727-.285,1.45-.468,2.167a46.137,46.137,0,0,0-1.483,5.978c-.008.059-.014.119-.02.179-1.554-2.22-2.863-4.607-4.38-6.851.114-.32.229-.641.315-.97a11.667,11.667,0,0,0,.26-1.615c.2-1.712.444-3.42.657-5.131l.011-.09a5.315,5.315,0,0,0,.379,1.052c1.019,2.07,3.439,3.116,4.622,5.1Q840.729,608.885,840.779,608.977Z" transform="translate(-721.77 -533.045)" opacity="0.1"/>
    <path id="Pfad_17" data-name="Pfad 17" d="M793.21,468.386a38.519,38.519,0,0,0,.582,4.945l.547,3.383a17.326,17.326,0,0,0,1.487,5.4,25,25,0,0,0,2.454,3.412c2.1,2.736,3.678,5.835,5.669,8.651.579.819,1.406,1.7,2.394,1.533a3.889,3.889,0,0,0,1.629-1.068,10.143,10.143,0,0,0,1.8-1.465,1.492,1.492,0,0,0-.075-2.075,3.377,3.377,0,0,0-.733-.3,3.98,3.98,0,0,1-2.044-2.327,22.256,22.256,0,0,0-1.2-2.946c-1.184-1.981-3.6-3.027-4.623-5.1a9.2,9.2,0,0,1-.669-3.788l-.111-3.293a2.4,2.4,0,0,1,.125-1.064c.39-.876,1.566-.958,2.519-1.069a8.617,8.617,0,0,0,3.087-.974,3.22,3.22,0,0,0,1.378-1.224,3.946,3.946,0,0,0,.336-1.659l.33-5.967a3.737,3.737,0,0,0-.127-1.526c-.454-1.208-1.98-1.6-3.27-1.546-2.4.107-4.616,1.14-6.879,1.837a17.494,17.494,0,0,1-1.705.445,13.7,13.7,0,0,0-1.607.223c-.862.29-.84,2.174-.962,2.956A24.891,24.891,0,0,0,793.21,468.386Z" transform="translate(-686.812 -410.653)" fill="#605d82"/>
    <path id="Pfad_18" data-name="Pfad 18" d="M874.832,684.44a1.526,1.526,0,0,1,.336.822,28.063,28.063,0,0,1,.475,4.969.811.811,0,0,0,.089.45.565.565,0,0,0,.234.188,1.8,1.8,0,0,0,1.831-.561,4.724,4.724,0,0,0,1.8-3.194,7.407,7.407,0,0,1,.034-.969,4.042,4.042,0,0,1,.6-1.3,10.954,10.954,0,0,0,.995-2.23c.093-.292.155-.661-.074-.865a.834.834,0,0,0-.272-.141l-2.763-1.026c-.239-.089-.835,1.442-.93,1.609a1.264,1.264,0,0,1-.925.736c-.474.1-1.038-.042-1.48.194C874.034,683.525,874.409,684.013,874.832,684.44Z" transform="translate(-755.627 -599.136)" fill="#535070"/>
    <path id="Pfad_19" data-name="Pfad 19" d="M831.9,709.519a.846.846,0,0,0-.21-.267.951.951,0,0,0-.424-.144,1.656,1.656,0,0,0-1.513.243c-.34.367-.282.964-.566,1.375-.09.13-.212.238-.29.375a1.415,1.415,0,0,0-.127.673c-.015.638-.029,1.276.015,1.913a2.676,2.676,0,0,0,.46,1.51,3.1,3.1,0,0,0,2.357.81l.694.035a1.355,1.355,0,0,0,.569-.052.936.936,0,0,0,.491-.54c.361-.9-.211-1.865-.563-2.766C832.385,711.649,832.457,710.5,831.9,709.519Z" transform="translate(-716.957 -623.27)" fill="#535070"/>
    <path id="Pfad_20" data-name="Pfad 20" d="M798.356,249.98a.573.573,0,0,1,.039-.268c.1-.18.367-.131.567-.08a13.2,13.2,0,0,0,2.482.067,1.961,1.961,0,0,1,1.929,1.275,6.052,6.052,0,0,0,1.53-1.573,1.888,1.888,0,0,0,.4-1.152,2.249,2.249,0,0,0-1.008-1.419l-1.379-1.126a2.08,2.08,0,0,0-.617-.393,3.078,3.078,0,0,0-1-.057c-1,0-2.074-.456-2.967,0a3.2,3.2,0,0,0-.924.841l-1.231,1.457a.779.779,0,0,0-.2.334,1.482,1.482,0,0,0,.088.532c.058.326-.082.673.026.986.179.519.809.592,1.194.89.144.111.369.487.54.482C798.134,250.771,798.348,250.219,798.356,249.98Z" transform="translate(-689.158 -229.81)" fill="#3f3d56"/>
    <circle id="Ellipse_1" data-name="Ellipse 1" cx="3.942" cy="3.942" r="3.942" transform="translate(107.345 16.582)" fill="#a0616a"/>
    <path id="Pfad_21" data-name="Pfad 21" d="M778.567,312.8a1.909,1.909,0,0,0-1.859-1.279.567.567,0,0,1-.343-.043.473.473,0,0,1-.141-.176,6.89,6.89,0,0,1-.575-1.359c-.063-.209-.149-.455-.36-.509a.486.486,0,0,0-.459.2,4.06,4.06,0,0,1-.328.412c-.5.443-1.375.039-1.9.446-.086.066-.157.152-.247.212a1.155,1.155,0,0,1-.289.124,27.75,27.75,0,0,0-2.983,1.168,28.1,28.1,0,0,0,1.529,6.225c.39.939.833,1.858,1.146,2.826a21.928,21.928,0,0,1,.731,6.691,13.94,13.94,0,0,1-.5,4.576,4.315,4.315,0,0,0-.282,1.005,1.042,1.042,0,0,0,.353.937,1.207,1.207,0,0,0,.544.191,7.054,7.054,0,0,0,2.587-.3c2.281-.528,4.608-.831,6.93-1.132l3.891-.505a2.259,2.259,0,0,0,.805-.208,1.543,1.543,0,0,0,.338-2.142,11.607,11.607,0,0,1-.689-.94.873.873,0,0,1,.113-1.07c.624-.488.438-1.392.467-2.183q.125-3.318-.034-6.639a13.2,13.2,0,0,1-.022-1.377,12.191,12.191,0,0,1,.429-2.3l1.182-4.656a2.426,2.426,0,0,0-1.461-.938c-.56-.141-1.144-.182-1.7-.353-1.13-.35-2.137-1.239-3.317-1.156a.6.6,0,0,0-.257.063c-.266.151-.224.534-.241.84a2.32,2.32,0,0,1-1.084,1.637,19.269,19.269,0,0,0-1.68,1.137A.75.75,0,0,0,778.567,312.8Z" transform="translate(-666.357 -283.646)" fill="#3f3d56"/>
    <path id="Pfad_22" data-name="Pfad 22" d="M717.042,357.449a4.656,4.656,0,0,1-.829.427,2.725,2.725,0,0,0-.794.385,1.245,1.245,0,0,0-.276.341,1.517,1.517,0,0,0,1.4,2.261,3.046,3.046,0,0,0,1.035-.309l2.78-1.2a2.186,2.186,0,0,0,1.2-.9.21.21,0,0,0,.027-.144.238.238,0,0,0-.114-.12,6.212,6.212,0,0,1-1.619-1.526c-.114-.155-.254-.521-.415-.613C718.849,355.7,717.513,357.143,717.042,357.449Z" transform="translate(-620.45 -323.883)" fill="#a0616a"/>
    <path id="Pfad_23" data-name="Pfad 23" d="M887.235,359.084l1.025,1.171c.22.251.44.5.641.77a8.991,8.991,0,0,1,1.174,2.212,3.861,3.861,0,0,1,.33,1.828,4.47,4.47,0,0,1-.256.93,11.567,11.567,0,0,1-.7,1.677,9.569,9.569,0,0,1-.784,1.174,27.429,27.429,0,0,1-2.6,2.972,3.386,3.386,0,0,0-.65,1.377,5.749,5.749,0,0,1-1.6,2.177,4.447,4.447,0,0,1-.686.591,2.235,2.235,0,0,1-1.249.356,1.37,1.37,0,0,1-.562-.116,1.454,1.454,0,0,1-.714-1.211,2.577,2.577,0,0,1,.216-1.3c.588-1.3,2.1-1.868,3.166-2.818a10.285,10.285,0,0,0,1.577-1.95,6.744,6.744,0,0,0,.8-1.4c.238-.636.146-1.389.354-2.036.088-.273.245-.52.339-.791a.923.923,0,0,0-.047-.828,1.2,1.2,0,0,0-.464-.34c-.682-.346-1.446-.792-1.576-1.545a1.655,1.655,0,0,1,.305-1.18,4.916,4.916,0,0,1,.86-.9C886.435,359.644,886.936,359.348,887.235,359.084Z" transform="translate(-760.922 -326.507)" fill="#a0616a"/>
    <path id="Pfad_24" data-name="Pfad 24" d="M698.029,370.548a1.9,1.9,0,0,0-.772-.92,1.423,1.423,0,0,0-1.123,0,4.222,4.222,0,0,0-.985.6l-.883.651a2.176,2.176,0,0,0-.525.484,2.045,2.045,0,0,0-.273.75,5.358,5.358,0,0,0-.139,1.854,5.27,5.27,0,0,0,1.4,2.624,2.333,2.333,0,0,0,1.552.972.712.712,0,0,0,.686-.345.86.86,0,0,0,.061-.307,6.85,6.85,0,0,0-.793-3.209,2.057,2.057,0,0,1-.256-.862.237.237,0,0,1,.038-.144.245.245,0,0,1,.151-.074c.634-.125,1.727.367,2.172-.337C698.629,371.819,698.234,370.963,698.029,370.548Z" transform="translate(-602.095 -335.348)" fill="#a0616a"/>
    <path id="Pfad_25" data-name="Pfad 25" d="M797,241.82a.573.573,0,0,1,.039-.268c.1-.18.367-.131.567-.08a13.194,13.194,0,0,0,2.482.067,1.961,1.961,0,0,1,1.929,1.275,6.052,6.052,0,0,0,1.53-1.573,1.888,1.888,0,0,0,.4-1.152,2.249,2.249,0,0,0-1.008-1.419l-1.379-1.126a2.078,2.078,0,0,0-.617-.393,3.077,3.077,0,0,0-1-.057c-1,0-2.074-.456-2.967,0a3.2,3.2,0,0,0-.924.841l-1.231,1.457a.778.778,0,0,0-.2.334,1.481,1.481,0,0,0,.088.532c.058.326-.082.673.026.986.179.519.809.592,1.194.89.144.111.369.487.54.482C796.775,242.611,796.988,242.06,797,241.82Z" transform="translate(-688.004 -222.89)" fill="#3f3d56"/>
    <path id="Pfad_26" data-name="Pfad 26" d="M743.471,333.052a1.6,1.6,0,0,0-.413.384c-.144.218-.174.494-.3.725-.266.494-.887.669-1.275,1.074a.4.4,0,0,0-.122.21.468.468,0,0,0,.1.3l1.869,2.938c.622.055,1.219-.335,1.842-.283a1.851,1.851,0,0,0,.693.031,1.988,1.988,0,0,0,.445-.272c.371-.235.866-.262,1.178-.572a1.613,1.613,0,0,0,.334-1.184,4.762,4.762,0,0,0-.111-1.09,13.376,13.376,0,0,0-1.679-2.993c-.263-.486-.406-.771-.964-.437S744,332.667,743.471,333.052Z" transform="translate(-642.851 -303.32)" fill="#3f3d56"/>
    <path id="Pfad_27" data-name="Pfad 27" d="M886.654,325.055a4.372,4.372,0,0,1,.94.824c.285.367.446.817.72,1.192a13.271,13.271,0,0,0,.927.981,7.577,7.577,0,0,1,1.068,1.741,26.014,26.014,0,0,1-2.418,2.733.78.78,0,0,1-.367.241.592.592,0,0,1-.519-.212c-.135-.141-.23-.315-.359-.462a1.849,1.849,0,0,0-1.143-.553,7.85,7.85,0,0,0-1.295-.018.512.512,0,0,1-.276-.046.464.464,0,0,1-.151-.173,4.272,4.272,0,0,1-.165-2.925l.41-2.255a5.066,5.066,0,0,1,.341-1.253c.155-.332.5-.894.929-.795S886.292,324.795,886.654,325.055Z" transform="translate(-763.333 -296.809)" fill="#3f3d56"/>
    <ellipse id="Ellipse_2" data-name="Ellipse 2" cx="6.232" cy="6.244" rx="6.232" ry="6.244" transform="translate(42.098 30.566)" fill="#fff"/>
    <path id="Pfad_28" data-name="Pfad 28" d="M369.678,338.851a7.448,7.448,0,1,0,7.448,7.448A7.448,7.448,0,0,0,369.678,338.851Zm-1.529,11.419-3.817-3.817,1.071-1.071,2.75,2.75,5.8-5.8,1.071,1.071-6.879,6.872Z" transform="translate(-321.347 -309.349)" fill="#57b894"/>
  </g>
</svg>
