<svg xmlns="http://www.w3.org/2000/svg" width="169.925" height="117.684" viewBox="0 0 169.925 117.684"><g transform="translate(0)"><path d="M680.723,457.858c0,10.65-6.331,14.369-14.142,14.369s-14.142-3.719-14.142-14.369,14.142-24.2,14.142-24.2S680.723,447.208,680.723,457.858Z" transform="translate(-559.227 -377.388)" fill="#049ce7"/><path d="M648.776,385.685l6.028-11.027-6,9.629.065-4.008,4.154-7.978-4.137,6.917.117-7.208,4.448-6.351-4.43,5.218.073-13.217-.44,16.748-4.5-6.9,4.45,8.308-.422,8.05-.012-.214-5.214-7.285,5.2,8.04-.053,1.007-.01.015,0,.083-1.069,10.743h1.428l.172-.868,5.185-8.02-5.172,7.227Z" transform="translate(-541.792 -301.389)" fill="#3f3d56"/><path d="M850.646,122.225c0,20.345-12.095,27.448-27.014,27.448s-27.014-7.1-27.014-27.448S823.633,76,823.633,76,850.646,101.88,850.646,122.225Z" transform="translate(-680.721 -75.999)" fill="#f2f2f2"/><path d="M843.941,70.562l.277-17.027,11.514-21.064L844.261,50.865l.124-7.656,7.935-15.24-7.9,13.214h0l.224-13.769,8.5-12.133-8.462,9.968L844.817,0l-.878,33.424.072-1.379-8.639-13.224,8.5,15.871-.8,15.378-.024-.408-9.96-13.916,9.93,15.358-.1,1.923-.018.029.008.158-2.042,39.015h2.729l.327-20.152,9.905-15.321Z" transform="translate(-702.014 0)" fill="#3f3d56"/><path d="M228.793,633.919c0,6.072-39.391,28.862-85.439,28.862s-83.378-11.794-83.378-17.867,36.413,1.145,82.461,1.145S228.793,627.846,228.793,633.919Z" transform="translate(-59.976 -545.096)" fill="#3f3d56"/><path d="M228.793,633.919c0,6.072-39.391,28.862-85.439,28.862s-83.378-11.794-83.378-17.867,36.413,1.145,82.461,1.145S228.793,627.846,228.793,633.919Z" transform="translate(-59.976 -545.096)" opacity="0.1"/><path d="M228.793,630.98c0,6.072-39.391,21.99-85.439,21.99s-83.378-4.923-83.378-10.995,36.413-5.727,82.461-5.727S228.793,624.908,228.793,630.98Z" transform="translate(-59.976 -542.157)" fill="#3f3d56"/><ellipse cx="35.407" cy="2.739" rx="35.407" ry="2.739" transform="translate(48.904 98.233)" opacity="0.1"/><path d="M413.976,368.965s10.366.192,8.446,2.016-9.118,0-9.118,0Z" transform="translate(-357.714 -322.872)" fill="#a0616a"/><path d="M266.961,227.805s4.185-.747,5.64,2.631,4.444,13.014,4.444,13.014,8,5.294,9.452,5.12,3.941.181,3.485,1.768-.254,3.387-1.3,3.607-2.72-1.885-4-.871-12.67-2.69-13.4-3.457-6.809-17.385-6.809-17.385S264.713,227.751,266.961,227.805Z" transform="translate(-232.296 -203.862)" fill="#049ce7"/><path d="M246.022,605.607l.48,4.031-4.031,1.056-2.3-1.056v-3.551Z" transform="translate(-202.381 -510.326)" fill="#a0616a"/><path d="M177.088,622.078l.48,4.031-4.031,1.056-2.3-1.056v-3.551Z" transform="translate(-144.293 -524.206)" fill="#a0616a"/><path d="M247.95,395.946l1.824,6.622,2.687,13.437a13.232,13.232,0,0,1-.768,7.2c-1.536,3.935-4.319,16.8-3.743,17.564s-6.526,1.344-6.43.576,1.056-11.325,1.056-11.325,1.344-9.31,2.016-10.461-3.071-4.031-3.071-4.031-.96,11.037-2.4,12-1.248,15.836-1.92,16.028-5.567.96-6.143,0,0-16.988,0-16.988,3.263-12.189,2.591-13.917-.288-9.118-.288-9.118-2.5-5.663-1.152-8.638Z" transform="translate(-203.926 -344.719)" fill="#2f2e41"/><path d="M283.475,142.115s-4.031,4.991-3.839,7.2-6.335-4.031-6.335-4.031,4.7-6.334,4.7-7.678S283.475,142.115,283.475,142.115Z" transform="translate(-239.739 -127.743)" fill="#a0616a"/><circle cx="6.334" cy="6.334" r="6.334" transform="translate(37.354 3.575)" fill="#a0616a"/><path d="M232.841,210.381a11.634,11.634,0,0,0-.592,3.3c.033.661,1.788,1.1,4.215,1.379,2.251.264,5.079.4,7.65.467,2.7.073,5.114.073,6.274.073,3.455,0,.672-2.207-.672-3.263s-1.056-16.028-.96-17.948-.864-7.486-.864-8.542-2.258-3.811-2.258-3.811-.525,1.508-2.637-.508a11.222,11.222,0,0,0-4.895-2.591c-2.111.768-5.663,9.214-5.855,10.653-.078.585-.013,3.578.117,7,.189,5,.519,10.9.747,11.528A4.567,4.567,0,0,1,232.841,210.381Z" transform="translate(-205.116 -162.744)" fill="#049ce7"/><path d="M226.479,338.413l.672,2.4L224.56,343.5l-.864-3.743Z" transform="translate(-188.502 -285.17)" fill="#a0616a"/><path d="M294.838,691.264s2.016,2.3,3.551.768,1.44-2.5,1.728-2.5,4.607,3.839,4.607,3.839,7.39,1.728,3.359,2.975-15.452.384-15.452,0-.288-5.471.768-5.471Z" transform="translate(-255.996 -593.008)" fill="#2f2e41"/><path d="M225.9,707.735s2.016,2.3,3.551.768,1.44-2.5,1.728-2.5,4.607,3.839,4.607,3.839,7.39,1.728,3.359,2.975-15.452.384-15.452,0-.288-5.471.768-5.471Z" transform="translate(-197.908 -606.887)" fill="#2f2e41"/><path d="M279.142,93.487c-.2.132-.471.266-.676.134a30.63,30.63,0,0,1-1.7-5.885,2.883,2.883,0,0,1,.174-2.1,5.142,5.142,0,0,0,.492-.692,4.68,4.68,0,0,0,.116-1.275,2.523,2.523,0,0,1,1.81-1.815,23.831,23.831,0,0,0,2.576-.791,19.586,19.586,0,0,0,2.093-1.472,2.693,2.693,0,0,1,2.415-.477c.7.283,1.137,1,1.8,1.361a5.25,5.25,0,0,0,1.473.421,9.427,9.427,0,0,1,3.829,1.779,2.78,2.78,0,0,1,.7.718c.85,1.4-.672,3.3,0,4.8l-1.452-1.145a5.055,5.055,0,0,0-1.3-.824,1.709,1.709,0,0,0-1.487.067,3.086,3.086,0,0,0-.993,1.865c-.214.689-.688,1.453-1.409,1.436-.981-.024-1.324-1.393-2.2-1.827a1.7,1.7,0,0,0-1.786.316,3.662,3.662,0,0,0-1,1.612,4.4,4.4,0,0,1-.5,1.127c-.264.36-.6.389-.882.658A13.865,13.865,0,0,1,279.142,93.487Z" transform="translate(-242.565 -78.521)" fill="#2f2e41"/><path d="M233.648,243.929a44.727,44.727,0,0,0,3.623,4.682c2.251.264,5.079.4,7.65.467a6.061,6.061,0,0,0-1.692-1.559c-1.248-.768-4.223-9.886-4.223-9.886s3.647-9.406,4.607-12.957-2.783-5.567-2.783-5.567c-1.728-1.44-4.7,1.919-4.7,1.919s-1.518,4.58-2.954,9.107c.189,5,.519,10.9.747,11.528A4.567,4.567,0,0,1,233.648,243.929Z" transform="translate(-205.924 -196.292)" opacity="0.1"/><path d="M225.515,214.231s3.743,2.016,2.783,5.567-4.607,12.957-4.607,12.957,2.975,9.118,4.223,9.886,2.975,2.591,1.632,3.551-2.3,2.5-3.263,2.016-.96-3.167-2.591-3.167-8.254-9.982-8.35-11.037,5.471-17.852,5.471-17.852S223.787,212.791,225.515,214.231Z" transform="translate(-190.896 -192.18)" fill="#049ce7"/><path d="M482.669,371.84l-1.08-1.08a3.358,3.358,0,0,0-4.749,0L455.9,391.7,434.954,370.76a3.358,3.358,0,0,0-4.749,0l-1.08,1.08a3.358,3.358,0,0,0,0,4.749l20.943,20.943-20.943,20.943a3.358,3.358,0,0,0,0,4.749l1.08,1.08a3.358,3.358,0,0,0,4.749,0L455.9,403.361,476.84,424.3a3.358,3.358,0,0,0,4.749,0l1.08-1.08a3.358,3.358,0,0,0,0-4.749l-20.943-20.943,20.943-20.943a3.358,3.358,0,0,0,0-4.749Z" transform="translate(-370.217 -323.556)" fill="#ff6584"/><path d="M429.643,576.656l20.321-20.321-.2-.2L430.39,575.517A3.345,3.345,0,0,0,429.643,576.656Z" transform="translate(-371.483 -480.598)" opacity="0.1"/><path d="M430.1,372.52a3.358,3.358,0,0,1,4.749,0l20.943,20.943,20.943-20.943a3.358,3.358,0,0,1,4.749,0l1.08,1.08a3.358,3.358,0,0,1,.747,3.611l.622-.622a3.358,3.358,0,0,0,0-4.749l-1.08-1.08a3.358,3.358,0,0,0-4.749,0L457.162,391.7,436.219,370.76a3.358,3.358,0,0,0-4.749,0l-1.08,1.08a3.344,3.344,0,0,0-.747,1.139Z" transform="translate(-371.482 -323.556)" opacity="0.1"/><path d="M634.468,547.436,632.9,549l20.943,20.943a3.358,3.358,0,0,1,.747,3.611l.622-.622a3.358,3.358,0,0,0,0-4.749Z" transform="translate(-542.764 -473.264)" opacity="0.1"/><path d="M89.162,528.545c0,8.845-5.258,11.934-11.745,11.934s-11.745-3.088-11.745-11.934,11.745-20.1,11.745-20.1S89.162,519.7,89.162,528.545Z" transform="translate(-64.776 -440.409)" fill="#049ce7"/><path d="M52.466,455.724l5.006-9.158-4.987,8,.054-3.329,3.45-6.626-3.436,5.745.1-5.987,3.694-5.275-3.679,4.334.061-10.977-.365,13.91-3.741-5.727,3.7,6.9-.35,6.686-.01-.177-4.33-6.051,4.317,6.677-.044.836-.008.013,0,.069-.888,8.922h1.186l.142-.721,4.306-6.661-4.3,6Z" transform="translate(-40.132 -364.41)" fill="#3f3d56"/></g></svg>