<svg xmlns="http://www.w3.org/2000/svg" width="272.297" height="170.279" viewBox="0 0 272.297 170.279"><path d="M874.8,496.974a3.617,3.617,0,0,1,1.762-5.259l-.511-12.844,5.719,3.453-.391,11.668a3.637,3.637,0,0,1-6.578,2.983Z" transform="translate(-639.457 -383.345)" fill="#a0616a"/><path d="M860.189,436.486l-5.084.812a1.619,1.619,0,0,1-1.86-1.385l-2.151-16.2L840.467,405.17a4.885,4.885,0,0,1,1.314-7h0a4.885,4.885,0,0,1,6.746,1.486l10.854,16.986,2.16,18.051a1.633,1.633,0,0,1,0,.347,1.614,1.614,0,0,1-1.357,1.444Z" transform="translate(-617.214 -331.184)" fill="#049ce7"/><path d="M615.141,429.586h-4.41l-2.1-17.011h6.509Z" transform="translate(-389.693 -264.162)" fill="#a0616a"/><path d="M596.176,456.36h8.505v5.355h-13.86A5.355,5.355,0,0,1,596.176,456.36Z" transform="translate(-378.289 -292.196)" fill="#2f2e41"/><path d="M650.723,416.257l-3.3,2.931-12.283-12.111,4.272-3.53Z" transform="translate(-406.668 -258.381)" fill="#a0616a"/><path d="M5.355,0H13.86V5.355H0A5.355,5.355,0,0,1,5.355,0Z" transform="translate(233.569 165.518) rotate(-41.654)" fill="#2f2e41"/><path d="M720,402.609a3.617,3.617,0,0,1,4.433,3.333l12.348,3.572L731.7,413.85l-10.947-4.057a3.637,3.637,0,0,1-.752-7.184Z" transform="translate(-538.868 -334.457)" fill="#a0616a"/><circle cx="8.835" cy="8.835" r="8.835" transform="translate(210.793 38.155)" fill="#a0616a"/><path d="M833.123,562.569l-6.138-.491a1.618,1.618,0,0,1-1.489-1.56l-1.713-51.74a1.615,1.615,0,0,1,1.394-1.657l12.238-1.708a1.619,1.619,0,0,1,1.819,1.876l-4.683,27.429a1.267,1.267,0,0,0-.018.228l.338,25.988a1.619,1.619,0,0,1-1.62,1.64C833.208,562.574,833.166,562.572,833.123,562.569Z" transform="translate(-607.134 -400.33)" fill="#2f2e41"/><path d="M833.333,556.062l-21.087-23.468a1.621,1.621,0,0,1-.406-1.253l2.663-24.967a1.616,1.616,0,0,1,1.717-1.443l12.941.863a1.619,1.619,0,0,1,1.426,2.133l-7.754,22.939a1.255,1.255,0,0,0,.287,1.277l17.912,18.563a1.619,1.619,0,0,1-.341,2.518l-5.331,3.15A1.623,1.623,0,0,1,833.333,556.062Z" transform="translate(-599.483 -400.029)" fill="#2f2e41"/><path d="M818.249,378.513s5.4-4.676,7.914-2.158c0,0,11.691,7.374,6.655,27.519,0,0,4.317,19.425,2.518,20.145s-19.965,3.417-21.4,1.259S811.774,390.024,818.249,378.513Z" transform="translate(-600.204 -317.23)" fill="#049ce7"/><path d="M740.264,414.106l.835-5.08A1.619,1.619,0,0,1,743,407.7l16.048,3.076,17.157-5.49a4.885,4.885,0,0,1,6.224,3.457h0a4.885,4.885,0,0,1-3.541,5.931l-19.545,4.933-17.81-3.652a1.637,1.637,0,0,1-.331-.105A1.614,1.614,0,0,1,740.264,414.106Z" transform="translate(-553.645 -336.082)" fill="#049ce7"/><path d="M820.234,327.877c.807-1.869,1.491-4.357-.058-5.678-.9-.766-2.192-.768-3.369-.863-3.316-.269-6.729-1.794-8.349-4.7s-.716-7.225,2.342-8.536c2.061-.883,4.424-.282,6.581.33l6.477,1.837c1.925.546,3.945,1.148,5.331,2.591,2.21,2.3,2.044,6.191.289,8.856s-4.4,5.443-7.424,6.454Z" transform="translate(-596.815 -273.721)" fill="#2f2e41"/><path d="M818.051,685.4H728.84a.36.36,0,1,1,0-.719h89.211a.36.36,0,1,1,0,.719Z" transform="translate(-546.114 -515.12)" fill="#3f3d56"/><path d="M399.223,213.32H224.038a2.521,2.521,0,0,0-2.518,2.518v129.5a2.521,2.521,0,0,0,2.518,2.518H399.223a2.521,2.521,0,0,0,2.518-2.518v-129.5A2.521,2.521,0,0,0,399.223,213.32Zm1.8,132.019a1.8,1.8,0,0,1-1.8,1.8H224.038a1.8,1.8,0,0,1-1.8-1.8v-129.5a1.8,1.8,0,0,1,1.8-1.8H399.223a1.8,1.8,0,0,1,1.8,1.8Z" transform="translate(-221.52 -213.32)" fill="#3f3d56"/><rect width="179.502" height="0.719" transform="translate(0.36 10.087)" fill="#3f3d56"/><circle cx="2.163" cy="2.163" r="2.163" transform="translate(4.326 2.884)" fill="#3f3d56"/><circle cx="2.158" cy="2.158" r="2.158" transform="translate(10.522 3.238)" fill="#3f3d56"/><circle cx="2.158" cy="2.158" r="2.158" transform="translate(16.727 3.238)" fill="#3f3d56"/><path d="M522.7,497.093a.36.36,0,0,1-.36-.36V481.984a.36.36,0,0,1,.719,0v14.749A.36.36,0,0,1,522.7,497.093Z" transform="translate(-414.13 -385.109)" fill="#3f3d56"/><path d="M484.955,444.148a.358.358,0,0,1-.181-.049l-20.438-11.908a.36.36,0,1,1,.362-.622l20.438,11.908a.36.36,0,0,1-.181.671Z" transform="translate(-376.875 -353.028)" fill="#3f3d56"/><path d="M407.7,444.148a.36.36,0,0,1-.181-.671l20.438-11.908a.36.36,0,0,1,.362.622L407.883,444.1A.359.359,0,0,1,407.7,444.148Z" transform="translate(-340.498 -353.028)" fill="#3f3d56"/><path d="M543.954,494.148a.358.358,0,0,1-.181-.049l-20.438-11.908a.36.36,0,1,1,.362-.622l20.438,11.908a.36.36,0,0,1-.182.671Z" transform="translate(-414.651 -385.042)" fill="#3f3d56"/><path d="M466.7,494.148a.36.36,0,0,1-.181-.671l20.438-11.908a.36.36,0,1,1,.362.622L466.883,494.1A.359.359,0,0,1,466.7,494.148Z" transform="translate(-378.274 -385.042)" fill="#3f3d56"/><path d="M464.643,391.046a.36.36,0,0,1-.36-.359L464.25,377.6a.36.36,0,0,1,.359-.361h0a.36.36,0,0,1,.36.359L465,390.686a.36.36,0,0,1-.359.361Z" transform="translate(-376.934 -318.272)" fill="#3f3d56"/><path d="M458.715,420.211h-9.372a1.621,1.621,0,0,1-1.619-1.619v-4.814a1.621,1.621,0,0,1,1.619-1.619h9.372a1.621,1.621,0,0,1,1.619,1.619v4.814A1.621,1.621,0,0,1,458.715,420.211Z" transform="translate(-366.353 -340.632)" fill="#ccc"/><path d="M399.025,365.24H379.084a.36.36,0,0,1,0-.719h19.941a.36.36,0,1,1,0,.719Z" transform="translate(-322.174 -310.13)" fill="#3f3d56"/><path d="M464.61,328.8a.36.36,0,0,1-.36-.36V315.984a.36.36,0,1,1,.719,0v12.451A.36.36,0,0,1,464.61,328.8Z" transform="translate(-376.934 -278.823)" fill="#3f3d56"/><path d="M323.06,344.818a.358.358,0,0,1-.183-.05l-19.359-11.474a.36.36,0,1,1,.367-.619l19.359,11.474a.36.36,0,0,1-.184.669Z" transform="translate(-273.909 -289.708)" fill="#3f3d56"/><path d="M303.7,376.714a.36.36,0,0,1-.184-.669l19.359-11.474a.36.36,0,1,1,.367.619l-19.359,11.474A.358.358,0,0,1,303.7,376.714Z" transform="translate(-273.909 -310.13)" fill="#3f3d56"/><path d="M364.275,360.208h-4.814a1.621,1.621,0,0,1-1.619-1.619v-9.371a1.621,1.621,0,0,1,1.619-1.619h4.814a1.621,1.621,0,0,1,1.619,1.619v9.371A1.621,1.621,0,0,1,364.275,360.208Z" transform="translate(-308.804 -299.295)" fill="#ccc"/><path d="M458.715,304.985h-9.372a1.621,1.621,0,0,1-1.619-1.619v-4.814a1.621,1.621,0,0,1,1.619-1.619h9.372a1.621,1.621,0,0,1,1.619,1.619v4.814a1.621,1.621,0,0,1-1.619,1.619Z" transform="translate(-366.353 -266.856)" fill="#ccc"/><path d="M289.275,329.208h-4.814a1.621,1.621,0,0,1-1.619-1.619v-9.371a1.621,1.621,0,0,1,1.619-1.619h4.814a1.621,1.621,0,0,1,1.619,1.619v9.371A1.621,1.621,0,0,1,289.275,329.208Z" transform="translate(-260.783 -279.447)" fill="#ccc"/><path d="M289.275,392.208h-4.814a1.621,1.621,0,0,1-1.619-1.619v-9.371a1.621,1.621,0,0,1,1.619-1.619h4.814a1.621,1.621,0,0,1,1.619,1.619v9.371A1.621,1.621,0,0,1,289.275,392.208Z" transform="translate(-260.783 -319.784)" fill="#ccc"/><path d="M514.643,365.24H494.7a.36.36,0,1,1,0-.719h19.941a.36.36,0,1,1,0,.719Z" transform="translate(-396.202 -310.13)" fill="#3f3d56"/><path d="M571.7,344.818a.36.36,0,0,1-.184-.669l19.359-11.474a.36.36,0,0,1,.367.619l-19.359,11.474a.358.358,0,0,1-.183.05Z" transform="translate(-445.503 -289.708)" fill="#3f3d56"/><path d="M591.06,376.714a.358.358,0,0,1-.183-.05L571.519,365.19a.36.36,0,0,1,.367-.619l19.359,11.474a.36.36,0,0,1-.184.669Z" transform="translate(-445.503 -310.13)" fill="#3f3d56"/><path d="M556.709,360.208h-4.814a1.621,1.621,0,0,1-1.619-1.619v-9.371a1.621,1.621,0,0,1,1.619-1.619h4.814a1.621,1.621,0,0,1,1.619,1.619v9.371A1.621,1.621,0,0,1,556.709,360.208Z" transform="translate(-432.015 -299.296)" fill="#ccc"/><path d="M631.709,329.208h-4.814a1.621,1.621,0,0,1-1.619-1.619v-9.371a1.621,1.621,0,0,1,1.619-1.619h4.814a1.621,1.621,0,0,1,1.619,1.619v9.371A1.621,1.621,0,0,1,631.709,329.208Z" transform="translate(-480.035 -279.447)" fill="#ccc"/><path d="M631.709,392.208h-4.814a1.621,1.621,0,0,1-1.619-1.619v-9.371a1.621,1.621,0,0,1,1.619-1.619h4.814a1.621,1.621,0,0,1,1.619,1.619v9.371A1.621,1.621,0,0,1,631.709,392.208Z" transform="translate(-480.035 -319.784)" fill="#ccc"/><path d="M400.714,471.211h-9.372a1.621,1.621,0,0,1-1.619-1.619v-4.814a1.621,1.621,0,0,1,1.619-1.619h9.372a1.621,1.621,0,0,1,1.619,1.619v4.814A1.621,1.621,0,0,1,400.714,471.211Z" transform="translate(-329.217 -373.286)" fill="#ccc"/><path d="M516.529,471.21h-9.372a1.621,1.621,0,0,1-1.619-1.619v-4.814a1.621,1.621,0,0,1,1.619-1.619h9.372a1.621,1.621,0,0,1,1.619,1.619v4.814A1.621,1.621,0,0,1,516.529,471.21Z" transform="translate(-403.371 -373.286)" fill="#ccc"/><path d="M463.529,520.211h-9.372a1.621,1.621,0,0,1-1.619-1.619v-4.814a1.621,1.621,0,0,1,1.619-1.619h9.372a1.621,1.621,0,0,1,1.619,1.619v4.814A1.621,1.621,0,0,1,463.529,520.211Z" transform="translate(-369.436 -404.66)" fill="#ccc"/><path d="M574.529,520.211h-9.372a1.621,1.621,0,0,1-1.619-1.619v-4.814a1.621,1.621,0,0,1,1.619-1.619h9.372a1.621,1.621,0,0,1,1.619,1.619v4.814A1.621,1.621,0,0,1,574.529,520.211Z" transform="translate(-440.507 -404.66)" fill="#ccc"/><path d="M516.529,520.211h-9.372a1.621,1.621,0,0,1-1.619-1.619v-4.814a1.621,1.621,0,0,1,1.619-1.619h9.372a1.621,1.621,0,0,1,1.619,1.619v4.814A1.621,1.621,0,0,1,516.529,520.211Z" transform="translate(-403.371 -404.66)" fill="#ccc"/><path d="M453.484,360.64H430.7a1.621,1.621,0,0,1-1.619-1.619v-9.278a1.621,1.621,0,0,1,1.619-1.619h22.784a1.621,1.621,0,0,1,1.619,1.619v9.278a1.621,1.621,0,0,1-1.619,1.619Z" transform="translate(-354.416 -299.632)" fill="#049ce7"/></svg>