<svg xmlns="http://www.w3.org/2000/svg" width="263.131" height="210.14" viewBox="0 0 263.131 210.14"><g transform="translate(-0.003)"><path d="M896.023,689.929a1.172,1.172,0,0,1,.066-.1,2.011,2.011,0,0,1,.22-.39l7.268-10.168,5.988-8.374H919.78l-.722,1.008-1.286,1.8-3.983,5.569-8.536,11.939,7.912,15.893c.324.647-.228,1.577-1.225,2.074l-3.816,1.9a2.806,2.806,0,0,1-1.222.306,1.24,1.24,0,0,1-1.173-.578l-9.836-19.758a1.145,1.145,0,0,1,.13-1.124Z" transform="translate(-678.787 -502.019)" fill="#049ce7"/><path d="M915.806,696.305l-10.29-3.823a1.88,1.88,0,0,1-1.106-2.414l3.018-8.123a1.88,1.88,0,0,1,2.414-1.106l10.29,3.823a1.88,1.88,0,0,1,1.106,2.414L918.22,695.2a1.877,1.877,0,0,1-2.414,1.106Z" transform="translate(-684.826 -509.004)" fill="#2f2e41"/><path d="M912.44,691.58a.576.576,0,0,1-.2-.037h0a.579.579,0,0,1-.336-.745l3.778-10a.578.578,0,1,1,1.081.408l-3.778,10A.579.579,0,0,1,912.44,691.58Z" transform="translate(-690.209 -508.794)" fill="#fff"/><path d="M971.337,711.686V675.575a.576.576,0,0,1,.006-.1,2.15,2.15,0,0,1,1.376-1.917,2.111,2.111,0,0,1,.784-.149h4.264a2.169,2.169,0,0,1,2.167,2.167v36.111a2.169,2.169,0,0,1-2.167,2.167H973.5a2.169,2.169,0,0,1-2.167-2.166Z" transform="translate(-732.502 -503.804)" fill="#049ce7"/><path d="M963.328,701.943v-8.666a1.88,1.88,0,0,1,1.878-1.878h10.977a1.88,1.88,0,0,1,1.878,1.878v8.666a1.88,1.88,0,0,1-1.878,1.878H965.205A1.88,1.88,0,0,1,963.328,701.943Z" transform="translate(-726.807 -516.597)" fill="#2f2e41"/><path d="M990.98,702.076a.578.578,0,0,1-.578-.578V690.81a.578.578,0,0,1,1.156,0V701.5A.578.578,0,0,1,990.98,702.076Z" transform="translate(-746.061 -515.768)" fill="#fff"/><path d="M843.429,526.337l-31.584-16.283a2.171,2.171,0,0,1-.932-2.919l1.953-3.79a2.171,2.171,0,0,1,2.918-.931L847.369,518.7a2.053,2.053,0,0,1,.438.3,2.158,2.158,0,0,1,.493,2.616l-1.953,3.79a2.16,2.16,0,0,1-1.267,1.071,2.246,2.246,0,0,1-.664.1A2.149,2.149,0,0,1,843.429,526.337Z" transform="translate(-618.249 -382.033)" fill="#049ce7"/><path d="M885.449,546.284l-15.356-6.063a2.169,2.169,0,0,1-.967-2.905l3.5-7.217a2.164,2.164,0,0,1,2.928-.951l13.867,8.406a.631.631,0,0,1,.148.1,3.657,3.657,0,0,1,.671,1.695l.022.1c.039.164.072.306.106.406l.011.038c.012.041.025.082.033.121a2.157,2.157,0,0,1-.167,1.489l-1.912,3.81a2.191,2.191,0,0,1-1.943,1.2A2.079,2.079,0,0,1,885.449,546.284Z" transform="translate(-659.655 -401.043)" fill="#2f2e41"/><circle cx="15.46" cy="15.46" r="15.46" transform="translate(221.661 94.543)" fill="#049ce7"/><path d="M958.714,471.7l.016-.578a4.778,4.778,0,0,1-2.734-.618,1.776,1.776,0,0,1-.688-1.308,1.015,1.015,0,0,1,.333-.836,1.75,1.75,0,0,1,1.787-.016l.478.219-.917-6.7-.572.078.78,5.7a2.039,2.039,0,0,0-1.929.278,1.58,1.58,0,0,0-.537,1.3,2.349,2.349,0,0,0,.924,1.754A5.317,5.317,0,0,0,958.714,471.7Z" transform="translate(-720.691 -353.368)" fill="#2f2e41"/><rect width="3.112" height="0.578" transform="translate(229.785 109.067)" fill="#2f2e41"/><rect width="3.112" height="0.578" transform="translate(239.606 109.067)" fill="#2f2e41"/><path d="M912.145,579.5c-1.021-.059-1.817-1.738-1.817-3.843V548.6a15.7,15.7,0,0,1,.493-3.907h0c.119-.459.26-.915.42-1.355a15.559,15.559,0,0,1,4.918-6.9c.254-.207.519-.407.788-.6a15.5,15.5,0,0,1,4.278-2.119,2.706,2.706,0,0,1-.064-.58A2.747,2.747,0,0,1,923.9,530.4h4.044a2.747,2.747,0,0,1,2.744,2.744,2.712,2.712,0,0,1-.064.578,15.608,15.608,0,0,1,10.9,14.876v27.059c0,2.159-.825,3.85-1.878,3.85H912.205a.214.214,0,0,1-.061-.007Z" transform="translate(-689.117 -402.105)" fill="#2f2e41"/><path d="M976.265,613.311a2.17,2.17,0,0,1-.284-1.033l-.608-35.529a2.163,2.163,0,0,1,.608-1.543h0a2.165,2.165,0,0,1,1.52-.661l4.264-.072a2.165,2.165,0,0,1,2.189,1.913,1.7,1.7,0,0,1,.014.214l.61,35.531a2.172,2.172,0,0,1-2.131,2.2l-4.262.074a2.175,2.175,0,0,1-1.921-1.1Z" transform="translate(-735.373 -433.447)" fill="#049ce7"/><path d="M971.572,575.089a2.17,2.17,0,0,1-.279-.927l.182-16.46a2.169,2.169,0,0,1,1.991-2.329l4.25-.333a2.179,2.179,0,0,1,1.451.413c.044.033.087.073.13.1a4.068,4.068,0,0,0,.332.248l.092.065c.611.433,1.3.923,1.337,1.4l2.557,16.06a2.133,2.133,0,0,1-.317,1.307,1.96,1.96,0,0,1-.2.271,1.862,1.862,0,0,1-.208.209,2.145,2.145,0,0,1-1.273.544l-8,.516a2.169,2.169,0,0,1-2.05-1.087Z" transform="translate(-732.472 -419.623)" fill="#2f2e41"/><path d="M918.98,615.408a.578.578,0,0,1-.578-.578V586.81a.578.578,0,0,1,1.155,0v28.02A.578.578,0,0,1,918.98,615.408Z" transform="translate(-694.859 -441.81)" fill="#fff"/><path d="M945.959,406.151,919.1,396.326a1.155,1.155,0,0,1-.688-1.482l.091-.43c2.1-5.733,9.05-9.342,14.783-7.244l8.265,3.023c5.733,2.1,8.225,8.887,6.128,14.62l-.239.649A1.155,1.155,0,0,1,945.959,406.151Z" transform="translate(-694.817 -299.821)" fill="#2f2e41"/><path d="M932.54,418.9c-37.433,1.381-40.7-3.322-29.3-10.718l2.42-4.452,27.731,10.11Z" transform="translate(-679.952 -312.028)" fill="#2f2e41"/><ellipse cx="1.3" cy="2.455" rx="1.3" ry="2.455" transform="translate(240.172 89.499) rotate(-73.27)" fill="#2f2e41"/><path d="M308.3,86.267a48.673,48.673,0,1,0,48.673,48.673A48.726,48.726,0,0,0,308.3,86.267Zm40.27,68.239a44.766,44.766,0,1,1,4.509-19.567A44.825,44.825,0,0,1,348.574,154.507Z" transform="translate(-226.384 -86.267)" fill="#e6e6e6"/><path d="M319.148,347.862a48.876,48.876,0,0,1-44.063-27.808,2.1,2.1,0,0,1,.158-2.089l.026-.038a2.072,2.072,0,0,1,3.576.286,44.621,44.621,0,0,0,78.9,3.231,2.073,2.073,0,0,1,1.808-1.036,2.036,2.036,0,0,1,1.78,1.038l.023.04a2.1,2.1,0,0,1-.011,2.086A49,49,0,0,1,319.148,347.862Z" transform="translate(-237.228 -250.371)" fill="#049ce7"/><path d="M370.165,221.968a5.713,5.713,0,1,1-4.007,1.677,5.637,5.637,0,0,1,4.007-1.677m0-2.434a8.114,8.114,0,1,0,8.109,8.118A8.114,8.114,0,0,0,370.165,219.534Zm16.905-11.6a2.767,2.767,0,0,0,2.781-2.753q0-.014,0-.028a2.738,2.738,0,0,0-2.712-2.764h-.052a2.773,2.773,0,0,0-.052,5.545h.035Zm5.815,14.037a5.713,5.713,0,1,1-4.007,1.677,5.637,5.637,0,0,1,4.007-1.677m0-2.434a8.109,8.109,0,1,0,8.109,8.109A8.109,8.109,0,0,0,392.885,219.534Z" transform="translate(-299.216 -168.843)" fill="#e6e6e6"/><path d="M418.669,224.637H414.5l-2.564-5.224a2.719,2.719,0,0,0-4.3-.574l-6.232,6.006a2.83,2.83,0,0,0-.808,1.947,2.59,2.59,0,0,0,1.608,2.355c3.955,2.277,5.345,2.529,5.345,3.668v5.728a1.391,1.391,0,1,0,2.781,0h0v-7.822c0-1.147-2.642-2.086-4.2-3.3l4.25-4.476c1.625,2.477,2.373,4.476,3.3,4.476h4.989a1.391,1.391,0,1,0,0-2.781Z" transform="translate(-326.626 -179.969)" fill="#e6e6e6"/><path d="M218.18,514.124c-1.2,0-2.19,3.488-2.382,8.061H192.751c-.192-4.573-1.184-8.061-2.382-8.061-1.336,0-2.418,4.331-2.418,9.673s1.083,9.673,2.418,9.673c1.2,0,2.19-3.488,2.382-8.061H215.8c.192,4.573,1.184,8.061,2.382,8.061,1.336,0,2.418-4.331,2.418-9.673S219.516,514.124,218.18,514.124Z" transform="translate(-175.41 -390.531)" fill="#e6e6e6"/><path d="M198.539,461.777a28.821,28.821,0,1,0,3.652,14.033,28.821,28.821,0,0,0-3.652-14.033Zm-25.178,40.554a26.393,26.393,0,1,1,.266,0h-.266Z" transform="translate(-144.542 -342.793)" fill="#e6e6e6"/><path d="M204.651,540.106a28.914,28.914,0,0,1-15.511-4.5,1.3,1.3,0,0,1-.511-.621l-.015-.038A1.272,1.272,0,0,1,189,533.48a1.255,1.255,0,0,1,1.492-.091,26.365,26.365,0,0,0,37.322-34.831,1.256,1.256,0,0,1,.194-1.483,1.274,1.274,0,0,1,1.489-.286l.036.017a1.287,1.287,0,0,1,.582.545,28.964,28.964,0,0,1-25.454,42.755Z" transform="translate(-175.818 -378.114)" fill="#049ce7"/><path d="M540.922,446.957a28.83,28.83,0,1,0-.005,57.66h.005c.187,0,.37,0,.557-.008a28.828,28.828,0,1,0-.557-57.654ZM546.8,501.65a26.523,26.523,0,1,1-5.891-52.388h.016A26.523,26.523,0,0,1,546.8,501.65Z" transform="translate(-405.914 -342.764)" fill="#e6e6e6"/><path d="M540.574,505.955a28.975,28.975,0,0,1-6.134-57.293,1.329,1.329,0,0,1,.522-.007l.06.011a1.283,1.283,0,0,1,.029,2.513,26.382,26.382,0,0,0,5.527,52.177c.255,0,.5,0,.754-.011a1.2,1.2,0,0,1,1.217.937,1.156,1.156,0,0,1-.656,1.34h0q-.255.117-.511.229a1.185,1.185,0,0,1-.458.1C540.808,505.955,540.692,505.955,540.574,505.955Z" transform="translate(-405.566 -343.958)" fill="#049ce7"/><path d="M588.8,502.256a3.524,3.524,0,0,0-3.518,2.4h-2.839l-2.073-6.233a1.168,1.168,0,0,0-1.109-.8h-.022a1.154,1.154,0,0,0-1.095.847L574.9,509.8l-3.817-22.925a1.172,1.172,0,0,0-2.292-.095l-3.868,17.875h-4.335a1.168,1.168,0,0,0,0,2.336h5.255a1.164,1.164,0,0,0,1.131-.883l2.73-13.3,3.744,22.473a1.159,1.159,0,0,0,1.088.971h.066a1.171,1.171,0,0,0,1.124-.847l3.628-12.671,1.146,3.452a1.178,1.178,0,0,0,1.109.8h3.73a3.5,3.5,0,1,0,3.467-4.737Z" transform="translate(-439.575 -370.459)" fill="#e6e6e6"/><path d="M923.609,812.31H870.746a.289.289,0,1,1,0-.578h52.862a.289.289,0,0,1,0,.578Z" transform="translate(-660.764 -602.171)" fill="#3f3d56"/></g></svg>