<svg xmlns="http://www.w3.org/2000/svg" xmlns:xlink="http://www.w3.org/1999/xlink" width="263.131" height="152.793" viewBox="0 0 263.131 152.793"><defs><linearGradient id="a" x1="0.5" y1="1" x2="0.5" y2="-0.001" gradientUnits="objectBoundingBox"><stop offset="0" stop-color="gray" stop-opacity="0.251"/><stop offset="0.54" stop-color="gray" stop-opacity="0.122"/><stop offset="1" stop-color="gray" stop-opacity="0.102"/></linearGradient></defs><g transform="translate(0 -0.043)"><g transform="translate(168.988 0.043)" opacity="0.1"><ellipse cx="5.085" cy="6.655" rx="5.085" ry="6.655" transform="translate(19.389 137.223)" fill="#3f3d56"/><path d="M855.926,583.633A8.02,8.02,0,0,0,857,579.565c0-3.683-2.277-6.655-5.085-6.655s-5.083,2.979-5.083,6.655a8.018,8.018,0,0,0,1.061,4.068,8.322,8.322,0,0,0,0,8.133,8.327,8.327,0,0,0,0,8.136,8.018,8.018,0,0,0-1.061,4.068c0,3.683,2.277,6.655,5.083,6.655S857,607.646,857,603.97a8.017,8.017,0,0,0-1.061-4.068,8.327,8.327,0,0,0,0-8.136,8.323,8.323,0,0,0,0-8.133Z" transform="translate(-827.428 -468.227)" fill="#3f3d56"/><ellipse cx="5.085" cy="6.655" rx="5.085" ry="6.655" transform="translate(19.389 96.55)" fill="#3f3d56"/><ellipse cx="5.085" cy="6.655" rx="5.085" ry="6.655" transform="translate(19.389 88.414)" fill="#3f3d56"/><path d="M806.066,157.583a24.5,24.5,0,0,0,1.892-2.788L794.606,152.6l14.45.108a24.4,24.4,0,0,0,.46-19.3l-19.388,10.051,17.883-13.136a24.356,24.356,0,1,0-40.229,27.255,24.4,24.4,0,0,0-2.776,4.441l17.342,9.01-18.491-6.216a24.356,24.356,0,0,0,3.914,22.869,24.354,24.354,0,1,0,38.284,0,24.354,24.354,0,0,0,0-30.114Z" transform="translate(-762.558 -118.183)" fill="#049ce7"/><path d="M762.609,353.539a24.243,24.243,0,0,0,5.212,15.056,24.354,24.354,0,1,0,38.284,0C809.369,364.451,762.609,350.8,762.609,353.539Z" transform="translate(-762.597 -299.081)" opacity="0.1"/></g><g transform="translate(36.074 51.825)" opacity="0.1"><ellipse cx="3.094" cy="4.052" rx="3.094" ry="4.052" transform="translate(11.665 83.531)" fill="#3f3d56"/><path d="M241.463,626.439a4.888,4.888,0,0,0,.647-2.477c0-2.238-1.381-4.052-3.1-4.052s-3.094,1.814-3.094,4.052a4.888,4.888,0,0,0,.645,2.477,1606952.4,1606952.4,0,0,1,0,9.9,4.871,4.871,0,0,0-.645,2.475c0,2.24,1.381,4.054,3.094,4.054s3.1-1.814,3.1-4.054a4.871,4.871,0,0,0-.647-2.475,5.065,5.065,0,0,0,0-4.952A5.065,5.065,0,0,0,241.463,626.439Z" transform="translate(-224.242 -556.189)" fill="#3f3d56"/><ellipse cx="3.094" cy="4.052" rx="3.094" ry="4.052" transform="translate(11.665 58.77)" fill="#3f3d56"/><ellipse cx="3.094" cy="4.052" rx="3.094" ry="4.052" transform="translate(11.665 53.818)" fill="#3f3d56"/><path d="M188.376,367.092a14.755,14.755,0,0,1-1.151-1.7l8.133-1.335-8.8.067a14.865,14.865,0,0,1-.283-11.741l11.794,6.126L187.191,350.5a14.826,14.826,0,1,1,24.488,16.591,14.808,14.808,0,0,1,1.69,2.7l-10.557,5.488,11.257-3.778a14.835,14.835,0,0,1-2.39,13.923,14.826,14.826,0,1,1-23.307,0,14.83,14.83,0,0,1,0-18.334Z" transform="translate(-185.199 -343.114)" fill="#049ce7"/><path d="M214.85,486.36a14.768,14.768,0,0,1-3.172,9.167,14.826,14.826,0,1,1-23.307,0C186.385,493.015,214.85,484.7,214.85,486.36Z" transform="translate(-185.199 -453.215)" opacity="0.1"/></g><g transform="translate(100.837 24.299)" opacity="0.1"><ellipse cx="4.141" cy="5.421" rx="4.141" ry="5.421" transform="translate(15.609 111.844)" fill="#3f3d56"/><path d="M541.723,602.956a6.539,6.539,0,0,0,.863-3.315c0-2.993-1.842-5.421-4.144-5.421s-4.144,2.429-4.144,5.421a6.52,6.52,0,0,0,.866,3.315,6.777,6.777,0,0,0,0,6.628,6.773,6.773,0,0,0,0,6.626,6.52,6.52,0,0,0-.866,3.315c0,2.993,1.856,5.421,4.144,5.421s4.144-2.429,4.144-5.421a6.539,6.539,0,0,0-.863-3.315,6.787,6.787,0,0,0,0-6.626,6.791,6.791,0,0,0,0-6.628Z" transform="translate(-518.695 -508.887)" fill="#3f3d56"/><ellipse cx="4.141" cy="5.421" rx="4.141" ry="5.421" transform="translate(15.609 78.707)" fill="#3f3d56"/><ellipse cx="4.141" cy="5.421" rx="4.141" ry="5.421" transform="translate(15.609 72.08)" fill="#3f3d56"/><path d="M470.773,255.7a19.773,19.773,0,0,1-1.542-2.27l10.882-1.786-11.768.087a19.879,19.879,0,0,1-.38-15.721l15.792,8.191-14.565-10.7a19.842,19.842,0,1,1,32.761,22.2,19.877,19.877,0,0,1,2.261,3.619l-14.126,7.339,15.063-5.065a19.849,19.849,0,0,1-3.2,18.631,19.84,19.84,0,1,1-31.189,0,19.846,19.846,0,0,1,0-24.534Z" transform="translate(-466.519 -223.547)" fill="#049ce7"/><path d="M506.2,415.511a19.754,19.754,0,0,1-4.245,12.266,19.84,19.84,0,1,1-31.189,0C468.105,424.4,506.2,413.283,506.2,415.511Z" transform="translate(-466.519 -371.094)" opacity="0.1"/></g><path d="M326.464,733.214c0,1.581-11.561,3.027-30.676,4.144-3.476.2-7.2.391-11.151.571q-5.12.23-10.732.435-5.437.193-11.292.359c-12.325.352-25.952.605-40.427.732q-5.27.048-10.68.074-5.636.025-11.4.023c-69.786,0-126.356-2.834-126.356-6.331s56.57-6.331,126.356-6.331c30.045,0,57.636.527,79.321,1.4l2.371.1h.014C309.129,729.547,326.464,731.289,326.464,733.214Z" transform="translate(-63.333 -586.716)" fill="#3f3d56"/><path d="M326.464,733.214c0,1.581-11.561,3.027-30.676,4.144-3.476.2-7.2.391-11.151.571q-5.12.23-10.732.435-5.437.193-11.292.359c-12.325.352-25.952.605-40.427.732q-5.27.048-10.68.074-5.636.025-11.4.023c-69.786,0-126.356-2.834-126.356-6.331s56.57-6.331,126.356-6.331c30.045,0,57.636.527,79.321,1.4l2.371.1h.014C309.129,729.547,326.464,731.289,326.464,733.214Z" transform="translate(-63.333 -586.716)" opacity="0.15"/><path d="M281.214,731.792c0,1.321-11.561,2.532-30.676,3.453-3.474.168-7.2.327-11.149.477q-5.122.193-10.732.364-5.438.161-11.292.3c-12.328.295-25.954.506-40.43.612q-5.265.039-10.679.06-5.636.021-11.4.021c-69.786,0-126.358-2.369-126.358-5.295s56.572-5.295,126.358-5.295c30.042,0,57.633.44,79.319,1.172l2.371.081h.016C263.89,728.725,281.214,730.173,281.214,731.792Z" transform="translate(-28.5 -586.408)" fill="#3f3d56"/><path d="M159.652,505.334l-3.172-9.713,75.97-.831,3.112,9.616Z" transform="translate(-127.018 -408.048)" fill="#3f3d56"/><path d="M159.652,505.334l-3.172-9.713,75.97-.831,3.112,9.616Z" transform="translate(-127.018 -408.048)" opacity="0.15"/><path d="M137.652,505.334l-3.172-9.713,75.97-.831,3.112,9.616Z" transform="translate(-110.082 -408.048)" fill="#3f3d56"/><path d="M626.81,262.29a21.72,21.72,0,0,1-18.571-9.353q-6.789-9.353-6.789-22.662,0-13.4,6.566-22.616t18.523-9.208q12.68,0,19.107,9.713a39.81,39.81,0,0,1,6.43,22.482,37.623,37.623,0,0,1-6.653,22.165Q638.769,262.3,626.81,262.29Zm.23-7.015a12.494,12.494,0,0,0,11.587-6.757q3.835-6.757,3.835-17.036,0-11.441-3.925-18.737t-12.04-7.3q-15.424,0-15.424,24.5,0,25.326,15.963,25.323Zm2.588,67.173H618.267L692.643,199.7H703.79Zm65.8,1.259q-11.96,0-18.647-9.439T670.064,291.6q0-13.308,6.52-22.526t18.569-9.208q12.59,0,18.974,9.713a40.006,40.006,0,0,1,6.386,22.48,37.851,37.851,0,0,1-6.609,22.123q-6.609,9.528-18.481,9.522Zm.134-7.194a12.445,12.445,0,0,0,11.524-6.642q3.81-6.642,3.81-16.967,0-11.05-3.856-18.534t-12.015-7.5q-15.514,0-15.514,24.5,0,25.137,16.046,25.134Z" transform="translate(-469.551 -179.928)" fill="#3f3d56"/><path d="M626.81,262.29a21.72,21.72,0,0,1-18.571-9.353q-6.789-9.353-6.789-22.662,0-13.4,6.566-22.616t18.523-9.208q12.68,0,19.107,9.713a39.81,39.81,0,0,1,6.43,22.482,37.623,37.623,0,0,1-6.653,22.165Q638.769,262.3,626.81,262.29Zm.23-7.015a12.494,12.494,0,0,0,11.587-6.757q3.835-6.757,3.835-17.036,0-11.441-3.925-18.737t-12.04-7.3q-15.424,0-15.424,24.5,0,25.326,15.963,25.323Zm2.588,67.173H618.267L692.643,199.7H703.79Zm65.8,1.259q-11.96,0-18.647-9.439T670.064,291.6q0-13.308,6.52-22.526t18.569-9.208q12.59,0,18.974,9.713a40.006,40.006,0,0,1,6.386,22.48,37.851,37.851,0,0,1-6.609,22.123q-6.609,9.528-18.481,9.522Zm.134-7.194a12.445,12.445,0,0,0,11.524-6.642q3.81-6.642,3.81-16.967,0-11.05-3.856-18.534t-12.015-7.5q-15.514,0-15.514,24.5,0,25.137,16.046,25.134Z" transform="translate(-469.551 -179.928)" fill="#3f3d56"/><path d="M626.81,262.29a21.72,21.72,0,0,1-18.571-9.353q-6.789-9.353-6.789-22.662,0-13.4,6.566-22.616t18.523-9.208q12.68,0,19.107,9.713a39.81,39.81,0,0,1,6.43,22.482,37.623,37.623,0,0,1-6.653,22.165Q638.769,262.3,626.81,262.29Zm.23-7.015a12.494,12.494,0,0,0,11.587-6.757q3.835-6.757,3.835-17.036,0-11.441-3.925-18.737t-12.04-7.3q-15.424,0-15.424,24.5,0,25.326,15.963,25.323Zm2.588,67.173H618.267L692.643,199.7H703.79Zm65.8,1.259q-11.96,0-18.647-9.439T670.064,291.6q0-13.308,6.52-22.526t18.569-9.208q12.59,0,18.974,9.713a40.006,40.006,0,0,1,6.386,22.48,37.851,37.851,0,0,1-6.609,22.123q-6.609,9.528-18.481,9.522Zm.134-7.194a12.445,12.445,0,0,0,11.524-6.642q3.81-6.642,3.81-16.967,0-11.05-3.856-18.534t-12.015-7.5q-15.514,0-15.514,24.5,0,25.137,16.046,25.134Z" transform="translate(-469.551 -179.928)" opacity="0.15"/><path d="M595.81,262.29a21.72,21.72,0,0,1-18.571-9.353q-6.789-9.353-6.789-22.662,0-13.4,6.566-22.616t18.523-9.208q12.68,0,19.107,9.713a39.81,39.81,0,0,1,6.43,22.482,37.623,37.623,0,0,1-6.653,22.165Q607.769,262.3,595.81,262.29Zm.23-7.015a12.494,12.494,0,0,0,11.586-6.757q3.835-6.757,3.835-17.036,0-11.441-3.925-18.737t-12.04-7.3q-15.424,0-15.424,24.5,0,25.326,15.963,25.323Zm2.588,67.173H587.267L661.643,199.7H672.79Zm65.8,1.259q-11.96,0-18.647-9.439T639.064,291.6q0-13.308,6.52-22.526t18.569-9.208q12.59,0,18.974,9.713a40.006,40.006,0,0,1,6.386,22.48,37.851,37.851,0,0,1-6.609,22.123q-6.609,9.528-18.481,9.522Zm.133-7.194a12.445,12.445,0,0,0,11.524-6.642q3.81-6.642,3.81-16.967,0-11.05-3.856-18.534t-12.019-7.5q-15.514,0-15.514,24.5,0,25.137,16.05,25.134Z" transform="translate(-445.687 -179.928)" fill="#3f3d56"/><path d="M774.912,620.966c.948-1.759-.129-3.914-1.367-5.484s-2.749-3.2-2.716-5.2c.046-2.871,3.094-4.567,5.525-6.091a26.954,26.954,0,0,0,4.968-3.992,7.3,7.3,0,0,0,1.526-2.044,8.353,8.353,0,0,0,.46-3.63q-.159-6.151-.608-12.284" transform="translate(-599.936 -475.366)" fill="none" stroke="#3f3d56" stroke-miterlimit="10" stroke-width="4"/><path d="M812.576,566.98a4.473,4.473,0,0,0-2.235-3.67l-1,1.984.03-2.4a4.535,4.535,0,0,0-1.476-.177,4.48,4.48,0,1,0,4.685,4.266Z" transform="translate(-625.18 -460.332)" fill="#049ce7"/><path d="M779.535,691.175a4.478,4.478,0,1,1,.216-3.607l-2.8,2.277,3.085-.718A4.466,4.466,0,0,1,779.535,691.175Z" transform="translate(-600.127 -554.198)" fill="#049ce7"/><path d="M782.527,645.221a4.48,4.48,0,0,1-4.685-4.266,4.43,4.43,0,0,1,.387-2.042,4.487,4.487,0,0,1,2.868-2.484l-.025,1.842,1.015-2.007h0a4.48,4.48,0,0,1,.419,8.951Z" transform="translate(-605.331 -516.949)" fill="#049ce7"/><path d="M829.761,613.8a4.482,4.482,0,1,1,1.98-8.384l-.792,2.169,1.63-1.563a4.466,4.466,0,0,1,1.453,3.092,4.374,4.374,0,0,1-.115,1.234A4.482,4.482,0,0,1,829.761,613.8Z" transform="translate(-641.691 -492.766)" fill="#049ce7"/><path d="M811.98,576.381c-1.034.113-2.037.435-3.076.5a3.342,3.342,0,0,1-2.834-.992,13.688,13.688,0,0,1-.829-1.457,3.175,3.175,0,0,0-1.128-1.061,4.48,4.48,0,1,0,8.375,2.972C812.319,576.351,812.151,576.363,811.98,576.381Z" transform="translate(-625.187 -468.538)" opacity="0.1"/><path d="M829.772,622.391A4.484,4.484,0,0,1,825.511,616a3.358,3.358,0,0,1,.9.9,14.694,14.694,0,0,0,.889,1.48,3.652,3.652,0,0,0,2.97,1.041c1.08-.048,2.125-.357,3.2-.46.15-.014.3-.023.46-.028a4.482,4.482,0,0,1-4.16,3.455Z" transform="translate(-641.701 -501.354)" opacity="0.1"/><path d="M782.527,654.1a4.48,4.48,0,0,1-4.685-4.266,4.43,4.43,0,0,1,.387-2.042,3.6,3.6,0,0,1,.946.921,15.342,15.342,0,0,0,.974,1.51,4.144,4.144,0,0,0,3.17,1.11c1.144-.028,2.178-.295,3.281-.38A4.482,4.482,0,0,1,782.527,654.1Z" transform="translate(-605.331 -525.826)" opacity="0.1"/><path d="M779.486,700.776A12.719,12.719,0,1,0,772.3,698a17.563,17.563,0,0,0,1.2,1.593,5.628,5.628,0,0,0,3.711,1.3A19.057,19.057,0,0,0,779.486,700.776Z" transform="translate(-600.078 -563.799)" opacity="0.1"/><path d="M1075.912,619.966c.948-1.759-.129-3.914-1.367-5.484s-2.749-3.2-2.717-5.2c.046-2.871,3.094-4.567,5.525-6.091a26.955,26.955,0,0,0,4.968-3.992,7.293,7.293,0,0,0,1.526-2.044,8.355,8.355,0,0,0,.46-3.63q-.159-6.151-.608-12.284" transform="translate(-831.643 -474.596)" fill="none" stroke="#3f3d56" stroke-miterlimit="10" stroke-width="4"/><path d="M1113.576,565.98a4.473,4.473,0,0,0-2.235-3.67l-1,1.984.03-2.4a4.533,4.533,0,0,0-1.476-.177,4.48,4.48,0,1,0,4.685,4.266Z" transform="translate(-856.886 -459.562)" fill="#049ce7"/><path d="M1080.534,690.175a4.478,4.478,0,1,1,.216-3.607l-2.8,2.277,3.085-.718A4.467,4.467,0,0,1,1080.534,690.175Z" transform="translate(-831.833 -553.429)" fill="#049ce7"/><path d="M1083.527,644.221a4.48,4.48,0,0,1-4.685-4.266,4.426,4.426,0,0,1,.387-2.042,4.487,4.487,0,0,1,2.868-2.484l-.025,1.842,1.015-2.007h.011a4.48,4.48,0,1,1,.419,8.951Z" transform="translate(-837.038 -516.179)" fill="#049ce7"/><path d="M1130.761,612.8a4.482,4.482,0,1,1,1.98-8.384l-.792,2.169,1.63-1.563a4.466,4.466,0,0,1,1.453,3.092,4.372,4.372,0,0,1-.115,1.234A4.482,4.482,0,0,1,1130.761,612.8Z" transform="translate(-873.397 -491.996)" fill="#049ce7"/><path d="M1112.98,575.381c-1.034.113-2.037.435-3.076.5a3.341,3.341,0,0,1-2.834-.992,13.677,13.677,0,0,1-.829-1.457,3.177,3.177,0,0,0-1.128-1.061,4.48,4.48,0,1,0,8.375,2.972C1113.318,575.351,1113.15,575.363,1112.98,575.381Z" transform="translate(-856.894 -467.768)" opacity="0.1"/><path d="M1130.772,621.391A4.485,4.485,0,0,1,1126.51,615a3.355,3.355,0,0,1,.9.9,14.752,14.752,0,0,0,.889,1.48,3.652,3.652,0,0,0,2.97,1.041c1.08-.048,2.125-.357,3.2-.46.15-.014.3-.023.461-.028A4.482,4.482,0,0,1,1130.772,621.391Z" transform="translate(-873.408 -500.584)" opacity="0.1"/><path d="M1083.527,653.1a4.48,4.48,0,0,1-4.685-4.266,4.427,4.427,0,0,1,.387-2.042,3.606,3.606,0,0,1,.946.921,15.311,15.311,0,0,0,.974,1.51,4.144,4.144,0,0,0,3.17,1.11c1.11-.023,2.178-.295,3.281-.38A4.482,4.482,0,0,1,1083.527,653.1Z" transform="translate(-837.038 -525.056)" opacity="0.1"/><path d="M1080.485,699.776A12.715,12.715,0,1,0,1073.3,697a17.566,17.566,0,0,0,1.2,1.593,5.628,5.628,0,0,0,3.711,1.3A19.081,19.081,0,0,0,1080.485,699.776Z" transform="translate(-831.784 -563.029)" opacity="0.1"/><path d="M110.318,606.966c-.948-1.759.129-3.914,1.367-5.484s2.749-3.2,2.716-5.2c-.046-2.871-3.094-4.567-5.525-6.091a26.952,26.952,0,0,1-4.968-3.992,7.294,7.294,0,0,1-1.526-2.044,8.354,8.354,0,0,1-.46-3.63q.159-6.151.608-12.284" transform="translate(-85.011 -464.589)" fill="none" stroke="#3f3d56" stroke-miterlimit="10" stroke-width="4"/><path d="M84.463,552.98a4.473,4.473,0,0,1,2.235-3.67l1,1.984-.03-2.4a4.534,4.534,0,0,1,1.476-.177,4.48,4.48,0,1,1-4.685,4.266Z" transform="translate(-71.576 -449.555)" fill="#049ce7"/><path d="M117.5,677.175a4.478,4.478,0,1,0-.216-3.607l2.8,2.277L117,675.126A4.466,4.466,0,0,0,117.5,677.175Z" transform="translate(-96.626 -543.421)" fill="#049ce7"/><path d="M114.578,631.221a4.48,4.48,0,0,0,4.685-4.266,4.429,4.429,0,0,0-.387-2.042,4.487,4.487,0,0,0-2.868-2.484l.025,1.842-1.015-2.007h0a4.48,4.48,0,1,0-.419,8.951Z" transform="translate(-91.491 -506.171)" fill="#049ce7"/><path d="M67.253,599.8a4.482,4.482,0,1,0-1.968-8.384l.792,2.169-1.641-1.556a4.466,4.466,0,0,0-1.453,3.085,4.374,4.374,0,0,0,.115,1.234A4.482,4.482,0,0,0,67.253,599.8Z" transform="translate(-55.04 -481.99)" fill="#049ce7"/><path d="M85.4,562.381c1.034.113,2.037.435,3.076.5a3.341,3.341,0,0,0,2.834-.992,13.691,13.691,0,0,0,.829-1.457,3.174,3.174,0,0,1,1.128-1.061,4.48,4.48,0,1,1-8.375,2.972C85.06,562.351,85.228,562.363,85.4,562.381Z" transform="translate(-71.908 -457.761)" opacity="0.1"/><path d="M67.64,608.391A4.485,4.485,0,0,0,71.9,602a3.356,3.356,0,0,0-.9.9,14.738,14.738,0,0,1-.889,1.48,3.652,3.652,0,0,1-2.97,1.041c-1.08-.048-2.125-.357-3.2-.46-.15-.014-.3-.023-.46-.028A4.482,4.482,0,0,0,67.64,608.391Z" transform="translate(-55.427 -490.577)" opacity="0.1"/><path d="M115.172,640.1a4.48,4.48,0,0,0,4.685-4.266,4.429,4.429,0,0,0-.387-2.042,3.6,3.6,0,0,0-.946.921,15.335,15.335,0,0,1-.974,1.51,4.144,4.144,0,0,1-3.17,1.11c-1.11-.023-2.178-.295-3.281-.38A4.482,4.482,0,0,0,115.172,640.1Z" transform="translate(-92.085 -515.048)" opacity="0.1"/><path d="M119.18,686.776a4.48,4.48,0,0,0,8.168-3.656,4.514,4.514,0,0,0-.983.877,17.578,17.578,0,0,1-1.2,1.593,5.628,5.628,0,0,1-3.711,1.3A19.081,19.081,0,0,1,119.18,686.776Z" transform="translate(-98.304 -553.022)" opacity="0.1"/><path d="M538.779,608.541a3.576,3.576,0,0,0-1.423-2.882,204.981,204.981,0,0,0-6.278-7.215h0a3.529,3.529,0,0,0-.518-.122h-.051l-.09-.012h-.474a4.1,4.1,0,0,0-3.957,3.5c-1.278-.295-2.449.087-2.659.9a1.094,1.094,0,0,0,.034.647,2.8,2.8,0,0,0,1.876,1.522l.124.037c.062.018.124.032.187.046h.041A3.223,3.223,0,0,0,527,609.174a.733.733,0,0,0-.083.053,1.151,1.151,0,0,0-.276.387,5.605,5.605,0,0,0-.534,1.287c-.092.384-.108.787-.23,1.167a10.446,10.446,0,0,0-.81,2.03c-.028.327.025.711-.207.935a1.516,1.516,0,0,1-.184.136,1.423,1.423,0,0,0-.405.424,1.355,1.355,0,0,1-.269.373c-.21.159-.555.143-.658.387s.163.532.1.8c-.051.216-.288.315-.46.46a1.632,1.632,0,0,0-.391.744,2.38,2.38,0,0,1-1.964-.5,3.689,3.689,0,0,1,.2.734,3.1,3.1,0,0,0-1.059-.529,3.382,3.382,0,0,1-1.128-.838l.6-.083-2.67-4.052-.787-.161.707,1.356a.424.424,0,0,0-.23.29,1.235,1.235,0,0,0-.028.46,8.514,8.514,0,0,0,.182,1.08l.2.953a2.463,2.463,0,0,0,.067.265,2.685,2.685,0,0,0-.792.09,6.955,6.955,0,0,0-1.641-.389.837.837,0,0,0-.371.018.9.9,0,0,0-.345.281,11.05,11.05,0,0,0-1.22,1.717,57.659,57.659,0,0,1-5.143,6.929c-1.239.5-2.486.983-3.736,1.457l-2.687,1.024a4.035,4.035,0,0,1-1.664.378c-.258-.016-.571-.055-.716.163a1.384,1.384,0,0,0-.163.35c-.094,0-.189.023-.276.028h-.016a3.188,3.188,0,0,0-.645-1.186.4.4,0,0,0-.3.23c-.064.12-.1.251-.177.362-.145.212-.4.315-.576.495s-.292.46-.486.635a1.929,1.929,0,0,1-.921.357,5.81,5.81,0,0,0-1.43.543,2.448,2.448,0,0,1-.529.244,1.993,1.993,0,0,1-.619.021l-1.423-.1a1.108,1.108,0,0,0-.38.016.707.707,0,0,0-.46.73,1.135,1.135,0,0,0,.449.783,2.994,2.994,0,0,0,.81.421,23.538,23.538,0,0,0,3.81,1.116v.288a6.461,6.461,0,0,0,2.9.691.432.432,0,0,0,.216-.039.481.481,0,0,0,.182-.285,11.74,11.74,0,0,0,.569-2.788h0a1.435,1.435,0,0,0,.513-.131c.49-.134.976.2,1.48.258a4.054,4.054,0,0,0,1.786-.518c.085-.032.17-.06.256-.087a2.862,2.862,0,0,1-.587.569c-.244.175-.518.3-.757.486a5.037,5.037,0,0,1-.638.495,3.847,3.847,0,0,1-.49.189,3.332,3.332,0,0,0-.691.348,1.437,1.437,0,0,0-.479.46.629.629,0,0,0,.428.981,1.976,1.976,0,0,0,.582.016c.769-.058,1.535-.129,2.3-.2a6.449,6.449,0,0,0,.965-.138c.168-.042.334-.1.5-.14a4.062,4.062,0,0,1,.877-.131.728.728,0,0,1,.256.025c.18.058.306.23.488.276a.752.752,0,0,0,.348-.048,7.992,7.992,0,0,1,1.708-.182c.251-.014.546-.062.663-.295.143-.288-.1-.61-.191-.921a2.78,2.78,0,0,1-.078-.6,3.761,3.761,0,0,0-.424-1.434,3.885,3.885,0,0,1-.315-.654,16.639,16.639,0,0,0,3.14-1.593,5.688,5.688,0,0,1,1.791-.861,4.81,4.81,0,0,1,2.249.26,50.6,50.6,0,0,1,5.154,1.8,25.584,25.584,0,0,0,2.436.921,3.789,3.789,0,0,0,.863.843,3.989,3.989,0,0,0,1.876.511,24.653,24.653,0,0,0,2.638.1,4.458,4.458,0,0,0,1.966-.364,2.275,2.275,0,0,0,.412-.272,1.631,1.631,0,0,0,1.294-.479,3.13,3.13,0,0,0,.99-1.554c.212-.831.048-1.8.559-2.479.136-.182.313-.329.447-.513a1.38,1.38,0,0,0,.23-.836l.023-.035a3.1,3.1,0,0,0,.23-.838,4.8,4.8,0,0,1,.23-.661,19.993,19.993,0,0,0,.677-1.964,10.785,10.785,0,0,0,.313-1.347c.055-.364.087-.73.117-1.1a6.6,6.6,0,0,1,.331-1.683,13.749,13.749,0,0,0,.762-4.033v-.081a2.7,2.7,0,0,0,2.406-2.726,2.889,2.889,0,0,0-.249-1.176,3.651,3.651,0,0,0,.479-1.83ZM525.76,624.358c.039.14.085.281.131.421-.212-.209-.421-.426-.635-.633.085.025.17.053.253.083a1.518,1.518,0,0,1,.253.129Zm-1.031-.691c-1.257-1.091-2.712-1.938-4-2.993.691.348,1.381.75,2.072,1.137q1.206.691,2.44,1.321a1.984,1.984,0,0,1-.506.525Zm.536-2.749.06-.062v.43c-.113-.037-.23-.074-.338-.115a2.862,2.862,0,0,0,.281-.262ZM514.2,623.875a10.423,10.423,0,0,0,1.342-1.913,12.546,12.546,0,0,0,2,2.231c-1.11-.157-2.221-.279-3.338-.327Z" transform="translate(-383.732 -487.736)" fill="url(#a)"/><path d="M574.53,545.12l.794.161,2.705,4-1.195.161Z" transform="translate(-442.267 -419.594)" fill="#2f2e41"/><path d="M519.48,733.523a15.734,15.734,0,0,0,.79,2.072,19.136,19.136,0,0,0,2.638-.753,7.174,7.174,0,0,0-.548-.744,2.585,2.585,0,0,0-.746-.573,2.029,2.029,0,0,0-.9-.014Q520.095,733.534,519.48,733.523Z" transform="translate(-406.451 -591.776)" fill="#fbbebe"/><path d="M498.907,730.816a1.656,1.656,0,0,1-.9-1.027,3.335,3.335,0,0,0-.674-1.229.4.4,0,0,0-.3.23c-.067.115-.106.246-.182.357-.143.207-.4.308-.578.486s-.295.447-.49.624a1.95,1.95,0,0,1-.921.354,5.833,5.833,0,0,0-1.441.534,2.463,2.463,0,0,1-.534.23,2.022,2.022,0,0,1-.624.021l-1.434-.1a1.116,1.116,0,0,0-.382.018.691.691,0,0,0-.46.718,1.114,1.114,0,0,0,.46.771,3.054,3.054,0,0,0,.815.414,24.566,24.566,0,0,0,3.844,1.1v.283a6.657,6.657,0,0,0,2.926.691.461.461,0,0,0,.23-.039.479.479,0,0,0,.184-.281,11.323,11.323,0,0,0,.6-3.117,2.339,2.339,0,0,0-.06-.8c-.078-.258.189-.15-.06-.251" transform="translate(-383.739 -588.001)" fill="#2f2e41"/><path d="M553.851,711.084c-4.252.258-8.451-.99-12.71-1.123a6.353,6.353,0,0,0-1.579.1,7.758,7.758,0,0,0-1.565.608c-2.281,1.061-4.643,1.941-7,2.82l-2.707,1.008a4.214,4.214,0,0,1-1.68.371c-.258-.016-.573-.055-.721.161a2.652,2.652,0,0,0,.06,2.344c.094.23.253.495.506.523a1.5,1.5,0,0,0,.518-.131c.493-.131.985.2,1.492.253a4.16,4.16,0,0,0,1.8-.509,16.805,16.805,0,0,1,3.085-.523,13.784,13.784,0,0,0,4.834-2.007,5.675,5.675,0,0,1,1.8-.847,4.942,4.942,0,0,1,2.268.255,52.318,52.318,0,0,1,5.2,1.77,23.942,23.942,0,0,0,2.716.99,9.821,9.821,0,0,0,6.087-.354c.691-.269,1.418-.744,1.457-1.478.023-.419-.3-.787-.518-1.151-.14-.23-.279-.46-.43-.679C556.031,712.417,555.143,711.006,553.851,711.084Z" transform="translate(-411.187 -573.675)" fill="#2f2e41"/><path d="M553.851,711.084c-4.252.258-8.451-.99-12.71-1.123a6.353,6.353,0,0,0-1.579.1,7.758,7.758,0,0,0-1.565.608c-2.281,1.061-4.643,1.941-7,2.82l-2.707,1.008a4.214,4.214,0,0,1-1.68.371c-.258-.016-.573-.055-.721.161a2.652,2.652,0,0,0,.06,2.344c.094.23.253.495.506.523a1.5,1.5,0,0,0,.518-.131c.493-.131.985.2,1.492.253a4.16,4.16,0,0,0,1.8-.509,16.805,16.805,0,0,1,3.085-.523,13.784,13.784,0,0,0,4.834-2.007,5.675,5.675,0,0,1,1.8-.847,4.942,4.942,0,0,1,2.268.255,52.318,52.318,0,0,1,5.2,1.77,23.942,23.942,0,0,0,2.716.99,9.821,9.821,0,0,0,6.087-.354c.691-.269,1.418-.744,1.457-1.478.023-.419-.3-.787-.518-1.151-.14-.23-.279-.46-.43-.679C556.031,712.417,555.143,711.006,553.851,711.084Z" transform="translate(-411.187 -573.675)" opacity="0.1"/><path d="M554.93,728.712q1,.338,2.012.626c.38-.624,1.089-1.057,1.25-1.768a.164.164,0,0,0,0-.094.17.17,0,0,0-.076-.069,3.765,3.765,0,0,0-1.577-.46c-.437-.028-.635.428-.833.748C555.637,727.823,555.107,728.771,554.93,728.712Z" transform="translate(-433.74 -586.758)" fill="#fbbebe"/><path d="M537.027,729.244a1.448,1.448,0,0,1-.978-.642c-.094-.163-.193-.384-.382-.373s-.253.219-.292.391a11.18,11.18,0,0,1-.55,1.89,3.543,3.543,0,0,1-1.176,1.545c-.246.17-.52.3-.762.479a5.046,5.046,0,0,1-.645.488,3.648,3.648,0,0,1-.495.184,3.4,3.4,0,0,0-.707.343,1.44,1.44,0,0,0-.481.46.619.619,0,0,0,.419.969,2.086,2.086,0,0,0,.587.014c.776-.058,1.549-.127,2.323-.2a6.609,6.609,0,0,0,.974-.133c.17-.042.336-.1.5-.141a4.271,4.271,0,0,1,.886-.129.751.751,0,0,1,.258.025c.18.058.306.23.49.272a.759.759,0,0,0,.35-.046,8.291,8.291,0,0,1,1.722-.18c.253-.014.552-.062.668-.29.145-.283-.094-.6-.191-.9a2.833,2.833,0,0,1-.081-.594,3.618,3.618,0,0,0-.426-1.411c-.2-.364-.461-.764-.329-1.151a1.009,1.009,0,0,0,.131-.394C538.811,729.1,537.377,729.327,537.027,729.244Z" transform="translate(-414.901 -587.746)" fill="#2f2e41"/><path d="M608.5,672.758a3.333,3.333,0,0,1-1.694-1.683c-.069-.161-.129-.329-.2-.493a3.769,3.769,0,0,0-1.013-1.4.486.486,0,0,0-.375-.159.4.4,0,0,0-.276.295,1.21,1.21,0,0,0-.03.46,8.654,8.654,0,0,0,.184,1.061l.207.939a1.838,1.838,0,0,0,.129.419,1.46,1.46,0,0,0,.345.412c.189.175.38.343.573.506a2.025,2.025,0,0,0,.348.253,2.133,2.133,0,0,0,.647.189,5.578,5.578,0,0,1,2.415.921s0-.628-.016-.691a.92.92,0,0,0-.18-.5A3.041,3.041,0,0,0,608.5,672.758Z" transform="translate(-472.212 -542.167)" fill="#fbbebe"/><path d="M608.5,672.758a3.333,3.333,0,0,1-1.694-1.683c-.069-.161-.129-.329-.2-.493a3.769,3.769,0,0,0-1.013-1.4.486.486,0,0,0-.375-.159.4.4,0,0,0-.276.295,1.21,1.21,0,0,0-.03.46,8.654,8.654,0,0,0,.184,1.061l.207.939a1.838,1.838,0,0,0,.129.419,1.46,1.46,0,0,0,.345.412c.189.175.38.343.573.506a2.025,2.025,0,0,0,.348.253,2.133,2.133,0,0,0,.647.189,5.578,5.578,0,0,1,2.415.921s0-.628-.016-.691a.92.92,0,0,0-.18-.5A3.041,3.041,0,0,0,608.5,672.758Z" transform="translate(-472.212 -542.167)" opacity="0.1"/><ellipse cx="1.034" cy="1.041" rx="1.034" ry="1.041" transform="translate(143.912 121.327)" fill="#2f2e41"/><path d="M631.376,646.714a1.151,1.151,0,0,0-.817.117,1.1,1.1,0,0,0-.279.382,5.425,5.425,0,0,0-.539,1.266c-.092.38-.108.776-.23,1.151-.212.691-.755,1.278-.817,2-.028.322.025.7-.209.921a1.358,1.358,0,0,1-.187.131,1.414,1.414,0,0,0-.407.419,1.329,1.329,0,0,1-.288.4c-.212.156-.559.14-.663.382s.163.523.1.785c-.051.214-.29.313-.46.46a1.593,1.593,0,0,0-.394.734,2.438,2.438,0,0,1-1.978-.5,6.234,6.234,0,0,1,.306,2.263.935.935,0,0,1-.182.691,11.7,11.7,0,0,1,2.429.421,1.668,1.668,0,0,0,1.059,0,1.751,1.751,0,0,0,.486-.387,3.083,3.083,0,0,0,1-1.54,8.366,8.366,0,0,0,.018-1.047,6.009,6.009,0,0,1,.265-1.268,14.836,14.836,0,0,0,.46-2.613c.048-.546.518-.983.767-1.471a7.269,7.269,0,0,0,.981-2.908C631.832,647.169,631.717,646.757,631.376,646.714Z" transform="translate(-487.071 -524.975)" fill="#2f2e41"/><path d="M631.376,646.714a1.151,1.151,0,0,0-.817.117,1.1,1.1,0,0,0-.279.382,5.425,5.425,0,0,0-.539,1.266c-.092.38-.108.776-.23,1.151-.212.691-.755,1.278-.817,2-.028.322.025.7-.209.921a1.358,1.358,0,0,1-.187.131,1.414,1.414,0,0,0-.407.419,1.329,1.329,0,0,1-.288.4c-.212.156-.559.14-.663.382s.163.523.1.785c-.051.214-.29.313-.46.46a1.593,1.593,0,0,0-.394.734,2.438,2.438,0,0,1-1.978-.5,6.234,6.234,0,0,1,.306,2.263.935.935,0,0,1-.182.691,11.7,11.7,0,0,1,2.429.421,1.668,1.668,0,0,0,1.059,0,1.751,1.751,0,0,0,.486-.387,3.083,3.083,0,0,0,1-1.54,8.366,8.366,0,0,0,.018-1.047,6.009,6.009,0,0,1,.265-1.268,14.836,14.836,0,0,0,.46-2.613c.048-.546.518-.983.767-1.471a7.269,7.269,0,0,0,.981-2.908C631.832,647.169,631.717,646.757,631.376,646.714Z" transform="translate(-487.071 -524.975)" opacity="0.1"/><path d="M580.105,689.514a9.541,9.541,0,0,1-2.249-1.879c-1.367-1.285-3.039-2.192-4.475-3.4a28.71,28.71,0,0,0-2.85-2.392,7.077,7.077,0,0,0-3.053-1.071.846.846,0,0,0-.373.018.9.9,0,0,0-.348.276,10.848,10.848,0,0,0-1.232,1.692c-1.821,3.089-4.406,5.689-6.549,8.564a.384.384,0,0,0-.025.52l.435.854c.244.477.635,1.034,1.151.939a1.278,1.278,0,0,0,.61-.389l1.957-1.872,2.051-1.961a15.826,15.826,0,0,0,3.209-3.794c.612,1.061,1.7,1.756,2.445,2.73.283.368.513.776.767,1.167.407.628.868,1.218,1.328,1.8l2.355,3a4.555,4.555,0,0,0,1.089,1.105,4.179,4.179,0,0,0,1.892.5,24.4,24.4,0,0,0,2.659.1,4.565,4.565,0,0,0,1.98-.357,1.823,1.823,0,0,0,1.075-1.6,2.37,2.37,0,0,0-.338-1A7.857,7.857,0,0,0,580.105,689.514Z" transform="translate(-436.767 -551.209)" fill="#2f2e41"/><ellipse cx="0.794" cy="0.799" rx="0.794" ry="0.799" transform="translate(144.786 122.289)" fill="#e8e8f0"/><path d="M656.479,641.715a1.52,1.52,0,0,1,.087,1.151,4.445,4.445,0,0,1-.511,1.059,5.274,5.274,0,0,1-.665.948,6.823,6.823,0,0,0,3.5-1.006,5.023,5.023,0,0,0,2.208-1.925,1.023,1.023,0,0,1-.813-.15,3.044,3.044,0,0,1-.624-.58l-.615-.691a2.761,2.761,0,0,1-.38-.5,1.381,1.381,0,0,1-.163-.8,4.6,4.6,0,0,1-.815.677c-.44.288-.921.495-1.365.778-.157.1-.5.265-.414.46S656.354,641.494,656.479,641.715Z" transform="translate(-511.073 -519.228)" fill="#fbbebe"/><path d="M656.479,641.715a1.52,1.52,0,0,1,.087,1.151,4.445,4.445,0,0,1-.511,1.059,5.274,5.274,0,0,1-.665.948,6.823,6.823,0,0,0,3.5-1.006,5.023,5.023,0,0,0,2.208-1.925,1.023,1.023,0,0,1-.813-.15,3.044,3.044,0,0,1-.624-.58l-.615-.691a2.761,2.761,0,0,1-.38-.5,1.381,1.381,0,0,1-.163-.8,4.6,4.6,0,0,1-.815.677c-.44.288-.921.495-1.365.778-.157.1-.5.265-.414.46S656.354,641.494,656.479,641.715Z" transform="translate(-511.073 -519.228)" opacity="0.1"/><path d="M643.947,650.127a1.038,1.038,0,0,0,0,1.2c.035.044.166.318.23.32a.21.21,0,0,0,.14-.071,9.745,9.745,0,0,0,.778-.921,1.717,1.717,0,0,1,.99-.649,2.166,2.166,0,0,1,1.365.424,1.3,1.3,0,0,1,.46.382,1.253,1.253,0,0,1,.154.52,24.36,24.36,0,0,1,.138,3.306,12.714,12.714,0,0,1-.157,2.378c-.078.405-.2.8-.251,1.211a8.128,8.128,0,0,0-.048,1.087v1.519a3.866,3.866,0,0,0,.06.831,10.177,10.177,0,0,0,.334.965,6.354,6.354,0,0,1,.23,1.151l.207,1.572a1.92,1.92,0,0,1-.186,1.436c-.134.182-.313.325-.46.5-.518.658-.345,1.614-.576,2.431a3.077,3.077,0,0,1-1,1.531,1.617,1.617,0,0,1-1.315.46,1.8,1.8,0,0,1-1.2-1.414,5.487,5.487,0,0,0-.615-1.842,4.855,4.855,0,0,0-1.216-1.018,2.108,2.108,0,0,1-.948-1.234c-.041-.23-.016-.46-.039-.691a1.646,1.646,0,0,0-1.018-1.335c-.327-.127-.732-.173-.921-.46a2.217,2.217,0,0,0,.958-1.287,6.606,6.606,0,0,0,.23-1.612l.11-1.828a6.053,6.053,0,0,1,.431-2.362c.161-.327.361-.635.527-.96a10.66,10.66,0,0,0,.566-1.409c.26-.748.523-1.5.755-2.256a4.465,4.465,0,0,1,.414-1.052C643.3,650.61,643.579,650.2,643.947,650.127Z" transform="translate(-498.526 -527.52)" fill="#e8e8f0"/><path d="M642.388,660.956l.484.016.1-.73a1.574,1.574,0,0,1,.1-.426,2.713,2.713,0,0,1,.279-.407,5.287,5.287,0,0,0,.559-2.383,11.843,11.843,0,0,1,1.064-3.115l.939-2.093a3.008,3.008,0,0,0,.2-.536,2.943,2.943,0,0,0,.058-.619c0-.322.106-1.5.113-1.823,0-.12-.262-.053-.318-.159-.117-.23-.279.4-.5.534a1.224,1.224,0,0,0-.433.633c-.2.527-.327,1.082-.516,1.611a3.312,3.312,0,0,1-.877,1.425c-.191.17-.414.3-.6.483a3.263,3.263,0,0,0-.661,2.3C642.375,656.175,642.28,660.956,642.388,660.956Z" transform="translate(-501.025 -526.473)" fill="#2f2e41"/><path d="M658.055,646.611a1.675,1.675,0,0,0-.859,1.183,5.79,5.79,0,0,1-.44,1.45c-.589,1.027-2.093,1.326-2.509,2.436a4.454,4.454,0,0,0-.168,1.151c-.074.794-.336,1.563-.414,2.357a10.387,10.387,0,0,0,.044,1.853l.527,6.269a8.289,8.289,0,0,1-.159,2.763,2.655,2.655,0,0,0,1.579-.26c.495-.23.946-.534,1.42-.8a14.433,14.433,0,0,0,2.433-1.381,1.446,1.446,0,0,0,.329-.361,3.113,3.113,0,0,0,.23-.826,4.635,4.635,0,0,1,.23-.649,19.274,19.274,0,0,0,.691-1.934,10.407,10.407,0,0,0,.315-1.328c.058-.357.087-.718.12-1.077a6.348,6.348,0,0,1,.334-1.658,13.29,13.29,0,0,0,.767-3.971,1.987,1.987,0,0,0-.039-.585,3.129,3.129,0,0,0-.318-.663c-.219-.412-.35-.866-.557-1.282a6.239,6.239,0,0,0-2.15-2.261C659.02,646.747,658.534,646.43,658.055,646.611Z" transform="translate(-509.728 -524.877)" fill="#2f2e41"/><path d="M605.947,684.187a3.775,3.775,0,0,1-1-.76c-.131-.154-.23-.327-.373-.479a2.461,2.461,0,0,0-1.259-.718,6.072,6.072,0,0,0-1.46-.14,2.591,2.591,0,0,0-.969.117.978.978,0,0,0-.645.691,1.136,1.136,0,0,0,.49,1.02,2.37,2.37,0,0,0,.978.477,8.113,8.113,0,0,0,.884.1,12.85,12.85,0,0,1,4.818,1.991q2.01,1.135,4.1,2.125a8.2,8.2,0,0,0,.069-1.257c0-.313-.023-.792-.32-.976a6.558,6.558,0,0,0-1.3-.394,20.671,20.671,0,0,1-2.622-1.059C606.851,684.7,606.391,684.449,605.947,684.187Z" transform="translate(-468.61 -552.224)" fill="#fbbebe"/><ellipse cx="3.101" cy="3.119" rx="3.101" ry="3.119" transform="translate(141.844 115.892)" fill="#fbbebe"/><path d="M651.126,660.824a5.041,5.041,0,0,0-.6,1.121,23.964,23.964,0,0,0-1.285,2.3c-.318.868-.306,1.9-.921,2.585a.89.89,0,0,0-.269.391,1.944,1.944,0,0,1-.032.283c-.087.249-.495.26-.571.513-.021.074,0,.154-.037.23-.062.163-.276.186-.421.285-.3.2-.23.679-.46.974a.817.817,0,0,1-.773.272,2.868,2.868,0,0,1-.806-.3.724.724,0,0,0-.288-.09.587.587,0,0,0-.334.113,2.061,2.061,0,0,0-.838,1.768,5.755,5.755,0,0,0,.477,1.975.833.833,0,0,0,.159.295.691.691,0,0,0,.773.055,3.6,3.6,0,0,1,.753-.336c.479-.087.948.244,1.434.216a2.021,2.021,0,0,0,.969-.428,5.368,5.368,0,0,0,1.308-1.117c.212-.279.368-.6.555-.893a10.124,10.124,0,0,1,.783-1.045l1.789-2.189a4.7,4.7,0,0,0,.481-.665,4.875,4.875,0,0,0,.375-1,7.9,7.9,0,0,0,.371-1.78,7.1,7.1,0,0,0-.131-1.494,5.193,5.193,0,0,0-.384-1.42C652.8,660.64,651.856,659.972,651.126,660.824Z" transform="translate(-501.913 -535.554)" fill="#2f2e41"/><path d="M651.51,610.692a3.492,3.492,0,0,0-1.437-2.838,4.144,4.144,0,0,0-3.524-4.04,4.029,4.029,0,0,0-7.935.214c-1.289-.29-2.468.087-2.682.882-.23.831.691,1.8,2.053,2.171a3.773,3.773,0,0,0,1.314.131,4.041,4.041,0,0,0,2.776,1.727,4.128,4.128,0,0,0,3.027,3.124,3.453,3.453,0,0,0,.935,1.294c0,.1-.016.2-.016.3a2.627,2.627,0,1,0,5.249,0,2.763,2.763,0,0,0-.251-1.152A3.529,3.529,0,0,0,651.51,610.692Z" transform="translate(-496.067 -489.485)" fill="#f86d70"/><path d="M636.776,605.005c.214-.794,1.381-1.172,2.682-.882a4.1,4.1,0,0,1,3.99-3.453h.267a3.913,3.913,0,0,0-1.151-.17,4.1,4.1,0,0,0-3.99,3.453c-1.289-.29-2.468.087-2.682.882-.23.831.691,1.8,2.053,2.171a3.948,3.948,0,0,0,.776.134C637.427,606.762,636.557,605.818,636.776,605.005Z" transform="translate(-496.037 -489.422)" opacity="0.1"/><path d="M658.616,636.444a1.849,1.849,0,0,1,.016-.3,3.439,3.439,0,0,1-.935-1.292,4.144,4.144,0,0,1-3.027-3.126A4.033,4.033,0,0,1,651.893,630a3.666,3.666,0,0,1-.773-.021,4.026,4.026,0,0,0,2.675,1.588,4.128,4.128,0,0,0,3.027,3.124,3.454,3.454,0,0,0,.935,1.294c0,.1-.016.2-.016.3A2.673,2.673,0,0,0,660.351,639,2.712,2.712,0,0,1,658.616,636.444Z" transform="translate(-507.786 -512.115)" opacity="0.1"/><ellipse cx="0.479" cy="0.638" rx="0.479" ry="0.638" transform="translate(145.212 119.428) rotate(-37.22)" fill="#fbbebe"/><path d="M306.659,689.127l3.066-1.8a7.368,7.368,0,0,0-1.568-1.876l-5.783,1.8,4.531-2.664A7.367,7.367,0,0,0,296,691.044c0,4.068,3.3,4.208,7.367,4.208s7.367-.14,7.367-4.208a7.308,7.308,0,0,0-.633-2.993Z" transform="translate(-234.419 -553.451)" fill="#049ce7"/><path d="M307.439,708.842a5.758,5.758,0,0,0-1.087-.854,5.019,5.019,0,0,0-1.789-.872,13.528,13.528,0,0,0-1.757-.051,4.1,4.1,0,0,1-2.691-1.234,8.248,8.248,0,0,0-1.252-1.3,2.739,2.739,0,0,0-1.874-.343,4.566,4.566,0,0,0-.555.113,7.366,7.366,0,0,0-.435,2.5c0,4.068,3.3,4.208,7.367,4.208a15.453,15.453,0,0,0,5.09-.532l-.23-.412A5.726,5.726,0,0,0,307.439,708.842Z" transform="translate(-234.419 -569.211)" opacity="0.1"/></g></svg>