<svg xmlns="http://www.w3.org/2000/svg" width="263.131" height="139.968" viewBox="0 0 263.131 139.968"><g transform="translate(-0.011 -0.035)"><path d="M434.05,507.383a8.93,8.93,0,0,1,1.094-1.453,2.092,2.092,0,0,1-.169.126,2.8,2.8,0,0,0-.758.478,1.577,1.577,0,0,0-.273.644l-.644,2.5c.126-.159.253-.316.382-.473A4.423,4.423,0,0,1,434.05,507.383Z" transform="translate(-343.596 -421.782)" fill="#f2f2f2"/><path d="M672.123,508.879a2.86,2.86,0,0,1-.253.816,11.4,11.4,0,0,1-.419,3.133,9.493,9.493,0,0,0-.265,1.312c-.6,4.078-1.172,8.339-.154,12.291a1.481,1.481,0,0,1,.387-.632,6.511,6.511,0,0,0,1.137-2.951c1.049-5.509.758-11.134.505-16.761a1.868,1.868,0,0,0-.551-.417,5.125,5.125,0,0,1-.018.738A24.438,24.438,0,0,1,672.123,508.879Z" transform="translate(-520.837 -421.588)" fill="#f2f2f2"/><path d="M531.984,505.094a2.581,2.581,0,0,0-.2-.935,2.988,2.988,0,0,0-.49-.677l-.546-.622c-.278,6.6-.869,13.218.359,19.68a6.51,6.51,0,0,0,1.137,2.951,1.481,1.481,0,0,1,.387.632c1.011-3.945.442-8.213-.154-12.291a9.5,9.5,0,0,0-.265-1.312,12.53,12.53,0,0,1-.3-5.092A11.891,11.891,0,0,0,531.984,505.094Z" transform="translate(-416.131 -419.488)" fill="#f2f2f2"/><path d="M549.16,452.4a17.285,17.285,0,0,1,1.595,3.987l.174.591c-.083-2-.124-4-.139-5.994-.394.351-.791.695-1.19,1.039Z" transform="translate(-430.179 -380.718)" fill="#f2f2f2"/><path d="M552.031,638.485a13.524,13.524,0,0,0-.321-4.174,12.305,12.305,0,0,1-.6-2.605,8.006,8.006,0,0,1,.217-1.769c1.039-5.281,1.486-10.838-.086-15.985-.422-1.38-.981-2.714-1.41-4.091a9.971,9.971,0,0,1-.713,1.493,1.546,1.546,0,0,0-.862-1.011,5.134,5.134,0,0,1-.018.738,24.424,24.424,0,0,1-.351,2.461,2.508,2.508,0,0,1-.311.9,2.1,2.1,0,0,1-.814.672c.147.331.293.665.437,1l-1.054.323c.692,1.516.116,3.245-.253,4.857-1.322,5.607-.131,11.6-.758,17.264Z" transform="translate(-427.174 -499.45)" fill="#f2f2f2"/><path d="M555.051,401.383a8.935,8.935,0,0,1,1.094-1.453,2.088,2.088,0,0,1-.169.126,2.8,2.8,0,0,0-.758.478,1.578,1.578,0,0,0-.273.644l-.644,2.5c.126-.159.253-.316.382-.473A4.421,4.421,0,0,1,555.051,401.383Z" transform="translate(-434.02 -342.568)" fill="#f2f2f2"/><path d="M652.99,399.094a2.579,2.579,0,0,0-.2-.935,2.985,2.985,0,0,0-.49-.677l-.546-.622c-.273,6.5-.849,13.019.308,19.387.2-.687.412-1.375.617-2.065a21.065,21.065,0,0,1,1.215-3.305c-.119-1.011-.265-2.039-.412-3.032a9.5,9.5,0,0,0-.265-1.311,12.531,12.531,0,0,1-.3-5.092A11.893,11.893,0,0,0,652.99,399.094Z" transform="translate(-506.561 -340.274)" fill="#f2f2f2"/><path d="M611.614,602.28l-.864,30.437,2.274-.025a95.093,95.093,0,0,1-.546-11.156,15.582,15.582,0,0,0-.187-3.239c-.159-.74-.437-1.451-.589-2.191a13.123,13.123,0,0,1-.169-2.691Z" transform="translate(-476.205 -493.785)" fill="#f2f2f2"/><path d="M536.135,598.835c.035-.083.071-.167.1-.253.119-.308.225-.619.323-.932a.248.248,0,0,0-.02.035c-.2.328-.417.644-.642.953C535.981,598.7,536.059,598.767,536.135,598.835Z" transform="translate(-420.269 -490.325)" fill="#f2f2f2"/><path d="M259.984,461.094a2.579,2.579,0,0,0-.2-.935,2.987,2.987,0,0,0-.49-.677l-.546-.622c-.278,6.6-.869,13.218.359,19.68a6.51,6.51,0,0,0,1.137,2.951,1.481,1.481,0,0,1,.387.632c1.011-3.945.442-8.213-.154-12.291a9.492,9.492,0,0,0-.253-1.311,12.531,12.531,0,0,1-.3-5.092A11.892,11.892,0,0,0,259.984,461.094Z" transform="translate(-212.863 -386.607)" fill="#f2f2f2"/><path d="M264.135,554.835c.035-.083.071-.167.1-.253.119-.308.225-.619.323-.932a.254.254,0,0,0-.02.035c-.2.328-.417.644-.642.953C263.981,554.7,264.059,554.767,264.135,554.835Z" transform="translate(-217.002 -457.444)" fill="#f2f2f2"/><path d="M219.84,664.28q-.222,7.922-.45,15.841l1.084-.013c-.162-.672-.4-1.324-.541-2a13.12,13.12,0,0,1-.169-2.691Z" transform="translate(-183.739 -540.119)" fill="#f2f2f2"/><path d="M269.174,701.005a2.1,2.1,0,0,1-.814-.677,2.51,2.51,0,0,1-.311-.922,24.451,24.451,0,0,1-.351-2.461,5.126,5.126,0,0,1-.018-.738,1.546,1.546,0,0,0-.862,1.011A11.817,11.817,0,0,1,265.4,693c-.076.253-.154.531-.253.793a21.384,21.384,0,0,0-1.44,4.723,9.368,9.368,0,0,0,.253,2.949l5.018-.056A2.378,2.378,0,0,0,269.174,701.005Z" transform="translate(-216.838 -561.581)" fill="#f2f2f2"/><path d="M298.48,691.66c.1.313.2.624.323.932.033.083.068.167.1.253.076-.068.154-.131.235-.195-.225-.308-.442-.624-.642-.953A.256.256,0,0,0,298.48,691.66Z" transform="translate(-242.844 -560.58)" fill="#f2f2f2"/><path d="M410.378,665.185a31.367,31.367,0,0,1-.725-4.576l-1.2-11.118c-.013-.1-.023-.195-.033-.291-.015.048-.028.1-.043.144a7.986,7.986,0,0,1-1.516,2.39c-.6.738-1.359,1.5-2.246,1.284a2.413,2.413,0,0,1-.963-.594l-2.022-1.746c-.4-.344-.8-.687-1.19-1.039-.018,2.438-.073,4.874-.2,7.31a5.274,5.274,0,0,1-.467,2.246A25.755,25.755,0,0,1,401,666.358c.018.659,0,1.319-.02,1.979l5.923-.066h.035l4.455-.048A30.8,30.8,0,0,1,410.378,665.185Z" transform="translate(-318.538 -528.849)" fill="#f2f2f2"/><path d="M397.823,603.207l.382.473-.644-2.5a1.575,1.575,0,0,0-.273-.644,2.8,2.8,0,0,0-.758-.478,2.106,2.106,0,0,1-.169-.126,8.928,8.928,0,0,1,1.094,1.453A4.422,4.422,0,0,1,397.823,603.207Z" transform="translate(-315.99 -492.029)" fill="#f2f2f2"/><path d="M430.266,560.04c.159,1.756.253,3.517.341,5.279s.179,3.477.268,5.216a25.778,25.778,0,0,1,.935-3.967,5.274,5.274,0,0,1-.467-2.246c-.126-2.436-.182-4.872-.2-7.31-.387.346-.778.685-1.172,1.011A14.216,14.216,0,0,1,430.266,560.04Z" transform="translate(-341.107 -459.955)" fill="#f2f2f2"/><path d="M296.186,607.782c-.6,4.078-1.172,8.339-.154,12.291a1.481,1.481,0,0,1,.387-.632,6.51,6.51,0,0,0,1.137-2.951c1.228-6.461.637-13.079.359-19.68l-.538.622a2.985,2.985,0,0,0-.505.69,2.58,2.58,0,0,0-.2.948,11.891,11.891,0,0,0,.078,2.322,12.531,12.531,0,0,1-.293,5.069,9.493,9.493,0,0,0-.265,1.322Z" transform="translate(-240.597 -489.698)" fill="#f2f2f2"/><path d="M657.51,658.243l1.981-.02c-1.056-6.085.467-12.617-.968-18.7a18.971,18.971,0,0,1-.576-2.9,15.965,15.965,0,0,0-1.215,4.089c-.23,2.459.927,4.814,1.357,7.247.591,3.353-.21,6.772-.566,10.158C657.517,658.16,657.515,658.195,657.51,658.243Z" transform="translate(-510.545 -519.448)" fill="#f2f2f2"/><path d="M907.964,627.184c-2.294-6.838,0-14.459-1.66-21.479-.382-1.612-.958-3.353-.253-4.857L905,600.525c.144-.331.291-.665.437-1a2.617,2.617,0,0,1-.566-.389l-.773,7.128a31.366,31.366,0,0,1-.725,4.576c-.437,1.68-1.147,3.285-1.655,4.94a30.705,30.705,0,0,0-.478,13.784l7.581-.081C908.54,628.718,908.224,627.957,907.964,627.184Z" transform="translate(-692.878 -491.439)" fill="#f2f2f2"/><path d="M913.171,439.867l.02-.071.091-.3a3.161,3.161,0,0,0-.713-.445,2.1,2.1,0,0,1-.169-.126C912.65,439.248,912.931,439.544,913.171,439.867Z" transform="translate(-701.63 -371.713)" fill="#f2f2f2"/><path d="M814.48,530.66c.1.313.2.624.323.932.033.083.068.167.1.253.076-.068.154-.131.235-.195-.225-.308-.442-.624-.642-.953A.248.248,0,0,0,814.48,530.66Z" transform="translate(-628.454 -440.263)" fill="#f2f2f2"/><path d="M931.555,514.139a55.824,55.824,0,0,0,.687-12.359,1.62,1.62,0,0,1-1.382.4l-.043-.013a10.8,10.8,0,0,1-.366,1.956,9.5,9.5,0,0,0-.265,1.311c-.6,4.078-1.172,8.339-.154,12.291a1.48,1.48,0,0,1,.387-.632A6.509,6.509,0,0,0,931.555,514.139Z" transform="translate(-714.39 -418.681)" fill="#f2f2f2"/><path d="M492.816,712.245q0-1.986.025-3.975-.058,1.986-.111,3.975Z" transform="translate(-388.008 -572.992)" fill="#f2f2f2"/><path d="M340.619,202.662q-.253-1.428-.6-2.807c-2.451-9.911-8.19-17.82-18.7-22.1q-1.352-.551-2.81-1.011a47.778,47.778,0,0,0-6.762-1.617c-22.045-3.687-40.582-1.933-57.293,1.392-.943.184-1.878.379-2.81.576-23.425,4.95-43.372,12.619-64.657,11.95-.932-.028-1.87-.073-2.807-.134a79.531,79.531,0,0,1-29.1-7.72c-12.117-5.708-24.438-3.79-35.554,3.007a70.01,70.01,0,0,0-17.418,15.667l-.018.02q-1.112,1.365-2.183,2.78c-17.095,22.712-26.586,56.674-18.8,82.992q.419,1.423.91,2.81a50.892,50.892,0,0,0,10.184,17.4,21.83,21.83,0,0,0,9.878,6.254c.652.2,1.317.366,1.989.505a26.751,26.751,0,0,0-.963-9.441c-.505-1.663-1.218-3.26-1.655-4.94a31.367,31.367,0,0,1-.725-4.576l-1.2-11.118a49.335,49.335,0,0,1-.437-6.886,25.754,25.754,0,0,1,1.228-7.161,5.275,5.275,0,0,1-.467-2.246c-.126-2.436-.182-4.872-.2-7.31-.394.351-.791.695-1.19,1.039l-2.034,1.756a2.413,2.413,0,0,1-.963.594c-.887.217-1.673-.571-2.246-1.284a8.444,8.444,0,0,1-1.516-2.39,7.493,7.493,0,0,1-.275-2.567c.02-1.109.076-2.216.134-3.323l.478-9.259c.091-1.769.182-3.523.341-5.279a8.372,8.372,0,0,1,.925-3.626c1.221-2.022,3.838-2.727,6.216-2.555a.892.892,0,0,1-.023-.758,1.352,1.352,0,0,1,.612-.505l3.515-1.9a1.946,1.946,0,0,1,.824-.291.97.97,0,0,1,.45.094l.68-.475a1.715,1.715,0,0,1,.505-.275,1.192,1.192,0,0,1,.69.033,2.78,2.78,0,0,0,.291-1.1,3.907,3.907,0,0,0-.3-1.38,6.661,6.661,0,0,1-2.641-5.236c-.758-.425-1.733-.662-2.042-1.557-.21-.609.04-1.281-.045-1.915a1.559,1.559,0,0,1-.374-.591c-.217-.629.066-1.332-.051-1.989a2.916,2.916,0,0,1-.179-1.074,1.579,1.579,0,0,1,.4-.675l2.484-2.941a6.492,6.492,0,0,1,1.867-1.7c1.8-.927,3.965,0,5.991,0a6.2,6.2,0,0,1,2.022.114,4.172,4.172,0,0,1,1.248.793l2.78,2.274c.935.758,1.943,1.66,2.034,2.863a2.689,2.689,0,0,1-.157,1.074,2.78,2.78,0,0,1,.574,1.43,3.815,3.815,0,0,1-.806,2.327,12.293,12.293,0,0,1-2.527,2.739,6.674,6.674,0,0,1-1.6,3.219,20.944,20.944,0,0,0,.718,2.6.34.34,0,0,1,.018.045,1.264,1.264,0,0,1,.657.23,3.559,3.559,0,0,1,.546.505.793.793,0,0,1,.369-.308,1.527,1.527,0,0,1,1.16.187,11.91,11.91,0,0,1,3.156,1.855,4.043,4.043,0,0,1,.824,1.044,5.2,5.2,0,0,1,3.626.839c1.91,1.309,2.7,3.7,3.361,5.918q.743,2.492,1.488,4.978a22.881,22.881,0,0,1,1.034,12.832c-.392,2.838.531,5.948.543,8.811,0,.735,0,1.481-.018,2.224a5.216,5.216,0,0,1,3.449-.73,4.044,4.044,0,0,1,.824-1.044,12.048,12.048,0,0,1,3.156-1.855,1.528,1.528,0,0,1,1.16-.187.794.794,0,0,1,.369.308,3.557,3.557,0,0,1,.546-.505,1.264,1.264,0,0,1,.657-.23.338.338,0,0,1,.018-.046,20.947,20.947,0,0,0,.718-2.6,6.674,6.674,0,0,1-1.6-3.219,12.293,12.293,0,0,1-2.527-2.739,3.815,3.815,0,0,1-.806-2.327,2.78,2.78,0,0,1,.574-1.43,2.689,2.689,0,0,1-.157-1.074c.091-1.2,1.1-2.1,2.034-2.863l2.78-2.274a4.171,4.171,0,0,1,1.248-.793,6.211,6.211,0,0,1,2.022-.114c2.022,0,4.187-.922,5.991,0a6.427,6.427,0,0,1,1.867,1.7l2.517,2.944a1.579,1.579,0,0,1,.4.675,2.969,2.969,0,0,1-.179,1.074c-.116.657.167,1.359-.051,1.989a1.559,1.559,0,0,1-.374.591c-.086.634.164,1.306-.045,1.915-.308.895-1.279,1.132-2.042,1.557a6.661,6.661,0,0,1-2.641,5.236,3.907,3.907,0,0,0-.3,1.38,2.78,2.78,0,0,0,.291,1.1,1.193,1.193,0,0,1,.69-.033,1.716,1.716,0,0,1,.505.275l.68.475a.971.971,0,0,1,.45-.093,1.945,1.945,0,0,1,.824.291l3.507,1.877a2.232,2.232,0,0,1,.43.286c.028-.68.058-1.362.093-2.042l.478-9.259c.091-1.769.182-3.523.341-5.279a8.372,8.372,0,0,1,.925-3.626c1.221-2.022,3.838-2.727,6.216-2.555a.892.892,0,0,1-.023-.758,1.352,1.352,0,0,1,.612-.505l3.5-1.9a1.945,1.945,0,0,1,.824-.291.97.97,0,0,1,.45.093l.68-.475a1.716,1.716,0,0,1,.505-.275,1.193,1.193,0,0,1,.69.033,2.78,2.78,0,0,0,.291-1.1,3.907,3.907,0,0,0-.3-1.38,6.661,6.661,0,0,1-2.641-5.236c-.758-.425-1.733-.662-2.042-1.557-.21-.609.04-1.281-.046-1.915a1.559,1.559,0,0,1-.374-.591c-.217-.629.066-1.332-.051-1.989a6.389,6.389,0,0,1-.192-.869,7.329,7.329,0,0,0-.632,1.64c-.356,1.433-.293,2.934-.505,4.392a1.78,1.78,0,0,1-.647,1.314,7.479,7.479,0,0,1-1.114.339,1.9,1.9,0,0,0-1.011,1.549,15,15,0,0,0,.018,1.936,4.882,4.882,0,0,1-2.287,4.263c-1.943,1.084-4.356.366-6.456-.371a5.7,5.7,0,0,0,2.411-1.673l-2.312-.46a14.823,14.823,0,0,0,3.689-2.433,3.136,3.136,0,0,0,.94-1.233c.253-.708.018-1.516.253-2.226.392-1.213,1.88-1.675,2.638-2.7a5.269,5.269,0,0,0,.685-3.209l-.013-4.24c0-1.22.078-2.625,1.051-3.366,1.084-.829,2.62-.356,3.985-.366,1.438,0,2.807-.6,4.238-.758,1.349-.157,3.6.791,3.563,1.86a15.509,15.509,0,0,0,2.274.238,6.2,6.2,0,0,1,2.022.114,4.172,4.172,0,0,1,1.248.793l2.78,2.274c.935.758,1.943,1.66,2.022,2.863a2.689,2.689,0,0,1-.157,1.074,2.78,2.78,0,0,1,.574,1.43,3.815,3.815,0,0,1-.806,2.327,12.294,12.294,0,0,1-2.527,2.739,6.674,6.674,0,0,1-1.6,3.219,20.945,20.945,0,0,0,.718,2.6.338.338,0,0,1,.018.045,1.264,1.264,0,0,1,.657.23,3.559,3.559,0,0,1,.546.505.794.794,0,0,1,.369-.308,1.527,1.527,0,0,1,1.16.187,13.9,13.9,0,0,1,2.78,1.544v-.154c.02-1.109.076-2.216.134-3.323l.478-9.259c.091-1.769.182-3.523.341-5.279a8.373,8.373,0,0,1,.925-3.626c1.221-2.022,3.838-2.727,6.216-2.555a.892.892,0,0,1-.023-.758,1.352,1.352,0,0,1,.612-.505l3.528-1.91a1.945,1.945,0,0,1,.824-.291.97.97,0,0,1,.45.093l.68-.475a1.715,1.715,0,0,1,.505-.275,1.193,1.193,0,0,1,.69.033,2.779,2.779,0,0,0,.291-1.1,3.906,3.906,0,0,0-.3-1.38,6.661,6.661,0,0,1-2.641-5.236c-.758-.425-1.733-.662-2.042-1.557-.21-.609.04-1.281-.045-1.915a1.559,1.559,0,0,1-.374-.591c-.217-.629.066-1.332-.051-1.989a2.917,2.917,0,0,1-.179-1.074,1.579,1.579,0,0,1,.4-.675l2.484-2.941a6.491,6.491,0,0,1,1.867-1.7c1.8-.927,3.965,0,5.991,0a6.2,6.2,0,0,1,2.022.114,4.172,4.172,0,0,1,1.248.793l2.78,2.274c.935.758,1.943,1.66,2.022,2.863a2.689,2.689,0,0,1-.157,1.074,2.78,2.78,0,0,1,.574,1.43,3.815,3.815,0,0,1-.806,2.327,12.293,12.293,0,0,1-2.527,2.739,6.674,6.674,0,0,1-1.6,3.219,20.945,20.945,0,0,0,.718,2.6.34.34,0,0,1,.018.045,1.264,1.264,0,0,1,.657.23,3.561,3.561,0,0,1,.546.505.793.793,0,0,1,.369-.308,1.527,1.527,0,0,1,1.16.187,11.91,11.91,0,0,1,3.156,1.855,4.043,4.043,0,0,1,.824,1.044,5.2,5.2,0,0,1,3.626.839c1.91,1.309,2.7,3.7,3.361,5.918q.743,2.492,1.488,4.978a30.506,30.506,0,0,1,1.461,6.651,28.615,28.615,0,0,1-.374,5.779c.063-.066.126-.129.2-.192a12.048,12.048,0,0,1,3.156-1.855,1.527,1.527,0,0,1,1.16-.187.793.793,0,0,1,.369.308,3.56,3.56,0,0,1,.546-.505,1.264,1.264,0,0,1,.657-.23.34.34,0,0,1,.018-.046,20.944,20.944,0,0,0,.718-2.6,6.674,6.674,0,0,1-1.6-3.219,12.294,12.294,0,0,1-2.527-2.739,3.815,3.815,0,0,1-.806-2.327,2.78,2.78,0,0,1,.574-1.43,2.689,2.689,0,0,1-.157-1.074c.091-1.2,1.1-2.1,2.022-2.863l2.78-2.274a4.171,4.171,0,0,1,1.248-.793,6.211,6.211,0,0,1,2.022-.114,15.508,15.508,0,0,0,2.274-.238c-.038-1.069,2.214-2.022,3.563-1.86a37.819,37.819,0,0,0,4.238.758c1.365,0,2.9-.462,3.985.366.973.74,1.054,2.145,1.051,3.366l-.013,4.24a5.287,5.287,0,0,0,.685,3.209c.723.975,2.1,1.44,2.572,2.527a7.65,7.65,0,0,1,2.623-3.707,5.2,5.2,0,0,1,3.626-.839,4.043,4.043,0,0,1,.824-1.044A12.046,12.046,0,0,1,271,222.1a1.527,1.527,0,0,1,1.16-.187.793.793,0,0,1,.369.308,3.556,3.556,0,0,1,.546-.505,1.264,1.264,0,0,1,.657-.23.343.343,0,0,1,.018-.045,20.942,20.942,0,0,0,.718-2.6,6.674,6.674,0,0,1-1.6-3.219,12.294,12.294,0,0,1-2.527-2.739,3.815,3.815,0,0,1-.806-2.327,2.78,2.78,0,0,1,.574-1.43,2.689,2.689,0,0,1-.157-1.074c.091-1.2,1.1-2.1,2.022-2.863l2.78-2.274a4.171,4.171,0,0,1,1.248-.793,6.211,6.211,0,0,1,2.022-.114,15.508,15.508,0,0,0,2.274-.238c-.038-1.069,2.214-2.022,3.563-1.86a37.822,37.822,0,0,0,4.238.758c1.365,0,2.9-.462,3.985.366.973.74,1.054,2.145,1.051,3.366l-.013,4.24a5.287,5.287,0,0,0,.685,3.209c.758,1.023,2.246,1.486,2.638,2.7.227.715,0,1.516.253,2.226a3.136,3.136,0,0,0,1.006,1.253,14.642,14.642,0,0,0,1.807,1.395,3.009,3.009,0,0,1,.478-.93,2.689,2.689,0,0,1-.157-1.074c.091-1.2,1.1-2.1,2.022-2.863l2.78-2.274a4.171,4.171,0,0,1,1.248-.793,6.211,6.211,0,0,1,2.022-.114c2.022,0,4.187-.922,5.991,0a6.427,6.427,0,0,1,1.867,1.7l2.484,2.941a1.579,1.579,0,0,1,.4.675,2.97,2.97,0,0,1-.179,1.074c-.116.657.167,1.359-.051,1.989a1.559,1.559,0,0,1-.374.591c-.086.634.164,1.306-.046,1.915-.308.895-1.279,1.132-2.042,1.557a6.661,6.661,0,0,1-2.641,5.236,3.906,3.906,0,0,0-.3,1.38,2.779,2.779,0,0,0,.291,1.1,1.192,1.192,0,0,1,.69-.033,1.716,1.716,0,0,1,.505.275l.68.475a.971.971,0,0,1,.45-.093,1.945,1.945,0,0,1,.824.291l3.507,1.878a1.352,1.352,0,0,1,.612.505.892.892,0,0,1-.023.758c2.378-.172,5,.533,6.216,2.555a8.409,8.409,0,0,1,.925,3.626c.159,1.756.253,3.517.341,5.279l.478,9.259c.058,1.107.114,2.214.134,3.323a7.493,7.493,0,0,1-.275,2.567,7.988,7.988,0,0,1-1.516,2.39c-.6.738-1.359,1.5-2.246,1.284a2.413,2.413,0,0,1-.963-.594l-2.034-1.746c-.4-.344-.8-.687-1.19-1.039-.018,2.438-.073,4.874-.2,7.31a5.275,5.275,0,0,1-.467,2.246,25.753,25.753,0,0,1,1.228,7.161,45.322,45.322,0,0,1-.334,5.938c.212-.452.425-.9.639-1.367C332.267,260.314,344.93,226.5,340.619,202.662Z" transform="translate(-78.34 -173.03)" fill="#f2f2f2"/><path d="M161.984,463.178l-.644,2.5c.126-.159.253-.316.382-.473a4.422,4.422,0,0,1,.359-1.824,8.931,8.931,0,0,1,1.094-1.453,2.106,2.106,0,0,1-.169.126,2.8,2.8,0,0,0-.758.478,1.576,1.576,0,0,0-.263.644Z" transform="translate(-140.358 -388.901)" fill="#f2f2f2"/><path d="M772.823,502.207l.382.473-.644-2.5a1.576,1.576,0,0,0-.273-.644,2.8,2.8,0,0,0-.758-.478,2.1,2.1,0,0,1-.169-.126,8.935,8.935,0,0,1,1.094,1.453,4.424,4.424,0,0,1,.369,1.824Z" transform="translate(-596.23 -416.551)" fill="#f2f2f2"/><path d="M932.907,568.843c.076-.068.154-.131.235-.195-.225-.308-.442-.624-.642-.953a.242.242,0,0,0-.02-.035c.1.313.2.624.323.932C932.836,568.676,932.864,568.757,932.907,568.843Z" transform="translate(-716.636 -467.914)" fill="#f2f2f2"/><path d="M673.48,590.66c.1.313.2.624.323.932.033.083.068.167.1.253.076-.068.154-.131.235-.195-.225-.308-.442-.624-.642-.953A.248.248,0,0,0,673.48,590.66Z" transform="translate(-523.084 -485.102)" fill="#f2f2f2"/><path d="M751.009,376.366a6.661,6.661,0,0,1-2.641,5.236,3.906,3.906,0,0,0-.3,1.38,2.778,2.778,0,0,0,.291,1.1,1.193,1.193,0,0,1,.69-.033,1.718,1.718,0,0,1,.505.275l.68.475a.971.971,0,0,1,.45-.094,1.946,1.946,0,0,1,.824.291l3.507,1.878a1.353,1.353,0,0,1,.612.505.892.892,0,0,1-.023.758,9.218,9.218,0,0,1,2.251.109,37.554,37.554,0,0,1,1.049-4.177,5.207,5.207,0,0,1-1.289-3.467,14.562,14.562,0,0,0,.018-1.936,1.9,1.9,0,0,0-1.011-1.549,7.3,7.3,0,0,1-1.114-.339,1.788,1.788,0,0,1-.647-1.314c-.22-1.458-.157-2.959-.505-4.392a7.328,7.328,0,0,0-.632-1.64,6.39,6.39,0,0,1-.192.869c-.116.657.167,1.359-.051,1.989a1.559,1.559,0,0,1-.374.591c-.086.634.164,1.306-.046,1.915C752.742,375.7,751.772,375.942,751.009,376.366Z" transform="translate(-578.825 -319.775)" fill="#f2f2f2"/><path d="M812.186,446.782c-.6,4.078-1.173,8.339-.154,12.291a1.48,1.48,0,0,1,.387-.632,6.511,6.511,0,0,0,1.137-2.951c1.228-6.461.637-13.079.359-19.68l-.538.622a2.988,2.988,0,0,0-.505.69,2.58,2.58,0,0,0-.2.948,11.892,11.892,0,0,0,.078,2.322,12.532,12.532,0,0,1-.293,5.069A9.5,9.5,0,0,0,812.186,446.782Z" transform="translate(-626.208 -369.381)" fill="#f2f2f2"/><path d="M773.647,552.988a1.549,1.549,0,0,1-1.291.331,2.412,2.412,0,0,1-.963-.594l-2.022-1.746c-.4-.344-.8-.687-1.19-1.039-.018,2.438-.073,4.874-.2,7.31a5.274,5.274,0,0,1-.467,2.246,25.753,25.753,0,0,1,1.228,7.161,51.053,51.053,0,0,1-.437,6.886q-.6,5.559-1.2,11.119a31.366,31.366,0,0,1-.725,4.576c-.349,1.342-.872,2.63-1.327,3.94l2.58-.028,3.285-.035h.4l5.559-.061a.032.032,0,0,0,0-.015c.43-2.433,1.587-4.8,1.357-7.247a21.384,21.384,0,0,0-1.44-4.723c-2.294-6.838,0-14.459-1.66-21.479-.382-1.612-.958-3.353-.253-4.857l-1.054-.323c.144-.331.291-.665.437-1A2.6,2.6,0,0,1,773.647,552.988Z" transform="translate(-591.515 -454.671)" fill="#f2f2f2"/><path d="M718.83,701.28q.015,2.562.033,5.125h.111Z" transform="translate(-556.974 -567.769)" fill="#f2f2f2"/><path d="M977.83,678.28l.051,7.732.167-.1Q977.936,682.1,977.83,678.28Z" transform="translate(-750.527 -550.581)" fill="#f2f2f2"/><path d="M952.327,362.13l-.427.086a5.558,5.558,0,0,0,.793.758A4.224,4.224,0,0,1,952.327,362.13Z" transform="translate(-731.149 -314.32)" fill="#f2f2f2"/><path d="M857.239,641.28l.076,11.134a13.123,13.123,0,0,1-.169,2.691c-.152.74-.43,1.45-.589,2.191a14.922,14.922,0,0,0-.187,3.24v.654l1.433-.015Q857.522,651.229,857.239,641.28Z" transform="translate(-659.754 -522.93)" fill="#f2f2f2"/><path d="M1031.823,479.207l.382.473-.644-2.5a1.577,1.577,0,0,0-.273-.644,2.8,2.8,0,0,0-.758-.478q-.088-.059-.169-.126a8.92,8.92,0,0,1,1.094,1.453A4.42,4.42,0,0,1,1031.823,479.207Z" transform="translate(-789.783 -399.363)" fill="#f2f2f2"/><path d="M892.009,316.366a6.661,6.661,0,0,1-2.641,5.236,3.907,3.907,0,0,0-.3,1.38,2.78,2.78,0,0,0,.291,1.1,1.193,1.193,0,0,1,.69-.033,1.716,1.716,0,0,1,.505.275l.68.475a.971.971,0,0,1,.45-.093,1.945,1.945,0,0,1,.824.291l3.507,1.878a1.352,1.352,0,0,1,.612.505.892.892,0,0,1-.023.758c2.378-.172,5,.533,6.216,2.555a8.41,8.41,0,0,1,.925,3.626c.02.232.038.462.056.692a13.271,13.271,0,0,1,2.924-1.658,1.527,1.527,0,0,1,1.16-.187.793.793,0,0,1,.369.308,3.555,3.555,0,0,1,.546-.505,1.263,1.263,0,0,1,.657-.23.345.345,0,0,1,.018-.045,20.933,20.933,0,0,0,.718-2.6,6.673,6.673,0,0,1-1.6-3.219,12.348,12.348,0,0,1-2.057-2.1c-1.888.612-3.939,1.036-5.633.091a4.871,4.871,0,0,1-2.274-4.263,14.572,14.572,0,0,0,.018-1.936,1.9,1.9,0,0,0-1.011-1.549,7.3,7.3,0,0,1-1.114-.339,1.788,1.788,0,0,1-.647-1.314c-.22-1.458-.157-2.959-.505-4.392a7.328,7.328,0,0,0-.632-1.64,6.381,6.381,0,0,1-.192.869c-.116.657.167,1.359-.05,1.989a1.56,1.56,0,0,1-.374.591c-.086.634.164,1.306-.046,1.915C893.742,315.7,892.772,315.942,892.009,316.366Z" transform="translate(-684.196 -274.937)" fill="#f2f2f2"/><path d="M239.271,346H378.606a4.771,4.771,0,0,1,4.771,4.771v16.761H234.5V350.776A4.771,4.771,0,0,1,239.271,346Z" transform="translate(-175.235 -258.542)" fill="#3f3d56"/><path d="M239.271,346H378.606a4.771,4.771,0,0,1,4.771,4.771v16.761H234.5V350.776A4.771,4.771,0,0,1,239.271,346Z" transform="translate(-175.235 -258.542)" opacity="0.1"/><path d="M442.681,423.32v31.253l-6,.066-.425.005-5.339.058h-.164l-3.742.04-6.808.076-22.358.243-3.136.033-6.158.068-.283,0-5.256.058-14.545.157-3.419.038-10.646.116V423.32Z" transform="translate(-264.837 -316.324)" fill="#3f3d56"/><path d="M442.681,423.32v31.253l-6,.066-.425.005-5.339.058h-.164l-3.742.04-6.808.076-22.358.243-3.136.033-6.158.068-.283,0-5.256.058-14.545.157-3.419.038-10.646.116V423.32Z" transform="translate(-264.837 -316.324)" opacity="0.1"/><path d="M234.5,422.71H383.377v3.677a4.935,4.935,0,0,1-4.935,4.935h-138.7a5.238,5.238,0,0,1-5.238-5.238Z" transform="translate(-175.235 -315.868)" fill="#3f3d56"/><ellipse cx="10.613" cy="2.307" rx="10.613" ry="2.307" transform="translate(93.715 106.534)" fill="#049ce7"/><path d="M487.086,491.812l-.21-10.985c-.045-2.456.043-5.241,1.87-6.886,1.155-1.039,2.888-1.486,3.614-2.858a5.259,5.259,0,0,0,.4-2.479q0-7.48-.028-14.954" transform="translate(-383.627 -382.713)" fill="none" stroke="#049ce7" stroke-miterlimit="10" stroke-width="6"/><rect width="4.922" height="9.537" rx="2.461" transform="translate(106.327 66.239)" fill="#049ce7"/><path d="M541.694,436.294c-1.617-1.888-3.343-3.677-5.069-5.466l-3.5-3.631-3.179-3.3-15.3-15.864c-1.86-1.931-3.811-3.922-6.317-4.867s-5.751-.523-7.27,1.688a3.191,3.191,0,0,0-.584,2.428,4.077,4.077,0,0,0,1.387,2.059c2.982,2.724,7,3.929,10.565,5.837a12.521,12.521,0,0,1,3.24,2.32,16.12,16.12,0,0,1,2.022,2.873l8.943,14.921a20.751,20.751,0,0,0,1.89,2.78c.571.672,1.226,1.263,1.829,1.913,1.428,1.516,2.55,3.313,3.922,4.89a40.255,40.255,0,0,0,6.6,5.688,2.332,2.332,0,0,0,3.659-.27c.958-.846,2.9-2.062,3.429-3.24.462-1.044-.354-2.1-.846-3.017A44.162,44.162,0,0,0,541.694,436.294Z" transform="translate(-393.767 -344.634)" fill="#fbbebe"/><path d="M583.151,701.667l-22.358.253-3.136.033-6.158.068h-.283l-5.256.058a27.021,27.021,0,0,1,1.779-4.422,17.119,17.119,0,0,1,1.615-2.527c1.127.1,2.251.192,3.378.283q3.917.306,7.833.558c6.61.435,13.208.809,19.841,1.4a2.2,2.2,0,0,1,1.263.384,2.049,2.049,0,0,1,.462.7,14.321,14.321,0,0,1,1.018,3.209Z" transform="translate(-427.787 -563.173)" fill="#3f3d56"/><path d="M627.477,433.922c5.761-1.835,8.521-2.868,13.645-6.095-1.119.187.505-1.167-.614-1.322a3.815,3.815,0,0,1-2.818-1.688,5.633,5.633,0,0,1-.579-2.118l-.546-4c.066.475-10.434.536-10.51,3.495-.04,1.546,1.059,3.313,1.344,4.844A20.055,20.055,0,0,1,627.477,433.922Z" transform="translate(-487.643 -356.595)" fill="#fbbebe"/><path d="M627.477,433.922c5.761-1.835,8.521-2.868,13.645-6.095-1.119.187.505-1.167-.614-1.322a3.815,3.815,0,0,1-2.818-1.688,5.633,5.633,0,0,1-.579-2.118l-.546-4c.066.475-10.434.536-10.51,3.495-.04,1.546,1.059,3.313,1.344,4.844A20.055,20.055,0,0,1,627.477,433.922Z" transform="translate(-487.643 -356.595)" opacity="0.1"/><path d="M591.855,489.715c0,.667,0,1.332-.033,2-.126,2.855-.581,5.7-.862,8.549a123.1,123.1,0,0,0-.366,14.416l-6.807.073L561.428,515l-3.136.033-6.158.068c-.058-.136-.121-.27-.19-.4a.048.048,0,0,0,0-.018c-.814-1.579-2.292-2.679-3.56-3.937a9.1,9.1,0,0,1-1.574-1.948,88.063,88.063,0,0,0,7.164-15c.253-.695.47-1.4.758-2.085a10.733,10.733,0,0,1,.644-1.37,17.851,17.851,0,0,0,1.339-2.322,7.737,7.737,0,0,0,.389-2.3q.015-.235.023-.47.046-1.011.038-2v-.154q0-1.2-.086-2.4a28.111,28.111,0,0,1-.141-5.372c.414-3.356,2.4-6.259,3.811-9.35.136-.293.268-.584.389-.879.189-.455.364-.92.531-1.387.953-2.694,1.658-5.539,3.4-7.73.147-.187.308-.371.473-.551a9.623,9.623,0,0,0,2.059-2.449c.432-.98.558-2.226-.483-2.476q.73-.521,1.39-.975a24.439,24.439,0,0,1,10.108-4.425c.1-.023.2-.04.3-.058a2.022,2.022,0,0,1,.872,0,2.547,2.547,0,0,1,.824.44c2.737,1.92,5.307,3.4,6.444,6.545.4,1.094,1.655,2.853,1.845,4,.45,2.711,1.62,5.157,2.413,7.689a14.656,14.656,0,0,1,.781,4.655c-.061,4.435-.922,8.844-.8,13.274q.023.72.073,1.438v.154c.045.667.109,1.334.169,2C591.681,486.739,591.837,488.219,591.855,489.715Z" transform="translate(-428.422 -376.258)" fill="#565171"/><path d="M586.091,566.129v.1c-.058.932-.114,1.867-.2,2.8,0,.162-.028.326-.043.493-.035.354-.071.71-.114,1.064a.467.467,0,0,1-.018.154c-.081.67-.179,1.337-.306,2s-.283,1.359-.473,2.021c-.432,1.5-1.031,2.946-1.516,4.43-.162.505-.313,1.011-.44,1.516-.212.859-.354,1.731-.6,2.577a20.521,20.521,0,0,1-1.309,3.106l-4.933,10.136-2.684,5.506c-.073.154-.149.308-.225.465l-6.158.068h-.283c.033-.136.063-.268.094-.4q.715-3.1,1.428-6.2t1.4-6.108q.505-2.234,1.029-4.465.561-2.456,1.13-4.917c.1-.427.2-.852.293-1.279.465-1.994.945-3.985,1.516-5.948.048-.169.1-.341.149-.505.207-.672.422-1.339.655-2,.015-.053.033-.106.051-.154a41.53,41.53,0,0,1,1.976-4.756c.015-.038.033-.068.051-.106h0c.21-.425.432-.844.66-1.264.505-.912.935-2.173,2.064-2.355a9.2,9.2,0,0,1,3.694.819h0c.326.114.624.212.889.286a3.089,3.089,0,0,1,1.981,1.16A3.011,3.011,0,0,1,586.091,566.129Z" transform="translate(-443.354 -463.742)" fill="#fbbebe"/><path d="M607.874,489.806a11.7,11.7,0,0,0-2.545,4.735A34.18,34.18,0,0,0,604.086,510a2.108,2.108,0,0,0,.687,1.5,1.492,1.492,0,0,0,1.769-.265,4.156,4.156,0,0,0,.95-1.648,7.739,7.739,0,0,0,1.617,2.716c1.6,1.516,4.164,1.435,6.012,2.641a150.234,150.234,0,0,0,6.727-16.089,8.938,8.938,0,0,0,.619-2.61,6.091,6.091,0,0,0-.452-2.355,9.3,9.3,0,0,0-6.065-5.433C613.36,487.7,609.865,487.795,607.874,489.806Z" transform="translate(-470.944 -408.398)" opacity="0.1"/><path d="M606.677,487.383a11.75,11.75,0,0,0-2.547,4.735,34.149,34.149,0,0,0-1.241,15.465,2.1,2.1,0,0,0,.685,1.493,1.482,1.482,0,0,0,1.756-.253,4.171,4.171,0,0,0,.95-1.648A7.812,7.812,0,0,0,607.9,509.9c1.6,1.516,4.164,1.435,6.014,2.638a150.311,150.311,0,0,0,6.724-16.089,8.769,8.769,0,0,0,.619-2.608,6.064,6.064,0,0,0-.452-2.358,9.3,9.3,0,0,0-6.065-5.433C612.156,485.28,608.661,485.371,606.677,487.383Z" transform="translate(-470.048 -406.591)" fill="#565171"/><circle cx="10.765" cy="10.765" r="10.765" transform="translate(130.936 47.168)" fill="#fbbebe"/><path d="M595.449,344.872a4.531,4.531,0,0,1,2.646-1.476,2.778,2.778,0,0,0,1.835,2.487c1,.465,2.12.609,3.1,1.094,1.754.864,3.085,2.767,5.039,2.838.677.023,1.516-.126,1.9.424a1.62,1.62,0,0,1,.222.811l.187,2.042c.541.316,1.2-.053,1.809-.195a2.454,2.454,0,0,1,2.78,3.421,4.976,4.976,0,0,0,5.574-5.941,4.434,4.434,0,0,1-.195-1.263c.078-.975,1.011-1.62,1.547-2.438a4.354,4.354,0,0,0,.19-3.912,12.92,12.92,0,0,0-2.231-3.379l-3.06-3.72c-1.413-1.713-3.093-3.568-5.307-3.682-1.569-.078-3.045.758-4.609.9-2.274.215-4.662-1.011-6.775-.154-1.516.614-2.416,2.123-3.219,3.538a13.19,13.19,0,0,0-1.632,3.71c-.457,2.158.189,4.409-.058,6.6Z" transform="translate(-464.498 -291.788)" fill="#3f3d56"/><path d="M105.22,603.813c.505-.331,1.011-.642,1.493-.945.227-.142.452-.288.675-.442a20.805,20.805,0,0,0,3.015-2.479c.066-.061.131-.129.2-.195l.045-.046a5.761,5.761,0,0,0,1.208-1.617,6.558,6.558,0,0,0,.364-2.873q-.083-3.1-.253-6.191c-.043-.8-.093-1.592-.147-2.388-.025-.384-.053-.758-.081-1.147" transform="translate(-98.419 -481.238)" fill="none" stroke="#3f3d56" stroke-miterlimit="10" stroke-width="4"/><path d="M124.565,574.733a3.538,3.538,0,0,0-1.769-2.906L122,573.4l.025-1.9a3.538,3.538,0,1,0,2.527,3.237Z" transform="translate(-107.583 -470.671)" fill="#049ce7"/><path d="M109.846,661.594l-1.663,1.352q-1.162-1.769-2.163-3.626a2.869,2.869,0,0,1,.334-.033A3.538,3.538,0,0,1,109.846,661.594Z" transform="translate(-99.017 -536.384)" fill="#049ce7"/><path d="M116.963,673.33a3.538,3.538,0,0,1-.394,1.617,3.184,3.184,0,0,1-.212.359l-.227-.318c-.3-.417-.586-.836-.869-1.263Z" transform="translate(-105.922 -546.882)" fill="#049ce7"/><path d="M102.5,631.553a3.538,3.538,0,0,1-1.124-6.947l-.02,1.461.8-1.589h0a3.538,3.538,0,0,1,3.707,3.379,3.5,3.5,0,0,1-.152,1.21A3.55,3.55,0,0,1,102.5,631.553Z" transform="translate(-93.593 -510.371)" fill="#049ce7"/><path d="M136.76,608.893a3.538,3.538,0,1,1,1.569-6.636l-.627,1.716,1.289-1.236a3.537,3.537,0,0,1,1.145,2.449,3.467,3.467,0,0,1-.088.975A3.538,3.538,0,0,1,136.76,608.893Z" transform="translate(-119.245 -493.442)" fill="#049ce7"/><path d="M124.171,581.433c-.819.091-1.615.346-2.436.4a2.651,2.651,0,0,1-2.244-.786,11.2,11.2,0,0,1-.654-1.152,2.527,2.527,0,0,0-.895-.841,3.538,3.538,0,1,0,6.631,2.353C124.439,581.41,124.3,581.418,124.171,581.433Z" transform="translate(-107.666 -476.425)" opacity="0.1"/><path d="M136.627,614.864a3.538,3.538,0,0,1-3.373-5.054,2.6,2.6,0,0,1,.713.715,11.9,11.9,0,0,0,.7,1.173,2.9,2.9,0,0,0,2.353.821c.857-.04,1.683-.281,2.527-.359.119,0,.238-.02.359-.023A3.538,3.538,0,0,1,136.627,614.864Z" transform="translate(-119.112 -499.413)" opacity="0.1"/><path d="M102.559,637.723a3.538,3.538,0,0,1-3.4-4.993,2.859,2.859,0,0,1,.758.72c.275.389.447.836.758,1.2a3.274,3.274,0,0,0,2.509.879c.9-.023,1.726-.235,2.6-.3A3.55,3.55,0,0,1,102.559,637.723Z" transform="translate(-93.653 -516.541)" opacity="0.1"/><path d="M119.18,679.73a3.179,3.179,0,0,1-.212.359l-.227-.318Z" transform="translate(-108.523 -551.664)" fill="#049ce7"/></g></svg>