<svg xmlns="http://www.w3.org/2000/svg" xmlns:xlink="http://www.w3.org/1999/xlink" width="263.131" height="183.36" viewBox="0 0 263.131 183.36"><defs><linearGradient id="a" x1="0.5" y1="1" x2="0.5" gradientUnits="objectBoundingBox"><stop offset="0" stop-color="gray" stop-opacity="0.251"/><stop offset="0.54" stop-color="gray" stop-opacity="0.122"/><stop offset="1" stop-color="gray" stop-opacity="0.102"/></linearGradient></defs><g transform="translate(0 0.018)"><path d="M390.961,107.2a61.649,61.649,0,0,0-10.037-15.993l-139.25-1.371,114.649-16.1a65.052,65.052,0,0,0-23.262-4.615,65.2,65.2,0,0,0-77.891-2.64A64.922,64.922,0,0,0,225.364,59.3c-30.939,0-56.72,21.429-62.5,49.846Z" transform="translate(-132.717 -54.86)" fill="#049ce7" opacity="0.1"/><path d="M329.494,308.781a60.189,60.189,0,0,0-4.339-22.491L83.817,311.621A60.57,60.57,0,0,0,78.165,325.9L152.9,337.034l-76.439,8.12c2.3,32.169,29.879,57.572,63.572,57.572a64.5,64.5,0,0,0,43.786-16.937,64.751,64.751,0,0,0,101.754-18.143,62.827,62.827,0,0,0,41.89-43.3L232.946,309.7H329.48C329.48,309.4,329.494,309.09,329.494,308.781Z" transform="translate(-66.363 -232.609)" fill="#049ce7" opacity="0.1"/><ellipse cx="96.534" cy="9.165" rx="96.534" ry="9.165" transform="translate(16.359 161.532)" fill="#049ce7"/><path d="M345.931,486.8a15.139,15.139,0,0,1-2.812,1.392l-.264.111a.854.854,0,0,0,.318-.55c0-2.227-16.958,2.225-20.243,2.225a14.256,14.256,0,0,1-4.527-.928,37.522,37.522,0,0,0-7.339-1.821h0a25.782,25.782,0,0,0-3.373-1.761v-.016c.067-.132.13-.267.183-.4a.219.219,0,0,1,.026-.067l.084-.214c.026-.07.051-.139.072-.209,1-2.935.418-6.223-.636-9.162-.522-1.45-1.16-2.986-.8-4.483a4.2,4.2,0,0,1,.288-.805h0a3.652,3.652,0,0,1,.172-.329c.028-.053.06-.109.093-.162.084-.141.169-.283.26-.422.06-.09.121-.183.183-.274.169-.248.343-.5.508-.752l.021-.03c.056-.083.109-.169.16-.255s.083-.135.123-.2l.058-.1a.321.321,0,0,0,.028-.039c.026-.049.056-.1.081-.153l.03-.06a4.273,4.273,0,0,0,.181-.392c.023-.063.049-.123.067-.183s.016-.058.026-.086c.023-.074.046-.146.067-.232l.014-.053.014-.056c.012-.046.026-.093.035-.139a.134.134,0,0,1,0,.019,8.842,8.842,0,0,0-.079-3.631,25.537,25.537,0,0,0-.9-3.385,7.347,7.347,0,0,1-.652-3.592,5.285,5.285,0,0,1,.343-1.06h0c.1-.232.2-.464.3-.71.056-.139.107-.281.155-.422l.042-.128c.023-.07.039-.139.058-.209l.014-.065v-.032h0a7.448,7.448,0,0,0,.111-2.225,10.2,10.2,0,0,0-1.5-4.967,6.4,6.4,0,0,0-2.174-2.039,4.831,4.831,0,0,0-.907-.392c.026-.046.056-.09.081-.135a1.732,1.732,0,0,0,.183-.464,2.614,2.614,0,0,0-.088-1.148,19.682,19.682,0,0,0-1.58-4.8,6.606,6.606,0,0,0-3.661-3.315,21.812,21.812,0,0,1-2.448-.647c-.327-.148-.631-.348-.949-.52a6.265,6.265,0,0,0-2.784-.763c-.19-.012-.376,0-.564,0h-.118a4.069,4.069,0,0,0-.464.044c-.193.026-.387.046-.568.081a.8.8,0,0,0-.74.608v.026a.19.19,0,0,1-.016.084c-.1-.016-.207-.033-.311-.044a10.322,10.322,0,0,0-1.142-.063,9.963,9.963,0,0,0-9.854,8.677,5.317,5.317,0,0,1-.645.051,10.673,10.673,0,0,1-2.6-.322l-1.49-.427h0s.014-.037.046-.111l.271-.206-.2.039c.334-.768,1.271-2.926,1.791-3.961.636-1.271,5.192-2.861,5.192-2.861,6.264-.318,11.137-4.872,11.137-4.872s13.021,2.118,21.071,1.476,10.81,1.909,10.81,1.909,5.3,14.522,14.1,10.58c6.619-2.963-5.19-11.422-11.438-15.427.36.2.715.411,1.063.633s.749.483,1.146.742c-.742-.5-1.45-.963-2.1-1.378a21.346,21.346,0,0,0-7.1-2.914l-23-4.856h-.114a70.7,70.7,0,0,0-17.67,4.267c-6.819,2.61-14.749,6.227-15.505,6.96a36.724,36.724,0,0,1-5.088,3.921c-2.246.323-5.22,2.4-7.227,4l-.329.262c-.037-.176-.049-.283-.049-.283s-2.824,1.71-2.863,2.664-5.763,5.568-5.763,5.568-3.22,5.1-4.97,5.343-4.295,5.763-4.295,5.763l-3.016,5.923s-1.589,1.624-1.392,2.624-1.232,2.186-1.232,2.186-2.306,1.986-2.267,2.664-1.193,1.392-1.193,1.392a36.545,36.545,0,0,0-2.225,4.691.634.634,0,0,0,0,.383l-.03.014s-1.441,3.248-1.392,4.531a5.054,5.054,0,0,1-.782,2.452l-.107.039h.086c-.065.109-.109.174-.111.179h0a21.348,21.348,0,0,0-15.793-2.346c-9.38,2.063-8.754,7.554-8.754,7.554s.371,6.756,3.074,9.074,4.408,2.425,5.935,4.176,9.487,2.552,9.487,2.552,15.74.793,24.22,0,12.315-.8,12.315-.8,9.315-1.16,13.5-.425a60.136,60.136,0,0,0,10.123.531,2.41,2.41,0,0,0,.232-.636h.086a2.372,2.372,0,0,0,.232-.612,42.237,42.237,0,0,1,6.123-.872,25.688,25.688,0,0,0,8.158-1.907s3.264.028,8.165,3.418,19.505,1.457,19.505,1.457l8.058-.636s5.3-.849,7,1.378,5.828,3.074,7.206,0,7.844-9.009,7.844-9.009,5.937-3.394,8.584-12.188S347.093,485.746,345.931,486.8Zm-46.28-35.057c.448-.478.814-1.03,1.264-1.508.608-.643,1.364-1.132,1.965-1.78a3.712,3.712,0,0,0,.742-1.16l.014.026.125.332c.016.053.028.1.042.158s.028.123.039.186.014.07.019.1c.014.1.023.193.028.29v.466a1.475,1.475,0,0,1-.028.285,1.125,1.125,0,0,1-.026.174c-.009.058-.016.1-.026.148s-.016.093-.028.139v.014c-.023.1-.046.2-.072.306h0a7.042,7.042,0,0,1-.258.8c-.174.464-.378.928-.557,1.392h0c-.049.125-.1.253-.139.378-.019.056-.037.109-.058.165s-.039.128-.06.19v.028a6.368,6.368,0,0,0-.169.7.433.433,0,0,0,0,.053v.051l-.021.158v.114a1.5,1.5,0,0,1-.016.269v.135a2.162,2.162,0,0,0,.016.325.345.345,0,0,0,.016.128c.016.042,0,.1.016.153a.084.084,0,0,1,0,.023.728.728,0,0,0,.026.142c.009.046.025.137.039.206l.021.088a.52.52,0,0,0,.032.142c.014.046.016.065.026.1s0,.049.019.072l.035.125a.4.4,0,0,0,.03.1l.07.232c.023.067.044.135.065.2a7.067,7.067,0,0,1,.6,3.211h0a2.528,2.528,0,0,1-.049.258,6.138,6.138,0,0,1-1.425,2.3,39.682,39.682,0,0,0-2.408,3.195,9.107,9.107,0,0,0-.817,1.38h0c-.056.123-.107.248-.153.374l-.058.155a8.4,8.4,0,0,0,.03,3.909l.886,5.322c.028.165.056.329.081.5l.028.183.021.144c.032.232.06.478.079.717v.072a2.024,2.024,0,0,0,.014.29v.464a1.742,1.742,0,0,1-.025.36v.028c-.014.123-.033.246-.056.367h0a3.435,3.435,0,0,1-.111.429,7.115,7.115,0,0,1-.944,1.77h0l-.582-.209s-4.872-6.264-6.888-9.116-1.378-4.239-1.378-4.239c.318-4.981-3.5-8.8-5.406-9.745a5.544,5.544,0,0,1-1.9-1.94,2.818,2.818,0,0,1,.524.032l-.137-.334a.4.4,0,0,1,.137.016l-2.213-5.387a6.367,6.367,0,0,1,1.675-.476c.176-.028.355-.053.531-.074a9.9,9.9,0,0,0,4.457,1.8c.1.014.2.019.3.03-.026.035-.049.072-.07.107l-.028.056a.445.445,0,0,0-.03.07.461.461,0,0,0-.023.081v.051a.486.486,0,0,0,0,.142,3.7,3.7,0,0,1,2.6.928,1.64,1.64,0,0,0,.441.436,1.112,1.112,0,0,0,.478.072h1.028a18.208,18.208,0,0,0,3.587-.29A7.7,7.7,0,0,0,299.651,451.744Zm-19.5-.531a2.3,2.3,0,0,1,.483-.309C280.58,450.935,280.41,451.041,280.148,451.213Zm6.742,35.169c-4.731-2.856-7.631-1.7-7.631-1.7h-.529c-2.32,0-20.459-.947-20.459-.947h-.316a1.8,1.8,0,0,1,.316,0,5.4,5.4,0,0,0-.534-1.657,1.5,1.5,0,0,0-.107-.146,19.6,19.6,0,0,0,.561-4.817c-.121-2.264,0-4.332,0-4.332,4.93,1.7,11.735-1.719,11.833-1.773,5.336-1.5,7.424-.32,7.424-.32.425,1.907,5.195,9.963,5.195,9.963s4.346,3.285,6.032,5.831a7.264,7.264,0,0,0,.833,1.016c-.264-.09-.517-.181-.756-.271a11.931,11.931,0,0,1-1.863-.851Z" transform="translate(-157.225 -334.583)" fill="url(#a)"/><path d="M518.348,445.018c-8.654,3.877-13.867-10.406-13.867-10.406s-2.708-2.5-10.633-1.877-20.747-1.462-20.747-1.462-4.8,4.487-10.946,4.793c0,0-4.482,1.564-5.1,2.817-.508,1.016-1.432,3.139-1.761,3.893a1.462,1.462,0,0,1-.067.165c-.032.072-.046.111-.046.111l-.258.121h0l-5.165,2.48-7.088,1.984-4.485.52-7.61-5.274s.879-.821,2.172-1.856c1.974-1.566,4.9-3.612,7.109-3.928a36.191,36.191,0,0,0,5-3.856c.745-.731,8.545-4.288,15.25-6.856a69.605,69.605,0,0,1,17.38-4.2l22.619,4.777a21.055,21.055,0,0,1,7,2.861C513.236,433.779,524.867,442.1,518.348,445.018Z" transform="translate(-338.315 -336.979)" fill="#ffc1c7"/><g transform="translate(92.362 85.237)" opacity="0.1"><path d="M431.967,443.6s.879-.824,2.172-1.856c1.974-1.566,4.9-3.612,7.109-3.928a36.2,36.2,0,0,0,5-3.856c.745-.733,8.545-4.288,15.25-6.856a69.5,69.5,0,0,1,17.38-4.179L501.5,427.7a21.027,21.027,0,0,1,6.993,2.863q.541.346,1.128.731c-.731-.492-1.427-.949-2.065-1.357a21.042,21.042,0,0,0-6.993-2.861L477.945,422.3a69.575,69.575,0,0,0-17.38,4.2c-6.708,2.568-14.508,6.125-15.25,6.856a36.345,36.345,0,0,1-5,3.856c-2.209.315-5.137,2.362-7.109,3.928-1.292,1.028-2.172,1.856-2.172,1.856l7.61,5.274h.03Z" transform="translate(-431.03 -422.3)"/><path d="M750.588,476.477a4.623,4.623,0,0,0-.928-.587c.209.552,2.849,7.392,7.352,10.018C752.906,482.825,750.588,476.477,750.588,476.477Z" transform="translate(-675.734 -463.456)"/></g><path d="M646.89,547.476a3.638,3.638,0,0,1-.1.355c-.019.06-.044.121-.065.179a4.429,4.429,0,0,1-.2.425c-.03.063-.065.125-.1.186a.286.286,0,0,1-.026.039c-.032.06-.065.116-.1.172-.232.394-.5.77-.759,1.16-.086.125-.172.253-.253.383a.705.705,0,0,1-.049.077c-.044.072-.091.148-.132.232s-.074.125-.107.188-.037.065-.053.1l-.1.193a4.12,4.12,0,0,0-.276.754c-.357,1.473.274,2.984.786,4.408,1.035,2.891,1.606,6.125.626,9.011-.023.067-.046.137-.072.207s-.07.183-.107.274c-.056.139-.118.276-.188.413a2.868,2.868,0,0,1-2.552,1.856c-1.534-.135-2.278-2.014-3.675-2.654-1.213-.557-2.747-.1-3.891-.789a4.4,4.4,0,0,1,.387-.9c.207-.38.464-.745.7-1.107a7.076,7.076,0,0,0,.928-1.742,3.733,3.733,0,0,0,.109-.422.131.131,0,0,0,0-.032c.012-.072.026-.139.035-.211s.019-.137.026-.211a.21.21,0,0,0,0-.037,1.264,1.264,0,0,1,.016-.246,11.512,11.512,0,0,0-.232-2.334q-.434-2.617-.872-5.234a8.222,8.222,0,0,1-.028-3.844c.03-.088.063-.176.1-.262s.072-.174.111-.258a9.123,9.123,0,0,1,.8-1.357q1.1-1.624,2.369-3.144a5.971,5.971,0,0,0,1.392-2.26,2,2,0,0,0,.051-.255,5.339,5.339,0,0,0-.38-2.51q-.053-.146-.1-.292c-.1-.288-.195-.578-.278-.872-.028-.1-.053-.193-.079-.29a5.916,5.916,0,0,1-.118-.592,4.246,4.246,0,0,1-.051-.594v-.281a.738.738,0,0,1,.019-.211,2.152,2.152,0,0,0,.032-.232c.012-.084.019-.111.03-.167s.035-.169.058-.251a1.431,1.431,0,0,1,.053-.2c.012-.053.028-.107.042-.158l.06-.186.1-.269c.03-.088.065-.179.1-.267.174-.464.374-.928.548-1.374a7.993,7.993,0,0,0,.253-.787h0a.773.773,0,0,1,.037-.153,1.533,1.533,0,0,0,.035-.155,1.7,1.7,0,0,0,.037-.195c.016-.086.032-.176.042-.265s.019-.179.026-.269,0-.179,0-.267a3.053,3.053,0,0,0-.132-.928,2.222,2.222,0,0,0-.135-.357h0q-.06-.119-.132-.232c-.3-.483-.759-.852-1.028-1.355a2.1,2.1,0,0,1-.232-1,1.926,1.926,0,0,1,.018-.283,1.8,1.8,0,0,1,.065-.283.749.749,0,0,1,.037-.109l.049-.111a1.261,1.261,0,0,1,.077-.135c.023-.03.044-.063.067-.091a1.031,1.031,0,0,1,1.181-.306l.132.044a4.877,4.877,0,0,1,.891.387,6.3,6.3,0,0,1,2.139,2,10.042,10.042,0,0,1,1.476,4.886,7.446,7.446,0,0,1-.109,2.19.719.719,0,0,1-.021.1c-.019.07-.035.139-.058.206a12.842,12.842,0,0,1-.487,1.239h0a5.273,5.273,0,0,0-.339,1.044,7.252,7.252,0,0,0,.643,3.531,25.242,25.242,0,0,1,.868,3.334A8,8,0,0,1,646.89,547.476Z" transform="translate(-495.698 -415.705)" fill="#965d7b"/><g transform="translate(139.8 109.364)" opacity="0.1"><path d="M679.37,567.515a12.663,12.663,0,0,0,.49-1.244c.03-.1.058-.2.081-.3a9.052,9.052,0,0,0-.571,1.545Z" transform="translate(-669.189 -556.764)"/><path d="M657.168,529.656a3.608,3.608,0,0,1,.209,2.837c.019-.051.039-.1.058-.151a4.214,4.214,0,0,0,.047-3.624c-.3-.483-.763-.854-1.03-1.355a2.13,2.13,0,0,1-.232-1.074,1.946,1.946,0,0,0-.07,2.014C656.4,528.8,656.869,529.174,657.168,529.656Z" transform="translate(-651.168 -526.29)"/><path d="M675.9,625.766c-.012.051-.021.1-.03.155.51-1.083,1.411-2,1.856-3.125a4.5,4.5,0,0,0,.22-.726C677.35,623.348,676.22,624.385,675.9,625.766Z" transform="translate(-666.501 -599.848)"/><path d="M646.112,694.155c-.478,1.179-1.473,2.378-2.742,2.267-1.534-.132-2.276-2.012-3.675-2.654-1.188-.545-2.682-.123-3.817-.747a4.526,4.526,0,0,0-.387.9c1.144.7,2.677.232,3.891.786,1.392.643,2.141,2.524,3.675,2.657,1.269.109,2.264-1.09,2.742-2.269a8.735,8.735,0,0,0,.327-.974Z" transform="translate(-635.49 -654.336)"/><path d="M640.337,633.9a8.637,8.637,0,0,1,.137,3.072,4.47,4.47,0,0,0,.2-.515,7.508,7.508,0,0,0-.026-3.494q-.434-2.617-.872-5.237a9.294,9.294,0,0,1-.135-3.427,4.611,4.611,0,0,0-.206.522,8.243,8.243,0,0,0,.028,3.842Q639.9,631.286,640.337,633.9Z" transform="translate(-638.351 -601.56)"/><path d="M657.924,569.027c.448-1.8-.928-3.557-.954-5.406a4.8,4.8,0,0,1,.183-1.271,6.019,6.019,0,0,0-.494,2.211c.016,1.763,1.271,3.445,1,5.158A3.32,3.32,0,0,0,657.924,569.027Z" transform="translate(-651.748 -553.984)"/></g><path d="M505.657,690.831c-2.606,8.652-8.445,11.988-8.445,11.988s-6.359,5.84-7.717,8.87-5.42,2.19-7.086,0-6.882-1.353-6.882-1.353l-7.926.624s-14.362,1.9-19.183-1.432-8.028-3.362-8.028-3.362a25.382,25.382,0,0,1-8.025,1.877,41.162,41.162,0,0,0-6.032.854c-1.107.232-2.074.464-2.768.629s-1.107.288-1.107.288l-10.617-1.07-10.028-1.014L396.4,707l-1.422-3.1-1.369-2.974-.464-1.016.65-10.628h17.1s17.833.928,20.123.928h.52s2.851-1.142,7.506,1.666a11.831,11.831,0,0,0,1.856.84c7.4,2.763,28.178,6.355,28.178,6.355l13.457-.835s7.566-2.756,11.833-4.573a15.216,15.216,0,0,0,2.763-1.369C498.254,691.248,508.263,682.177,505.657,690.831Z" transform="translate(-309.569 -540.445)" fill="#ffc1c7"/><path d="M399.674,706.847l.824,2.933-2.817,1.527-2.7-.3-1.369-2.974-.464-1.016.65-10.629h17.088C407.321,696.71,399.674,706.847,399.674,706.847Z" transform="translate(-309.577 -547.561)" opacity="0.1"/><path d="M331.279,682.432l.824,2.933-2.814,1.527-7.116-.782-3.833-3.088c-6.264-10.164-13.84-10.209-13.84-10.209a5.3,5.3,0,0,0,.9-2.622c-.039-1.251,1.378-4.457,1.378-4.457l.135-.065c.478-.232,2.1-1.035,2.2-1.07,0,0,32.173,5.2,32.8,5.4a.735.735,0,0,1,.374.346,5.267,5.267,0,0,1,.527,1.624C339.418,671.653,331.279,682.432,331.279,682.432Z" transform="translate(-241.494 -523.146)" fill="#565988"/><path d="M485.071,521.379a16.85,16.85,0,0,0-2.826.179c-1.557.253-3.049.844-2.387,2.22,1.251,2.606-6.673,7.192-6.673,7.192l-11.053,7.09-6.882-10.427,3.547-8.445,9.9-5,5.424-2.6a13.073,13.073,0,0,0,4.037.738,3.193,3.193,0,0,0,2.218-.738C482.045,509.913,485.071,521.379,485.071,521.379Z" transform="translate(-357.269 -405.503)" fill="#ffc1c7"/><path d="M560.664,521.379a16.85,16.85,0,0,0-2.826.179,9.777,9.777,0,0,1-4.158-8.016,9.668,9.668,0,0,1,.074-1.223,3.193,3.193,0,0,0,2.218-.738C557.638,509.913,560.664,521.379,560.664,521.379Z" transform="translate(-432.861 -405.503)" opacity="0.1"/><path d="M575.928,488.14a9.8,9.8,0,0,1-9.8,9.8,9.694,9.694,0,0,1-1.356-.1,9.8,9.8,0,0,1,1.358-19.508,10.6,10.6,0,0,1,1.123.063A9.8,9.8,0,0,1,575.928,488.14Z" transform="translate(-434.887 -380.101)" fill="#ffc1c7"/><path d="M652.48,712.352c0,1.244-6.61,3.77-12.311,5.719a35.5,35.5,0,0,1-12.415,1.8,3.635,3.635,0,0,0-1.014.091c-1.564.415-21.893-4.38-21.893-4.38s-4.151-1.926-5.868-4.373c7.4,2.763,28.178,6.355,28.178,6.355l13.457-.835s7.566-2.756,11.833-4.573a.366.366,0,0,1,.033.195Z" transform="translate(-467.651 -558.942)" opacity="0.1"/><path d="M515.144,568.84s1.459,3.835,3.336,4.773,5.629,4.691,5.318,9.591c0,0-.627,1.357,1.355,4.176s6.777,8.965,6.777,8.965,9.8,3.441,12.925,5.527h.012a36.632,36.632,0,0,1,7.213,1.8,14.328,14.328,0,0,0,4.452.912c3.232,0,19.914-4.378,19.914-2.19,0,1.246-6.61,3.773-12.313,5.721a35.531,35.531,0,0,1-12.413,1.8,3.721,3.721,0,0,0-1.014.091c-1.564.415-21.9-4.38-21.9-4.38s-4.285-1.979-5.953-4.492-5.94-5.724-5.94-5.724-4.691-7.923-5.1-9.8c0,0-2.4-1.355-8.654.729s-1.362-4.694-1.362-4.694l6.986-8.12Z" transform="translate(-391.618 -449.604)" fill="#ffc1c7"/><path d="M444.146,524.015l-2.179-5.3a34.688,34.688,0,0,0-5.64,4.464c-2.608,2.606-4.38,4.176-5.631,4.482s-5.524,2.483-7.3-1.991-1.044-7.5.624-8.956,12.956-8.322,12.956-8.322l-1.483-.114s-10.32,3.612-13.552,1.963c0,0-5.735.958-6.986-1.128s-2.431-2.415-2.431-2.415l-7.578,10.234,2.712,22.624h6.984l7.506-2.919,10.009-.835s3.754-3.545,4.276-5.213S440.924,523.493,444.146,524.015Z" transform="translate(-318.639 -401.881)" opacity="0.1"/><path d="M444.146,522.67l-2.179-5.3a34.688,34.688,0,0,0-5.64,4.464c-2.608,2.608-4.38,4.176-5.631,4.482s-5.524,2.483-7.3-1.991-1.044-7.5.624-8.956,12.956-8.014,12.956-8.014l-1.483-.425s-10.32,3.61-13.552,1.961c0,0-5.735.958-6.986-1.128s-2.431-2.415-2.431-2.415l-7.578,10.234,2.712,22.624h6.984l7.506-2.919,10.009-.835s3.754-3.543,4.276-5.211S440.924,522.143,444.146,522.67Z" transform="translate(-318.639 -400.845)" fill="#565988"/><path d="M349.8,670.393c-.121.575-.218.944-.218.944s-.429-.158-5.705.861a31.328,31.328,0,0,1-10.517,0,60.615,60.615,0,0,1-9.072-1.761c-4.534-1.29-10.478-2.817-9.977-4.408.032-.093.065-.2.1-.3.478-.232,2.1-1.035,2.2-1.07,0,0,32.173,5.2,32.8,5.4A.736.736,0,0,1,349.8,670.393Z" transform="translate(-249.007 -523.193)" opacity="0.1"/><path d="M373.408,517.218l1.81,4.09s-2.784-1.478-6.343,4.582-4.028,6.921-4.028,6.921-2.5,1.708-1.875,3.884c0,0-7.41,2.552-12.3.865a19.229,19.229,0,0,0-.977,5.534,31.916,31.916,0,0,1,.019,3.575s1.392-1.056-3.889-.037a48.581,48.581,0,0,1-10.517.721,77.226,77.226,0,0,1-8.543-1.9c-4.536-1.29-11.573-.958-11.065-2.552a36.423,36.423,0,0,1,2.19-4.612s1.211-.7,1.16-1.369,2.23-2.619,2.23-2.619,1.406-1.172,1.211-2.151,1.369-2.58,1.369-2.58l2.972-5.824s2.5-5.436,4.223-5.67,4.886-5.239,4.886-5.239,5.629-4.534,5.668-5.473,2.814-2.619,2.814-2.619.448,3.838,4.176,4,8.654,0,8.654,0l9.673-2.274s-4.237,3.831-5.216,4.1-3.921,2.385-5.42,2.784-4.545,2.445-4.427,5.369A8.929,8.929,0,0,0,353,523.137s3.049,5.8,6.1,5.1c0,0,3.406.183,4.77-1.838S373.408,517.218,373.408,517.218Z" transform="translate(-250.079 -400.384)" opacity="0.1"/><path d="M455.466,505.112l-.264.2-.3.232h0l-5.165,2.48-7.088,1.984-4.485.52-7.61-5.274s.879-.821,2.172-1.856a4.378,4.378,0,0,0,4.109,3.663c3.724.16,8.654,0,8.654,0l9.786-1.923Z" transform="translate(-338.299 -399.347)" opacity="0.1"/><path d="M372.336,515.838l1.81,4.408s-3.1-1.789-6.656,4.271-4.025,6.919-4.025,6.919-2.19,2.021-1.564,4.2c0,0-6.766,3.427-11.652,1.745,0,0-.116,2.035,0,4.262a20.882,20.882,0,0,1-.664,5.2s-.432-.155-5.71.861a31.378,31.378,0,0,1-10.515,0,60.437,60.437,0,0,1-9.072-1.759c-4.534-1.29-10.478-2.817-9.977-4.408a35.68,35.68,0,0,1,2.19-4.615s1.211-.7,1.174-1.369,2.227-2.619,2.227-2.619,1.408-1.16,1.211-2.148,1.369-2.582,1.369-2.582l2.972-5.823s2.5-5.436,4.223-5.67,4.886-5.239,4.886-5.239,5.638-4.547,5.675-5.487,2.817-2.619,2.817-2.619.445,3.837,4.176,4,8.656,0,8.656,0l9.977-1.961s-4.547,3.517-5.524,3.791-3.923,2.385-5.422,2.784-4.547,2.464-4.431,5.4a8.852,8.852,0,0,0,1.135,4.408s3.049,5.786,6.1,5.083c0,0,3.4.181,4.768-1.838S372.336,515.838,372.336,515.838Z" transform="translate(-249.007 -399.316)" fill="#e8f4ff"/><path d="M433.75,618.28s3.831,7.116,5.589,7.888,1.408-.548,1.408-.548S434.3,619.839,433.75,618.28Z" transform="translate(-340.757 -487.573)" opacity="0.1"/><path d="M401.9,641.54s3.754,5.981,6.529,5.981Z" transform="translate(-316.296 -505.437)" opacity="0.1"/><path d="M366.34,609.69s4.38,13.84,12.434,14.935C378.774,624.625,368.256,616.885,366.34,609.69Z" transform="translate(-288.987 -480.976)" opacity="0.1"/><path d="M369.71,661.25s7.234,5.747,11.652,4.889C381.362,666.139,373.817,664.848,369.71,661.25Z" transform="translate(-291.575 -520.574)" opacity="0.1"/><path d="M346.57,703.75s7.232,5.747,11.652,4.886C358.222,708.636,350.674,707.346,346.57,703.75Z" transform="translate(-273.804 -553.213)" opacity="0.1"/><path d="M354.72,717.81s7.232,5.747,11.649,4.888C366.369,722.7,358.824,721.409,354.72,717.81Z" transform="translate(-280.063 -564.011)" opacity="0.1"/><path d="M359.43,695s7.232,5.74,11.649,4.872C371.079,699.872,363.534,698.589,359.43,695Z" transform="translate(-283.68 -546.493)" opacity="0.1"/><path d="M455.054,493.49l-4.534,5.826.624,1.172Z" transform="translate(-345.993 -379.008)" opacity="0.1"/><path d="M603.052,488.386a9.8,9.8,0,0,1-9.8,9.8,9.684,9.684,0,0,1-1.356-.1,2.373,2.373,0,0,0,.361-.547c.29-.81-.928-1.654-.545-2.429a1.276,1.276,0,0,1,1.186-.529,1.887,1.887,0,0,0,1.3-.315c.383-.369.329-.977.427-1.5a3.779,3.779,0,0,1,1.315-2,17.43,17.43,0,0,0,1.805-1.624,6.05,6.05,0,0,0,1.276-3.434,3.779,3.779,0,0,0-.422-2.32,5.671,5.671,0,0,0-1.988-1.561,5.451,5.451,0,0,1-1.731-1.51,2.548,2.548,0,0,1-.5-1.668A9.8,9.8,0,0,1,603.052,488.386Z" transform="translate(-462.011 -380.347)" opacity="0.1"/><path d="M609.521,486.2a1.732,1.732,0,0,1-.183.464c-.023.042-.051.086-.077.13l-.142.216a2.089,2.089,0,0,0-.429.963,3.08,3.08,0,0,0,.36,1.23l.026.072h0a1.675,1.675,0,0,1,.053.176,2.023,2.023,0,0,1-.09,1.211h0a3.636,3.636,0,0,1-.731,1.16c-.592.638-1.336,1.121-1.933,1.752-.445.464-.805,1.014-1.246,1.483a7.483,7.483,0,0,1-3.993,2.039,18.171,18.171,0,0,1-3.529.285H596.6a1.109,1.109,0,0,1-.464-.072,1.625,1.625,0,0,1-.434-.429,3.677,3.677,0,0,0-2.552-.907.65.65,0,0,1,.153-.494,2.861,2.861,0,0,0,.38-.582c.292-.812-.928-1.654-.543-2.434a.663.663,0,0,1,.144-.195.812.812,0,0,1,.128-.1,1.812,1.812,0,0,1,.914-.232,4.419,4.419,0,0,0,.524-.021,1.239,1.239,0,0,0,.752-.292h0c.383-.364.329-.974.427-1.494a3.753,3.753,0,0,1,1.315-2,17.183,17.183,0,0,0,1.8-1.624,6.049,6.049,0,0,0,1.276-3.431,3.776,3.776,0,0,0-.422-2.32,4.759,4.759,0,0,0-1.715-1.392l-.274-.162a6.427,6.427,0,0,1-1.371-1.06,4.234,4.234,0,0,1-.346-.487,2.614,2.614,0,0,1-.506-1.624.57.57,0,0,1,.019-.107c.137-.6.726-.6,1.285-.677.151-.019.3-.035.45-.044a5.839,5.839,0,0,1,.668,0,6.188,6.188,0,0,1,2.724.747c.311.169.608.367.928.513a22.164,22.164,0,0,0,2.408.636,6.485,6.485,0,0,1,3.6,3.262,19.407,19.407,0,0,1,1.555,4.717A2.591,2.591,0,0,1,609.521,486.2Z" transform="translate(-463.107 -377.681)" fill="#965d7b"/><path d="M427.819,747.457a2.292,2.292,0,0,1-.232.6s-1.035.037-2.552.026a48.454,48.454,0,0,1-7.424-.545,24.186,24.186,0,0,0-4.308-.232l-10.028-1.014-5.42-.733-2.784-6.069c1.61.088,3,.026,3,.026,3.079-2.919,5.944-2.45,7.508-1.183a15.6,15.6,0,0,0,4.691,2.276c.139,0,4.749.1,7.714.158a13.907,13.907,0,0,1,6.557,1.754C428,744.457,428.051,746.48,427.819,747.457Z" transform="translate(-311.051 -579.013)" opacity="0.1"/><path d="M226.86,689.737l-2.276.835a20.976,20.976,0,0,0-15.533-2.306c-9.227,2.032-8.6,7.455-8.6,7.455s.364,6.645,3.016,8.926,4.327,2.385,5.837,4.107,9.332,2.5,9.332,2.5,15.482.782,23.823,0,12.106-.782,12.106-.782,9.16-1.146,13.278-.418a58.55,58.55,0,0,0,9.958.522s1.722-2.849-3.037-5.543a13.873,13.873,0,0,0-6.557-1.754c-2.963-.063-7.573-.158-7.714-.158a15.572,15.572,0,0,1-4.691-2.276c-1.564-1.267-4.429-1.738-7.506,1.181,0,0-6.828.313-7.768-1.406s-5.786-7.116-5.786-7.116Z" transform="translate(-161.579 -540.906)" fill="#ffc1c7"/><path d="M317.161,707.117s-.051.944,2.06.789c1.954-.146-5.786-7.116-5.786-7.116l-7.888-3.77-2.276.838S310.906,696.953,317.161,707.117Z" transform="translate(-240.55 -548.045)" opacity="0.1"/><path d="M318.5,705.767s-.051.944,2.06.789c1.954-.144-5.786-7.116-5.786-7.116l-7.888-3.77-2.278.838S312.248,695.6,318.5,705.767Z" transform="translate(-241.579 -547.008)" fill="#565988"/><path d="M267.88,709.974a6.775,6.775,0,0,1,5.527.288,26.457,26.457,0,0,0,3.615,1.255,23.227,23.227,0,0,1,5.647,2.36c2.288,1.329,5.392,2.926,7.118,2.926" transform="translate(-213.371 -557.66)" fill="none" stroke="#000" stroke-miterlimit="10" stroke-width="1" opacity="0.1"/><path d="M597.188,497.38a1.065,1.065,0,0,1-.464-.072,1.559,1.559,0,0,1-.434-.429,3.685,3.685,0,0,0-2.552-.9c-.074-.4.392-.7.531-1.077.295-.812-.928-1.654-.543-2.432a1.286,1.286,0,0,1,1.188-.527,1.867,1.867,0,0,0,1.295-.318c.383-.367.329-.977.429-1.5a3.745,3.745,0,0,1,1.313-2,17.2,17.2,0,0,0,1.807-1.624,6.077,6.077,0,0,0,1.276-3.432,3.809,3.809,0,0,0-.425-2.332,5.724,5.724,0,0,0-1.988-1.561,5.453,5.453,0,0,1-1.731-1.51,2.464,2.464,0,0,1-.487-1.729c.13-.568.729-.6,1.288-.677.165-.023.327-.037.494-.046a6.464,6.464,0,0,0-1.121.046c-.559.074-1.16.081-1.288.677a2.428,2.428,0,0,0,.49,1.729,5.452,5.452,0,0,0,1.731,1.51,6.016,6.016,0,0,1,1.974,1.55,3.745,3.745,0,0,1,.425,2.332,5.979,5.979,0,0,1-1.276,3.431,16.443,16.443,0,0,1-1.805,1.624,3.767,3.767,0,0,0-1.316,2c-.1.52-.046,1.13-.427,1.5a1.885,1.885,0,0,1-1.3.318,1.286,1.286,0,0,0-1.188.527c-.376.777.838,1.624.545,2.431-.142.385-.606.673-.534,1.077a3.618,3.618,0,0,1,2.552.9,1.5,1.5,0,0,0,.434.429,1.05,1.05,0,0,0,.464.072h1.014Z" transform="translate(-463.071 -377.698)" opacity="0.1"/><path d="M662.061,528.975h0c.093-.3.2-.629.3-.981a19.009,19.009,0,0,0,.68-2.856,4.885,4.885,0,0,0-.891-.387c.026-.044.053-.088.077-.13l-.209.086v.26c-.016.441-.049,1.374-.07,2.193v.037c-.016.647-.026,1.22,0,1.425h0Z" transform="translate(-515.997 -415.644)" fill="#565988"/><ellipse cx="10.097" cy="1.387" rx="10.097" ry="1.387" transform="translate(202.798 162.089)" fill="#049ce7" opacity="0.1"/><path d="M937.8,736.97a2.876,2.876,0,0,0,.944-1.425,1.268,1.268,0,0,0-.661-1.452c-.606-.232-1.253.19-1.742.613a2.335,2.335,0,0,1-1.7.819,2.58,2.58,0,0,0,.791-2.415.994.994,0,0,0-.232-.492c-.336-.36-.947-.2-1.348.079-1.281.9-1.638,2.64-1.645,4.206a7.866,7.866,0,0,1-.023-1.733,1.782,1.782,0,0,0-.652-1.534,1.968,1.968,0,0,0-.993-.232,2.029,2.029,0,0,0-1.61.464,1.6,1.6,0,0,0,.065,1.977,6.237,6.237,0,0,0,1.666,1.334,3.712,3.712,0,0,1,1.19,1.137,1.227,1.227,0,0,1,.088.2h3.61A9.99,9.99,0,0,0,937.8,736.97Z" transform="translate(-720.808 -575.222)" fill="#049ce7"/><ellipse cx="10.097" cy="1.387" rx="10.097" ry="1.387" transform="translate(235.083 168.045)" fill="#049ce7" opacity="0.1"/><path d="M1076.971,762.637a2.876,2.876,0,0,0,.944-1.425,1.268,1.268,0,0,0-.661-1.452,1.849,1.849,0,0,0-1.742.613,2.326,2.326,0,0,1-1.7.819,2.583,2.583,0,0,0,.8-2.418,1,1,0,0,0-.232-.49c-.336-.36-.947-.206-1.348.079-1.281.9-1.638,2.64-1.645,4.2a7.842,7.842,0,0,1-.023-1.731,1.785,1.785,0,0,0-.652-1.534,1.963,1.963,0,0,0-.993-.232,2.037,2.037,0,0,0-1.61.464,1.6,1.6,0,0,0,.065,1.977,6.232,6.232,0,0,0,1.666,1.334,3.693,3.693,0,0,1,1.19,1.137,1.073,1.073,0,0,1,.088.2h3.61A10.076,10.076,0,0,0,1076.971,762.637Z" transform="translate(-827.696 -594.934)" fill="#049ce7"/><ellipse cx="10.097" cy="1.387" rx="10.097" ry="1.387" transform="translate(214.886 180.566)" fill="#049ce7" opacity="0.1"/><path d="M989.925,816.61a2.877,2.877,0,0,0,.944-1.425,1.264,1.264,0,0,0-.659-1.45,1.855,1.855,0,0,0-1.745.61,2.335,2.335,0,0,1-1.7.819,2.58,2.58,0,0,0,.8-2.415,1,1,0,0,0-.232-.492c-.336-.36-.944-.2-1.348.079-1.281.9-1.638,2.64-1.645,4.206a7.868,7.868,0,0,1-.023-1.733,1.783,1.783,0,0,0-.652-1.534,1.959,1.959,0,0,0-.991-.232,2.032,2.032,0,0,0-1.61.464,1.6,1.6,0,0,0,.063,1.977,6.232,6.232,0,0,0,1.666,1.334,3.7,3.7,0,0,1,1.19,1.137.935.935,0,0,1,.088.2h3.61A9.994,9.994,0,0,0,989.925,816.61Z" transform="translate(-760.847 -636.385)" fill="#049ce7"/><ellipse cx="10.097" cy="1.387" rx="10.097" ry="1.387" transform="translate(10.1 159.824)" fill="#049ce7" opacity="0.1"/><path d="M107.257,727.208a2.861,2.861,0,0,0,.944-1.425,1.27,1.27,0,0,0-.659-1.452c-.606-.232-1.253.188-1.745.612a2.33,2.33,0,0,1-1.7.819,2.578,2.578,0,0,0,.8-2.418,1.014,1.014,0,0,0-.232-.49c-.336-.36-.947-.206-1.35.079-1.281.9-1.638,2.64-1.645,4.2a8.141,8.141,0,0,1-.023-1.731,1.8,1.8,0,0,0-.65-1.534,1.968,1.968,0,0,0-.993-.232,2.035,2.035,0,0,0-1.61.464,1.6,1.6,0,0,0,.063,1.977,6.209,6.209,0,0,0,1.668,1.334,3.692,3.692,0,0,1,1.19,1.137,1.232,1.232,0,0,1,.088.2h3.617A10.073,10.073,0,0,0,107.257,727.208Z" transform="translate(-82.968 -567.724)" fill="#049ce7"/><ellipse cx="10.097" cy="1.387" rx="10.097" ry="1.387" transform="translate(0 179.501)" fill="#049ce7" opacity="0.1"/><path d="M63.784,812.017a2.877,2.877,0,0,0,.944-1.425,1.267,1.267,0,0,0-.659-1.452,1.851,1.851,0,0,0-1.745.612,2.326,2.326,0,0,1-1.7.819,2.582,2.582,0,0,0,.81-2.418,1,1,0,0,0-.232-.49c-.336-.359-.944-.206-1.348.079-1.281.9-1.638,2.64-1.645,4.206a7.866,7.866,0,0,1-.023-1.733,1.783,1.783,0,0,0-.652-1.534,1.934,1.934,0,0,0-.991-.232,2.016,2.016,0,0,0-1.61.464A1.6,1.6,0,0,0,55,810.892a6.236,6.236,0,0,0,1.666,1.334,3.667,3.667,0,0,1,1.19,1.137.929.929,0,0,1,.088.2h3.608a10.072,10.072,0,0,0,2.232-1.548Z" transform="translate(-49.591 -632.857)" fill="#049ce7"/></g></svg>