<svg xmlns="http://www.w3.org/2000/svg" width="158.298" height="146.278" viewBox="0 0 158.298 146.278">
  <g id="Gruppe_67" data-name="Gruppe 67" transform="translate(0 0)">
    <path id="Pfad_749" data-name="Pfad 749" d="M214.333,143.094a9.605,9.605,0,0,0-9.594,9.594V263.222a9.605,9.605,0,0,0,9.594,9.594h81.084a9.605,9.605,0,0,0,9.594-9.594V152.688a9.605,9.605,0,0,0-9.594-9.594Z" transform="translate(-204.739 -131.412)" fill="#3f3d56"/>
    <rect id="Rechteck_141" data-name="Rechteck 141" width="90.294" height="116.093" transform="translate(4.989 18.497)" fill="#fff"/>
    <rect id="Rechteck_142" data-name="Rechteck 142" width="66.686" height="4.381" transform="translate(16.793 39.306)" fill="#049ce7"/>
    <rect id="Rechteck_143" data-name="Rechteck 143" width="66.686" height="4.381" transform="translate(16.793 50.988)" fill="#049ce7"/>
    <rect id="Rechteck_144" data-name="Rechteck 144" width="66.686" height="4.381" transform="translate(16.793 62.67)" fill="#049ce7"/>
    <rect id="Rechteck_145" data-name="Rechteck 145" width="66.686" height="4.381" transform="translate(16.793 74.352)" fill="#049ce7"/>
    <rect id="Rechteck_146" data-name="Rechteck 146" width="66.686" height="4.381" transform="translate(16.793 86.035)" fill="#049ce7"/>
    <rect id="Rechteck_147" data-name="Rechteck 147" width="66.686" height="4.381" transform="translate(16.793 97.717)" fill="#049ce7"/>
    <rect id="Rechteck_148" data-name="Rechteck 148" width="66.686" height="4.381" transform="translate(16.793 109.399)" fill="#049ce7"/>
    <rect id="Rechteck_149" data-name="Rechteck 149" width="67.224" height="86.431" transform="translate(18.292 23.237) rotate(-10.37)" fill="#e6e6e6"/>
    <rect id="Rechteck_150" data-name="Rechteck 150" width="49.648" height="3.262" transform="translate(29.726 36.894) rotate(-10.37)" fill="#049ce7"/>
    <rect id="Rechteck_151" data-name="Rechteck 151" width="49.648" height="3.262" transform="translate(31.291 45.449) rotate(-10.37)" fill="#049ce7"/>
    <rect id="Rechteck_152" data-name="Rechteck 152" width="49.648" height="3.262" transform="translate(32.857 54.004) rotate(-10.37)" fill="#049ce7"/>
    <rect id="Rechteck_153" data-name="Rechteck 153" width="49.648" height="3.262" transform="translate(34.422 62.56) rotate(-10.37)" fill="#049ce7"/>
    <rect id="Rechteck_154" data-name="Rechteck 154" width="49.648" height="3.262" transform="translate(35.988 71.115) rotate(-10.37)" fill="#049ce7"/>
    <rect id="Rechteck_155" data-name="Rechteck 155" width="49.648" height="3.262" transform="translate(37.554 79.671) rotate(-10.37)" fill="#049ce7"/>
    <rect id="Rechteck_156" data-name="Rechteck 156" width="49.648" height="3.262" transform="translate(39.119 88.226) rotate(-10.37)" fill="#049ce7"/>
    <rect id="Rechteck_157" data-name="Rechteck 157" width="19.021" height="24.456" transform="translate(112.511 107.563) rotate(-10.37)" fill="#e6e6e6"/>
    <rect id="Rechteck_158" data-name="Rechteck 158" width="14.048" height="0.923" transform="translate(115.747 111.428) rotate(-10.37)" fill="#fff"/>
    <rect id="Rechteck_159" data-name="Rechteck 159" width="14.048" height="0.923" transform="translate(116.19 113.849) rotate(-10.37)" fill="#fff"/>
    <rect id="Rechteck_160" data-name="Rechteck 160" width="14.048" height="0.923" transform="translate(116.633 116.269) rotate(-10.37)" fill="#fff"/>
    <rect id="Rechteck_161" data-name="Rechteck 161" width="14.048" height="0.923" transform="translate(117.076 118.69) rotate(-10.37)" fill="#fff"/>
    <rect id="Rechteck_162" data-name="Rechteck 162" width="14.048" height="0.923" transform="translate(117.519 121.111) rotate(-10.37)" fill="#fff"/>
    <rect id="Rechteck_163" data-name="Rechteck 163" width="14.048" height="0.923" transform="translate(117.962 123.532) rotate(-10.37)" fill="#fff"/>
    <rect id="Rechteck_164" data-name="Rechteck 164" width="14.048" height="0.923" transform="translate(118.405 125.952) rotate(-10.37)" fill="#fff"/>
    <path id="Pfad_750" data-name="Pfad 750" d="M387.266,90.838h-7.957V89.209a4.456,4.456,0,0,0-4.456-4.456h-8.612a4.456,4.456,0,0,0-4.456,4.456v1.629h-7.957a4.456,4.456,0,0,0-4.456,4.456v12.338h42.348V95.294a4.456,4.456,0,0,0-4.456-4.456Z" transform="translate(-320.411 -84.754)" fill="#3f3d56"/>
    <path id="Pfad_751" data-name="Pfad 751" d="M438.723,695.287a14.019,14.019,0,0,1,4.23-2.246,4.449,4.449,0,0,1,4.189.769,2.567,2.567,0,0,1,.62,3.245,2.062,2.062,0,0,1-1.366.994,1.646,1.646,0,0,1-1.48-.578,1.509,1.509,0,0,1-.377-1.483,1.943,1.943,0,0,1,1.245-1.057,9.214,9.214,0,0,1,1.856-.383l2.582-.353,10.567-1.447,11.767-1.611a.368.368,0,0,0,.255-.449.374.374,0,0,0-.449-.255l-23.415,3.205c-.847.116-1.706.2-2.544.369a4.276,4.276,0,0,0-1.827.759,2.18,2.18,0,0,0-.009,3.388,2.415,2.415,0,0,0,3.477-.26,3.153,3.153,0,0,0,.239-3.863,4.684,4.684,0,0,0-4.568-1.875,12.446,12.446,0,0,0-5.361,2.5C437.97,694.92,438.334,695.553,438.723,695.287Z" transform="translate(-391.443 -569.14)" fill="#3f3d56"/>
    <path id="Pfad_752" data-name="Pfad 752" d="M850.773,579.591l.243,2.434s-1.46,5.354,1.7,5.354.73-5.354.73-5.354l.243-1.947Z" transform="translate(-721.333 -480.503)" fill="#a0616a"/>
    <path id="Pfad_753" data-name="Pfad 753" d="M947.628,539.1l-1.116,2.176s-4.133,3.7-1.476,5.422,3.52-4.1,3.52-4.1l1.261-1.5Z" transform="translate(-796.082 -448.118)" fill="#a0616a"/>
    <path id="Pfad_754" data-name="Pfad 754" d="M870.591,582.752,874,605.873l1.7,16.55s1.46,3.651,6.328.487l-.73-9.492-.487-8.518s-.487-8.275-.974-9.735.243-6.328.243-6.328l1.947-8.032Z" transform="translate(-737.257 -481.474)" fill="#2f2e41"/>
    <path id="Pfad_755" data-name="Pfad 755" d="M875.955,786.211l-1.947,2.19s-2.921-.973-3.651.974,5.6,2.434,5.6,2.434,6.571.487,6.571,0-.176-4.21-1.062-4.417S875.955,786.211,875.955,786.211Z" transform="translate(-737.023 -645.748)" fill="#2f2e41"/>
    <path id="Pfad_756" data-name="Pfad 756" d="M916.777,577.648l3.407,24.338,1.7,16.55s1.46,3.651,6.328.487l-.73-9.492L927,601.012s-.487-8.275-.973-9.735.243-6.328.243-6.328l-.487-9.005Z" transform="translate(-774.195 -477.586)" fill="#2f2e41"/>
    <path id="Pfad_757" data-name="Pfad 757" d="M922.141,786.211l-1.947,2.19s-2.921-.973-3.651.974,5.6,2.434,5.6,2.434,6.571.487,6.571,0-.176-4.21-1.061-4.417S922.141,786.211,922.141,786.211Z" transform="translate(-773.961 -645.748)" fill="#2f2e41"/>
    <circle id="Ellipse_152" data-name="Ellipse 152" cx="5.111" cy="5.111" r="5.111" transform="translate(130.17 51.386)" fill="#a0616a"/>
    <path id="Pfad_758" data-name="Pfad 758" d="M677.891,293.685l2.19,3.651-5.6,2.434-.73-4.381Z" transform="translate(-538.837 -234.876)" fill="#a0616a"/>
    <path id="Pfad_759" data-name="Pfad 759" d="M861.388,394.74s-5.111-.487-7.058,2.677l-4.8,3.651a2.769,2.769,0,0,0-1.07,2.568l4.17,31.505,6.085-.243,9.979-1.947,2.92-.73-1.46-12.9s-1.7-5.111.243-8.518l-.974-11.926L862.6,396.2Z" transform="translate(-719.536 -332.646)" fill="#575a89"/>
    <path id="Pfad_760" data-name="Pfad 760" d="M848.23,428.88l-.365-.608s-.487,0-.487.974-.852,22.026-.852,22.026l-.243,8.032,4.624.487,1.7-15.09-.73-9.979Z" transform="translate(-717.816 -359.484)" fill="#575a89"/>
    <path id="Pfad_761" data-name="Pfad 761" d="M936.224,413.079l3.407.487a22.622,22.622,0,0,1,3.407,4.624c1.46,2.677,5.841,7.788,4.868,11.682a108.647,108.647,0,0,1-3.894,10.952l-4.624-1.947s3.651-8.518,3.407-9.248-3.164-5.111-3.164-5.111Z" transform="translate(-789.748 -347.334)" fill="#575a89"/>
    <path id="Pfad_762" data-name="Pfad 762" d="M853.258,336.592s-4.137-.243-1.46-2.921c0,0,2.19-.973,3.164-.487,0,0,1.46-.974,1.46-.487,0,0,5.111-1.46,5.841,3.651s-.487,7.545-.487,7.545l-3.407-.243s.73-4.137-1.947-3.651c0,0-2.19.73-2.434,0S853.258,336.592,853.258,336.592Z" transform="translate(-721.506 -282.895)" fill="#2f2e41"/>
    <path id="Pfad_763" data-name="Pfad 763" d="M666.7,404.8l2.19-14.6-1.46-9.005.487,9.795-1.46,13.813Z" transform="translate(-533.005 -304.863)" opacity="0.2"/>
  </g>
</svg>
