<svg id="Gruppe_61" data-name="Gruppe 61" xmlns="http://www.w3.org/2000/svg" width="191.112" height="116.882" viewBox="0 0 191.112 116.882">
  <ellipse id="Ellipse_135" data-name="Ellipse 135" cx="26.286" cy="3.143" rx="26.286" ry="3.143" transform="translate(0 110.595)" fill="#e6e6e6"/>
  <path id="Pfad_573" data-name="Pfad 573" d="M257.676,295.809c-.013.067-.027.132-.042.2a17.81,17.81,0,0,0,.325,9.071H243.415l2.3-10.5a5.365,5.365,0,0,1,1.843-4.051c.1-.086.2-.17.3-.247a5.344,5.344,0,0,1,3.232-1.081h1.248a5.59,5.59,0,0,1,2.187.442c.117.05.232.1.343.161a5.526,5.526,0,0,1,3.571,5.885,17.819,17.819,0,0,0,1.378,8.972l-.76.088A17.8,17.8,0,0,1,257.676,295.809Z" transform="translate(-224.688 -265.401)" fill="#2f2e41"/>
  <path id="Pfad_574" data-name="Pfad 574" d="M263.075,326.945s1.148,4.976-1.148,5.359,5.933,1.531,5.933,1.531-.574-4.019.766-5.359Z" transform="translate(-238.894 -295.017)" fill="#fbbebe"/>
  <path id="Pfad_575" data-name="Pfad 575" d="M224.086,486.77s-.469,5.852,1.527,5.931.887-5.762.887-5.762Z" transform="translate(-209.487 -420.406)" fill="#fbbebe"/>
  <path id="Pfad_576" data-name="Pfad 576" d="M339.42,500.15s1.914,5.55,0,6.124-2.3-5.359-2.3-5.359Z" transform="translate(-298.206 -430.904)" fill="#fbbebe"/>
  <path id="Pfad_577" data-name="Pfad 577" d="M144.206,191.987l2.693-.411,1.134.794.957,2.871,2.3,11.674,1.722,7.655,2.679,5.359-4.4,1.914-4.21-13.779Z" transform="translate(-113.135 -150.299)" fill="#049ce7"/>
  <path id="Pfad_578" data-name="Pfad 578" d="M222.838,431.45s-1.148,7.655-.383,9.186c0,0-1.424,8.887-2.488,14.736l-1.531,8.421-3.445,12.822,5.55,1.531,11.291-31.386,3.253,17.607L235.66,477l5.933-.191-.766-22.008s3.445-14.545-2.488-19.9-6.89-5.359-6.89-5.359Z" transform="translate(-202.389 -375.504)" fill="#2f2e41"/>
  <path id="Pfad_579" data-name="Pfad 579" d="M319.487,646.265l1.531,5.167.957,4.593s3.445,5.167,0,4.593-3.828-2.488-3.828-2.488v-1.148l-.957-.574v-1.914s-1.34-.957,0-2.488l-.574-5.359Z" transform="translate(-282.101 -545.537)" fill="#2f2e41"/>
  <path id="Pfad_580" data-name="Pfad 580" d="M207.019,646.265l-1.531,5.167-.957,4.593s-3.445,5.167,0,4.593,3.828-2.488,3.828-2.488v-1.148l.957-.574v-1.914s1.34-.957,0-2.488l.574-5.359Z" transform="translate(-192.981 -545.537)" fill="#2f2e41"/>
  <circle id="Ellipse_136" data-name="Ellipse 136" cx="4.784" cy="4.784" r="4.784" transform="translate(23.033 25.038)" fill="#fbbebe"/>
  <path id="Pfad_581" data-name="Pfad 581" d="M239.01,347.374s4.976,2.105,6.316,1.722,1.722,1.34,1.722,1.34l3.828,2.679-1.148,6.507s.957,3.445-.191,5.741c0,0,3.062.957,1.914,2.488a2.507,2.507,0,0,1,.957,3.445s-5.741-1.531-6.315-4.4l-5.933.766-4.21,3.253s-2.105-.191-1.34-3.253a10.916,10.916,0,0,0-.191-5.741l-2.105-13.4Z" transform="translate(-215.977 -311.045)" fill="#049ce7"/>
  <path id="Pfad_582" data-name="Pfad 582" d="M222.253,351.819l-.764.2a1.359,1.359,0,0,0-.684.43l-.248.289a1.756,1.756,0,0,0-.418,1.02l-.17,2.44-.269,11.878.241,7.843-1.258,5.857,4.74.755.641-14.394-1.185-15.876a.5.5,0,0,0-.625-.445Z" transform="translate(-205.285 -314.519)" fill="#049ce7"/>
  <path id="Pfad_583" data-name="Pfad 583" d="M264.592,306.144c-.786-1.9-1.95-3.913-2.719-5.718-.53-2.108-.664-3.913.537-4.837,0-2.031.071-3.355-1.542-4.342a5.367,5.367,0,0,0-1.093.64h0c-.064.046-.126.1-.187.147l-.076.065-.041.035h0a5.364,5.364,0,0,0-1.844,4.051v10.122h5.933c-.2-.855-.457-1.741-.728-2.624.428.855.85,1.716,1.2,2.555Z" transform="translate(-235.838 -267.01)" fill="#2f2e41"/>
  <path id="Pfad_584" data-name="Pfad 584" d="M279.562,297.463a18.744,18.744,0,0,1-8.612,0v-3.827h4.784a3.828,3.828,0,0,1,3.828,3.828Z" transform="translate(-246.291 -268.885)" fill="#2f2e41"/>
  <rect id="Rechteck_97" data-name="Rechteck 97" width="118.718" height="73.927" transform="translate(72.394 8.697)" fill="#e6e6e6"/>
  <rect id="Rechteck_98" data-name="Rechteck 98" width="21.743" height="14.133" transform="translate(80.355 22.939)" fill="#fff"/>
  <rect id="Rechteck_99" data-name="Rechteck 99" width="21.743" height="14.133" transform="translate(107.373 22.939)" fill="#fff"/>
  <rect id="Rechteck_100" data-name="Rechteck 100" width="21.743" height="14.133" transform="translate(134.391 22.939)" fill="#fff"/>
  <rect id="Rechteck_101" data-name="Rechteck 101" width="21.743" height="14.133" transform="translate(161.408 22.939)" fill="#fff"/>
  <rect id="Rechteck_102" data-name="Rechteck 102" width="21.743" height="14.133" transform="translate(80.355 42.943)" fill="#fff"/>
  <rect id="Rechteck_103" data-name="Rechteck 103" width="21.743" height="14.133" transform="translate(107.373 42.943)" fill="#fff"/>
  <rect id="Rechteck_104" data-name="Rechteck 104" width="21.743" height="14.133" transform="translate(134.391 42.943)" fill="#fff"/>
  <rect id="Rechteck_105" data-name="Rechteck 105" width="21.743" height="14.133" transform="translate(161.408 42.943)" fill="#fff"/>
  <rect id="Rechteck_106" data-name="Rechteck 106" width="21.743" height="14.133" transform="translate(80.355 62.947)" fill="#fff"/>
  <rect id="Rechteck_107" data-name="Rechteck 107" width="21.743" height="14.133" transform="translate(107.373 62.947)" fill="#fff"/>
  <rect id="Rechteck_108" data-name="Rechteck 108" width="21.743" height="14.133" transform="translate(134.391 62.947)" fill="#fff"/>
  <rect id="Rechteck_109" data-name="Rechteck 109" width="21.743" height="14.133" transform="translate(161.408 62.947)" fill="#fff"/>
  <circle id="Ellipse_137" data-name="Ellipse 137" cx="3.261" cy="3.261" r="3.261" transform="translate(100.226 10.872)" fill="#fff"/>
  <circle id="Ellipse_138" data-name="Ellipse 138" cx="3.261" cy="3.261" r="3.261" transform="translate(154.149 10.872)" fill="#fff"/>
  <rect id="Rechteck_110" data-name="Rechteck 110" width="2.609" height="15.003" transform="translate(102.183)" fill="#e6e6e6"/>
  <rect id="Rechteck_111" data-name="Rechteck 111" width="2.609" height="15.003" transform="translate(156.106)" fill="#e6e6e6"/>
  <path id="Pfad_585" data-name="Pfad 585" d="M943.2,300.151a4.9,4.9,0,1,1-.76-2.627A4.9,4.9,0,0,1,943.2,300.151Z" transform="translate(-766.008 -270.146)" fill="#049ce7"/>
  <path id="Pfad_586" data-name="Pfad 586" d="M950.484,303.167l-4.84,4.839c-.3-.471-2-2.66-2-2.66a6.856,6.856,0,0,1,.694-.612l1.405,1.874,4.173-4.173A4.894,4.894,0,0,1,950.484,303.167Z" transform="translate(-774.048 -275.788)" fill="#fff"/>
  <path id="Pfad_587" data-name="Pfad 587" d="M692.413,392.993a4.9,4.9,0,1,1-.76-2.627A4.9,4.9,0,0,1,692.413,392.993Z" transform="translate(-569.252 -342.984)" fill="#049ce7"/>
  <path id="Pfad_588" data-name="Pfad 588" d="M699.693,396.01l-4.84,4.839c-.3-.471-2-2.66-2-2.66a6.859,6.859,0,0,1,.694-.612l1.405,1.874,4.173-4.173A4.892,4.892,0,0,1,699.693,396.01Z" transform="translate(-577.292 -348.627)" fill="#fff"/>
  <path id="Pfad_589" data-name="Pfad 589" d="M567.018,392.993a4.9,4.9,0,1,1-.76-2.627A4.9,4.9,0,0,1,567.018,392.993Z" transform="translate(-470.874 -342.984)" fill="#049ce7"/>
  <path id="Pfad_590" data-name="Pfad 590" d="M574.3,396.01l-4.84,4.839c-.3-.471-2-2.66-2-2.66a6.869,6.869,0,0,1,.694-.612l1.405,1.874,4.173-4.173a4.9,4.9,0,0,1,.567.732Z" transform="translate(-478.914 -348.627)" fill="#fff"/>
</svg>
