<svg xmlns="http://www.w3.org/2000/svg" width="214.238" height="118.24" viewBox="0 0 214.238 118.24">
  <g id="Gruppe_63" data-name="Gruppe 63" transform="translate(0 0)">
    <ellipse id="Ellipse_139" data-name="Ellipse 139" cx="29.232" cy="4.029" rx="29.232" ry="4.029" transform="translate(155.774 109.756)" fill="#e6e6e6"/>
    <ellipse id="Ellipse_140" data-name="Ellipse 140" cx="29.317" cy="4.029" rx="29.317" ry="4.029" transform="translate(0 110.182)" fill="#e6e6e6"/>
    <path id="Pfad_591" data-name="Pfad 591" d="M352.742,429.179l.754,1.558s4.281,5.713,1.636,6.608-4.048-5.418-4.048-5.418l-.7-.884Z" transform="translate(-303.885 -375.115)" fill="#ffb8b8"/>
    <path id="Pfad_592" data-name="Pfad 592" d="M325.415,306.737l.7-.3a1.545,1.545,0,0,1,.833,1.578c0,1.28-1.024,19.972-1.024,19.972l2.048,10.242-2.817.512-4.353-9.474Z" transform="translate(-281.489 -282.183)" fill="#575a89"/>
    <path id="Pfad_593" data-name="Pfad 593" d="M325.415,306.737l.7-.3a1.545,1.545,0,0,1,.833,1.578c0,1.28-1.024,19.972-1.024,19.972l5.505,8.834-3.585,2.56-7.041-10.114Z" transform="translate(-281.489 -282.183)" fill="#575a89"/>
    <path id="Pfad_594" data-name="Pfad 594" d="M256.248,426.778s3.329,1.28,3.073,3.585-3.585,48.138-3.585,48.138l1.024,5.121-9.73.256-.256-33.03-6.913,33.03h-9.73l6.913-58.123Z" transform="translate(-212.834 -372.522)" fill="#2f2e41"/>
    <path id="Pfad_595" data-name="Pfad 595" d="M308.967,659.822l2.3,2.3s5.377,1.024,4.1,2.817-14.595-.512-14.595-.512l.256-4.1Z" transform="translate(-266.321 -549.747)" fill="#2f2e41"/>
    <path id="Pfad_596" data-name="Pfad 596" d="M240.433,659.822l2.3,2.3s5.377,1.024,4.1,2.817-14.595-.512-14.595-.512l.256-4.1Z" transform="translate(-214.43 -549.747)" fill="#2f2e41"/>
    <circle id="Ellipse_141" data-name="Ellipse 141" cx="6.145" cy="6.145" r="6.145" transform="translate(29.075 3.046)" fill="#ffb8b8"/>
    <path id="Pfad_597" data-name="Pfad 597" d="M134.5,52.609l-.512,10.5L126.053,58.5l1.024-5.889Z" transform="translate(-95.441 -39.833)" fill="#ffb8b8"/>
    <path id="Pfad_598" data-name="Pfad 598" d="M125,66.316l7.425,5.377,1.28-3.841,2.3,6.145-1.28,11.01Z" transform="translate(-94.643 -50.212)" fill="#cfcce0"/>
    <path id="Pfad_599" data-name="Pfad 599" d="M260.752,269.708l8.194,11.266.3-9.412,2.52,1.986V275.6l3.585,3.329-1.28,12.8-.256,15.107s1.536,1.28,1.024,2.048a6.764,6.764,0,0,1-4.865,2.561c-2.3,0-16.643-1.792-16.643-2.817s.512-14.339.512-14.339V276.365l6.145-4.609Z" transform="translate(-230.396 -254.372)" fill="#575a89"/>
    <path id="Pfad_600" data-name="Pfad 600" d="M92.313,232.589l3.329,4.865,1.28-5.633L95.386,230.8Z" transform="translate(-69.895 -174.749)" fill="#ffb8b8"/>
    <rect id="Rechteck_112" data-name="Rechteck 112" width="14.213" height="0.512" transform="matrix(0.346, -0.938, 0.938, 0.346, 33.642, 78.51)" opacity="0.2"/>
    <path id="Pfad_601" data-name="Pfad 601" d="M279.785,209.729a4.12,4.12,0,0,1,5.121-3.073l-.512.256s4.1-.512,3.585,1.792c0,0,3.329,2.048,2.561,4.353a26.049,26.049,0,0,0-1.024,4.1l-.768-.768s-.768-5.121-5.377-4.609c-3.457.384-4.865,2.016-5.225,3.193a10.393,10.393,0,0,1-.633,1.609l-.288.063S275.688,211.009,279.785,209.729Z" transform="translate(-248.277 -206.555)" fill="#2f2e41"/>
    <path id="Pfad_602" data-name="Pfad 602" d="M230.989,295.73l-2.331-.108-.486.364a15.334,15.334,0,0,0-1.536,1.792c-.512.768-7.169,19.46-7.169,19.46a6.524,6.524,0,0,0,.512,3.329c.768,1.792,6.913,12.546,6.913,12.546L231.5,330.3l-6.145-12.546,4.353-6.145Z" transform="translate(-204.731 -273.992)" fill="#575a89"/>
    <path id="Pfad_603" data-name="Pfad 603" d="M726.044,420.319v6.9h4.138l.552-6.9Z" transform="translate(-549.726 -318.246)" fill="#a0616a"/>
    <path id="Pfad_604" data-name="Pfad 604" d="M766.372,409.982l1.655,3.862,2.759,1.1.552-7.724-2.207-1.1Z" transform="translate(-580.26 -307.495)" fill="#a0616a"/>
    <path id="Pfad_605" data-name="Pfad 605" d="M931.114,621.609s-.234-1.741-2.6-1.009l.393,5.147s-1.931,5.793.828,5.241,4.414-5.793,4.414-5.793l1.931-8.828L931.417,615Z" transform="translate(-741.416 -515.811)" fill="#2f2e41"/>
    <path id="Pfad_606" data-name="Pfad 606" d="M859.808,401.382s-3.862,29.242-2.483,32.553,15.863,24.69,15.863,24.69l6.345-8.276-14.207-17.794,13.242-18.207,1.1-11.035Z" transform="translate(-687.49 -354.069)" fill="#2f2e41"/>
    <path id="Pfad_607" data-name="Pfad 607" d="M733.776,237.994l3.642,1.927-.056.556L728.4,285.306l-6.9-1.379,4.552-31.587Z" transform="translate(-546.285 -180.198)" fill="#2f2e41"/>
    <path id="Pfad_608" data-name="Pfad 608" d="M873.36,646.754l-1.655,2.483s-3.586,6.069.276,6.069,5.517,0,5.793-1.379a18.173,18.173,0,0,1,.828-2.759l-.276-3.586Z" transform="translate(-697.456 -539.853)" fill="#2f2e41"/>
    <circle id="Ellipse_142" data-name="Ellipse 142" cx="6.069" cy="6.069" r="6.069" transform="translate(180.594 3.45)" fill="#a0616a"/>
    <path id="Pfad_609" data-name="Pfad 609" d="M899.938,253.7s.828,4.69-1.655,5.517,3.035,11.862,3.035,11.862l6.345-10.483s-1.655-3.586-.552-5.242Z" transform="translate(-718.24 -242.254)" fill="#a0616a"/>
    <path id="Pfad_610" data-name="Pfad 610" d="M874.935,277.93l-1.5-8.99-2.916,1.817-7.724,4.414,3.035,12.966-1.1,8s-1.379,2.483-1.1,3.586-.276,1.655,0,1.931,14.07,2.483,18.207,4.138,4.69,2.207,4.414.828-3.31-8-3.31-8l2.483-11.035,3.31-9.655-8.037-7.417Z" transform="translate(-691.858 -253.79)" fill="#575a89"/>
    <path id="Pfad_611" data-name="Pfad 611" d="M945.123,352.5l1.931,5.242-4.966,9.1-1.62,1.26a1.655,1.655,0,0,0-.584,1.728l1.1,4.185,2.886-4.287s7.872-9.507,7.6-11.99-1.1-6.345-1.1-6.345Z" transform="translate(-750.183 -316.224)" fill="#a0616a"/>
    <path id="Pfad_612" data-name="Pfad 612" d="M816.739,337.767l-1.379,6.9-5.241,12.966s-5.793,5.517-3.035,6.621,6.069-5.517,6.069-5.517l6.621-12.414,2.483-7.448Z" transform="translate(-649.111 -305.903)" fill="#a0616a"/>
    <path id="Pfad_613" data-name="Pfad 613" d="M953.644,303.065l2.221-.2.814.751s4.69,10.483,4.138,11.587-6.069,1.655-6.069,1.655l-2.207-6.621Z" transform="translate(-759.808 -279.477)" fill="#575a89"/>
    <path id="Pfad_614" data-name="Pfad 614" d="M851.136,293.874l-1.369-.6-.562.321s-5.517,11.035-4.138,11.587,8,1.379,8,1.379Z" transform="translate(-678.267 -272.217)" fill="#575a89"/>
    <path id="Pfad_615" data-name="Pfad 615" d="M725.576,328.6l-1.682,11.67-1.565-2.4Z" transform="translate(-546.913 -248.798)" opacity="0.2"/>
    <path id="Pfad_616" data-name="Pfad 616" d="M912.15,215.408s.611,1.609-2.226.784c0,0-1.124.548-1.058-.387,0,0-1.549,1.458-1.844.5s-1.1.236-1.1.236l-.611-1.609-.786.885L902,215.638s-.284-6.284,8.314-5.057,3.657,10.808,3.657,10.808.054-1.778-.731-.893S912.15,215.408,912.15,215.408Z" transform="translate(-721.542 -209.483)" fill="#2f2e41"/>
    <path id="Pfad_617" data-name="Pfad 617" d="M368.509,434.984v26.49H479.166v-26.49Zm66.3,22.045H375.354V453.3h59.455Zm0-6.934H375.354v-3.734h59.455Zm37.513-6.934H375.354v-3.734h96.968Z" transform="translate(-317.607 -379.511)" fill="#049ce7"/>
    <path id="Pfad_618" data-name="Pfad 618" d="M414.182,133.718H399.248V118.784h10.134v.356H399.6v14.223h14.223v-7.112h.356Z" transform="translate(-302.292 -89.938)" fill="#3f3d56"/>
    <path id="Pfad_619" data-name="Pfad 619" d="M579.615,332.87c-.345-1.019-4.673-4.483-2.021-5.065l2.175,2.9,10-10,1.006,1.006Z" transform="translate(-475.269 -292.985)" fill="#049ce7"/>
  </g>
</svg>
