<svg xmlns="http://www.w3.org/2000/svg" width="190.64" height="146.309" viewBox="0 0 190.64 146.309">
  <g id="Gruppe_69" data-name="Gruppe 69" transform="translate(0)">
    <g id="Group_7" data-name="Group 7" transform="translate(103.269 111.099)">
      <path id="Path_149" data-name="Path 149" d="M658.4,648.317a8.716,8.716,0,0,1-.919-3.444,23.878,23.878,0,0,1,1.764-10.6,21.375,21.375,0,0,0-.847-17.012l.212-.123a18.8,18.8,0,0,1,1.771,5.018,21.89,21.89,0,0,1-.907,12.2c-3.479,9.358-.892,13.787-.866,13.831Z" transform="translate(-651.082 -613.532)" fill="#f2f2f2"/>
      <circle id="Ellipse_19" data-name="Ellipse 19" cx="1.589" cy="1.589" r="1.589" transform="translate(4.364)" fill="#f2f2f2"/>
      <circle id="Ellipse_20" data-name="Ellipse 20" cx="1.589" cy="1.589" r="1.589" transform="translate(9.376 5.868)" fill="#f2f2f2"/>
      <circle id="Ellipse_21" data-name="Ellipse 21" cx="1.589" cy="1.589" r="1.589" transform="translate(5.953 9.781)" fill="#f2f2f2"/>
      <circle id="Ellipse_22" data-name="Ellipse 22" cx="1.589" cy="1.589" r="1.589" transform="translate(10.11 13.081)" fill="#f2f2f2"/>
      <circle id="Ellipse_23" data-name="Ellipse 23" cx="1.589" cy="1.589" r="1.589" transform="translate(4.73 18.216)" fill="#f2f2f2"/>
      <path id="Path_150" data-name="Path 150" d="M664.493,722.092s-1.589-3.912,3.179-6.846Z" transform="translate(-656.217 -687.249)" fill="#f2f2f2"/>
      <path id="Path_151" data-name="Path 151" d="M638.294,730.035s-.723-4.16-6.322-4.125Z" transform="translate(-631.972 -695.263)" fill="#f2f2f2"/>
    </g>
    <path id="Path_140" data-name="Path 140" d="M306.651,238.616a6.425,6.425,0,1,1,6.425-6.425A6.425,6.425,0,0,1,306.651,238.616Zm0-12.629a6.2,6.2,0,1,0,6.2,6.2,6.2,6.2,0,0,0-6.2-6.2Z" transform="translate(-279.43 -208.356)" fill="#3f3d56"/>
    <path id="Path_174" data-name="Path 174" d="M568.651,238.616a6.425,6.425,0,1,1,6.425-6.425A6.425,6.425,0,0,1,568.651,238.616Zm0-12.629a6.2,6.2,0,1,0,6.2,6.2A6.2,6.2,0,0,0,568.651,225.987Z" transform="translate(-476.297 -208.356)" fill="#3f3d56"/>
    <path id="Path_146" data-name="Path 146" d="M332.457,217.469H220.525c-2.179,0-3.945,2.185-3.948,4.878v53.364c0,2.692,1.769,4.873,3.948,4.878H332.457c2.179,0,3.945-2.185,3.948-4.878V222.347c0-2.692-1.769-4.873-3.948-4.878Zm3.484,58.242c0,2.376-1.56,4.3-3.483,4.3H220.525c-1.923,0-3.48-1.928-3.483-4.3V222.347c0-2.376,1.56-4.3,3.483-4.3H332.457c1.923,0,3.48,1.928,3.483,4.3Z" transform="translate(-216.577 -202.122)" fill="#3f3d56"/>
    <rect id="Rectangle_21" data-name="Rectangle 21" width="19.888" height="13.922" transform="translate(8.204 36.81)" fill="#f2f2f2"/>
    <rect id="Rectangle_30" data-name="Rectangle 30" width="19.888" height="13.922" transform="translate(36.048 36.81)" fill="#f2f2f2"/>
    <rect id="Rectangle_31" data-name="Rectangle 31" width="19.888" height="13.922" transform="translate(63.891 36.81)" fill="#f2f2f2"/>
    <rect id="Rectangle_32" data-name="Rectangle 32" width="19.888" height="13.922" transform="translate(91.735 36.81)" fill="#f2f2f2"/>
    <rect id="Rectangle_33" data-name="Rectangle 33" width="19.888" height="13.922" transform="translate(8.204 57.195)" fill="#f2f2f2"/>
    <rect id="Rectangle_34" data-name="Rectangle 34" width="19.888" height="13.922" transform="translate(36.048 57.195)" fill="#f2f2f2"/>
    <rect id="Rectangle_35" data-name="Rectangle 35" width="19.888" height="13.922" transform="translate(63.891 57.195)" fill="#f2f2f2"/>
    <rect id="Rectangle_36" data-name="Rectangle 36" width="19.888" height="13.922" transform="translate(91.735 57.195)" fill="#f2f2f2"/>
    <path id="Path_168" data-name="Path 168" d="M374.036,391.381l-4.695-6.484,1.279-.926,3.594,4.963,13.752-14.129,1.131,1.1Z" transform="translate(-331.363 -320.345)" fill="#049ce7"/>
    <path id="Path_176" data-name="Path 176" d="M487.036,309.381l-4.695-6.484,1.279-.926,3.594,4.963,13.752-14.129,1.131,1.1Z" transform="translate(-416.271 -258.731)" fill="#049ce7"/>
    <rect id="Rectangle_38" data-name="Rectangle 38" width="0.34" height="23.863" transform="translate(26.966)" fill="#2f2e41"/>
    <rect id="Rectangle_40" data-name="Rectangle 40" width="0.34" height="23.863" transform="translate(92.348)" fill="#2f2e41"/>
    <path id="Path_88" data-name="Path 88" d="M695.889,742.195H601.606a.342.342,0,1,1,0-.682h94.283a.342.342,0,1,1,0,.682Z" transform="translate(-505.613 -595.887)" fill="#3f3d56"/>
    <path id="Path_238" data-name="Path 238" d="M263.036,309.381l-4.695-6.484,1.279-.926,3.594,4.963,13.752-14.129,1.131,1.1Z" transform="translate(-247.958 -258.731)" fill="#049ce7"/>
    <g id="Group_8" data-name="Group 8" transform="translate(146.193 53.609)">
      <path id="Path_200" data-name="Path 200" d="M867.24,478.228a2.611,2.611,0,0,1,.4-.086l5.444-11.063-1.662-2.492,3.432-3,4.315,5.28-8.788,12.79a2.61,2.61,0,1,1-3.144-1.43Z" transform="translate(-850.287 -439.162)" fill="#ffb8b8"/>
      <path id="Path_201" data-name="Path 201" d="M879.338,447.4a1.124,1.124,0,0,1-.253.2l-5.57,3.229a1.119,1.119,0,0,1-1.529-.407q-.023-.04-.043-.082l-2.71-5.724a1.113,1.113,0,0,1,.382-1.4l3.453-2.349a1.119,1.119,0,0,1,1.422.135l4.826,4.843a1.119,1.119,0,0,1,.021,1.559Z" transform="translate(-853.091 -423.443)" fill="#ccc"/>
      <path id="Path_202" data-name="Path 202" d="M919.221,688.425l-2.941.8-4.486-10.963,4.341-1.181Z" transform="translate(-885.154 -601.083)" fill="#ffb8b8"/>
      <path id="Path_203" data-name="Path 203" d="M912.22,720.181l5.671-1.543.971,3.57-9.243,2.515a3.7,3.7,0,0,1,2.6-4.543h0Z" transform="translate(-883.422 -632.309)" fill="#2f2e41"/>
      <path id="Path_204" data-name="Path 204" d="M826.942,696.208h-3.048l-1.45-11.756h4.5Z" transform="translate(-818.016 -606.622)" fill="#ffb8b8"/>
      <path id="Path_205" data-name="Path 205" d="M808.335,728.236h5.878v3.7h-9.579A3.7,3.7,0,0,1,808.335,728.236Z" transform="translate(-804.634 -639.521)" fill="#2f2e41"/>
      <circle id="Ellipse_33" data-name="Ellipse 33" cx="6.106" cy="6.106" r="6.106" transform="translate(6.031 1.304)" fill="#ffb8b8"/>
      <path id="Path_206" data-name="Path 206" d="M822.053,556.01h-4.165a1.122,1.122,0,0,1-1.119-1.05c-1.241-19.729-.515-33.882,2.285-44.538a1.167,1.167,0,0,1,.045-.137l.224-.558a1.113,1.113,0,0,1,1.039-.7h8.565a1.117,1.117,0,0,1,.849.391l1.163,1.357c.023.026.044.053.064.082,5.245,7.315,9.947,21.617,15.391,40.84a1.115,1.115,0,0,1-.735,1.372l-4.475,1.432a1.125,1.125,0,0,1-1.349-.58l-11.615-24.091a.87.87,0,0,0-1.646.26l-3.414,24.956A1.123,1.123,0,0,1,822.053,556.01Z" transform="translate(-813.313 -474.806)" fill="#2f2e41"/>
      <path id="Path_207" data-name="Path 207" d="M837.983,448.11h-.035l-10.4-.329a1.115,1.115,0,0,1-1.076-.983c-1.318-10.675,2.3-13.535,3.914-14.27a.86.86,0,0,0,.5-.682l.14-1.119a1.115,1.115,0,0,1,.221-.543,12.784,12.784,0,0,1,7.831-4.668,1.117,1.117,0,0,1,1.3.9c0,.018.006.037.008.055l.21,1.607a.884.884,0,0,0,.177.42c5.285,6.909-.6,17.111-1.837,19.085h0A1.121,1.121,0,0,1,837.983,448.11Z" transform="translate(-820.827 -412.045)" fill="#ccc"/>
      <path id="Path_239" data-name="Path 239" d="M832.864,509.1,825,510.62l-.3-1.55,6.017-1.16-6.993-18.435,1.476-.56Z" transform="translate(-818.982 -459.696)" fill="#049ce7"/>
      <path id="Path_208" data-name="Path 208" d="M844.89,379.479a24.3,24.3,0,0,0-4.849-5.076,14.41,14.41,0,0,0-5.148-2.724,7.985,7.985,0,0,0-5.709.509c-1.726.918-3.512,2.741-3.522,4.7,0,.628.156,1.478.775,1.369l.179.025,4.477-.9L833,383.991a1.278,1.278,0,0,0,2.073,1.018c.069-.029.663-1.363.663-1.363a.249.249,0,0,1,.428-.072l.353.441a.5.5,0,0,0,.58.149l7.3-3.048c.336-.14.712-.323.81-.675A1.212,1.212,0,0,0,844.89,379.479Z" transform="translate(-820.434 -371.381)" fill="#2f2e41"/>
      <path id="Path_211" data-name="Path 211" d="M856.917,494.624a2.671,2.671,0,0,0,.349-4.08l1.932-23.337-5.754.792-.109,22.673a2.685,2.685,0,0,0,3.58,3.953Z" transform="translate(-840.731 -443.384)" fill="#ffb8b8"/>
      <path id="Path_212" data-name="Path 212" d="M858.375,450.617a1.121,1.121,0,0,1-.318-.046l-6.177-1.817a1.119,1.119,0,0,1-.758-1.389c.009-.03.019-.059.03-.088l2.286-5.905a1.113,1.113,0,0,1,1.281-.689l4.081.887a1.119,1.119,0,0,1,.881,1.124l-.19,6.835a1.119,1.119,0,0,1-1.116,1.088Z" transform="translate(-839.531 -423.435)" fill="#ccc"/>
    </g>
  </g>
</svg>
