<svg xmlns="http://www.w3.org/2000/svg" xmlns:xlink="http://www.w3.org/1999/xlink" width="169.145" height="119.522" viewBox="0 0 169.145 119.522">
  <defs>
    <linearGradient id="linear-gradient" x1="0.5" y1="1" x2="0.5" gradientUnits="objectBoundingBox">
      <stop offset="0" stop-color="gray" stop-opacity="0.251"/>
      <stop offset="0.54" stop-color="gray" stop-opacity="0.122"/>
      <stop offset="1" stop-color="gray" stop-opacity="0.102"/>
    </linearGradient>
    <linearGradient id="linear-gradient-2" x1="0.5" y1="1" x2="0.5" y2="0" xlink:href="#linear-gradient"/>
  </defs>
  <g id="Gruppe_34" data-name="Gruppe 34" transform="translate(0.005 0.006)">
    <ellipse id="Ellipse_143" data-name="Ellipse 143" cx="14.879" cy="2.39" rx="14.879" ry="2.39" transform="translate(41.625 114.669)" fill="#049ce7" opacity="0.1"/>
    <ellipse id="Ellipse_144" data-name="Ellipse 144" cx="18.566" cy="2.39" rx="18.566" ry="2.39" transform="translate(118.816 114.736)" fill="#049ce7" opacity="0.1"/>
    <path id="Pfad_620" data-name="Pfad 620" d="M59.318,396.83h15.5v21.122H60.452c-.038.217-.075.435-.115.654H74.815v17.035c-.026-.008-.049-.017-.073-.026-.409-.162-.815-.333-1.222-.516l-.26-.118q-.611-.289-1.222-.611c-.142-.075-.284-.153-.424-.232a25.41,25.41,0,0,1-6.09-4.758c-.052-.05-.1-.1-.153-.153-.247-.269-.49-.541-.725-.818l-.26-.305c-.278-.34-.547-.69-.808-1.044-.038-.052-.075-.1-.115-.153a22.734,22.734,0,0,1-2.626-4.749c-.021-.05-.04-.105-.06-.153q-.315-.809-.557-1.634c-.07-.231-.137-.458-.2-.7-.021-.07-.04-.139-.056-.208A41.75,41.75,0,0,1,59,409.072V407.85c0-1.412.017-2.834.041-4.254,0-.368.015-.734.023-1.1q.032-1.406.092-2.813c.009-.261.021-.521.035-.78a4.42,4.42,0,0,1,.023-.449C59.25,397.906,59.281,397.367,59.318,396.83Z" transform="translate(-56.798 -345.194)" fill="#049ce7" opacity="0.1"/>
    <path id="Pfad_621" data-name="Pfad 621" d="M115.4,183.194h-8.5a64.439,64.439,0,0,1,4.521-6.224c1.263-1.551,2.6-3.063,3.979-4.52Z" transform="translate(-97.383 -155.076)" fill="#049ce7" opacity="0.1"/>
    <path id="Pfad_622" data-name="Pfad 622" d="M76.848,247.09V269.3H61.4c0-.064.011-.13.015-.194.014-.176.027-.351.043-.525.017-.2.035-.411.055-.611s.041-.444.064-.666.044-.446.07-.667.049-.443.076-.663.052-.443.081-.663c.023-.183.047-.365.072-.548.035-.258.072-.518.111-.774a.714.714,0,0,1,.017-.115,52.819,52.819,0,0,1,1.138-5.576,41.242,41.242,0,0,1,1.916-5.65,42.412,42.412,0,0,1,2.883-5.552Z" transform="translate(-58.831 -218.318)" fill="#049ce7" opacity="0.1"/>
    <path id="Pfad_623" data-name="Pfad 623" d="M186.8,110.265v21.124h33.1V110.265Zm0,21.776v18.14c.189.04.377.078.563.11.253.049.505.093.763.131.049.008.1.015.153.02.1.017.2.031.305.044.255.035.508.064.763.087.121.012.243.023.365.032l.295.023h0c.16.012.319.021.476.026.1,0,.2.009.3.012h1.089c.131,0,.263,0,.392-.012h.009a2.06,2.06,0,0,0,.273-.012.637.637,0,0,0,.076,0,1.575,1.575,0,0,0,.226-.011h.053l.512-.04c.168-.015.337-.035.508-.053l.348-.041a30.455,30.455,0,0,0,4.191-.892c3.088-.861,6.108-2.066,9.194-2.949,3.99-1.138,8.4-1.7,12.254-.305V132.041Zm33.1-45.293V58.626a42.552,42.552,0,0,0-10.754,1.261A52.841,52.841,0,0,0,186.8,72.393V86.747h1.661V87.4H186.8v22.214h33.1V87.4H195.282v-.652Zm42.515-9.5a13.71,13.71,0,0,1-6-1.744c-3.565-1.939-6.413-4.934-9.6-7.461A44.055,44.055,0,0,0,223.6,58.817V86.748h47.252l.118-.124Zm4.3-.763,4.564,5.008V75.172a18.108,18.108,0,0,0-4.558,1.307Zm4.564,78.2V132.041h-9.725c-.026-.1-.052-.194-.082-.292.029.1.053.2.081.292H223.6v16.377c.36.267.716.548,1.069.834h0c.38.305.756.628,1.133.944l.38.315c.182.153.365.305.55.449q.55.446,1.11.88c.185.153.374.29.562.434a76.533,76.533,0,0,0,9.411,6.155q1.1.611,2.228,1.193c.5.255,1,.508,1.506.754q1.136.554,2.29,1.069h0a84.111,84.111,0,0,0,22.294,6.494q2.564.379,5.147.6V154.684h.153ZM223.6,87.4v22.213H271.29V87.4Zm0,22.865v21.124H271.29V110.265Zm51.388-35.12V82.2l5.825-6.392q-2.9-.467-5.825-.667Zm0,35.128v21.116h46.381V110.265Zm46.212,46.09.163-24.321H274.991v36.734a83.181,83.181,0,0,0,8.963-.107h.052q2.138-.134,4.256-.391h.032a78.37,78.37,0,0,0,21.866-5.835m20.156-48.7c-.174-.411-.356-.818-.541-1.222-.345-.763-.71-1.506-1.086-2.248H325.07v21.115h9.15a45.644,45.644,0,0,0-3.9-17.653Zm-5.245,18.305v20.919a29.969,29.969,0,0,0,6.323-8.528,29.317,29.317,0,0,0,2.819-12.394Zm0-27.931v5.5h3.28a59.553,59.553,0,0,0-3.275-5.5ZM293.615,79.289c-.241-.092-.483-.185-.725-.275a66.208,66.208,0,0,0-7.835-2.355l-8.914,9.783h0l-.171.182.115.125h31.727a67.86,67.86,0,0,0-14.192-7.468Zm15.126,8.119h-33.1l-.65.6v21.609h46.387V99.145A66.088,66.088,0,0,0,308.746,87.4Z" transform="translate(-165.083 -58.63)" fill="#049ce7" opacity="0.1"/>
    <path id="Pfad_624" data-name="Pfad 624" d="M76.848,320.46v11.008H61.4c0-.064.011-.13.015-.194.014-.176.027-.351.043-.525.017-.2.035-.411.055-.611s.041-.444.064-.666.044-.446.07-.667.049-.443.076-.663.052-.443.081-.663c.023-.183.047-.365.072-.548.035-.258.072-.518.111-.774a.715.715,0,0,1,.017-.114,52.817,52.817,0,0,1,1.138-5.576Z" transform="translate(-58.831 -280.485)" fill="#049ce7" opacity="0.1"/>
    <path id="Pfad_625" data-name="Pfad 625" d="M59.318,396.83h15.5v21.122H60.452c-.038.217-.075.435-.115.654H74.815v17.035c-.026-.008-.049-.017-.073-.026-.409-.162-.815-.333-1.222-.516l-.26-.118q-.611-.289-1.222-.611c-.142-.075-.284-.153-.424-.232a25.41,25.41,0,0,1-6.09-4.758c-.052-.05-.1-.1-.153-.153-.247-.269-.49-.541-.725-.818l-.26-.305c-.278-.34-.547-.69-.808-1.044-.038-.052-.075-.1-.115-.153a22.734,22.734,0,0,1-2.626-4.749c-.021-.05-.04-.105-.06-.153q-.315-.809-.557-1.634c-.07-.231-.137-.458-.2-.7-.021-.07-.04-.139-.056-.208A41.75,41.75,0,0,1,59,409.072V407.85c0-1.412.017-2.834.041-4.254,0-.368.015-.734.023-1.1q.032-1.406.092-2.813c.009-.261.021-.521.035-.78a4.42,4.42,0,0,1,.023-.449C59.25,397.906,59.281,397.367,59.318,396.83Z" transform="translate(-56.798 -345.194)" fill="#049ce7" opacity="0.1"/>
    <path id="Pfad_626" data-name="Pfad 626" d="M151.212,173.524v19.032H139.56V173.524h1.661V167.08h6.819v6.444Z" transform="translate(-117.843 -141.573)" fill="#049ce7" opacity="0.1"/>
    <rect id="Rechteck_113" data-name="Rechteck 113" width="11.651" height="21.122" transform="translate(21.718 51.635)" fill="#049ce7" opacity="0.1"/>
    <path id="Pfad_627" data-name="Pfad 627" d="M186.8,539.44h11.652V557a30.4,30.4,0,0,1-4.191.89l-.348.043c-.171.02-.341.037-.508.053s-.342.029-.512.04h-.053c-.073,0-.153.009-.224.011h-.078c-.092,0-.183.009-.275.012h0c-.13.008-.26.009-.392.011h-1.081l-.295-.011c-.153,0-.318-.017-.476-.028h0l-.293-.021-.365-.034c-.257-.023-.512-.052-.763-.087l-.305-.043-.153-.021c-.255-.04-.507-.082-.763-.131-.188-.032-.374-.072-.563-.11Z" transform="translate(-165.083 -466.028)" fill="#049ce7" opacity="0.1"/>
    <rect id="Rechteck_114" data-name="Rechteck 114" width="9.608" height="21.278" transform="translate(96.599 29.703)" fill="#049ce7" opacity="0.1"/>
    <path id="Pfad_628" data-name="Pfad 628" d="M428.268,338.19v21.124H380.58V350.2h25.4v5.375h12.678V338.19Z" transform="translate(-322.06 -286.555)" fill="#049ce7" opacity="0.1"/>
    <path id="Pfad_629" data-name="Pfad 629" d="M475.66,560.469h-.153v13.857q-2.581-.218-5.146-.594a84.118,84.118,0,0,1-22.3-6.508q-3.074-1.383-6.022-3.02a76.852,76.852,0,0,1-9.412-6.155q-1.124-.861-2.219-1.762c-.505-.417-1.008-.844-1.516-1.26-.353-.286-.709-.567-1.069-.835V537.822h37.952c-.026-.1-.052-.2-.079-.292.029.1.057.194.082.292h9.731V560.46C475.559,560.462,475.609,560.466,475.66,560.469Z" transform="translate(-369.3 -464.409)" fill="#049ce7" opacity="0.1"/>
    <path id="Pfad_630" data-name="Pfad 630" d="M869.481,199.86h-6.26v-1.945h2.807V192.12q.365.133.727.273v5.521h2.727Z" transform="translate(-738.217 -171.742)" fill="#049ce7" opacity="0.1"/>
    <path id="Pfad_631" data-name="Pfad 631" d="M800.8,269.3H770.065l.011.008-.014-.008h-5.7V248.023h1.615v15.728h7.383v-9.314h6.1V247.09h6.26v7.352h6.1v9.314H800.8Z" transform="translate(-654.452 -218.318)" fill="#049ce7" opacity="0.1"/>
    <path id="Pfad_632" data-name="Pfad 632" d="M764.36,396.82v21.124H800.8V396.82Zm46.331,45.989.05-16.72H800.8v-7.482H764.36V455.33a83.174,83.174,0,0,0,8.963-.107h.052q2.138-.134,4.256-.391h.032A78.368,78.368,0,0,0,799.529,449" transform="translate(-654.452 -345.185)" fill="#049ce7" opacity="0.1"/>
    <path id="Pfad_633" data-name="Pfad 633" d="M1093.011,539.44h8.5a29.409,29.409,0,0,1-2.82,12.393,29.976,29.976,0,0,1-6.322,8.528V546.924h.641Z" transform="translate(-932.377 -466.028)" fill="#049ce7" opacity="0.1"/>
    <path id="Pfad_634" data-name="Pfad 634" d="M1105.075,437.2h-8.505V419.55h4.6A45.7,45.7,0,0,1,1105.075,437.2Z" transform="translate(-935.935 -364.444)" fill="#049ce7" opacity="0.1"/>
    <rect id="Rechteck_115" data-name="Rechteck 115" width="5.147" height="6.671" transform="translate(101.061 35.619)" fill="#049ce7" opacity="0.1"/>
    <rect id="Rechteck_116" data-name="Rechteck 116" width="5.147" height="1.536" transform="translate(101.061 49.447)" fill="#049ce7" opacity="0.1"/>
    <rect id="Rechteck_117" data-name="Rechteck 117" width="5.147" height="4.482" transform="translate(101.061 51.635)" fill="#049ce7" opacity="0.1"/>
    <rect id="Rechteck_118" data-name="Rechteck 118" width="5.147" height="6.671" transform="translate(101.061 63.275)" fill="#049ce7" opacity="0.1"/>
    <rect id="Rechteck_119" data-name="Rechteck 119" width="5.147" height="6.671" transform="translate(101.061 77.103)" fill="#049ce7" opacity="0.1"/>
    <path id="Pfad_635" data-name="Pfad 635" d="M711.566,659.29a.841.841,0,0,1,.153.009h-.153v1.55H706.42V654.17h5.146Z" transform="translate(-605.359 -563.239)" fill="#049ce7" opacity="0.1"/>
    <path id="Pfad_636" data-name="Pfad 636" d="M711.566,744.71v5.154q-2.581-.218-5.146-.594v-4.56Z" transform="translate(-605.359 -639.954)" fill="#049ce7" opacity="0.1"/>
    <rect id="Rechteck_120" data-name="Rechteck 120" width="22.06" height="0.49" transform="translate(58.52 72.269)" fill="#049ce7" opacity="0.1"/>
    <rect id="Rechteck_121" data-name="Rechteck 121" width="22.06" height="1.878" transform="translate(58.52 73.411)" fill="#049ce7" opacity="0.1"/>
    <rect id="Rechteck_122" data-name="Rechteck 122" width="22.06" height="3.02" transform="translate(58.52 81.446)" fill="#049ce7" opacity="0.1"/>
    <path id="Pfad_637" data-name="Pfad 637" d="M455.8,652.15v3.02H438.547q-1.124-.858-2.22-1.762c-.505-.417-1.006-.844-1.516-1.258Z" transform="translate(-375.223 -561.527)" fill="#049ce7" opacity="0.1"/>
    <path id="Pfad_638" data-name="Pfad 638" d="M528.762,712.215v3.017h-1.822q-3.071-1.385-6.021-3.022Z" transform="translate(-448.184 -612.417)" fill="#049ce7" opacity="0.1"/>
    <rect id="Rechteck_123" data-name="Rechteck 123" width="4.343" height="4.343" transform="translate(118.873 53.682)" fill="#049ce7" opacity="0.1"/>
    <rect id="Rechteck_124" data-name="Rechteck 124" width="4.343" height="4.343" transform="translate(24.846 33.449)" fill="#049ce7" opacity="0.1"/>
    <rect id="Rechteck_125" data-name="Rechteck 125" width="4.343" height="4.343" transform="translate(24.846 43.536)" fill="#049ce7" opacity="0.1"/>
    <rect id="Rechteck_126" data-name="Rechteck 126" width="4.343" height="4.343" transform="translate(24.846 53.623)" fill="#049ce7" opacity="0.1"/>
    <rect id="Rechteck_127" data-name="Rechteck 127" width="4.343" height="4.343" transform="translate(24.846 63.708)" fill="#049ce7" opacity="0.1"/>
    <rect id="Rechteck_128" data-name="Rechteck 128" width="4.343" height="4.343" transform="translate(24.846 73.795)" fill="#049ce7" opacity="0.1"/>
    <rect id="Rechteck_129" data-name="Rechteck 129" width="4.343" height="4.343" transform="translate(24.846 83.883)" fill="#049ce7" opacity="0.1"/>
    <rect id="Rechteck_130" data-name="Rechteck 130" width="4.343" height="4.343" transform="translate(135.451 53.682)" fill="#049ce7" opacity="0.1"/>
    <rect id="Rechteck_131" data-name="Rechteck 131" width="4.343" height="4.343" transform="translate(118.873 64.394)" fill="#049ce7" opacity="0.1"/>
    <rect id="Rechteck_132" data-name="Rechteck 132" width="4.343" height="4.343" transform="translate(135.451 64.394)" fill="#049ce7" opacity="0.1"/>
    <rect id="Rechteck_133" data-name="Rechteck 133" width="4.343" height="4.343" transform="translate(118.873 75.104)" fill="#049ce7" opacity="0.1"/>
    <rect id="Rechteck_134" data-name="Rechteck 134" width="4.343" height="4.343" transform="translate(135.451 75.104)" fill="#049ce7" opacity="0.1"/>
    <rect id="Rechteck_135" data-name="Rechteck 135" width="4.343" height="4.343" transform="translate(118.873 85.816)" fill="#049ce7" opacity="0.1"/>
    <rect id="Rechteck_136" data-name="Rechteck 136" width="4.343" height="4.343" transform="translate(135.451 85.816)" fill="#049ce7" opacity="0.1"/>
    <rect id="Rechteck_137" data-name="Rechteck 137" width="4.343" height="4.343" transform="translate(118.873 96.527)" fill="#049ce7" opacity="0.1"/>
    <rect id="Rechteck_138" data-name="Rechteck 138" width="4.343" height="4.343" transform="translate(135.451 96.527)" fill="#049ce7" opacity="0.1"/>
    <path id="Pfad_639" data-name="Pfad 639" d="M775.83,705.13v-2.8h4.341v2.4Z" transform="translate(-656.957 -595.093)" fill="#049ce7" opacity="0.1"/>
    <path id="Pfad_640" data-name="Pfad 640" d="M65.24,357v2.484H80.1V357Zm1.481,2.329H65.509v-2.176H66.73Zm1.48,0H66.979v-2.176H68.2Zm1.477,0H68.456v-2.176h1.222Zm1.48,0h-1.22v-2.176h1.222Zm1.478,0H71.413v-2.176h1.222Zm1.48,0H72.893v-2.176h1.222Zm1.48,0H74.373v-2.176h1.222Zm1.478,0H75.851v-2.176h1.222Zm1.478,0H77.329v-2.176H78.55Zm1.478,0H78.807v-2.176h1.222Z" transform="translate(-62.085 -311.446)" fill="#049ce7" opacity="0.1"/>
    <path id="Pfad_641" data-name="Pfad 641" d="M65.24,404.34v2.484H80.1V404.34Zm1.481,2.327H65.509V404.5H66.73Zm1.48,0H66.979V404.5H68.2Zm1.477,0H68.456V404.5h1.222Zm1.48,0h-1.22V404.5h1.222Zm1.478,0H71.413V404.5h1.222Zm1.48,0H72.893V404.5h1.222Zm1.48,0H74.373V404.5h1.222Zm1.478,0H75.851V404.5h1.222Zm1.478,0H77.329V404.5H78.55Zm1.478,0H78.807V404.5h1.222Z" transform="translate(-62.085 -351.557)" fill="#049ce7" opacity="0.1"/>
    <path id="Pfad_642" data-name="Pfad 642" d="M65.24,451.7v2.489H80.1V451.7Zm1.481,2.327H65.509v-2.171H66.73Zm1.48,0H66.979v-2.171H68.2Zm1.477,0H68.456v-2.171h1.222Zm1.48,0h-1.22v-2.171h1.222Zm1.478,0H71.413v-2.171h1.222Zm1.48,0H72.893v-2.171h1.222Zm1.48,0H74.373v-2.171h1.222Zm1.478,0H75.851v-2.171h1.222Zm1.478,0H77.329v-2.171H78.55Zm1.478,0H78.807v-2.171h1.222Z" transform="translate(-62.085 -391.685)" fill="#049ce7" opacity="0.1"/>
    <path id="Pfad_643" data-name="Pfad 643" d="M65.24,499.06v2.481H80.1V499.06Zm1.481,2.327H65.509v-2.173H66.73Zm1.48,0H66.979v-2.173H68.2Zm1.477,0H68.456v-2.173h1.222Zm1.48,0h-1.22v-2.173h1.222Zm1.478,0H71.413v-2.173h1.222Zm1.48,0H72.893v-2.173h1.222Zm1.48,0H74.373v-2.173h1.222Zm1.478,0H75.851v-2.173h1.222Zm1.478,0H77.329v-2.173H78.55Zm1.478,0H78.807v-2.173h1.222Z" transform="translate(-62.085 -431.814)" fill="#049ce7" opacity="0.1"/>
    <path id="Pfad_644" data-name="Pfad 644" d="M65.66,546.41c.06.234.127.467.2.7v-.542h1.222v2.171h-.654c.02.05.04.105.06.153H80.458v-2.48Zm2.9,2.327H67.34v-2.171h1.222Zm1.477,0H68.816v-2.171h1.222Zm1.48,0H70.293v-2.171h1.222Zm1.478,0H71.774v-2.171H73Zm1.48,0H73.254v-2.171h1.222Zm1.48,0H74.733v-2.171h1.222Zm1.478,0H76.211v-2.171h1.222Zm1.478,0H77.689v-2.171h1.222Zm1.478,0H79.167v-2.171h1.222Z" transform="translate(-62.441 -471.934)" fill="#049ce7" opacity="0.1"/>
    <path id="Pfad_645" data-name="Pfad 645" d="M88.26,593.77c.038.049.075.1.115.153h.808v1.043c.087.1.173.208.261.305v-1.354h1.222V596.1H90.17c.049.05.1.1.153.153h9.288V593.77Zm3.88,2.326H90.918v-2.17H92.14Zm1.48,0H92.4v-2.17H93.62Zm1.48,0H93.878v-2.17H95.1Zm1.478,0H95.356v-2.17h1.222Zm1.478,0H96.834v-2.17h1.222Zm1.478,0H98.312v-2.17h1.222Z" transform="translate(-81.59 -512.062)" fill="#049ce7" opacity="0.1"/>
    <path id="Pfad_646" data-name="Pfad 646" d="M141.65,641.12c.139.079.281.153.424.232v-.076H143.3v.687l.26.121v-.808h1.222V642.6a.379.379,0,0,0,.073.028v-1.5Z" transform="translate(-126.827 -552.182)" fill="#049ce7" opacity="0.1"/>
    <path id="Pfad_647" data-name="Pfad 647" d="M289.948,265.649Zm-9.406,45.067Zm-9.814-22.93c.029.1.053.2.081.292h0C270.785,287.981,270.759,287.883,270.728,287.786Zm19.22-22.141ZM197.72,242.78v.652h6.821v-.652Zm82.822,67.936Zm-9.814-22.93c.029.1.053.2.081.292h0C270.785,287.981,270.759,287.883,270.728,287.786Zm19.22-22.141Zm-9.406,45.067Zm-9.814-22.926c.029.1.053.2.081.292h0C270.785,287.981,270.759,287.883,270.728,287.786Z" transform="translate(-174.336 -214.667)" fill="#049ce7" opacity="0.1"/>
    <path id="Pfad_648" data-name="Pfad 648" d="M328.178,251.773s-.6-.084-.6-.96a13.73,13.73,0,0,0-.431-2.513h0c0-.008-.373-2.851-.887-3.3s-1.176-3.106-1.176-3.106a6.261,6.261,0,0,0-.344-1.75,14.869,14.869,0,0,1-1-2.151c-.46-1.083-2.376-1.832-2.376-1.832s-3.465-2.009-4.447-2.665h0a1.5,1.5,0,0,1-.249-.188c-.171-.224-.916-.229-.916-.229a15.015,15.015,0,0,1-.177-1.568,1.193,1.193,0,0,0-.008-.165,5.283,5.283,0,0,0,2.323-2.874c.018-.058.034-.119.05-.177a.5.5,0,0,0,.3-.269,5.594,5.594,0,0,1,.2-.611,2.3,2.3,0,0,1,.565-.5,2.138,2.138,0,0,0,.588-1.739c-.015-.512-.1-1.028-.066-1.536l.009-.128c.009-.076.02-.153.034-.226.075-.379.238-.736.33-1.112a1.43,1.43,0,0,0-.113-1.122,1.951,1.951,0,0,0-1.538-.618c-.649-.055-1.229.017-1.645-.522a5.864,5.864,0,0,0-.654-.789c-.086-.079-.916-.586-.916-.62a3.712,3.712,0,0,0-2.588-.2c-.431.125-.837.33-1.274.432-.942.223-2.026-.018-2.826.521a3.322,3.322,0,0,0-.964,1.264q-.305.585-.62,1.168a7.567,7.567,0,0,0-.823,2,3.176,3.176,0,0,0-.055.467h0v.249a.819.819,0,0,0,.009.153c.009.047.008.063.012.095s.012.1.021.153.027.134.046.2c.008.029.018.057.027.084.015.052.034.1.053.153.011.026.021.053.034.079a1.426,1.426,0,0,0,.078.153c.012.021.021.041.034.061a2.027,2.027,0,0,0,.14.2c.327.408.808.667,1.164,1.049v.171a5.227,5.227,0,0,0,2.379,4.268c0,.058.008.118.011.176a8.732,8.732,0,0,1-.017,1.361.641.641,0,0,0-.507-.226.731.731,0,0,0-.2.017l-.014-.011h0v.014c-.336.082-.75.432-1.145,1.426,0,0-1.2,1.356-2.119,1.3s-3.236,1.411-3.236,1.411-2.263,1.469-2.749,2.965a20.889,20.889,0,0,1-.974,2.486l-2.8,5.764h0l-.516,4.573a21.223,21.223,0,0,1,.229,2.344,22.567,22.567,0,0,0,1.174,3.106s4.066,7.145,5.728,7.511l.119-.084a.972.972,0,0,0,.224.084l.342-.241a3.73,3.73,0,0,1-.026.806,21.245,21.245,0,0,0,.486,6.212c.4.9.258,12.735.258,12.735L304.1,286a.443.443,0,0,0,.014.092l-.014.247.041.021a2.94,2.94,0,0,1-.041.994,11.057,11.057,0,0,0-.2,1.753s-1.144,7.311-.6,8.78,1,3.078,1,3.078.573,1.832.027,2.145-2.095.838-1.776,1.6c.29.705,1.391,2.6,1.554,2.872l-.014.145-.224,2.432a3.055,3.055,0,0,0,.258.928,1.6,1.6,0,0,0,1.632,1.02c.153-.011.33-.029.5-.052a21.647,21.647,0,0,0,3.711-.965,1.512,1.512,0,0,1-.29-.24h0a.838.838,0,0,1-.255-.611,17.884,17.884,0,0,0-1.011-3.072c-.032-.075-.049-.118-.049-.118s1.89-1.976,1.576-3.727c0,0-2.092-1.222-1.4-1.892a21.335,21.335,0,0,0,1.919-2.6s.056-7.2,0-8.275a8.9,8.9,0,0,1,.105-2.234c.023-.111.05-.22.079-.327a19.928,19.928,0,0,0,2.877.218c.351,0,.709,0,1.069-.021q0,.153.014.33c.079,1.783.228,4.911.348,6.073.171,1.666,1.116,6.155,1.116,6.155s-1.8,1.157.315,4.01a3.866,3.866,0,0,1-.141,1.183h0a12.94,12.94,0,0,0-.362,1.49,2.627,2.627,0,0,0,.018,1.364c.344.675,2.4.62,2.4.62h0l.05-.009a2.955,2.955,0,0,1,2.182.658c.783.629,3.756.353,5.366.153.631-.079,1.052-.153,1.052-.153a.611.611,0,0,0,.021-.22h0c-.017-.4-.327-1.263-2.428-2.037,0,0-1.976-1.328-1.948-2.486h-.27a2.148,2.148,0,0,1,.273,0s-.774-2.825-.458-3.054-.631-3.359-.631-3.359-.542-5.253-.571-5.621a3.205,3.205,0,0,1,.142-.931l-.142-2.88s-.028-.957,0-1.269a6.334,6.334,0,0,0-.066-.808c-.014-.107-.027-.218-.043-.328.741-.188,1.222-.362,1.222-.362l-.086-10.024c.629-1.222.745-3.9.742-5.8,0-1.222-.055-2.126-.055-2.126l.86-1.4s.2-1.68-.116-2.048a.352.352,0,0,1,.038-.481,1.6,1.6,0,0,1,.188-.128s-.009-.014-.02-.034a1.518,1.518,0,0,1,.191-.136s-.305-.473-.032-.673c.257.174.486.305.66.412-.012.111-.024.176-.024.176l.073-.153.27.153a20.4,20.4,0,0,0,1.318-3.078,8.979,8.979,0,0,1,.916-2.061,2.063,2.063,0,0,1,.631-1.241c.516-.366.4-3.022.4-3.022a6.51,6.51,0,0,1,.487-1.948C328.834,252.535,328.178,251.773,328.178,251.773ZM302.409,250.6l.026.64-.263-.423Z" transform="translate(-257.287 -193.805)" fill="url(#linear-gradient)"/>
    <path id="Pfad_649" data-name="Pfad 649" d="M467.076,491.43l-.33,1.4s-2.642-1.348-3.118-3.062a1.938,1.938,0,0,1,.8-2.364l2.461,1.043Z" transform="translate(-399.55 -421.943)" fill="#fff"/>
    <path id="Pfad_650" data-name="Pfad 650" d="M467.076,491.43l-.33,1.4s-2.642-1.348-3.118-3.062a1.938,1.938,0,0,1,.8-2.364l2.461,1.043Z" transform="translate(-399.55 -421.943)" opacity="0.1"/>
    <path id="Pfad_651" data-name="Pfad 651" d="M356.547,795.983a18.985,18.985,0,0,1-4.123,1.011,1.569,1.569,0,0,1-1.6-1.014,3.07,3.07,0,0,1-.252-.924l.218-2.42.116-1.289,3.568-.927.505,1.545.047.118a17.891,17.891,0,0,1,.993,3.054.834.834,0,0,0,.25.6A1.454,1.454,0,0,0,356.547,795.983Z" transform="translate(-303.846 -678.684)" fill="#fff"/>
    <path id="Pfad_652" data-name="Pfad 652" d="M438.143,793.862a.61.61,0,0,1-.021.218s-5.225.872-6.294,0a2.831,2.831,0,0,0-2.2-.644s-2.022.055-2.359-.611a2.651,2.651,0,0,1-.017-1.356,12.924,12.924,0,0,1,.354-1.483l.081-.064.481-.386,5.631-.166h.043c-.027,1.151,1.912,2.472,1.912,2.472C437.814,792.606,438.118,793.468,438.143,793.862Z" transform="translate(-368.754 -677.795)" fill="#fff"/>
    <path id="Pfad_653" data-name="Pfad 653" d="M438.147,805.513a.622.622,0,0,1-.023.218s-5.224.872-6.293,0a2.831,2.831,0,0,0-2.2-.644s-2.023.055-2.359-.611a2.649,2.649,0,0,1-.018-1.356,5.035,5.035,0,0,1,2.49.734,5.529,5.529,0,0,0,2.726,1.461C433.067,805.354,436.62,805.467,438.147,805.513Z" transform="translate(-368.759 -689.445)" opacity="0.1"/>
    <path id="Pfad_654" data-name="Pfad 654" d="M357.953,825.545a18.985,18.985,0,0,1-4.123,1.011,1.565,1.565,0,0,1-1.6-1.015,3.318,3.318,0,0,0,1.938.227,17.286,17.286,0,0,1,3.512-.458A1.505,1.505,0,0,0,357.953,825.545Z" transform="translate(-305.253 -708.247)" opacity="0.1"/>
    <path id="Pfad_655" data-name="Pfad 655" d="M390.909,302.162c-2.016-.783-4.608-3.371-3.961-4.581a2.706,2.706,0,0,0,.252-.971,8.86,8.86,0,0,0,.018-1.374,18.808,18.808,0,0,0-.27-2.235s6.293.142,5.926,1.069a3.465,3.465,0,0,0-.095,1.272c.029.528.105,1.125.185,1.631.11.693.22,1.222.22,1.222s-.385.539-.611.568S393.8,303.278,390.909,302.162Z" transform="translate(-334.584 -257.218)" fill="#cf6f80"/>
    <path id="Pfad_656" data-name="Pfad 656" d="M356.207,792.083l-.047.052c-1.881-2.275-4.156.56-4.156.56l-.034-.06.116-1.289,3.568-.927.505,1.545Z" transform="translate(-305.032 -678.684)" opacity="0.1"/>
    <path id="Pfad_657" data-name="Pfad 657" d="M436.253,789.5a3.614,3.614,0,0,0-2.107.618c-.733.647-4.275.14-4.123,0a.5.5,0,0,0,.079-.232l.481-.386,5.631-.166C436.237,789.432,436.253,789.5,436.253,789.5Z" transform="translate(-371.163 -677.761)" opacity="0.1"/>
    <path id="Pfad_658" data-name="Pfad 658" d="M349.924,656.676a4.245,4.245,0,0,0-.232.783,8.964,8.964,0,0,0-.105,2.223c.057,1.069,0,8.232,0,8.232a21.908,21.908,0,0,1-1.881,2.584c-.673.673,1.374,1.883,1.374,1.883.305,1.741-1.545,3.707-1.545,3.707-1.881-2.275-4.156.562-4.156.562s-1.237-2.138-1.545-2.9,1.208-1.292,1.741-1.6-.026-2.138-.026-2.138-.45-1.6-.985-3.063.589-8.736.589-8.736a11.271,11.271,0,0,1,.2-1.742,2.913,2.913,0,0,0,.041-.99c-.009-.111-.02-.2-.027-.267s-.014-.092-.014-.092l.021-.037.763-1.423S350.29,655.78,349.924,656.676Z" transform="translate(-296.408 -562.807)" fill="#049ce7"/>
    <path id="Pfad_659" data-name="Pfad 659" d="M427.1,682.661a3.645,3.645,0,0,0-2.107.611c-.733.64-4.276.14-4.123,0s.14-1.18.14-1.18c-2.078-2.837-.305-3.989-.305-3.989s-.928-4.466-1.1-6.123c-.118-1.157-.263-4.268-.34-6.044-.034-.763-.053-1.289-.053-1.289l1.7-.342.218-.044,4.1-.822s.113.763.189,1.388a6.485,6.485,0,0,1,.064.8c-.027.305,0,1.261,0,1.261l.139,2.866a3.255,3.255,0,0,0-.139.927c.027.365.56,5.59.56,5.59s.927,3.118.611,3.343S427.1,682.661,427.1,682.661Z" transform="translate(-362.005 -571.094)" fill="#049ce7"/>
    <path id="Pfad_660" data-name="Pfad 660" d="M393.436,294.069a3.465,3.465,0,0,0-.095,1.272,5.23,5.23,0,0,1-5.561-.1,18.807,18.807,0,0,0-.27-2.237S393.8,293.139,393.436,294.069Z" transform="translate(-335.146 -257.218)" opacity="0.1"/>
    <path id="Pfad_661" data-name="Pfad 661" d="M384.277,248.905a5.171,5.171,0,0,1-.257,1.62,5.225,5.225,0,0,1-10.191-1.495v-.125a5.225,5.225,0,1,1,10.45,0Z" transform="translate(-323.554 -215.429)" fill="#cf6f80"/>
    <path id="Pfad_662" data-name="Pfad 662" d="M390.909,322.192c-2.016-.783-4.608-3.372-3.961-4.581a2.706,2.706,0,0,0,.252-.971l2.759,2.268,1.707,1.4,1.3-3.3c.11.693.22,1.222.22,1.222s-.385.539-.611.568S393.8,323.308,390.909,322.192Z" transform="translate(-334.584 -277.248)" opacity="0.1"/>
    <path id="Pfad_663" data-name="Pfad 663" d="M340.3,272.236,338,310.945l-3.005.2L327.21,288.7l1.277-26.647.269-5.63,3.46,2.842,1.709,1.4,1.336-3.4,2.484,2.165Z" transform="translate(-276.84 -217.271)" fill="#049ce7"/>
    <path id="Pfad_664" data-name="Pfad 664" d="M358.574,656.743a4.247,4.247,0,0,0-.232.783,22.141,22.141,0,0,1-6.3-1.968l-.041-.021.014-.246.008-.128.763-1.423S358.94,655.847,358.574,656.743Z" transform="translate(-305.058 -562.875)" opacity="0.1"/>
    <path id="Pfad_665" data-name="Pfad 665" d="M420.892,670.6a15.457,15.457,0,0,1-1.689.192c-.034-.763-.053-1.289-.053-1.289l1.7-.342Z" transform="translate(-361.954 -575.94)" opacity="0.1"/>
    <path id="Pfad_666" data-name="Pfad 666" d="M435.985,664.878a11.852,11.852,0,0,1-4.263.4l-.021-.968,4.1-.821S435.908,664.246,435.985,664.878Z" transform="translate(-372.588 -571.136)" opacity="0.1"/>
    <path id="Pfad_667" data-name="Pfad 667" d="M321.8,370.183a20.94,20.94,0,0,1-11.994-2l.055-1.038s.142-11.771-.252-12.674a21.461,21.461,0,0,1-.478-6.181c.223-.7-.814-11.235-.814-11.235l-.168-4.275L302,330.293l2.749-5.729a20.666,20.666,0,0,0,.956-2.474c.478-1.487,2.7-2.949,2.7-2.949s2.275-1.46,3.175-1.4,2.078-1.292,2.078-1.292c.87-2.219,1.658-1.214,1.658-1.214a1.981,1.981,0,0,1-.043.328c-.305,2.435,4.938,10.131,5.013,10.267h0l.5,12.164.505,15.393Z" transform="translate(-262.693 -275.862)" opacity="0.1"/>
    <path id="Pfad_668" data-name="Pfad 668" d="M320.673,370.132a20.947,20.947,0,0,1-12-2l.057-1.038s.142-11.771-.254-12.674a21.349,21.349,0,0,1-.476-6.181c.224-.7-.814-11.235-.814-11.235l-.169-4.275-6.151-2.5,2.749-5.729a21,21,0,0,0,.956-2.474c.476-1.487,2.7-2.949,2.7-2.949s2.275-1.46,3.173-1.4,2.078-1.292,2.078-1.292c.872-2.219,1.832-1.214,1.832-1.214,0,.105-.092.153-.043.328.672,2.362,4.77,10.131,4.845,10.267h0l.505,12.164.505,15.393Z" transform="translate(-261.735 -275.811)" fill="#fff"/>
    <path id="Pfad_669" data-name="Pfad 669" d="M387.507,328.075c-.673-.281-4.24-4.353-4.24-4.353V322.8c-.13-.305-.9-.119-1.527.095l.269-5.63.305.253C382.983,319.874,387.429,327.94,387.507,328.075Z" transform="translate(-330.257 -277.774)" opacity="0.1"/>
    <path id="Pfad_670" data-name="Pfad 670" d="M388.609,325.865c-.675-.281-4.242-4.353-4.242-4.353v-.927c-.13-.305-.9-.119-1.527.095l.27-5.63.305.253C384.086,317.664,388.534,325.731,388.609,325.865Z" transform="translate(-331.189 -275.901)" fill="#fff"/>
    <path id="Pfad_671" data-name="Pfad 671" d="M351.2,516.4c.084,0,4.353-.449,4.353-.449s2.585,5.083,2.416,6.32-.476,2.332-1.516,2.138a46.145,46.145,0,0,0-5.6.153Z" transform="translate(-304.092 -446.125)" opacity="0.1"/>
    <path id="Pfad_672" data-name="Pfad 672" d="M350.094,514.189c.084,0,4.353-.449,4.353-.449s2.584,5.085,2.416,6.32-.478,2.332-1.516,2.138a46.17,46.17,0,0,0-5.6.153Z" transform="translate(-303.151 -444.252)" fill="#fff"/>
    <path id="Pfad_673" data-name="Pfad 673" d="M360.115,501.05s3.918,2.106,4,2.749-1.994-.281-2.443-.392a5.6,5.6,0,0,0-.9-.14l-2.994.081Z" transform="translate(-309.955 -433.5)" fill="#cf6f80"/>
    <circle id="Ellipse_145" data-name="Ellipse 145" cx="0.412" cy="0.412" r="0.412" transform="translate(55.745 49.74)" opacity="0.1"/>
    <circle id="Ellipse_146" data-name="Ellipse 146" cx="0.412" cy="0.412" r="0.412" transform="translate(55.745 49.572)" fill="#3f3d56"/>
    <circle id="Ellipse_147" data-name="Ellipse 147" cx="0.412" cy="0.412" r="0.412" transform="translate(56.504 67.587)" opacity="0.1"/>
    <circle id="Ellipse_148" data-name="Ellipse 148" cx="0.412" cy="0.412" r="0.412" transform="translate(56.504 67.417)" fill="#3f3d56"/>
    <circle id="Ellipse_149" data-name="Ellipse 149" cx="0.412" cy="0.412" r="0.412" transform="translate(56.156 58.663)" opacity="0.1"/>
    <circle id="Ellipse_150" data-name="Ellipse 150" cx="0.412" cy="0.412" r="0.412" transform="translate(56.156 58.495)" fill="#3f3d56"/>
    <path id="Pfad_674" data-name="Pfad 674" d="M434.593,348.808s.281.422,0,.618.027.673.027.673-.7.411-.392.78.113,2.038.113,2.038l-.843,1.4s.05.9.053,2.115c0,1.9-.111,4.563-.728,5.778l.085,9.973a13.574,13.574,0,0,1-5.422.75l-.366-16s.534-9.075.731-10.815a18.113,18.113,0,0,0,.14-2.726,30.458,30.458,0,0,0-.366-3.988s-.305-5.477-.336-6.993c-.014-.725.024-2.842.067-4.854.047-2.2.1-4.276.1-4.276l-.557-4.41s.557-.056.725.168a1.606,1.606,0,0,0,.244.188h0c.962.65,4.361,2.651,4.361,2.651s1.881.748,2.332,1.82a15.862,15.862,0,0,0,.982,2.138,6.6,6.6,0,0,1,.337,1.741s.647,2.642,1.153,3.089.875,3.294.875,3.294l-4.466,3.512s-.392,5.842-.476,6.068S434.593,348.808,434.593,348.808Z" transform="translate(-368.521 -279.128)" fill="#fff"/>
    <path id="Pfad_675" data-name="Pfad 675" d="M434.7,348.539s.279.421,0,.618.026.673.026.673-.7.415-.391.785.113,2.038.113,2.038l-.843,1.4s.05.9.055,2.115c0,1.9-.111,4.563-.728,5.778l.084,9.973a13.6,13.6,0,0,1-5.424.75l-.365-16s.534-9.075.731-10.815a17.95,17.95,0,0,0,.139-2.726,30.643,30.643,0,0,0-.365-3.988s-.305-5.477-.337-6.993c-.014-.725.026-2.842.067-4.854.047-2.2.1-4.275.1-4.275l-.736-4.469s.736,0,.905.228a1.45,1.45,0,0,0,.244.188h0c.962.65,4.362,2.651,4.362,2.651s1.88.748,2.33,1.82a15.611,15.611,0,0,0,.983,2.138,6.522,6.522,0,0,1,.336,1.741s.647,2.642,1.153,3.089.87,3.288.87,3.288l-4.466,3.512s-.392,5.842-.478,6.068S434.7,348.539,434.7,348.539Z" transform="translate(-368.462 -278.858)" fill="#fff"/>
    <path id="Pfad_676" data-name="Pfad 676" d="M430.295,326.161l.4,1.176-2.122,2.138c.047-2.2.1-4.275.1-4.275l-.736-4.469s.736,0,.906.228a1.392,1.392,0,0,0,.244.186h0l1.8,5.207Z" transform="translate(-369.402 -280.714)" opacity="0.1"/>
    <path id="Pfad_677" data-name="Pfad 677" d="M429.185,323.951l.4,1.176-2.122,2.138c.047-2.2.1-4.275.1-4.275l-.738-4.469s.738,0,.905.228a1.529,1.529,0,0,0,.244.188h0l1.806,5.205Z" transform="translate(-368.462 -278.841)" fill="#fff"/>
    <path id="Pfad_678" data-name="Pfad 678" d="M384.277,248.905a5.171,5.171,0,0,1-.257,1.62.218.218,0,0,1-.165-.041,6.74,6.74,0,0,0-1.548-3.762,3.952,3.952,0,0,0-.84-.87,1.643,1.643,0,0,0-1.139-.322c-.458.063-.863.374-1.325.414-.611.05-1.157-.373-1.764-.394a1.733,1.733,0,0,0-1.3.6,3.557,3.557,0,0,0-.695,1.289,7.542,7.542,0,0,0-.388,2.223c-.008.428-.049.964-.446,1.119a2.281,2.281,0,0,0-.576-1.742l-.009-.009v-.125a5.225,5.225,0,1,1,10.45,0Z" transform="translate(-323.554 -215.429)" opacity="0.1"/>
    <path id="Pfad_679" data-name="Pfad 679" d="M372.362,221.671a3.6,3.6,0,0,0-2.538-.2c-.423.125-.822.328-1.251.431-.916.221-1.985-.018-2.771.518a3.315,3.315,0,0,0-.944,1.257l-.611,1.164a7.551,7.551,0,0,0-.808,1.985,2.534,2.534,0,0,0,.389,2.049c.324.411.8.669,1.153,1.055a2.29,2.29,0,0,1,.574,1.741c.4-.153.437-.69.446-1.118a7.54,7.54,0,0,1,.388-2.223,3.544,3.544,0,0,1,.695-1.289,1.736,1.736,0,0,1,1.3-.6c.611.021,1.159.443,1.764.392.458-.038.864-.351,1.325-.412a1.637,1.637,0,0,1,1.139.322,3.911,3.911,0,0,1,.838.87,6.723,6.723,0,0,1,1.55,3.762c.173.127.421-.038.507-.234a5.58,5.58,0,0,1,.2-.611,2.252,2.252,0,0,1,.553-.492,2.161,2.161,0,0,0,.577-1.73,8.617,8.617,0,0,1-.021-1.881c.072-.379.234-.733.322-1.107a1.447,1.447,0,0,0-.11-1.116,1.88,1.88,0,0,0-1.509-.611c-.637-.055-1.206.015-1.612-.521a5.852,5.852,0,0,0-.641-.785C373.179,222.209,372.362,221.7,372.362,221.671Z" transform="translate(-314.699 -196.491)" fill="#512e4e"/>
    <path id="Pfad_680" data-name="Pfad 680" d="M301.861,418.08l-1.6-2.95-.505,4.552a21.109,21.109,0,0,1,.224,2.332,22.416,22.416,0,0,0,1.151,3.089s3.99,7.106,5.619,7.473l5.5-3.933-1.46-1.854s-.505-.2-.632,0c0,0-2.71-4.663-2.991-5a1.684,1.684,0,0,1-.226-1.011s-.421-.449-.281-.87-.814-1.883-.814-1.883l.87-.814Z" transform="translate(-260.795 -360.699)" opacity="0.1"/>
    <path id="Pfad_681" data-name="Pfad 681" d="M298.477,412.93l-.421.336-.505,4.552a21.1,21.1,0,0,1,.224,2.332,22.412,22.412,0,0,0,1.153,3.089s3.988,7.106,5.618,7.473l5.506-3.933-1.461-1.854s-.505-.2-.632,0c0,0-2.71-4.663-2.991-5a1.679,1.679,0,0,1-.224-1.011s-.421-.449-.281-.87-.815-1.883-.815-1.883l.87-.814Z" transform="translate(-258.922 -358.835)" fill="#fff"/>
    <path id="Pfad_682" data-name="Pfad 682" d="M457.213,514.62c.305.371.113,2.037.113,2.037l-.843,1.4s.05.9.053,2.115l-1.417.443a.841.841,0,0,1-1.092-.829l.244-7.881,3.306,1.264c-.281.2.027.675.027.675S456.9,514.249,457.213,514.62Z" transform="translate(-391.506 -442.693)" opacity="0.1"/>
    <path id="Pfad_683" data-name="Pfad 683" d="M458.315,513.518c.305.371.113,2.039.113,2.039l-.843,1.4s.05.9.055,2.115l-1.443.45a.825.825,0,0,1-1.069-.812l.246-7.905,3.307,1.264c-.283.2.026.673.026.673S458.009,513.148,458.315,513.518Z" transform="translate(-392.438 -441.761)" fill="#fff"/>
    <path id="Pfad_684" data-name="Pfad 684" d="M468.495,497.177s-.224,1.434-.786,1.518-.814,2.319-1.374,2.24-.189-2.078-.169-2.466-.611-1.994-.139-2.359,1.965,0,1.965,0Z" transform="translate(-401.523 -429.177)" fill="#cf6f80"/>
    <path id="Pfad_685" data-name="Pfad 685" d="M466.491,419.828l1.06-2.138a13.88,13.88,0,0,1,.421,2.5c0,.87.589.956.589.956s.646.763.305,1.319a6.4,6.4,0,0,0-.478,1.939s.111,2.64-.394,3.005a2.045,2.045,0,0,0-.611,1.237,8.956,8.956,0,0,0-.9,2.051,20.364,20.364,0,0,1-1.292,3.062,4.33,4.33,0,0,0-3.118-4.747s-.029-1.125.252-1.434.719-.449.444-2.008a18.211,18.211,0,0,1-.079-3.8,23.906,23.906,0,0,1,.843-2.707Z" transform="translate(-398.324 -362.868)" opacity="0.1"/>
    <path id="Pfad_686" data-name="Pfad 686" d="M468.721,415.69l.925.305a13.833,13.833,0,0,1,.423,2.5c0,.87.589.956.589.956s.646.763.305,1.319a6.387,6.387,0,0,0-.476,1.939s.111,2.64-.394,3.005a2.073,2.073,0,0,0-.618,1.237,8.961,8.961,0,0,0-.9,2.051,20.359,20.359,0,0,1-1.293,3.062,4.328,4.328,0,0,0-3.118-4.747s-.027-1.125.254-1.434.719-.449.444-2.008a18.21,18.21,0,0,1-.079-3.8,23.9,23.9,0,0,1,.843-2.707Z" transform="translate(-400.096 -361.174)" fill="#fff"/>
    <path id="Pfad_687" data-name="Pfad 687" d="M360.15,775.793s1.475-.927,2.443-.253S360.15,775.793,360.15,775.793Z" transform="translate(-311.963 -665.868)" opacity="0.1"/>
    <path id="Pfad_688" data-name="Pfad 688" d="M435.21,759.744a2.986,2.986,0,0,1,2.4,1.012C438.708,761.937,435.21,759.744,435.21,759.744Z" transform="translate(-375.562 -652.686)" opacity="0.1"/>
    <g id="Gruppe_33" data-name="Gruppe 33" transform="translate(48.681 28.193)" opacity="0.1">
      <path id="Pfad_689" data-name="Pfad 689" d="M388.375,256.067a2.264,2.264,0,0,0-.554.493,5.59,5.59,0,0,0-.2.611c-.086.2-.334.36-.507.235a6.752,6.752,0,0,0-1.55-3.764,3.911,3.911,0,0,0-.838-.87,1.641,1.641,0,0,0-1.141-.322c-.458.063-.861.374-1.324.412-.611.052-1.159-.371-1.765-.392a1.728,1.728,0,0,0-1.295.6,3.535,3.535,0,0,0-.695,1.287,7.548,7.548,0,0,0-.388,2.223c-.009.426-.049.957-.443,1.116a2.1,2.1,0,0,1,0,.339c.4-.153.437-.69.446-1.118a7.54,7.54,0,0,1,.388-2.223,3.544,3.544,0,0,1,.695-1.289,1.733,1.733,0,0,1,1.295-.6c.611.021,1.16.443,1.765.392.458-.038.864-.351,1.324-.412a1.641,1.641,0,0,1,1.141.322,3.911,3.911,0,0,1,.838.87,6.734,6.734,0,0,1,1.55,3.762c.173.127.421-.038.507-.234a5.927,5.927,0,0,1,.2-.611,2.261,2.261,0,0,1,.554-.492,2.161,2.161,0,0,0,.577-1.73v-.058A2.005,2.005,0,0,1,388.375,256.067Z" transform="translate(-375.497 -251.046)"/>
      <path id="Pfad_690" data-name="Pfad 690" d="M364.99,262.684c-.351-.386-.831-.644-1.153-1.054a2.236,2.236,0,0,1-.444-1.251,2.352,2.352,0,0,0,.444,1.587c.322.411.8.669,1.153,1.055a2.291,2.291,0,0,1,.576,1.362A2.29,2.29,0,0,0,364.99,262.684Z" transform="translate(-363.385 -257.772)"/>
      <path id="Pfad_691" data-name="Pfad 691" d="M451.39,243.6c-.09.374-.25.73-.324,1.107a3.527,3.527,0,0,0-.047.763,2.969,2.969,0,0,1,.047-.434c.073-.379.234-.733.324-1.107a1.878,1.878,0,0,0,.05-.632A2.124,2.124,0,0,1,451.39,243.6Z" transform="translate(-437.634 -243.3)"/>
    </g>
    <ellipse id="Ellipse_151" data-name="Ellipse 151" cx="14.879" cy="2.39" rx="14.879" ry="2.39" transform="translate(5.795 111.354)" fill="#049ce7" opacity="0.1"/>
    <rect id="Rechteck_139" data-name="Rechteck 139" width="0.957" height="21.556" transform="translate(20.196 67.966)" fill="#535461"/>
    <path id="Pfad_692" data-name="Pfad 692" d="M150.435,636.393l-.06.971-.086,1.374-.035.571-.084,1.374-.037.571-.086,1.374-.965,15.586a2.641,2.641,0,0,1-2.636,2.477H141.43a2.64,2.64,0,0,1-2.634-2.477l-.96-15.6-.086-1.374-.035-.571-.086-1.374-.035-.571-.086-1.374-.061-.971a1.374,1.374,0,0,1,1.374-1.452h10.263a1.365,1.365,0,0,1,1.35,1.463Z" transform="translate(-123.265 -546.937)" fill="#3f3d56"/>
    <path id="Pfad_693" data-name="Pfad 693" d="M103.452,592.24l-.086,1.37h-12.7l-.086-1.37Z" transform="translate(-76.342 -501.813)" fill="#9d9cb5"/>
    <path id="Pfad_694" data-name="Pfad 694" d="M104,604.95l-.084,1.371H91.456l-.086-1.371Z" transform="translate(-77.012 -512.582)" fill="#9d9cb5"/>
    <path id="Pfad_695" data-name="Pfad 695" d="M104.55,617.68l-.084,1.37H92.246l-.086-1.37Z" transform="translate(-77.681 -523.368)" fill="#9d9cb5"/>
    <path id="Pfad_696" data-name="Pfad 696" d="M60.042,533.023a24.893,24.893,0,0,1,7.9,10.344,24.844,24.844,0,0,1-12.3-4.265,24.855,24.855,0,0,1-7.9-10.342A24.827,24.827,0,0,1,60.042,533.023Z" transform="translate(-47.265 -456.979)" fill="#049ce7"/>
    <path id="Pfad_697" data-name="Pfad 697" d="M47.72,528.76s6.975,3.871,9.212,7.076,10.986,7.531,10.986,7.531" transform="translate(-47.24 -456.979)" fill="none" stroke="#535461" stroke-miterlimit="10" stroke-width="2"/>
    <path id="Pfad_698" data-name="Pfad 698" d="M114.691,490.581a13.557,13.557,0,0,1,4.3,5.628A12.289,12.289,0,0,1,108,488.26,13.52,13.52,0,0,1,114.691,490.581Z" transform="translate(-98.316 -422.663)" fill="#049ce7"/>
    <path id="Pfad_699" data-name="Pfad 699" d="M108,488.26s3.8,2.107,5.013,3.851,5.981,4.1,5.981,4.1" transform="translate(-98.316 -422.663)" fill="none" stroke="#535461" stroke-miterlimit="10" stroke-width="2"/>
    <path id="Pfad_700" data-name="Pfad 700" d="M185.414,511.219a18.7,18.7,0,0,0-4.224,8.838,17,17,0,0,0,12.622-13.877A18.715,18.715,0,0,0,185.414,511.219Z" transform="translate(-160.33 -437.846)" fill="#049ce7"/>
    <path id="Pfad_701" data-name="Pfad 701" d="M193.815,506.19s-4.541,3.927-5.7,6.633-6.929,7.242-6.929,7.242" transform="translate(-160.33 -437.855)" fill="none" stroke="#535461" stroke-miterlimit="10" stroke-width="2"/>
    <path id="Pfad_702" data-name="Pfad 702" d="M856.741,304.409s-2.521-12.542-1.556-14.1c0,0,.035-1.451-.023-3.3v-.212a4.7,4.7,0,0,0,.53.305,4.288,4.288,0,0,0,2.886.373l-.763-.85a1.409,1.409,0,0,1-.414-.692,1.449,1.449,0,0,1,.165-.748c.725-1.832.763-4.137-.634-5.535-1.18-1.176-1.467-2.694-2.749-3.767a7.939,7.939,0,0,1-1.936-3.054,17.171,17.171,0,0,1-1.06-2.891c-.183-.78-.256-1.588-.508-2.35a2.991,2.991,0,0,0-1.461-1.843,5.516,5.516,0,0,1-.794-.35,3.427,3.427,0,0,1-.731-.86c-1.156-1.527-5.027-.628-6.859-.008a3.858,3.858,0,0,0-1.356.751l.017-.027c.014-.023.031-.046.046-.069a2.409,2.409,0,0,0-.513.573,13.729,13.729,0,0,0-.6,1.374c-.269.542-1.764,2.055-1.121,2.665a.542.542,0,0,0,.153.1,1.321,1.321,0,0,0,.764.076l-.028.066a4.463,4.463,0,0,0-.331,1.693,4.583,4.583,0,0,0,4.624,4.543,4.669,4.669,0,0,0,1.415-.218c.011.058.02.116.031.174a.534.534,0,0,0,.011.069h0l-.081.113a.157.157,0,0,0-.014-.02l-2.4,3.35c-.366.258-2.477,1.785-2.6,2.93-.125,1.254-.25,2.721-.25,2.721l-.017.315a.944.944,0,0,1-.764.206c-.748-.122-.748,2.749-.748,2.749s-.5.458-.84.061-1.246.948-1.246.948l-5.665.244h0l-.13.008-.305-.945a.4.4,0,0,0-.5-.255.456.456,0,0,0-.069.029l-.021.012-.04.027-.02.018a.3.3,0,0,0-.031.032l-.018.021-.009.009h0a.385.385,0,0,0-.055.342l.263.811c-1.093.22-2.211.84-1.3,2.547l-4.621-.854,1.495,1.255,7.717,1.593c-.1.183-.035.449.284.823,1.374,1.614,3.878,2.052,4.886,2.165a8.675,8.675,0,0,0,.991,1.68l-.087,1.608s-2.552,12.255-3.019,12.877a7.258,7.258,0,0,0,.646-.851c-.741,2.518-1.776,5.964-2.048,6.48-.437.825-.841,4.161-.344,4.375a4.19,4.19,0,0,0,1.212-.014v.276l-.028,10.473s.125,6.424-.218,7.036a5.989,5.989,0,0,0-.435,1.9,18.614,18.614,0,0,1-2.463,3.552.16.16,0,0,1-.024.021l-.034-.238a5.2,5.2,0,0,1-4.2,1.559s-1.742,1.133.841,1.194,5.883-.092,5.883-.092,2.3-3.512,4.234-3.054v2.661h.591v-2.7a2.423,2.423,0,0,0,1.052-1.593,1.936,1.936,0,0,0-.69-1.791,1.145,1.145,0,0,1-.377-.837l-.021.018a1.615,1.615,0,0,0-.02-.165,15.239,15.239,0,0,1,.368-6.308c1.028-2.877,1.339-6.883.591-9.269a21.279,21.279,0,0,1-.594-2.323c-.018-.1-.035-.194-.05-.282a12.05,12.05,0,0,1,1.516.305c1.733.478,5.524.567,8.762.541.008.089.017.182.027.275a10,10,0,0,0,.36,1.912,48.706,48.706,0,0,1,.592,6.607,34.961,34.961,0,0,1,.238,6.23c-.153,1-.305,2.008-.392,3.019v.02s-.858,2.443-1.486,3.77c-.015.034-.032.067-.047.1a1.987,1.987,0,0,0-.49.108s-.841,1.68-1.68,1.958-.56,1.193,1.338.857,4.764-.611,4.764-.611l.124-1.713.583-.73-.153,1.709.622-.122-.082-2.078.954-1.194s1.153-1.026-.56-3.045v.044c-.018-.029-.035-.06-.055-.089V341.6a3.263,3.263,0,0,1-.1-2.715c.748-2.629,1.183-5.016,1.183-5.016s1.671-6.393-.337-9.418h.089a5.087,5.087,0,0,1-.432-1.344q-.015-.082-.028-.169a11.017,11.017,0,0,0,4.133-.935C858.05,322,857.333,306.825,856.741,304.409Zm-18.862-10.582v.031l-.305.015Zm-1.048.145a.337.337,0,0,0-.137.066,1.356,1.356,0,0,0-.24.628l-.476-.107s-.334-.072-.815-.153l-.228-.229C835.561,294.125,836.211,294.049,836.831,293.973Z" transform="translate(-703.689 -232.385)" fill="url(#linear-gradient-2)"/>
    <path id="Pfad_703" data-name="Pfad 703" d="M971.5,741.835,971.32,744l.609-.122-.092-2.347Z" transform="translate(-822.597 -628.307)" fill="#1d2366"/>
    <path id="Pfad_704" data-name="Pfad 704" d="M882.621,663a15.463,15.463,0,0,0-.362,6.286c.061.507.117.815.117.815s-1.1,2.5-1.189,2.6-3.231,2.011-3.231,2.011l-2.194,1.281s-2.226-.976-1.159-1.312a1.621,1.621,0,0,0,.576-.393,18.43,18.43,0,0,0,2.411-3.539,6.087,6.087,0,0,1,.428-1.89c.336-.609.214-7.012.214-7.012l.026-10.437V650.05l4.176.031a9.443,9.443,0,0,0,.18,1.374,21,21,0,0,0,.582,2.315C883.931,656.15,883.626,660.137,882.621,663Z" transform="translate(-747.616 -559.748)" fill="#ffb0b1"/>
    <path id="Pfad_705" data-name="Pfad 705" d="M882.377,776.882s-1.1,2.5-1.189,2.6-3.231,2.011-3.231,2.011l-2.194,1.281s-2.226-.976-1.159-1.312a1.62,1.62,0,0,0,.576-.392l.095.667L876,781.7l6.261-5.633C882.32,776.574,882.377,776.882,882.377,776.882Z" transform="translate(-747.616 -666.525)" opacity="0.1"/>
    <path id="Pfad_706" data-name="Pfad 706" d="M860.778,777l-6.3,5.671-.731.031-.153-1.069a5.055,5.055,0,0,1-4.123,1.554s-1.707,1.128.823,1.19,5.761-.092,5.761-.092,2.257-3.512,4.146-3.054v2.652h.58v-2.677a2.411,2.411,0,0,0,1.029-1.588,1.945,1.945,0,0,0-.673-1.783A1.15,1.15,0,0,1,860.778,777Z" transform="translate(-726.093 -667.313)" fill="#1d2366"/>
    <path id="Pfad_707" data-name="Pfad 707" d="M992.086,665.634a3.3,3.3,0,0,0,.093,2.706v.009a5,5,0,0,1,.73,1.782l.025.137-2.865,4.176-1.554.611s-2.5-.854-2.043-1.1a2.34,2.34,0,0,0,.5-.815c.611-1.321,1.454-3.758,1.454-3.758v-.02c.089-1.006.229-2.009.385-3.008a35.448,35.448,0,0,0-.234-6.209,49.545,49.545,0,0,0-.58-6.584,10.067,10.067,0,0,1-.356-1.9c-.082-.763-.1-1.393-.1-1.393s1.646-2.29,4.663.183a3.319,3.319,0,0,1,.631.684c2.084,2.965.406,9.5.406,9.5S992.817,663.012,992.086,665.634Z" transform="translate(-842.601 -559.117)" fill="#ffb0b1"/>
    <path id="Pfad_708" data-name="Pfad 708" d="M992.963,775.685l-2.865,4.176-1.554.611s-2.5-.854-2.043-1.1a2.34,2.34,0,0,0,.5-.815,1.976,1.976,0,0,1,1.606,1l1.341-.214a25.878,25.878,0,0,1,2.165-3.688c.4-.212.061-1.586.061-1.586v-.35c.011.012.02.026.032.038v.009a5,5,0,0,1,.73,1.782Z" transform="translate(-842.626 -664.534)" opacity="0.1"/>
    <path id="Pfad_709" data-name="Pfad 709" d="M977.262,780.139a1.866,1.866,0,0,0-2.226-.884s-.823,1.68-1.646,1.951-.548,1.188,1.312.854,4.663-.611,4.663-.611l.122-1.709,1.89-2.408s1.127-1.022-.55-3.033v.35s.336,1.374-.061,1.587a25.792,25.792,0,0,0-2.159,3.689Z" transform="translate(-831.191 -665.026)" fill="#1d2366"/>
    <path id="Pfad_710" data-name="Pfad 710" d="M904.321,650.061a9.459,9.459,0,0,0,.18,1.374,19.16,19.16,0,0,0-4.361-.044V650.03Z" transform="translate(-769.499 -559.731)" opacity="0.1"/>
    <path id="Pfad_711" data-name="Pfad 711" d="M999.257,651.51s-2.443.119-5.356.143c-.083-.763-.1-1.393-.1-1.393s1.646-2.29,4.663.183a3.318,3.318,0,0,1,.631.684,3.729,3.729,0,0,0,.163.382Z" transform="translate(-848.858 -559.109)" opacity="0.1"/>
    <path id="Pfad_712" data-name="Pfad 712" d="M912.078,502.817s-10.7.518-13.962-.4-6.494-.122-6.981-.334-.092-3.536.336-4.359,2.773-9.146,2.773-9.146l2.257-11.767,2.378-.655.168-.047,4.143-1.142,3.036-.838s6.036,23.566,5.518,25.3a4.449,4.449,0,0,0-.089,2.045A5.1,5.1,0,0,0,912.078,502.817Z" transform="translate(-761.679 -410.69)" fill="#1d2366"/>
    <path id="Pfad_713" data-name="Pfad 713" d="M869.758,439s-2.138,2.29-.519,3.567,2.683.122,2.683.122Z" transform="translate(-742.803 -380.925)" fill="#c7daf5"/>
    <path id="Pfad_714" data-name="Pfad 714" d="M869.758,439s-2.138,2.29-.519,3.567,2.683.122,2.683.122Z" transform="translate(-742.803 -380.925)" opacity="0.1"/>
    <path id="Pfad_715" data-name="Pfad 715" d="M963.733,317.213s-.25.238-.628.589c-.537.5-1.333,1.237-2.038,1.852-.977.851-1.784,1.475-1.495.942a4.117,4.117,0,0,0,.09-2.33c-.011-.058-.02-.116-.031-.173a15.98,15.98,0,0,0-.472-1.887,32.655,32.655,0,0,1,2.452-2.845c.325-.305.553-.431.567-.218a7.091,7.091,0,0,0,.495,1.585c.008.021.015.041.024.063.177.458.377.928.553,1.335C963.52,316.749,963.733,317.213,963.733,317.213Z" transform="translate(-819.507 -274.196)" fill="#ffb0b1"/>
    <path id="Pfad_716" data-name="Pfad 716" d="M962.7,314.8a4.532,4.532,0,0,1-3.036,3.475,15.9,15.9,0,0,0-.5-2.06s2.973-3.84,3.019-3.063A7.262,7.262,0,0,0,962.7,314.8Z" transform="translate(-819.507 -274.206)" opacity="0.1"/>
    <path id="Pfad_717" data-name="Pfad 717" d="M928.787,350.992l.385-.542s.255,1.554,1.193.869.983,5.16.983,5.16l-1.006,15.045-7.271-.435.206-7.27.823-3.665,2.035-5.328,1.211-1.761Z" transform="translate(-788.928 -305.896)" opacity="0.1"/>
    <path id="Pfad_718" data-name="Pfad 718" d="M931.373,357.046l-.916,13.6-.1,1.441-4.054-.243-.153-.009-3.054-.183.206-7.271.823-3.665,2.035-5.328,1.211-1.761,1.441-2.081.385-.541s.255,1.554,1.193.869l.02-.014h0C931.33,351.285,931.373,357.046,931.373,357.046Z" transform="translate(-788.953 -306.37)" fill="#1d2366"/>
    <path id="Pfad_719" data-name="Pfad 719" d="M878.223,406.26a1.113,1.113,0,0,1-1.1.64c-.733-.124-.731,2.749-.731,2.749s-.487.458-.823.061-1.222.945-1.222.945l-5.549.244a4.122,4.122,0,0,1,1.985,4.543s8.383-.519,8.658-1.312S878.223,406.26,878.223,406.26Z" transform="translate(-742.945 -353.184)" fill="#fff"/>
    <path id="Pfad_720" data-name="Pfad 720" d="M878.223,406.26a1.113,1.113,0,0,1-1.1.64c-.733-.124-.731,2.749-.731,2.749s-.487.458-.823.061-1.222.945-1.222.945l-5.549.244a4.122,4.122,0,0,1,1.985,4.543s8.383-.519,8.658-1.312S878.223,406.26,878.223,406.26Z" transform="translate(-742.945 -353.184)" opacity="0.03"/>
    <path id="Pfad_721" data-name="Pfad 721" d="M777.66,389.76l1.463,1.249,12.042,2.53-1.493-1.524Z" transform="translate(-658.508 -330.251)" fill="#fff"/>
    <path id="Pfad_722" data-name="Pfad 722" d="M912.287,349.228a30.841,30.841,0,0,0-1.251,3.234c-.4,1.138-.731,2.138-.731,2.138a57.194,57.194,0,0,1-1.174,5.975c-.4.915-.182,4.482-.182,4.482l-1.48,8.809a43.934,43.934,0,0,1-1.706,7.256,13.211,13.211,0,0,1-2.194,3.962c.458-.62,2.955-12.826,2.955-12.826l.825-15.395s.121-1.463.243-2.713,2.6-2.958,2.6-2.958l2.385-3.391C912.813,348.121,912.652,348.68,912.287,349.228Z" transform="translate(-772.405 -303.65)" fill="#fff"/>
    <path id="Pfad_723" data-name="Pfad 723" d="M889.227,467.982s-3.512-.153-5.213-2.2,3.932-.815,3.932-.815l1.464.336Z" transform="translate(-755.564 -402.62)" fill="#ffb0b1"/>
    <path id="Pfad_724" data-name="Pfad 724" d="M955.955,399.711a4.451,4.451,0,0,0-.089,2.045,29.106,29.106,0,0,1-7.93-.763,17.814,17.814,0,0,1-2.774,1.738l-1.1-13.59c-.7-1.832-.976-11.432-.976-11.432s.063-.5.153-1.255a.145.145,0,0,1,.008-.056,58.326,58.326,0,0,1,1.081-6.583c.366-.733-1.127-2.683-1.127-2.683l.679-5.795.082-.7a7,7,0,0,0,2.53-2.683l.843-1.477h0c.916-.588.963,5.173.963,5.173l-.916,13.6,3.036-.838S956.472,397.973,955.955,399.711Z" transform="translate(-805.891 -310.966)" opacity="0.1"/>
    <path id="Pfad_725" data-name="Pfad 725" d="M960.9,380.455c-4.176,2.074-11.767.153-11.767.153a17.813,17.813,0,0,1-2.774,1.738l-1.1-13.59c-.7-1.832-.974-11.432-.974-11.432s.883-7.163,1.249-7.894a1.176,1.176,0,0,0-.072-.873,11.052,11.052,0,0,1-.669-5.114l.293-2.49.081-.7a7.006,7.006,0,0,0,2.532-2.684l.763-1.338,1.4-2.465.666-1.167.113.1.863.782.916.763c1.2,1.008,3.262,2.782,4.327,3.868.938.956,1.234,4.674,1.319,7.473.057,1.843.023,3.288.023,3.288-.945,1.556,1.527,14.048,1.527,14.048C960.2,365.338,960.9,380.455,960.9,380.455Z" transform="translate(-806.908 -290.771)" fill="#fff"/>
    <path id="Pfad_726" data-name="Pfad 726" d="M929.283,363.745s-2.866,5.456-2.533,7.529,1.28,4.421.823,4.969a1.687,1.687,0,0,1-1.342.67,4.412,4.412,0,0,0-1.68.976,15.919,15.919,0,0,0-2.138.519,13.311,13.311,0,0,1-2.5.67s-2.9-.092-3.172.183a4.08,4.08,0,0,0,.031,3.231,5.091,5.091,0,0,0,1.707,2.469c.486.179,3.567-.854,6.067-1.1a12.908,12.908,0,0,0,5.213-2.225s2.988-1.069,3.512-2.866-.64-11.675-.64-11.675S931.752,362.494,929.283,363.745Z" transform="translate(-783.304 -316.978)" opacity="0.03"/>
    <path id="Pfad_727" data-name="Pfad 727" d="M926.908,360.747s-2.866,5.457-2.53,7.529,1.28,4.421.821,4.97a1.68,1.68,0,0,1-1.341.67,4.412,4.412,0,0,0-1.68.976,16.049,16.049,0,0,0-2.138.518,13.441,13.441,0,0,1-2.5.67s-2.9-.092-3.17.183a4.08,4.08,0,0,0,.031,3.231,5.108,5.108,0,0,0,1.707,2.469c.485.179,3.567-.854,6.067-1.1a12.878,12.878,0,0,0,5.213-2.226s2.987-1.069,3.5-2.865-.64-11.677-.64-11.677S929.377,359.5,926.908,360.747Z" transform="translate(-781.295 -314.439)" opacity="0.03"/>
    <path id="Pfad_728" data-name="Pfad 728" d="M928.71,361.957s-2.866,5.457-2.53,7.529,1.28,4.421.823,4.969a1.68,1.68,0,0,1-1.342.672,4.432,4.432,0,0,0-1.68.974,15.716,15.716,0,0,0-2.138.519,13.34,13.34,0,0,1-2.5.67s-2.9-.092-3.172.183a4.08,4.08,0,0,0,.031,3.231,5.1,5.1,0,0,0,1.707,2.469c.486.179,3.567-.854,6.067-1.1a12.907,12.907,0,0,0,5.213-2.225s2.988-1.069,3.512-2.866-.632-11.675-.632-11.675S931.178,360.714,928.71,361.957Z" transform="translate(-782.821 -315.465)" fill="#fff"/>
    <path id="Pfad_729" data-name="Pfad 729" d="M990.369,458.244s-2.29-.458-1.493.305.793,1.432,1.768,1.4S990.369,458.244,990.369,458.244Z" transform="translate(-844.542 -397.114)" opacity="0.1"/>
    <path id="Pfad_730" data-name="Pfad 730" d="M1023.439,566.58s-1.035.7.945,2.316S1023.439,566.58,1023.439,566.58Z" transform="translate(-873.742 -489.024)" opacity="0.1"/>
    <path id="Pfad_731" data-name="Pfad 731" d="M1011.753,604.31c0,.092-.366,3.359,1,4.176S1011.753,604.31,1011.753,604.31Z" transform="translate(-864.032 -520.992)" opacity="0.1"/>
    <path id="Pfad_732" data-name="Pfad 732" d="M854.979,436.59c-1.106.038-3.494.376-2.255,2.686,1.095,2.045,2.935.678,3.97-.359A3.9,3.9,0,0,0,854.979,436.59Z" transform="translate(-729.029 -378.883)" fill="#ffb0b1"/>
    <path id="Pfad_733" data-name="Pfad 733" d="M881.39,451Z" transform="translate(-753.612 -391.092)" fill="#ffb0b1"/>
    <path id="Pfad_734" data-name="Pfad 734" d="M880.74,451.447l.046-.047Z" transform="translate(-753.062 -391.431)" fill="#ffb0b1"/>
    <path id="Pfad_735" data-name="Pfad 735" d="M956.879,334.841c-1.173.8-2.156,1.478-2.349,1.619-.525.389-1.527,2.675-2.173,3.842-.515.939-2.187,1.18-2.817,1.24l.081-.7a7.006,7.006,0,0,0,2.532-2.684l2.834-4.969.976.887Z" transform="translate(-811.356 -291.271)" opacity="0.1"/>
    <path id="Pfad_736" data-name="Pfad 736" d="M956.879,334.241c-1.173.8-2.156,1.478-2.349,1.62-.525.388-1.527,2.674-2.173,3.84-.515.939-2.187,1.18-2.817,1.24l.081-.7a7.006,7.006,0,0,0,2.532-2.684l2.834-4.969.976.884S956.329,333.776,956.879,334.241Z" transform="translate(-811.356 -290.763)" fill="#dce7ff"/>
    <path id="Pfad_737" data-name="Pfad 737" d="M932.554,292.791a4.529,4.529,0,1,1-3.85-4.477A4.521,4.521,0,0,1,932.554,292.791Z" transform="translate(-789.289 -253.204)" fill="#ffb0b1"/>
    <path id="Pfad_738" data-name="Pfad 738" d="M942.283,308.022a4.025,4.025,0,0,1-1.461-1.57,4.135,4.135,0,0,0-.86-1.443,3.818,3.818,0,0,0-1.4-.542,4.118,4.118,0,0,1-3-3.614,21.391,21.391,0,0,0,.11-2.355,2.607,2.607,0,0,0-.51-1.214,4.173,4.173,0,0,0-.441-.475c-.214-.2-.438-.4-.634-.611a2.375,2.375,0,0,1-.321-.435,2.09,2.09,0,0,1-.176-.4c-.305-.935-.027-2.043-.363-2.988l-.018-.052a.972.972,0,0,0-.744-.7c-.359-.026-.666.272-1.008.4a2.249,2.249,0,0,1-2.086-.678,2.86,2.86,0,0,0-2.029-.927,6.555,6.555,0,0,0-1.362.591,1.909,1.909,0,0,1-.322.093,4.527,4.527,0,0,1,8.73,1.687,4.481,4.481,0,0,1-.1.945c.008.021.015.041.024.063.177.458.377.928.553,1.335l.863.782.916.763c1.2,1.008,3.262,2.782,4.327,3.868C941.9,301.507,942.195,305.223,942.283,308.022Z" transform="translate(-791.114 -253.204)" opacity="0.1"/>
    <path id="Pfad_739" data-name="Pfad 739" d="M920.456,268.938c.218-.444.327-.942.588-1.364a3.249,3.249,0,0,1,1.739-1.238c1.794-.618,5.586-1.516,6.719,0a3.306,3.306,0,0,0,.716.855,5.318,5.318,0,0,0,.777.35,2.971,2.971,0,0,1,1.429,1.832c.246.754.319,1.564.5,2.341a17.219,17.219,0,0,0,1.038,2.881,7.935,7.935,0,0,0,1.9,3.042c1.25,1.069,1.527,2.582,2.687,3.755,1.374,1.393,1.33,3.691.621,5.515a1.515,1.515,0,0,0-.162.745,1.462,1.462,0,0,0,.4.69l.751.847a4.224,4.224,0,0,1-4.616-2.129,4.127,4.127,0,0,0-.861-1.443,3.808,3.808,0,0,0-1.4-.541,4.123,4.123,0,0,1-3-3.617,21.38,21.38,0,0,0,.11-2.352,2.6,2.6,0,0,0-.512-1.222c-.42-.548-1.054-.916-1.4-1.527-.579-1.021-.139-2.348-.556-3.445a.974.974,0,0,0-.744-.7c-.359-.026-.666.272-1.009.4a2.244,2.244,0,0,1-2.084-.678,2.847,2.847,0,0,0-2.031-.925,6.384,6.384,0,0,0-1.36.591c-.342.131-1.035.249-1.335-.04C918.727,270.989,920.191,269.482,920.456,268.938Z" transform="translate(-785.651 -233.92)" fill="#591d4b"/>
    <path id="Pfad_740" data-name="Pfad 740" d="M935.785,294.8a4.131,4.131,0,0,0-.861-1.441,3.807,3.807,0,0,0-1.4-.542,4.124,4.124,0,0,1-3-3.616,21.763,21.763,0,0,0,.111-2.353,2.612,2.612,0,0,0-.512-1.214c-.421-.548-1.055-.916-1.4-1.527-.579-1.02-.139-2.347-.557-3.445a.977.977,0,0,0-.742-.7c-.357-.027-.667.273-1.009.406a2.247,2.247,0,0,1-2.084-.678,2.861,2.861,0,0,0-2.031-.927,6.509,6.509,0,0,0-1.361.591c-.342.131-1.037.25-1.336-.038-.629-.611.835-2.115,1.1-2.655a14.631,14.631,0,0,1,.589-1.364c.014-.023.029-.046.044-.069a2.423,2.423,0,0,0-.5.571,14.819,14.819,0,0,0-.588,1.364c-.264.541-1.729,2.049-1.1,2.655.305.29.992.171,1.335.04a6.284,6.284,0,0,1,1.36-.591,2.845,2.845,0,0,1,2.031.925,2.251,2.251,0,0,0,2.086.678c.342-.133.641-.432,1.008-.4a.972.972,0,0,1,.744.7c.417,1.1-.023,2.423.556,3.445.342.6.976.976,1.4,1.527a2.6,2.6,0,0,1,.511,1.222,21.335,21.335,0,0,1-.11,2.352,4.117,4.117,0,0,0,3,3.617,3.828,3.828,0,0,1,1.4.541,4.04,4.04,0,0,1,.861,1.443,4.224,4.224,0,0,0,4.616,2.129l-.354-.4A4.27,4.27,0,0,1,935.785,294.8Z" transform="translate(-785.468 -242.161)" opacity="0.1"/>
    <path id="Pfad_741" data-name="Pfad 741" d="M948.384,349.743a30.815,30.815,0,0,0-1.251,3.234c-.447-.174-.854-1.284-.854-1.284l2.385-3.393C948.909,348.636,948.749,349.193,948.384,349.743Z" transform="translate(-808.594 -304.074)" opacity="0.1"/>
    <path id="Pfad_742" data-name="Pfad 742" d="M948.984,349.151a30.805,30.805,0,0,0-1.251,3.234c-.447-.173-.854-1.284-.854-1.284l2.385-3.391C949.509,348.044,949.349,348.6,948.984,349.151Z" transform="translate(-809.102 -303.574)" fill="#dce7ff"/>
    <path id="Pfad_743" data-name="Pfad 743" d="M862.4,433.351l-1.322-4.17a.389.389,0,0,1,.253-.49h0a.391.391,0,0,1,.489.254l1.322,4.166-.131.872Z" transform="translate(-736.385 -372.174)" fill="#be8b87"/>
    <path id="Pfad_744" data-name="Pfad 744" d="M861.551,428.848h0a.391.391,0,0,1,.49.253l1.322,4.166-.1.654.1.1.131-.872-1.33-4.166a.391.391,0,0,0-.489-.254h0a.391.391,0,0,0-.2.153.537.537,0,0,1,.081-.035Z" transform="translate(-736.734 -372.208)" fill="#fff" opacity="0.1"/>
    <path id="Pfad_745" data-name="Pfad 745" d="M822.6,399.375l.742-.235-.108.715-.023.157-.217-.226Z" transform="translate(-696.586 -338.198)" fill="#efc8c4"/>
    <path id="Pfad_746" data-name="Pfad 746" d="M872.42,461.722a.152.152,0,0,1,.047-.04.067.067,0,0,1,.072,0,.19.19,0,0,1,.026.041.131.131,0,0,0,.095.063l-.023.153Z" transform="translate(-746.012 -400.135)" fill="#727a9c"/>
    <path id="Pfad_747" data-name="Pfad 747" d="M861.13,441.7s2.652-.015,2.028,1.113a2.386,2.386,0,0,1-1.6,1.264Z" transform="translate(-736.446 -383.212)" fill="#ffb0b1"/>
    <path id="Pfad_748" data-name="Pfad 748" d="M559.482,110.05h-.115a13.061,13.061,0,0,0-10.9,5.969,13.06,13.06,0,0,0-10.9-5.969h-.114a12.979,12.979,0,0,0-12.855,12.971c0,4.246,1.86,10.272,5.486,15.23,6.909,9.447,18.388,17.713,18.388,17.713s11.478-8.264,18.386-17.713c3.628-4.958,5.486-10.983,5.486-15.23A12.979,12.979,0,0,0,559.482,110.05Zm-1.638,28.928a2.573,2.573,0,0,1-2.393-1.652h-2.724a.861.861,0,0,1-.811-.586l-.837-2.521-2.648,9.252a.857.857,0,0,1-.822.618h-.053a.846.846,0,0,1-.794-.709l-2.729-16.412-1.994,9.711a.85.85,0,0,1-.826.646h-3.837a.854.854,0,1,1,0-1.706h3.165l2.825-13.057a.857.857,0,0,1,1.68.07l2.787,16.742,2.373-8.278a.84.84,0,0,1,.8-.611h.017a.852.852,0,0,1,.809.586l1.513,4.552h2.074a2.559,2.559,0,1,1,2.431,3.359Z" transform="translate(-451.294 -102.204)" fill="#049ce7"/>
  </g>
</svg>
