<svg xmlns="http://www.w3.org/2000/svg" width="134.99" height="107.159" viewBox="0 0 134.99 107.159">
  <g id="Gruppe_27" data-name="Gruppe 27" transform="translate(0.001 0)">
    <circle id="Ellipse_128" data-name="Ellipse 128" cx="8.861" cy="8.861" r="8.861" transform="translate(63.269 4.979)" fill="#ff6584"/>
    <path id="Pfad_555" data-name="Pfad 555" d="M157.966,229.018c0,17.115-10.174,23.09-22.725,23.09s-22.725-5.976-22.725-23.09,22.725-38.887,22.725-38.887S157.966,211.9,157.966,229.018Z" transform="translate(-112.517 -172.532)" fill="#f2f2f2"/>
    <path id="Pfad_556" data-name="Pfad 556" d="M101.319,186.469l.233-14.323,9.686-17.72L101.588,169.9l.1-6.44,6.676-12.82-6.648,11.116h0l.188-11.583,7.148-10.207-7.119,8.385.118-21.24-.739,28.117.061-1.16L94.11,142.943l7.151,13.351-.677,12.936-.02-.343L92.185,157.18l8.353,12.92-.085,1.618-.015.024.007.133L98.727,204.7h2.3l.275-16.953,8.333-12.888Z" transform="translate(-79.422 -109.511)" fill="#3f3d56"/>
    <path id="Pfad_557" data-name="Pfad 557" d="M581.658,110.528c0,20.908-12.43,28.209-27.763,28.209s-27.762-7.3-27.762-28.209S553.9,63.021,553.9,63.021,581.658,89.62,581.658,110.528Z" transform="translate(-468.866 -63.021)" fill="#0075ab"/>
    <path id="Pfad_558" data-name="Pfad 558" d="M537.394,72.518l.284-17.5,11.833-21.648-11.789,18.9.128-7.868,8.155-15.662-8.122,13.58h0l.23-14.151L546.848,15.7l-8.7,10.244L538.294,0l-.9,34.35.074-1.417-8.879-13.59,8.736,16.311-.827,15.8-.025-.419-10.236-14.3,10.2,15.784-.1,1.976-.018.03.008.162-2.1,40.1h2.8l.337-20.711,10.18-15.745Z" transform="translate(-453.376 0)" fill="#3f3d56"/>
    <ellipse id="Ellipse_129" data-name="Ellipse 129" cx="42.644" cy="1.523" rx="42.644" ry="1.523" transform="translate(12.733 93.313)" fill="#3f3d56"/>
    <ellipse id="Ellipse_130" data-name="Ellipse 130" cx="19.661" cy="1.869" rx="19.661" ry="1.869" transform="translate(95.668 103.421)" fill="#3f3d56"/>
    <rect id="Rechteck_94" data-name="Rechteck 94" width="4.984" height="46.798" transform="translate(52.885 48.038)" fill="#2f2e41"/>
    <path id="Pfad_559" data-name="Pfad 559" d="M374.566,370.542h-30.6v-8.584h30.6l8.861,4.292Z" transform="translate(-296.343 -311.843)" fill="#3f3d56"/>
    <path id="Pfad_560" data-name="Pfad 560" d="M374.566,394.4h-30.6v.692h30.6l8.861-4.292-.715-.346Z" transform="translate(-296.343 -336.397)" opacity="0.1"/>
    <path id="Pfad_561" data-name="Pfad 561" d="M180.828,452.542h30.6v-8.584h-30.6l-8.861,4.292Z" transform="translate(-148.158 -382.49)" fill="#3f3d56"/>
    <path id="Pfad_562" data-name="Pfad 562" d="M172.682,472.458l-.715.346,8.861,4.292h30.6V476.4h-30.6Z" transform="translate(-148.158 -407.044)" opacity="0.1"/>
    <rect id="Rechteck_95" data-name="Rechteck 95" width="5.261" height="5.261" transform="translate(64.792 51.777)" fill="#049ce7"/>
    <circle id="Ellipse_131" data-name="Ellipse 131" cx="2.631" cy="2.631" r="2.631" transform="translate(40.978 63.13)" fill="#049ce7"/>
    <circle id="Ellipse_132" data-name="Ellipse 132" cx="1.523" cy="1.523" r="1.523" transform="translate(53.854 52.607)" fill="#2f2e41"/>
    <circle id="Ellipse_133" data-name="Ellipse 133" cx="1.523" cy="1.523" r="1.523" transform="translate(53.854 63.961)" fill="#2f2e41"/>
    <path id="Pfad_563" data-name="Pfad 563" d="M387.077,666.331c0,3.111-1.849,4.2-4.131,4.2l-.158,0c-.106,0-.21-.007-.314-.014-2.059-.146-3.659-1.288-3.659-4.181,0-2.994,3.826-6.772,4.114-7.052h0l.017-.016S387.077,663.221,387.077,666.331Z" transform="translate(-341.945 -576.71)" fill="#049ce7"/>
    <path id="Pfad_564" data-name="Pfad 564" d="M397.231,670.052l1.511-2.111-1.515,2.343,0,.242c-.106,0-.21-.007-.314-.014l.163-3.112v-.024l0,0,.015-.294-1.518-2.349,1.523,2.128,0,.062.123-2.352-1.3-2.427,1.316,2.014.128-4.875v0l-.021,3.845,1.294-1.524-1.3,1.855-.034,2.105,1.208-2.021-1.213,2.33-.019,1.171,1.754-2.812-1.761,3.221Z" transform="translate(-356.381 -576.71)" fill="#3f3d56"/>
    <path id="Pfad_565" data-name="Pfad 565" d="M866.192,798.893s-1.96,1.651-2.992,1.548-2.992-.1-2.167,1.032,4.23,1.754,5.675,1.857,4.643.206,4.437-.413-.413-3.508-1.238-3.714A32.841,32.841,0,0,0,866.192,798.893Z" transform="translate(-757.226 -697.007)" fill="#575a89"/>
    <path id="Pfad_566" data-name="Pfad 566" d="M952.107,782.828s-1.445,2.117-2.466,2.295-2.91.7-1.81,1.576,4.546.553,5.965.264,4.528-1.049,4.163-1.59-1.34-3.268-2.191-3.245A32.829,32.829,0,0,0,952.107,782.828Z" transform="translate(-831.89 -682.564)" fill="#575a89"/>
    <path id="Pfad_567" data-name="Pfad 567" d="M884.6,556.43s-1.328,9.094-1.018,10.745.516,4.23.516,4.23a15.6,15.6,0,0,0,0,3.2c.206,1.032,1.445,10.834,1.445,11.04a2.86,2.86,0,0,0,0,1.341c.206.516.619.1,0,.929s-.206,1.032-.1,1.032,4.127.413,4.334,0-.1-.516,0-1.032.206-.619.413-.722.619.1.31-.413-1.032-1.135-.825-1.445a10.125,10.125,0,0,0-.1-2.579s-.206-5.056-.31-8.151a21.352,21.352,0,0,1,.929-6.294,11.805,11.805,0,0,0,2.683,6.913c2.683,3.2,4.024,9.183,4.024,9.183a2.22,2.22,0,0,1,.31,1.754c-.309.825-1.238.31-.31.825s4.127-.206,4.437-.516-.413-.722-.206-1.548,1.032-.619.31-1.032-.929-.31-.929-.722-1.857-9.389-4.746-11.969l-.206-9.389s2.579-6.6-.1-7.223S884.6,556.43,884.6,556.43Z" transform="translate(-776.784 -486.441)" fill="#2f2e41"/>
    <path id="Pfad_568" data-name="Pfad 568" d="M904.74,379.367s1.754,4.334,1.341,4.953,5.056-2.064,5.056-2.064a50.3,50.3,0,0,1-1.754-4.849C909.383,376.891,904.74,379.367,904.74,379.367Z" transform="translate(-795.053 -333.818)" fill="#a0616a"/>
    <circle id="Ellipse_134" data-name="Ellipse 134" cx="3.818" cy="3.818" r="3.818" transform="translate(107.16 38.998)" fill="#a0616a"/>
    <path id="Pfad_569" data-name="Pfad 569" d="M898.114,399.949s-2.683-.31-4.024,1.341a16.639,16.639,0,0,0-1.548,2.064s-3.2,5.159-2.579,7.738a7.455,7.455,0,0,1,.413.722,40.892,40.892,0,0,1,0,7.119,5.048,5.048,0,0,0-.206,2.579c.206,1.341-1.651,3.508.516,3.921s3.818.1,4.54-.825.1-1.548,2.373-1.548a5.46,5.46,0,0,0,3.714-1.548s-1.135-1.238-.722-1.445,0-.722-.206-1.238-.206-.929.1-.929.1-.206-.1-.722,3.611-9.389,1.341-11.969-3.4-4.024-3.4-4.024S898.733,399.64,898.114,399.949Z" transform="translate(-782.03 -353.264)" fill="#049ce7"/>
    <path id="Pfad_570" data-name="Pfad 570" d="M881.928,471v4.54l-3.3,10.937s-2.167,5.675,0,5.675,2.051-5.416,2.051-5.416l4.656-8.2s1.857-6.5,1.651-7.016S881.928,471,881.928,471Z" transform="translate(-771.725 -414.512)" fill="#a0616a"/>
    <path id="Pfad_571" data-name="Pfad 571" d="M906.139,422.553a3.851,3.851,0,0,0-2.27,4.54c.825,3.3,0,3.2,0,3.2s4.23-.413,5.572.516l.31-1.238S910.989,422.45,906.139,422.553Z" transform="translate(-794.182 -372.773)" fill="#049ce7"/>
    <path id="Pfad_572" data-name="Pfad 572" d="M893.065,332.967a1.523,1.523,0,0,1-1.431-.223,1.153,1.153,0,0,1-.325-1.361,1.82,1.82,0,0,1,1.025-.759,9.528,9.528,0,0,1,2.793-.631,2.541,2.541,0,0,1,1.343.181c.2.1.377.252.576.359a6.856,6.856,0,0,0,1.191.367,2.981,2.981,0,0,1,1.821,1.674,3.585,3.585,0,0,1,.224.831,4.627,4.627,0,0,1-.241,2.317c-.44,1.171-1.362,2.195-1.414,3.445-.565-.41-.774-1.149-1.226-1.68a2.285,2.285,0,0,0-1.3-.756.726.726,0,0,1-.389-.142.625.625,0,0,1-.142-.331l-.386-1.824a1.592,1.592,0,0,0-.483-1,1.462,1.462,0,0,0-.63-.222,9.878,9.878,0,0,0-1.613-.147" transform="translate(-783.391 -293.017)" fill="#2f2e41"/>
  </g>
</svg>
