<svg xmlns="http://www.w3.org/2000/svg" width="353" height="322.083" viewBox="0 0 353 322.083">
  <g id="Gruppe_40" data-name="Gruppe 40" transform="translate(0)">
    <rect id="Rechteck_166" data-name="Rechteck 166" width="274.034" height="152.849" transform="translate(48.474 123.262)" fill="#3f3d56"/>
    <path id="Pfad_764" data-name="Pfad 764" d="M206.872,301.472l18.042-6.781a147.423,147.423,0,0,0-19.488-18.864l-24.891,4.214,20.549-7.723A384.918,384.918,0,0,0,164.14,246.79S143.565,304.4,149.613,330c3.508,14.844,12.96,26.561,24.809,32.716l.482-33.07,6.436,35.937a39.857,39.857,0,0,0,21.245.827c23.208-5.484,37.12-30.677,31.072-56.27-.906-3.834-3.1-7.941-6.181-12.152Z" transform="translate(-148.5 -165.187)" fill="#d0cde1"/>
    <ellipse id="Ellipse_153" data-name="Ellipse 153" cx="12.569" cy="4.288" rx="12.569" ry="4.288" transform="translate(46.017 192.307) rotate(-30)" opacity="0.1"/>
    <path id="Pfad_765" data-name="Pfad 765" d="M362.4,605.4H337.744a103.938,103.938,0,0,1-9.871-10.656l-17.185-28.959-21.532-36.3-2.4-4.034-1.97-3.323,10.649-5.915,2.263,3.018.442.586,2.6,3.456,17.482,23.287,1.912-17.482h7.1L321.4,550.8Z" transform="translate(-231.511 -329.289)" fill="#f2f2f2"/>
    <path id="Pfad_766" data-name="Pfad 766" d="M841.544,284.7l-20.416-2.037a156.929,156.929,0,0,1,14.884-24.74l26.759-2.478-23.253-2.32a409.765,409.765,0,0,1,31.017-36.372s36.934,53.635,37.719,81.617c.455,16.23-6.062,30.871-16.567,40.446L882.14,304.93l3.215,38.73a42.428,42.428,0,0,1-21.628,6.666c-25.376.711-46.582-21.4-47.366-49.38-.117-4.192,1.02-9.018,3.032-14.193Z" transform="translate(-555.276 -146.893)" fill="#d0cde1"/>
    <ellipse id="Ellipse_154" data-name="Ellipse 154" cx="4.565" cy="13.38" rx="4.565" ry="13.38" transform="matrix(0.261, -0.965, 0.965, 0.261, 286.095, 193.901)" opacity="0.1"/>
    <path id="Pfad_767" data-name="Pfad 767" d="M860.905,530.886l-.121.434-1,3.53-1.36,4.8v0l-12.216,43.224-8.241,29.151c-.141.125-.281.246-.426.371H814.12l16.966-42-11.939-20.746,7.3-1.943L833.2,565.17l11.61-28.733,0,0,1.72-4.265.293-.727,1.5-3.725,12.185,3.077Z" transform="translate(-553.916 -336.294)" fill="#f2f2f2"/>
    <path id="Pfad_768" data-name="Pfad 768" d="M520.315,769.658l-9.76,36.081h33.42l3.845-3.549,1.479,3.549h35.786s3.845-23.364-.887-25.139S520.315,769.658,520.315,769.658Z" transform="translate(-369.021 -483.656)" fill="#2f2e41"/>
    <circle id="Ellipse_155" data-name="Ellipse 155" cx="20.407" cy="20.407" r="20.407" transform="translate(168.448 102.933)" fill="#a0616a"/>
    <path id="Pfad_769" data-name="Pfad 769" d="M588.508,379.656s3.845,28.984-2.07,32.237,35.194,3.549,35.194,3.549-9.168-25.139-5.028-32.828Z" transform="translate(-414.885 -246.113)" fill="#a0616a"/>
    <path id="Pfad_770" data-name="Pfad 770" d="M559.622,439.216s-10.354-1.546-12.571-6.688l-31.2,13.786s5.619,41.109,8.872,48.5l-4.14,74.234s28.984,19.224,68.023,8.872l9.76-81.627,10.647-48.5L574.924,434.1A34.746,34.746,0,0,1,559.622,439.216Z" transform="translate(-372.246 -278.316)" fill="#049ce7"/>
    <path id="Pfad_771" data-name="Pfad 771" d="M628.463,688.651s-37.56-1.183-34.9,10.055,37.264-.591,37.264-.591Z" transform="translate(-419.498 -434.294)" fill="#a0616a"/>
    <path id="Pfad_772" data-name="Pfad 772" d="M579.759,283.057l-3.816-1.528s7.978-8.783,19.078-8.02l-3.122-3.437s7.631-3.055,14.568,4.964c3.647,4.216,7.866,9.171,10.5,14.753h4.086l-1.705,3.755,5.969,3.755-6.127-.675a20.986,20.986,0,0,1,.166,6.229,8.059,8.059,0,0,1-2.951,5.272h0s-4.732-9.795-4.732-11.322v3.819s-3.816-3.437-3.816-5.728l-2.081,2.673-1.041-4.2-12.834,4.2,2.081-3.437L586,295.277l3.122-4.2s-9.019,4.964-9.366,9.165a20.168,20.168,0,0,1-2.987,8.181S569.7,288.785,579.759,283.057Z" transform="translate(-407.881 -179.02)" fill="#2f2e41"/>
    <path id="Pfad_773" data-name="Pfad 773" d="M616.784,642.049v5.034a.176.176,0,0,1-.176.176h-.125v26.224a2.736,2.736,0,0,1-2.736,2.736H597.362a2.736,2.736,0,0,1-2.735-2.736v-25.3h-.091a.124.124,0,0,1-.124-.123v-2.865a.124.124,0,0,1,.124-.124h.091v-1.079h-.091a.13.13,0,0,1-.13-.13V641.03a.13.13,0,0,1,.13-.13h.091v-1.473h-.093a.115.115,0,0,1-.115-.115V637.77a.115.115,0,0,1,.115-.116h.093v-3.122a2.735,2.735,0,0,1,2.735-2.735h16.386a2.736,2.736,0,0,1,2.736,2.736v7.341h.125A.176.176,0,0,1,616.784,642.049Z" transform="translate(-420.092 -399.687)" fill="#3f3d56"/>
    <circle id="Ellipse_156" data-name="Ellipse 156" cx="2.683" cy="2.683" r="2.683" transform="translate(182.807 241.109)" fill="#f2f2f2"/>
    <path id="Pfad_774" data-name="Pfad 774" d="M692,471.577h9.168s29.279,63.882,22.181,71.571-49.982,28.688-49.982,28.688-3.253-16.266-6.211-16.266l29.575-18.336-14.492-34.6Z" transform="translate(-464.406 -302.1)" fill="#049ce7"/>
    <path id="Pfad_775" data-name="Pfad 775" d="M548.933,681.9s33.42,17.745,27.209,25.435-36.081-13.6-36.081-13.6Z" transform="translate(-386.992 -430.203)" fill="#a0616a"/>
    <path id="Pfad_776" data-name="Pfad 776" d="M480.058,468.551h-4.14s-5.915,5.619-7.689,18.337l-17.182,38.287a8.653,8.653,0,0,0,.12,7.341c3.813,7.81,13.85,25.433,28.891,30.675l7.689,5.915s-.887-14.492,11.239-14.492l-20.7-22.477,7.985-26.026Z" transform="translate(-332.314 -300.257)" fill="#049ce7"/>
    <rect id="Rechteck_167" data-name="Rechteck 167" width="101.843" height="78.564" transform="translate(185.687)" fill="#3f3d56"/>
    <rect id="Rechteck_168" data-name="Rechteck 168" width="14.226" height="37.504" transform="translate(203.307 28.29)" fill="#d0cde1"/>
    <rect id="Rechteck_169" data-name="Rechteck 169" width="14.226" height="22.955" transform="translate(229.495 42.838)" fill="#d0cde1"/>
    <rect id="Rechteck_170" data-name="Rechteck 170" width="14.226" height="53.023" transform="translate(255.683 12.771)" fill="#d0cde1"/>
    <circle id="Ellipse_157" data-name="Ellipse 157" cx="7.113" cy="7.113" r="7.113" transform="translate(229.495 21.177)" fill="#049ce7"/>
    <rect id="Rechteck_171" data-name="Rechteck 171" width="101.843" height="78.564" transform="translate(59.216 15.11)" fill="#3f3d56"/>
    <path id="Pfad_777" data-name="Pfad 777" d="M339.677,170.83s.97-26.188,20.369-21.985S408.219,128.8,408.219,128.8" transform="translate(-264.942 -93.321)" fill="#049ce7"/>
    <path id="Pfad_778" data-name="Pfad 778" d="M181.516,116.885V66.772H175.05v56.579h83.414v-6.466Z" transform="translate(-106.619 -40.67)" fill="#d0cde1"/>
    <path id="Pfad_779" data-name="Pfad 779" d="M572.276,548.953l3.54,4.13c1.315-.251,2.688-.545,4.1-.876l-1.017-3.253,2.486,2.9C596.372,548.168,614.946,541,614.946,541s-20.052,1.47-35.024-1.8a14.246,14.246,0,0,0-16.158,8.048c-1.58,3.611-1.332,6.739,4.272,6.739a37.011,37.011,0,0,0,5.648-.531Z" transform="translate(-400.917 -343.083)" fill="#2f2e41"/>
  </g>
</svg>
