<svg xmlns="http://www.w3.org/2000/svg" width="166.845" height="117.299" viewBox="0 0 166.845 117.299">
  <g id="Gruppe_73" data-name="Gruppe 73" transform="translate(0)">
    <path id="Pfad_1123" data-name="Pfad 1123" d="M411.94,348.37H400.416v.372h1.8v3.531h.372v-3.531h7v3.531h.372v-3.531h1.983Z" transform="translate(-325.002 -282.758)" fill="#3f3d56"/>
    <path id="Pfad_1124" data-name="Pfad 1124" d="M471.483,300.014h-2.974v2.974h1.379v10.02h.372v-10.02h1.223Z" transform="translate(-380.27 -243.509)" fill="#3f3d56"/>
    <rect id="Rechteck_197" data-name="Rechteck 197" width="11.524" height="0.372" transform="translate(75.437 64.5)" fill="#3f3d56"/>
    <rect id="Rechteck_198" data-name="Rechteck 198" width="11.524" height="0.372" transform="translate(75.437 63.571)" fill="#3f3d56"/>
    <rect id="Rechteck_199" data-name="Rechteck 199" width="11.524" height="0.372" transform="translate(75.437 62.641)" fill="#3f3d56"/>
    <path id="Pfad_1125" data-name="Pfad 1125" d="M496.831,374.007h-.372a31.969,31.969,0,0,0-63.938,0h-.372a32.341,32.341,0,1,1,64.681,0Z" transform="translate(-380.341 -303.42)" fill="#3f3d56"/>
    <circle id="Ellipse_213" data-name="Ellipse 213" cx="30.389" cy="30.389" r="30.389" transform="translate(0 0)" fill="#049ce7"/>
    <path id="Pfad_1126" data-name="Pfad 1126" d="M220.217,192.179a30.391,30.391,0,0,1-50.637,32.163,30.392,30.392,0,1,0,50.637-32.163Z" transform="translate(-167.223 -182.088)" opacity="0.2"/>
    <path id="Pfad_1127" data-name="Pfad 1127" d="M154.959,161.352h.083l1.5,86.158h-3.172Z" transform="translate(-124.487 -130.963)" fill="#3f3d56"/>
    <rect id="Rechteck_200" data-name="Rechteck 200" width="1.503" height="5.677" transform="translate(35.305 75.989) rotate(62.234)" fill="#3f3d56"/>
    <circle id="Ellipse_214" data-name="Ellipse 214" cx="24.596" cy="24.596" r="24.596" transform="translate(117.653 18.686)" fill="#049ce7"/>
    <path id="Pfad_1128" data-name="Pfad 1128" d="M832.867,281.178a24.6,24.6,0,0,1-40.984,26.032,24.6,24.6,0,1,0,40.984-26.032Z" transform="translate(-672.321 -254.324)" opacity="0.2"/>
    <path id="Pfad_1129" data-name="Pfad 1129" d="M750.1,229.806h.068l1.216,69.734h-2.568Z" transform="translate(-607.786 -186.524)" fill="#3f3d56"/>
    <rect id="Rechteck_201" data-name="Rechteck 201" width="1.216" height="4.595" transform="translate(146.228 80.189) rotate(62.234)" fill="#3f3d56"/>
    <circle id="Ellipse_215" data-name="Ellipse 215" cx="3.872" cy="3.872" r="3.872" transform="translate(65.796 56.718)" fill="#049ce7"/>
    <path id="Pfad_1130" data-name="Pfad 1130" d="M514.46,446.57a3.872,3.872,0,0,1-6.452,4.1,3.872,3.872,0,1,0,6.452-4.1Z" transform="translate(-441.912 -388.567)" opacity="0.2"/>
    <path id="Pfad_1131" data-name="Pfad 1131" d="M369.093,321.7h.011l.191,10.978h-.4Z" transform="translate(-299.414 -261.114)" fill="#3f3d56"/>
    <rect id="Rechteck_202" data-name="Rechteck 202" width="0.191" height="0.723" transform="translate(70.295 66.4) rotate(62.234)" fill="#3f3d56"/>
    <circle id="Ellipse_216" data-name="Ellipse 216" cx="9.913" cy="9.913" r="9.913" transform="translate(95.535 38.198)" fill="#049ce7"/>
    <path id="Pfad_1132" data-name="Pfad 1132" d="M684.911,358.887a9.913,9.913,0,0,1-16.517,10.491,9.913,9.913,0,1,0,16.517-10.491Z" transform="translate(-572.09 -317.398)" opacity="0.2"/>
    <path id="Pfad_1133" data-name="Pfad 1133" d="M557.793,255.443h.027l.49,28.1h-1.035Z" transform="translate(-452.318 -207.333)" fill="#3f3d56"/>
    <rect id="Rechteck_203" data-name="Rechteck 203" width="0.49" height="1.852" transform="translate(107.051 62.985) rotate(62.234)" fill="#3f3d56"/>
    <path id="Pfad_1134" data-name="Pfad 1134" d="M354.588,724.284a2.417,2.417,0,0,1,2.76-2.377" transform="translate(-317.387 -612.026)" fill="#3f3d56"/>
    <circle id="Ellipse_217" data-name="Ellipse 217" cx="1.317" cy="1.317" r="1.317" transform="translate(35.141 107.065)" fill="#049ce7"/>
    <rect id="Rechteck_204" data-name="Rechteck 204" width="0.372" height="2.602" transform="translate(36.244 110.599)" fill="#3f3d56"/>
    <path id="Pfad_1135" data-name="Pfad 1135" d="M403.931,691.717a2.417,2.417,0,0,1,2.76-2.377" transform="translate(-357.436 -585.593)" fill="#3f3d56"/>
    <circle id="Ellipse_218" data-name="Ellipse 218" cx="1.317" cy="1.317" r="1.317" transform="translate(44.434 100.931)" fill="#049ce7"/>
    <rect id="Rechteck_205" data-name="Rechteck 205" width="0.372" height="2.602" transform="translate(45.537 104.466)" fill="#3f3d56"/>
    <path id="Pfad_1136" data-name="Pfad 1136" d="M552.67,583.363a1.92,1.92,0,0,1,2.192-1.888" transform="translate(-478.162 -498.047)" fill="#3f3d56"/>
    <circle id="Ellipse_219" data-name="Ellipse 219" cx="1.046" cy="1.046" r="1.046" transform="translate(72.872 81.191)" fill="#049ce7"/>
    <rect id="Rechteck_206" data-name="Rechteck 206" width="0.295" height="2.067" transform="translate(73.748 83.998)" fill="#3f3d56"/>
    <path id="Pfad_1137" data-name="Pfad 1137" d="M769.779,547.836a1.92,1.92,0,0,1,2.192-1.888" transform="translate(-654.381 -469.212)" fill="#3f3d56"/>
    <circle id="Ellipse_220" data-name="Ellipse 220" cx="1.046" cy="1.046" r="1.046" transform="translate(113.762 74.5)" fill="#049ce7"/>
    <rect id="Rechteck_207" data-name="Rechteck 207" width="0.295" height="2.067" transform="translate(114.638 77.307)" fill="#3f3d56"/>
    <path id="Pfad_1138" data-name="Pfad 1138" d="M562.539,612.968a1.92,1.92,0,0,1,2.192-1.888" transform="translate(-486.172 -522.077)" fill="#3f3d56"/>
    <circle id="Ellipse_221" data-name="Ellipse 221" cx="1.046" cy="1.046" r="1.046" transform="translate(74.73 86.767)" fill="#049ce7"/>
    <rect id="Rechteck_208" data-name="Rechteck 208" width="0.295" height="2.067" transform="translate(75.606 89.574)" fill="#3f3d56"/>
    <path id="Pfad_1139" data-name="Pfad 1139" d="M538.854,634.679a1.92,1.92,0,0,1,2.192-1.888" transform="translate(-466.948 -539.698)" fill="#3f3d56"/>
    <circle id="Ellipse_222" data-name="Ellipse 222" cx="1.046" cy="1.046" r="1.046" transform="translate(70.27 90.856)" fill="#049ce7"/>
    <rect id="Rechteck_209" data-name="Rechteck 209" width="0.295" height="2.067" transform="translate(71.145 93.663)" fill="#3f3d56"/>
    <path id="Pfad_1140" data-name="Pfad 1140" d="M803.333,566.586a1.92,1.92,0,0,1,2.192-1.888" transform="translate(-681.615 -484.43)" fill="#3f3d56"/>
    <circle id="Ellipse_223" data-name="Ellipse 223" cx="1.046" cy="1.046" r="1.046" transform="translate(120.081 78.031)" fill="#049ce7"/>
    <rect id="Rechteck_210" data-name="Rechteck 210" width="0.295" height="2.067" transform="translate(120.957 80.838)" fill="#3f3d56"/>
    <path id="Pfad_1141" data-name="Pfad 1141" d="M483.59,591.257a1.92,1.92,0,0,1,2.192-1.888" transform="translate(-422.092 -504.455)" fill="#3f3d56"/>
    <circle id="Ellipse_224" data-name="Ellipse 224" cx="1.046" cy="1.046" r="1.046" transform="translate(59.861 82.678)" fill="#049ce7"/>
    <rect id="Rechteck_211" data-name="Rechteck 211" width="0.295" height="2.067" transform="translate(60.737 85.485)" fill="#3f3d56"/>
    <path id="Pfad_1142" data-name="Pfad 1142" d="M740.174,535.006a1.92,1.92,0,0,1,2.192-1.888" transform="translate(-630.351 -458.798)" fill="#3f3d56"/>
    <circle id="Ellipse_225" data-name="Ellipse 225" cx="1.046" cy="1.046" r="1.046" transform="translate(108.186 72.083)" fill="#049ce7"/>
    <rect id="Rechteck_212" data-name="Rechteck 212" width="0.295" height="2.067" transform="translate(109.062 74.891)" fill="#3f3d56"/>
    <path id="Pfad_1143" data-name="Pfad 1143" d="M268.731,727.244a2.417,2.417,0,0,1,2.76-2.377" transform="translate(-247.7 -614.429)" fill="#3f3d56"/>
    <circle id="Ellipse_226" data-name="Ellipse 226" cx="1.317" cy="1.317" r="1.317" transform="translate(18.971 107.622)" fill="#049ce7"/>
    <rect id="Rechteck_213" data-name="Rechteck 213" width="0.372" height="2.602" transform="translate(20.073 111.157)" fill="#3f3d56"/>
    <path id="Pfad_1144" data-name="Pfad 1144" d="M948.678,723.3a2.417,2.417,0,0,1,2.76-2.377" transform="translate(-799.586 -611.225)" fill="#3f3d56"/>
    <circle id="Ellipse_227" data-name="Ellipse 227" cx="1.317" cy="1.317" r="1.317" transform="translate(147.032 106.879)" fill="#049ce7"/>
    <rect id="Rechteck_214" data-name="Rechteck 214" width="0.372" height="2.602" transform="translate(148.135 110.413)" fill="#3f3d56"/>
    <path id="Pfad_1145" data-name="Pfad 1145" d="M891.44,689.744a2.417,2.417,0,0,1,2.76-2.377" transform="translate(-753.128 -583.991)" fill="#3f3d56"/>
    <circle id="Ellipse_228" data-name="Ellipse 228" cx="1.317" cy="1.317" r="1.317" transform="translate(136.252 100.559)" fill="#049ce7"/>
    <rect id="Rechteck_215" data-name="Rechteck 215" width="0.372" height="2.602" transform="translate(137.354 104.094)" fill="#3f3d56"/>
    <path id="Pfad_1146" data-name="Pfad 1146" d="M883.546,740.073a2.417,2.417,0,0,1,2.76-2.377" transform="translate(-746.721 -624.842)" fill="#3f3d56"/>
    <circle id="Ellipse_229" data-name="Ellipse 229" cx="1.317" cy="1.317" r="1.317" transform="translate(134.765 110.038)" fill="#049ce7"/>
    <rect id="Rechteck_216" data-name="Rechteck 216" width="0.372" height="2.602" transform="translate(135.867 113.573)" fill="#3f3d56"/>
    <path id="Pfad_1147" data-name="Pfad 1147" d="M280.091,551.829s58.548-15.427,57.99-31.225c-1.022-4.368-8.085-5.483-8.085-5.483s-16.728-2.23-7.62-7.62,34.013-4.089,34.013-4.089-25.649,4.089-14.312,6.319a179.372,179.372,0,0,1,20.817,2.974s23.791,5.018,27.136,17.285a43.436,43.436,0,0,1,.558,21.746Z" transform="translate(-256.92 -434.59)" fill="#e6e6e6"/>
    <path id="Pfad_1148" data-name="Pfad 1148" d="M617.728,757.234l-.219-.306q.465-.332.915-.661l.222.3Q618.193,756.9,617.728,757.234Z" transform="translate(-530.789 -639.935)" fill="#fff"/>
    <path id="Pfad_1149" data-name="Pfad 1149" d="M563.241,554.356l-.227-.3c.609-.461,1.208-.925,1.782-1.378l.234.3C564.453,553.428,563.852,553.893,563.241,554.356Zm3.545-2.806-.241-.29c.589-.489,1.165-.981,1.712-1.462l.249.283C567.957,550.564,567.378,551.058,566.786,551.55Zm3.4-2.989-.258-.275c.562-.527,1.1-1.055,1.611-1.569l.268.264c-.51.517-1.056,1.049-1.622,1.58Zm3.175-3.228-.28-.252c.516-.575,1.005-1.152,1.452-1.713l.295.235C574.372,544.17,573.879,544.752,573.358,545.332Zm2.816-3.553-.311-.212c.438-.642.833-1.282,1.174-1.9l.33.181C577.02,540.476,576.619,541.127,576.174,541.779Zm2.166-4-.351-.138a13.062,13.062,0,0,0,.64-2.126l.369.076a13.4,13.4,0,0,1-.658,2.188Zm.5-4.463a8.879,8.879,0,0,0-.3-2.167l.364-.1a9.264,9.264,0,0,1,.316,2.259Zm-1.127-4.2a11.359,11.359,0,0,0-1.254-1.82l.289-.242a11.737,11.737,0,0,1,1.3,1.881Zm-2.81-3.41a20.428,20.428,0,0,0-1.756-1.384l.217-.307a20.716,20.716,0,0,1,1.789,1.41Zm-3.644-2.6c-.616-.362-1.281-.724-1.975-1.074l.17-.336c.7.354,1.373.719,2,1.086Zm-4.011-2.037c-.656-.291-1.354-.584-2.076-.872l.139-.35c.726.289,1.429.584,2.089.877Zm-4.188-1.672c-.671-.243-1.389-.493-2.132-.742l.12-.357c.747.25,1.467.5,2.141.745Zm-4.281-1.44c-.656-.207-1.363-.425-2.161-.667l.109-.36c.8.242,1.507.46,2.164.668Zm-4.328-1.317c-.762-.228-1.489-.446-2.169-.655l.111-.36c.679.209,1.4.427,2.166.654Zm-4.329-1.354A17.912,17.912,0,0,1,548,514.44l.169-.337a17.488,17.488,0,0,0,2.075.834Zm-2.844-2.469-.269-.264a5.54,5.54,0,0,1,2.077-1.044l.12.357a5.328,5.328,0,0,0-1.928.951Zm4.083-1.564-.091-.366c.651-.162,1.394-.332,2.206-.5l.078.369c-.808.171-1.546.34-2.193.5Zm4.4-.945-.071-.37c.694-.133,1.442-.27,2.222-.408l.066.371c-.779.138-1.525.275-2.217.408Zm4.439-.79-.062-.372q1.065-.179,2.228-.365l.06.372Q561.267,509.347,560.2,509.525Z" transform="translate(-473.569 -439.067)" fill="#fff"/>
    <path id="Pfad_1150" data-name="Pfad 1150" d="M640.682,506.521l-.058-.372,1.118-.172.057.372Z" transform="translate(-549.551 -436.785)" fill="#fff"/>
    <path id="Pfad_1151" data-name="Pfad 1151" d="M674.175,299.737l1.711-1.368a1.813,1.813,0,0,0-2.1,1.152,2.915,2.915,0,0,0-2.169.134l3.423,1.243A2.59,2.59,0,0,0,674.175,299.737Z" transform="translate(-574.708 -268.262)" fill="#3f3d56"/>
    <path id="Pfad_1152" data-name="Pfad 1152" d="M505.422,355.988l1.711-1.368a1.813,1.813,0,0,0-2.1,1.152,2.914,2.914,0,0,0-2.169.134l3.423,1.243A2.591,2.591,0,0,0,505.422,355.988Z" transform="translate(-437.738 -313.918)" fill="#3f3d56"/>
    <path id="Pfad_1153" data-name="Pfad 1153" d="M549.831,239.538l1.711-1.368a1.813,1.813,0,0,0-2.1,1.152,2.914,2.914,0,0,0-2.169.134L550.7,240.7A2.591,2.591,0,0,0,549.831,239.538Z" transform="translate(-473.783 -219.401)" fill="#3f3d56"/>
    <path id="Pfad_1154" data-name="Pfad 1154" d="M651.214,569.04s-1.482,0-1.647.906-.412,10.786-.247,12.021.165.988.165.988-.328,2.347.412,2.45.74-2.7.74-2.7l.576-10.045Z" transform="translate(-556.565 -487.971)" fill="#9e616a"/>
    <path id="Pfad_1155" data-name="Pfad 1155" d="M693.707,569.04s1.482,0,1.647.906.412,10.786.247,12.021-.165.988-.165.988.328,2.347-.412,2.45-.74-2.7-.74-2.7l-.576-10.045Z" transform="translate(-592.636 -487.971)" fill="#9e616a"/>
    <path id="Pfad_1156" data-name="Pfad 1156" d="M649.073,750h-.659a1.482,1.482,0,0,0-1.482,1.482h4.034v-1.894h-1.893Z" transform="translate(-554.67 -634.511)" fill="#2f2e41"/>
    <path id="Pfad_1157" data-name="Pfad 1157" d="M683.8,750h.659a1.482,1.482,0,0,1,1.482,1.482H681.9v-1.894H683.8Z" transform="translate(-583.056 -634.511)" fill="#2f2e41"/>
    <circle id="Ellipse_230" data-name="Ellipse 230" cx="2.141" cy="2.141" r="2.141" transform="translate(95.061 74.894)" fill="#9e616a"/>
    <path id="Pfad_1158" data-name="Pfad 1158" d="M667.967,552.973s-.247,2.717-.576,2.964,3.458-.165,3.458-.165-1.317-1.976-1.07-2.635S667.967,552.973,667.967,552.973Z" transform="translate(-571.259 -474.785)" fill="#9e616a"/>
    <path id="Pfad_1159" data-name="Pfad 1159" d="M660.382,565.413s-4.528-1.894-7.492,0c0,0-.741,1.894-.165,2.964s1.482,3.623.576,5.352.082.988.082.988a50.714,50.714,0,0,0-1.317,8.233c-.165,3.623.494,16.631.988,16.714s2.058.247,2.223,0,1.317-17.455,1.317-17.455.494,17.619.988,17.619,1.811,0,2.058-.412,2.305-16.3,1.564-19.6-1.235-4.94-1.235-4.94.906-.576.659-.906-1.482-3.87-.906-4.446S660.382,565.413,660.382,565.413Z" transform="translate(-558.817 -484.344)" fill="#2f2e41"/>
    <circle id="Ellipse_231" data-name="Ellipse 231" cx="3.458" cy="3.458" r="3.458" transform="translate(95.102 72.287)" fill="#2f2e41"/>
    <path id="Pfad_1160" data-name="Pfad 1160" d="M683.875,519.977a2.329,2.329,0,0,1-1.757-2.692c-.01.035-.02.071-.028.107a2.329,2.329,0,1,0,4.535,1.066c.009-.036.016-.073.023-.109A2.329,2.329,0,0,1,683.875,519.977Z" transform="translate(-583.156 -445.963)" fill="#2f2e41"/>
    <circle id="Ellipse_232" data-name="Ellipse 232" cx="1.692" cy="1.692" r="1.692" transform="translate(99.168 71.08)" fill="#2f2e41"/>
  </g>
</svg>
