<svg id="Gruppe_75" data-name="Gruppe 75" xmlns="http://www.w3.org/2000/svg" width="326.115" height="264.406" viewBox="0 0 326.115 264.406">
  <ellipse id="Ellipse_234" data-name="Ellipse 234" cx="34.822" cy="7.369" rx="34.822" ry="7.369" transform="translate(200.179 249.667)" fill="#e6e6e6"/>
  <path id="Pfad_1166" data-name="Pfad 1166" d="M70.363,0H23.454L0,40.624,23.454,81.248H70.363L93.817,40.624Z" fill="#e6e6e6"/>
  <path id="Pfad_1167" data-name="Pfad 1167" d="M192.071,175.3h41.643l20.822-36.064L233.714,103.17H192.071l-20.822,36.064Z" transform="translate(-165.984 -98.61)" fill="#fff"/>
  <circle id="Ellipse_235" data-name="Ellipse 235" cx="1.921" cy="1.921" r="1.921" transform="translate(23.663 27.944)" fill="#e2e2e2"/>
  <circle id="Ellipse_236" data-name="Ellipse 236" cx="1.921" cy="1.921" r="1.921" transform="translate(23.663 38.703)" fill="#e2e2e2"/>
  <circle id="Ellipse_237" data-name="Ellipse 237" cx="1.921" cy="1.921" r="1.921" transform="translate(23.663 49.461)" fill="#e2e2e2"/>
  <rect id="Rechteck_218" data-name="Rechteck 218" width="36.501" height="3.074" transform="translate(33.653 28.329)" fill="#e2e2e2"/>
  <rect id="Rechteck_219" data-name="Rechteck 219" width="36.501" height="3.074" transform="translate(33.653 39.087)" fill="#e2e2e2"/>
  <rect id="Rechteck_220" data-name="Rechteck 220" width="36.501" height="3.074" transform="translate(33.653 49.845)" fill="#e2e2e2"/>
  <path id="Pfad_1168" data-name="Pfad 1168" d="M701.561,0H654.652L631.2,40.624l23.454,40.624h46.909l23.454-40.624Z" transform="translate(-398.9)" fill="#e6e6e6"/>
  <path id="Pfad_1169" data-name="Pfad 1169" d="M823.269,175.3h41.643l20.822-36.064L864.912,103.17H823.269l-20.822,36.064Z" transform="translate(-564.883 -98.61)" fill="#fff"/>
  <circle id="Ellipse_238" data-name="Ellipse 238" cx="1.921" cy="1.921" r="1.921" transform="translate(255.961 27.944)" fill="#e2e2e2"/>
  <circle id="Ellipse_239" data-name="Ellipse 239" cx="1.921" cy="1.921" r="1.921" transform="translate(255.961 38.703)" fill="#e2e2e2"/>
  <circle id="Ellipse_240" data-name="Ellipse 240" cx="1.921" cy="1.921" r="1.921" transform="translate(255.961 49.461)" fill="#e2e2e2"/>
  <rect id="Rechteck_221" data-name="Rechteck 221" width="36.501" height="3.074" transform="translate(265.951 28.329)" fill="#e2e2e2"/>
  <rect id="Rechteck_222" data-name="Rechteck 222" width="36.501" height="3.074" transform="translate(265.951 39.087)" fill="#e2e2e2"/>
  <rect id="Rechteck_223" data-name="Rechteck 223" width="36.501" height="3.074" transform="translate(265.951 49.845)" fill="#e2e2e2"/>
  <path id="Pfad_1170" data-name="Pfad 1170" d="M384.077,1.072H337.624L314.4,41.3l23.226,40.229h46.453L407.3,41.3Z" transform="translate(-198.691 -0.677)" fill="#e6e6e6"/>
  <path id="Pfad_1171" data-name="Pfad 1171" d="M506.128,175.549h41.239l20.619-35.714-20.619-35.713H506.128l-20.62,35.714Z" transform="translate(-364.587 -99.212)" fill="#fff"/>
  <circle id="Ellipse_241" data-name="Ellipse 241" cx="1.902" cy="1.902" r="1.902" transform="translate(139.14 28.067)" fill="#049ce7"/>
  <circle id="Ellipse_242" data-name="Ellipse 242" cx="1.902" cy="1.902" r="1.902" transform="translate(139.14 38.721)" fill="#049ce7"/>
  <circle id="Ellipse_243" data-name="Ellipse 243" cx="1.902" cy="1.902" r="1.902" transform="translate(139.14 49.375)" fill="#049ce7"/>
  <rect id="Rechteck_224" data-name="Rechteck 224" width="36.147" height="3.044" transform="translate(149.033 28.448)" fill="#049ce7"/>
  <rect id="Rechteck_225" data-name="Rechteck 225" width="36.147" height="3.044" transform="translate(149.033 39.102)" fill="#049ce7"/>
  <rect id="Rechteck_226" data-name="Rechteck 226" width="36.147" height="3.044" transform="translate(149.033 49.756)" fill="#049ce7"/>
  <path id="Pfad_1172" data-name="Pfad 1172" d="M757.079,283.1s3.8,14.193,7.038,15.137-17.246,3.889-17.246,3.889l-.452-12.72Z" transform="translate(-529.476 -212.32)" fill="#a0616a"/>
  <path id="Pfad_1173" data-name="Pfad 1173" d="M573,428.243l3.787,8.115,4.328-4.328-2.705-6.492Z" transform="translate(-362.119 -268.928)" fill="#a0616a"/>
  <path id="Pfad_1174" data-name="Pfad 1174" d="M693.462,415.013l-1.082,7.574-3.246-2.164v-8.115Z" transform="translate(-435.513 -260.567)" fill="#a0616a"/>
  <path id="Pfad_1175" data-name="Pfad 1175" d="M571.681,641.64l-1.623,12.985,8.656.541-1.082-13.526Z" transform="translate(-360.261 -405.499)" fill="#a0616a"/>
  <path id="Pfad_1176" data-name="Pfad 1176" d="M691.757,641.64l1.623,12.985-8.656.541,1.082-13.526Z" transform="translate(-432.727 -405.499)" fill="#a0616a"/>
  <path id="Pfad_1177" data-name="Pfad 1177" d="M729.1,511.908s-3.787,10.28-3.246,14.608-4.328,26.51-2.705,28.675a5.8,5.8,0,0,1,.541,6.492c-1.082,1.623-1.623-.541-1.082,2.164s-.541,16.231,0,18.4-1.623,2.705-.541,4.869,2.705,8.656,2.705,8.656l7.033-.541,1.082-5.951a3.223,3.223,0,0,0,2.705-3.787c-.541-3.246,2.705-24.887,2.705-24.887l9.2-30.3L760.475,557.9s.541,19.477,2.164,21.641-1.623,8.115,0,10.28a36.046,36.046,0,0,1,3.246,5.951H774V591.44s4.869-2.705,0-10.821l-1.082-46.529-3.246-22.182Z" transform="translate(-513.888 -356.921)" fill="#2f2e41"/>
  <path id="Pfad_1178" data-name="Pfad 1178" d="M728.958,760.827s-3.787-1.623-5.41-.541a1.911,1.911,0,0,1-2.705-.541s-2.164-1.082-2.705.541a15.983,15.983,0,0,1-1.623,3.246s-3.246,5.951-1.082,7.574,3.787,2.705,3.787,3.787,10.28,1.623,10.28,0S728.958,760.827,728.958,760.827Z" transform="translate(-509.422 -513.324)" fill="#2f2e41"/>
  <path id="Pfad_1179" data-name="Pfad 1179" d="M837.8,760.827s3.787-1.623,5.41-.541a1.911,1.911,0,0,0,2.705-.541s2.164-1.082,2.705.541a15.985,15.985,0,0,0,1.623,3.246s3.246,5.951,1.082,7.574-3.787,2.705-3.787,3.787-10.28,1.623-10.28,0S837.8,760.827,837.8,760.827Z" transform="translate(-586.882 -513.324)" fill="#2f2e41"/>
  <path id="Pfad_1180" data-name="Pfad 1180" d="M752.962,324.507s-15.149-5.951-23.264-3.787-21.641,11.9-21.1,14.067,5.681,27.322,5.681,27.322,0,15.149,2.705,20.018a27.927,27.927,0,0,1,3.246,8.656l-.541,5.41s14.067,1.082,21.641-2.164,20.018-1.082,20.018-1.082-6.492-27.052-9.739-31.38S752.962,324.507,752.962,324.507Z" transform="translate(-505.563 -235.796)" fill="#575a89"/>
  <path id="Pfad_1181" data-name="Pfad 1181" d="M705.223,356.08l-4.869,1.623s-4.328,6.492-4.328,10.821-.541,31.38,1.623,35.167,4.328,11.362,7.574,11.9l3.787,4.869,6.492-4.328-2.164-4.869Z" transform="translate(-497.59 -258.442)" fill="#575a89"/>
  <path id="Pfad_1182" data-name="Pfad 1182" d="M809.325,331.433l5.382-1.512,2.193.97s8.115,8.115,10.821,16.231,3.246,39.5,3.246,39.5.541,1.623,0,2.164a2.811,2.811,0,0,0-1.082,2.164,10.9,10.9,0,0,1-1.082,3.246l-.541,4.328-5.41-.541s-10.28-30.3-10.28-37.331S809.325,331.433,809.325,331.433Z" transform="translate(-569.23 -241.911)" fill="#575a89"/>
  <path id="Pfad_1183" data-name="Pfad 1183" d="M756.818,314.693s.157-2.649-1.466-3.19-3.787-3.246-8.115-2.164-15.69,2.705-16.231,3.787-2.164,1.623-1.623,2.705,1.623,0,.541,1.082-1.623.541-1.082,1.082.541,3.246.541,3.246,8.115,5.41,10.28,4.869,15.08-11.9,15.08-11.9Z" transform="translate(-518.232 -228.743)" fill="#575a89"/>
  <path id="Pfad_1184" data-name="Pfad 1184" d="M572.711,329.735l-.548,18.429,4.328,12.984Z" transform="translate(-361.591 -208.383)" opacity="0.2"/>
  <path id="Pfad_1185" data-name="Pfad 1185" d="M675.112,307.857l4.9,17.776-1.131,13.64Z" transform="translate(-426.652 -194.557)" opacity="0.2"/>
  <circle id="Ellipse_244" data-name="Ellipse 244" cx="11.484" cy="11.484" r="11.484" transform="translate(210.354 58.28)" fill="#a0616a"/>
  <path id="Pfad_1186" data-name="Pfad 1186" d="M727.759,252.045l2.431,6.211c1,2.545,2.137,5.268,4.472,6.689,2.883,1.754,6.733.9,9.522-1a14.87,14.87,0,0,0-6.693-27.064l-.115,2.079-2.551-2.138a2.48,2.48,0,0,1-3.855.545c.67,1.389-.1,3.083-1.22,4.147-1.372,1.307-5.3,2.878-5.134,5.215C724.725,248.287,727.126,250.429,727.759,252.045Z" transform="translate(-515.693 -183.074)" fill="#2f2e41"/>
</svg>
