<svg xmlns="http://www.w3.org/2000/svg" xmlns:xlink="http://www.w3.org/1999/xlink" width="883" height="711.86" viewBox="0 0 883 711.86"><defs><linearGradient id="a" x1="0.5" y1="1" x2="0.5" gradientUnits="objectBoundingBox"><stop offset="0" stop-color="gray" stop-opacity="0.251"/><stop offset="0.54" stop-color="gray" stop-opacity="0.122"/><stop offset="1" stop-color="gray" stop-opacity="0.102"/></linearGradient><linearGradient id="b" x1="0.5" y1="1" x2="0.5" y2="0" xlink:href="#a"/><linearGradient id="c" x1="38824.68" y1="4.008" x2="38824.68" y2="1.002" xlink:href="#a"/><linearGradient id="d" x1="170.49" y1="0.999" x2="170.49" y2="-0.002" xlink:href="#a"/><linearGradient id="e" x1="4.134" y1="3.41" x2="4.134" y2="2.409" gradientUnits="objectBoundingBox"><stop offset="0" stop-opacity="0.122"/><stop offset="0.55" stop-opacity="0.09"/><stop offset="1" stop-opacity="0.02"/></linearGradient></defs><g transform="translate(0.04)"><rect width="200.86" height="21.69" rx="9.96" transform="translate(636.34 24.91)" fill="#f2f2f2"/><rect width="200.86" height="21.69" rx="9.96" transform="translate(681.33 43.39)" fill="#f2f2f2"/><rect width="200.86" height="21.69" rx="9.96" transform="translate(605 59.46)" fill="#f2f2f2"/><rect width="200.86" height="21.69" rx="9.96" transform="translate(292.46 273.18)" fill="#f2f2f2"/><rect width="200.86" height="21.69" rx="9.96" transform="translate(337.45 291.66)" fill="#f2f2f2"/><rect width="200.86" height="21.69" rx="9.96" transform="translate(261.12 307.72)" fill="#f2f2f2"/><g opacity="0.5"><path d="M1011,780.22c-4.82,0-115.7,48.21-244.25-78.74-69.81-68.93-138.19-76.27-186.11-68.58C551.19,637.62,524.3,652,503,672.83c-17.13,16.82-58.59,39.74-155.73,33.48-149.44-9.64-188.81,97.22-188.81,97.22h883S1015.79,780.22,1011,780.22Z" transform="translate(-158.5 -94.07)" fill="url(#a)"/></g><path d="M158.5,805.93s39.37-106.86,188.81-97.22C444.45,715,485.92,692.05,503,675.24c21.26-20.87,48.14-35.21,77.56-39.93,47.92-7.69,116.31-.35,186.11,68.58,128.55,126.95,239.43,78.74,244.25,78.74s30.53,23.3,30.53,23.3Z" transform="translate(-158.5 -94.07)" fill="#f2f2f2"/><path d="M158.5,805.93s39.37-106.86,188.81-97.22C444.45,715,485.92,692.05,503,675.24c21.26-20.87,48.14-35.21,77.56-39.93,47.92-7.69,116.31-.35,186.11,68.58,128.55,126.95,239.43,78.74,244.25,78.74s30.53,23.3,30.53,23.3Z" transform="translate(-158.5 -94.07)" opacity="0.02"/><rect width="200.86" height="21.69" rx="9.96" transform="translate(91.59 123.73)" fill="#f2f2f2"/><rect width="200.86" height="21.69" rx="9.96" transform="translate(136.59 142.21)" fill="#f2f2f2"/><rect width="200.86" height="21.69" rx="9.96" transform="translate(60.26 158.28)" fill="#f2f2f2"/><g opacity="0.5"><circle cx="81.15" cy="81.15" r="81.15" transform="translate(118.11 0)" fill="url(#b)"/></g><circle cx="72.31" cy="72.31" r="72.31" transform="translate(126.95 8.84)" fill="#fccc63"/><rect width="62.9" height="46.73" transform="translate(160.98 590.63)" fill="#6c63ff"/><path d="M314,682.8l35.15-35.15a2.74,2.74,0,0,1,3.88,0l34.87,34.87a2.74,2.74,0,0,1-1.93,4.68l-70,.28A2.74,2.74,0,0,1,314,682.8Z" transform="translate(-158.5 -94.07)" fill="#6c63ff"/><path d="M314,682.8l35.15-35.15a2.74,2.74,0,0,1,3.88,0l34.87,34.87a2.74,2.74,0,0,1-1.93,4.68l-70,.28A2.74,2.74,0,0,1,314,682.8Z" transform="translate(-158.5 -94.07)" opacity="0.05"/><path d="M191.62,616.28h1.26a7.1,7.1,0,0,1,7.1,7.1v14H184.52v-14a7.1,7.1,0,0,1,7.1-7.1Z" fill="#fff"/><circle cx="3.87" cy="3.87" r="3.87" transform="translate(188.73 558.3)" fill="#fff"/><rect width="14.76" height="11.24" transform="translate(165.9 596.6)" fill="#fff"/><rect width="1.41" height="11.24" transform="translate(172.57 596.6)" fill="#6c63ff"/><rect width="14.76" height="11.24" transform="translate(205.25 596.6)" fill="#fff"/><rect width="1.41" height="11.24" transform="translate(211.93 596.6)" fill="#6c63ff"/><g opacity="0.2"><path d="M611,635.22Z" transform="translate(-158.5 -94.07)" fill="url(#c)"/></g><g opacity="0.2"><path d="M612.45,664.26h.12a.14.14,0,0,0,.09-.12.32.32,0,0,0,0-.12v-.1c-.1-.24-.33-.56-.46-.84l-.06-.15a1.152,1.152,0,0,1,0-.2v-.09l2.16-7.09h0l.05-.17s2.75,1.18,3.46,3.54a5.54,5.54,0,0,1,.06,3.55h0l-.05.12h.05v1.3h3c.21-.1-.07-.36-.35-.62l-.07-.07-.18-.19h0a.939.939,0,0,1-.13-.19l-.05-.12v-.07H620v-.11a10.21,10.21,0,0,0-3.06-9.66h0a10.459,10.459,0,0,0,0-6.65c.28-.2,5.73-4.14,5.69-9.24a6.973,6.973,0,0,0,0-.82s.47-.39,0-1.1v-.06h-.38a1.48,1.48,0,0,0-.61.2s-.31,1,0,1.26h-.08s-3.23,7-5.39,8l-.15-.09v-.91a1.124,1.124,0,0,0,0-.12h0a1.084,1.084,0,0,0,0-.11,2.45,2.45,0,0,0,.65-.49h0a2.456,2.456,0,0,0,.2-.24h0l.08-.12h0l.08-.14h0l.06-.13h0a2.433,2.433,0,0,0,.11-.29h0v-.12h0v-.15h0v-.12h0v-.16a2.429,2.429,0,0,0-.15-.84.349.349,0,0,0-.09-.22l-.05-.11-.07-.12a.8.8,0,0,1,.19-.17,1.13,1.13,0,0,1,.45-.14h.47a.7.7,0,0,0,.16-.09.73.73,0,0,1,.26-.14h-1.25l-.16-.07a.861.861,0,0,0,.26.06h.4l.06-.05h0v-.08h-.18a1.519,1.519,0,0,1-.41,0h-.42l-.12-.05h0A.66.66,0,0,0,617,638l.11-.07a.58.58,0,0,0,.2-.39.439.439,0,0,0,0-.19l-.07.06h-.06a1,1,0,0,1-.65.18h-.08a3,3,0,0,1-.59-.22l-.17-.06h-.91a3.05,3.05,0,0,0-2,.84,3,3,0,0,0-.34.4,3.921,3.921,0,0,1,.39-2.13h-.24l-.09.17a2,2,0,0,1,.27-.68h-.06a.81.81,0,0,0,0-1.08c-.47-.71-1.34-.16-1.34-.16a3.638,3.638,0,0,0-.14.71l-.14-.06c-.16.54-1.94,6.74,1,10.7a2.457,2.457,0,0,0,0,.25v6.68l-2,9.16h0l-.39,1.73,2.81.46Zm.5-21.65a2.439,2.439,0,0,0,.52.33,1.1,1.1,0,0,0,0,.19V644l-.17.08c-.13-.43-.24-.93-.36-1.47Z" transform="translate(-158.5 -94.07)" fill="url(#d)"/></g><path d="M622.66,636.93s.52-.44,0-1.22-1.48-.17-1.48-.17-.35,1.13,0,1.39S622.66,636.93,622.66,636.93Z" transform="translate(-158.5 -94.07)" fill="#ca7070"/><path d="M617.28,666.09h2.4a.79.79,0,0,0,.23.62c.32.37,1,.82.67,1h-3.3Z" transform="translate(-158.5 -94.07)" fill="#00695c"/><path d="M619.73,666.71a.79.79,0,0,1-.23-.62h.17a.79.79,0,0,0,.23.62c.32.37,1,.82.67,1h-.17C620.7,667.53,620.05,667.08,619.73,666.71Z" transform="translate(-158.5 -94.07)" fill="#fff" opacity="0.2"/><path d="M608.72,665.6l2.28.4a1.15,1.15,0,0,0,.1.79c.25.51.8,1.17.47,1.31l-3.25-.53Z" transform="translate(-158.5 -94.07)" fill="#00695c"/><path d="M609.82,635.87s-2.57,8.11,1.74,12.6l1.25-1s-2.55-8.85-1.12-10.93C609.17,635.75,609.82,635.87,609.82,635.87Z" transform="translate(-158.5 -94.07)" fill="#00695c"/><path d="M611.6,636.58s.52-.44,0-1.22-1.48-.17-1.48-.17-.35,1.13,0,1.39S611.6,636.58,611.6,636.58Z" transform="translate(-158.5 -94.07)" fill="#ca7070"/><path d="M610.9,666.75a1.149,1.149,0,0,1-.1-.79l-2.08-.34h0L611,666a1.15,1.15,0,0,0,.1.79c.25.51.8,1.17.47,1.31h-.14C611.65,667.86,611.14,667.24,610.9,666.75Z" transform="translate(-158.5 -94.07)" fill="#fff" opacity="0.2"/><rect width="2.44" height="3.62" rx="1.12" transform="translate(456.46 552.97) rotate(180)" fill="#ca7070"/><path d="M612.63,648s-2.52-8.74-1.15-10.89h.26c-1.43,2.08,1.12,10.93,1.12,10.93l-1.25,1-.11-.12Z" transform="translate(-158.5 -94.07)" fill="#fff" opacity="0.2"/><circle cx="2.7" cy="2.7" r="2.7" transform="translate(452.49 545.22)" fill="#ca7070"/><path d="M614.65,645.82v-1.18a1.211,1.211,0,0,0,0-.26,2.7,2.7,0,0,0-1.08-5.1h.15a2.7,2.7,0,0,1,1.24,5.1,1.21,1.21,0,0,1,0,.26v1.18a1.22,1.22,0,0,1-1.22,1.22h-.15a1.22,1.22,0,0,0,1.06-1.22Z" transform="translate(-158.5 -94.07)" fill="#fff" opacity="0.2"/><path d="M610.95,655.45s5.21.59,5.4,0a11.52,11.52,0,0,0,0-7.41,2.7,2.7,0,0,0-2.7-2.7h0a2.7,2.7,0,0,0-2.7,2.7Z" transform="translate(-158.5 -94.07)" fill="#00695c"/><path d="M610.95,655.45l-2.35,10.8h2.35l2.44-8s3,1.31,3.83,3.92a5.73,5.73,0,0,1,0,4.09h2.53v-.12a11.23,11.23,0,0,0-3.42-10.69h0" transform="translate(-158.5 -94.07)" fill="#263238"/><path d="M616,655.45a11.52,11.52,0,0,0,0-7.41,2.7,2.7,0,0,0-2.53-2.69h.17a2.7,2.7,0,0,1,2.7,2.7,11.52,11.52,0,0,1,0,7.41c-.07.21-.78.27-1.67.26C615.44,655.7,616,655.63,616,655.45Z" transform="translate(-158.5 -94.07)" fill="#fff" opacity="0.2"/><path d="M616.39,648s7-4.88,6.27-11.06H621.1s-3.75,8.1-6.14,8.89S616.39,648,616.39,648Z" transform="translate(-158.5 -94.07)" fill="#00695c"/><g opacity="0.2"><path d="M613.34,658.42l-2.39,7.87h-.35l2.44-8Z" transform="translate(-158.5 -94.07)" fill="#fff"/><path d="M616,655.49h.35a11.23,11.23,0,0,1,3.42,10.69v.12h-.35v-.12A11.23,11.23,0,0,0,616,655.49Z" transform="translate(-158.5 -94.07)" fill="#fff"/></g><path d="M622.4,637h.26c.7,6.19-6.27,11.06-6.27,11.06l-.17-.07C617,647.42,623.05,642.79,622.4,637Z" transform="translate(-158.5 -94.07)" fill="#fff" opacity="0.2"/><path d="M615.84,640.78a4.47,4.47,0,0,0-.31,1.09,2.92,2.92,0,0,1-1.24,1.9,2.74,2.74,0,0,1-1.21.33,2.31,2.31,0,0,1-1.79-.54,2.22,2.22,0,0,1-.55-1.1,3.74,3.74,0,0,1,1-3.44,3.32,3.32,0,0,1,3.45-.73,3.3,3.3,0,0,0,.66.24,1.09,1.09,0,0,0,1-.32.6.6,0,0,1-.58.78,1.68,1.68,0,0,0,1.29.07,1.09,1.09,0,0,1-1.38.55,3.69,3.69,0,0,0,1.56.32c-.11,0-.33.21-.47.25a2.989,2.989,0,0,1-.52,0A1,1,0,0,0,615.84,640.78Z" transform="translate(-158.5 -94.07)" fill="#263238"/><g opacity="0.2"><path d="M616.2,639a1.669,1.669,0,0,0,.64.16A1.68,1.68,0,0,1,616,639a.61.61,0,0,0,.61-.66l.14-.12a.6.6,0,0,1-.55.78Z" transform="translate(-158.5 -94.07)" fill="#fff"/><path d="M615.66,638.53a3.3,3.3,0,0,1-.66-.24,3,3,0,0,0-1-.21,3,3,0,0,1,1.21.21,3.3,3.3,0,0,0,.66.24h.09A1,1,0,0,1,615.66,638.53Z" transform="translate(-158.5 -94.07)" fill="#fff"/><path d="M617,640.18c.14,0,.36-.25.47-.25a3.691,3.691,0,0,1-1.56-.32,1,1,0,0,0,.35.07,3.69,3.69,0,0,0,1.39.24c-.11,0-.33.21-.47.25a1.16,1.16,0,0,1-.36,0Z" transform="translate(-158.5 -94.07)" fill="#fff"/><path d="M612.9,644.1a2.741,2.741,0,0,0,1.21-.33,2.92,2.92,0,0,0,1.24-1.9,4.467,4.467,0,0,1,.31-1.09,1,1,0,0,1,.85-.56h.17a1,1,0,0,0-.85.56,4.465,4.465,0,0,0-.31,1.09,2.92,2.92,0,0,1-1.24,1.9,2.74,2.74,0,0,1-1.21.33Z" transform="translate(-158.5 -94.07)" fill="#fff"/><path d="M616.41,639.69a1.1,1.1,0,0,0,.89-.57l.2-.06a1.1,1.1,0,0,1-1.09.63Z" transform="translate(-158.5 -94.07)" fill="#fff"/></g><path d="M622.49,636.93s.52-.44,0-1.22a.83.83,0,0,0-.65-.4.85.85,0,0,1,.82.4c.52.78,0,1.22,0,1.22a4.721,4.721,0,0,1-1,.11,5.157,5.157,0,0,0,.83-.11Z" transform="translate(-158.5 -94.07)" fill="#fff" opacity="0.2"/><path d="M634.41,627.22s-2.57,8.11,1.74,12.6l1.25-1s-2.55-8.85-1.12-10.93C633.76,627.1,634.41,627.22,634.41,627.22Z" transform="translate(-158.5 -94.07)" fill="#ff5252"/><path d="M636.19,627.94s.52-.44,0-1.22-1.48-.17-1.48-.17-.35,1.13,0,1.39S636.19,627.94,636.19,627.94Z" transform="translate(-158.5 -94.07)" fill="#f6b9ad"/><rect width="2.44" height="3.62" rx="1.12" transform="translate(481.05 544.33) rotate(180)" fill="#f6b9ad"/><path d="M637.22,639.39s-2.52-8.74-1.15-10.89h.26c-1.43,2.08,1.12,10.93,1.12,10.93l-1.25,1-.11-.12Z" transform="translate(-158.5 -94.07)" fill="#fff" opacity="0.2"/><circle cx="2.7" cy="2.7" r="2.7" transform="translate(477.08 536.57)" fill="#f6b9ad"/><path d="M639.24,637.17V636a1.211,1.211,0,0,0,0-.26,2.7,2.7,0,0,0-1.08-5.1h.15a2.7,2.7,0,0,1,1.24,5.1,1.211,1.211,0,0,1,0,.26v1.18a1.22,1.22,0,0,1-1.22,1.22h-.15a1.22,1.22,0,0,0,1.06-1.23Z" transform="translate(-158.5 -94.07)" fill="#fff" opacity="0.2"/><path d="M635.54,646.8s5.21.59,5.4,0c.62-1.9-1-4-.21-5a2.47,2.47,0,0,0,.21-2.44,2.7,2.7,0,0,0-2.7-2.7h0a2.7,2.7,0,0,0-2.7,2.7Z" transform="translate(-158.5 -94.07)" fill="#ff5252"/><path d="M640.74,641.84a2.47,2.47,0,0,0,.21-2.44,2.7,2.7,0,0,0-2.7-2.7h-.17a2.7,2.7,0,0,1,2.53,2.69,2.47,2.47,0,0,1-.21,2.44c-.84,1,.83,3.06.21,5-.06.18-.6.25-1.31.26.88,0,1.59-.05,1.66-.26C641.57,644.9,639.9,642.84,640.74,641.84Z" transform="translate(-158.5 -94.07)" fill="#fff" opacity="0.2"/><path d="M639.83,646.63h0a15.46,15.46,0,0,1,2.2,10.69v.12h-1.62a8.7,8.7,0,0,0,0-4.09,6.46,6.46,0,0,0-2.46-3.92l-1.57,8h-1.51l1.51-10.8Z" transform="translate(-158.5 -94.07)" fill="#f6b9ad"/><path d="M649,631.09s.63-.26.36-1.17-1.36-.6-1.36-.6-.67,1-.41,1.33S649,631.09,649,631.09Z" transform="translate(-158.5 -94.07)" fill="#f6b9ad"/><path d="M639.75,639.83s8.09-2.62,9.24-8.74l-1.5-.46s-6,6.65-8.48,6.7S639.75,639.83,639.75,639.83Z" transform="translate(-158.5 -94.07)" fill="#ff5252"/><path d="M648.71,631.1l.25.08c-1.15,6.12-9.24,8.74-9.24,8.74l-.14-.11C640.53,639.47,647.64,636.81,648.71,631.1Z" transform="translate(-158.5 -94.07)" fill="#fff" opacity="0.2"/><g opacity="0.2"><path d="M637.58,649.42l-1.57,8h.35l1.52-7.78q-.144-.117-.3-.22Z" transform="translate(-158.5 -94.07)" fill="#fff"/><path d="M639.83,646.63h-.35a15.46,15.46,0,0,1,2.2,10.69v.12H642v-.12a15.46,15.46,0,0,0-2.17-10.69Z" transform="translate(-158.5 -94.07)" fill="#fff"/></g><path d="M648.82,631s.63-.26.36-1.17a.83.83,0,0,0-.5-.57.85.85,0,0,1,.67.62c.27.9-.36,1.17-.36,1.17a4.722,4.722,0,0,1-1-.19A5.167,5.167,0,0,0,648.82,631Z" transform="translate(-158.5 -94.07)" fill="#fff" opacity="0.2"/><path d="M635.54,646.51l-3.28,6.92a40.612,40.612,0,0,1,5.71.69c3.63.69,5.36-1,5.36-1L641,646.51Z" transform="translate(-158.5 -94.07)" fill="#263238"/><path d="M636.41,657.4s1.73.35,1.38,1h-3.11l.17-1Z" transform="translate(-158.5 -94.07)" fill="#ff5252"/><path d="M641.94,657.4s1.73.35,1.38,1h-3.11l.17-1Z" transform="translate(-158.5 -94.07)" fill="#ff5252"/><path d="M640.73,631.12s-4.15,5.88-2.25,8.3l-7.43-.17S633.12,625.93,640.73,631.12Z" transform="translate(-158.5 -94.07)" fill="#fccc63"/><path d="M640.73,631.12a6.309,6.309,0,0,0-2.9-1.18,7.32,7.32,0,0,1,2,1s-4.15,5.88-2.25,8.3l-6.54-.15v.15l7.43.17C636.58,637,640.73,631.12,640.73,631.12Z" transform="translate(-158.5 -94.07)" fill="#fff" opacity="0.2"/><path d="M641,646.51h-.52l2.34,6.57a5.279,5.279,0,0,1-3.44,1.2,5.5,5.5,0,0,0,4-1.2Z" transform="translate(-158.5 -94.07)" fill="#fff" opacity="0.2"/><path d="M636.41,657.4h-.35s1.73.35,1.38,1h.35C638.14,657.74,636.41,657.4,636.41,657.4Z" transform="translate(-158.5 -94.07)" fill="#fff" opacity="0.2"/><path d="M641.94,657.4h-.35s1.73.35,1.38,1h.35C643.67,657.74,641.94,657.4,641.94,657.4Z" transform="translate(-158.5 -94.07)" fill="#fff" opacity="0.2"/><path d="M725.52,400.93l-9.64-53.84,30.53-1.49v55.33H767.3l20.89-59.46" fill="none" stroke="#b3b3b3" stroke-miterlimit="10" stroke-width="1"/><rect width="83.56" height="59.46" rx="27.3" transform="translate(704.63 395.3)" fill="#6c63ff"/><path d="M917.77,489.37h-24.1a29.82,29.82,0,0,0-29.73,29.73h0a16.552,16.552,0,0,0,.08,2,29.82,29.82,0,0,1,29.65-27.72h24.1a29.82,29.82,0,0,1,29.65,27.72c0-.66.08-1.33.08-2h0a29.82,29.82,0,0,0-29.73-29.73Z" transform="translate(-158.5 -94.07)" opacity="0.05"/><path d="M765.66,413.01l-7.89-6.19-19.08,24.17-10.26-7.95-6.42,8.16,14.92,11.4h0l3.7,2.97Z" fill="url(#e)"/><path d="M765.08,412.86l-7.16-5.48L738.97,432.1l-10.53-8.08-5.49,7.16,14.11,10.8h0l3.62,2.71Z" fill="#69f0ae"/><path d="M1031.67,328.46c0,68.66-57.36,124.32-118.43,124.32S789.58,397.12,789.58,328.46s62.59-124.32,123.67-124.32S1031.67,259.8,1031.67,328.46Z" transform="translate(-158.5 -94.07)" fill="url(#b)"/><path d="M1026,328.46c0,65.45-54.67,118.5-112.89,118.5s-117.88-53.05-117.88-118.5S854.91,210,913.12,210,1026,263,1026,328.46Z" transform="translate(-158.5 -94.07)" fill="#6c63ff"/><rect width="26.19" height="9.15" transform="translate(736.53 357.05)" fill="#6c63ff"/><g opacity="0.2"><path d="M913.12,209.55c-1.39,0-2.77,0-4.16.1,56.63,2.45,108.73,54.51,108.73,118.4S965.59,444,909,446.45c1.39.06,2.78.1,4.16.1,58.21,0,112.89-53.05,112.89-118.5S971.33,209.55,913.12,209.55Z" transform="translate(-158.5 -94.07)"/></g><g opacity="0.2"><path d="M801.9,328.46c0-64.51,58-117,115.38-118.46h-2.49c-58.21,0-117.88,53.05-117.88,118.5S856.57,447,914.78,447h2.49C859.87,445.44,801.9,393,801.9,328.46Z" transform="translate(-158.5 -94.07)" fill="#fff"/></g><rect width="75.26" height="24.53" transform="translate(713.25 336.26)" fill="#6c63ff"/><path d="M871.75,218.59s-89.39,102.18,0,219.74l29.52-.1s-81.49-97.12-3.74-227L883,214.54Z" transform="translate(-158.5 -94.07)" fill="#fff" opacity="0.2"/><path d="M949.5,217s89.39,103.74,0,221.3l-29.52-.1s81.49-98,3.74-227.85l14.55,2.91Z" transform="translate(-158.5 -94.07)" fill="#fff" opacity="0.2"/></g></svg>